<?xml version="1.0" encoding="UTF-8"?>
<svg width="20px" height="20px" viewBox="0 0 20 20" version="1.1" xmlns="http://www.w3.org/2000/svg" xmlns:xlink="http://www.w3.org/1999/xlink">
    <!-- Generator: Sketch 49.3 (51167) - http://www.bohemiancoding.com/sketch -->
    <title>icon/tools/tools-outline-black</title>
    <desc>Created with Sketch.</desc>
    <defs></defs>
    <g id="Page-1" stroke="none" stroke-width="1" fill="none" fill-rule="evenodd">
        <g id="Home-Splash-Page-edits" transform="translate(-187.000000, -738.000000)" fill="#334146">
            <g id="program" transform="translate(0.000000, 473.000000)">
                <g id="3-things" transform="translate(185.000000, 262.000000)">
                    <g id="tools" transform="translate(2.000000, 0.000000)">
                        <g id="icon/tools/tools-outline-black" transform="translate(0.000000, 3.000000)">
                            <path d="M4.53484129,4.75975309 C4.16441093,5.13012346 4.16441093,5.73197531 4.53484129,6.10138272 C4.72053928,6.2865679 4.96330846,6.37819753 5.20701851,6.37819753 C5.45072855,6.37819753 5.69448812,6.28560494 5.87919573,6.10138272 C6.24962608,5.73197531 6.24962608,5.13012346 5.87919573,4.75975309 C5.50876537,4.38938272 4.90524689,4.38938272 4.53481653,4.75975309 L4.53484129,4.75975309 Z M5.53005874,5.75222222 C5.35209816,5.92969136 5.06291686,5.92969136 4.88494391,5.75222222 C4.70697095,5.57475309 4.70698333,5.28637037 4.88494391,5.10888889 C4.97392543,5.02015309 5.0899842,4.97578765 5.20701851,4.97578765 C5.32405281,4.97578765 5.4401091,5.02015556 5.52909311,5.10888889 C5.70705369,5.28635802 5.70705369,5.57474074 5.53006121,5.75222222 L5.53005874,5.75222222 Z" id="Fill-1"></path>
                            <path d="M0.595251822,17.7960494 C0.590322663,18.3236296 0.798346775,18.8193827 1.17890153,19.191679 C1.55551648,19.5601235 2.05537302,19.7626659 2.58773727,19.7626659 L2.60548274,19.7626659 C3.14476245,19.7578435 3.64757194,19.5466173 4.02123394,19.1675556 L10.3201078,12.7882963 L16.5962665,19.1134815 C16.9462545,19.4693827 17.416531,19.6671111 17.9203248,19.6728889 L17.9390571,19.6728889 C18.436945,19.6728889 18.903259,19.4838469 19.2562251,19.1395062 C19.6131285,18.7903457 19.8073419,18.3264198 19.801436,17.8325926 C19.7965068,17.3397284 19.5934119,16.8796543 19.2306077,16.5382222 L12.7227557,10.3547654 L13.9137292,9.1491358 C14.009362,9.05268395 14.0073883,8.9002963 13.9117581,8.80481481 L15.519754,7.2317037 C15.8086133,7.04459012 16.089598,7.00311605 16.3784573,7.10342469 C17.561531,7.51623951 18.5878459,10.1513259 18.8836207,11.131079 C18.9141824,11.233316 19.0088283,11.3046889 19.1182642,11.3075827 L19.1261514,11.3075827 C19.2316425,11.3075827 19.3272752,11.2429605 19.3627661,11.1455457 C20.6799342,7.61542222 17.7823816,4.72480494 17.7528016,4.6969037 L16.2503042,3.22700247 C16.0038312,2.98683951 15.5936889,2.99648642 15.3206039,3.26365432 C15.2594778,3.32345432 15.1677899,3.3340642 15.1184958,3.28776543 L14.3169586,2.50361728 C14.291326,2.47854074 14.2775228,2.44092346 14.2775228,2.40330864 C14.2775228,2.37726667 14.28541,2.33965185 14.3189298,2.30782222 C14.4520246,2.1834 14.5308962,2.01076049 14.5328699,1.83520494 C14.534841,1.66930864 14.4717438,1.51498272 14.3554075,1.40118025 L13.0323336,0.106809877 C12.9337454,0.0103604938 12.7740386,0.0103604938 12.6754302,0.106809877 L9.9582096,2.76508148 C9.85961886,2.86153086 9.85961886,3.01777284 9.9582096,3.11424198 L11.2812835,4.40861235 C11.5267723,4.64973827 11.9378989,4.63816543 12.1971782,4.3854642 C12.230698,4.3526716 12.2721075,4.33434568 12.3135144,4.33241728 C12.339147,4.33241728 12.3716825,4.33627654 12.398302,4.36135309 L13.2106919,5.15611852 C13.2373114,5.18216049 13.2412537,5.21495309 13.2402694,5.23906667 C13.2382982,5.28054074 13.2195659,5.32104938 13.1860461,5.35287901 L11.782132,6.7263358 C11.6845281,6.64531605 11.5386169,6.64531605 11.4449654,6.73405185 L10.174136,7.93486667 L7.88489151,5.76086667 C8.53754438,4.21669383 8.17869762,2.4179037 6.96604389,1.2304963 C5.43199794,-0.270269136 2.99874023,-0.403380247 1.3059668,0.922817284 C1.24976985,0.967185185 1.21625006,1.03180741 1.21230774,1.10221481 C1.20836543,1.17165926 1.23498238,1.2411037 1.28526332,1.29029383 L3.91566212,3.86362716 L3.36848264,4.3989358 L1.18375244,2.26160247 C1.1334715,2.21144938 1.05854475,2.18637037 0.991502648,2.19022963 C0.919531383,2.19408889 0.853476118,2.22784444 0.808126852,2.28185679 C-0.273410755,3.60323951 -0.183686443,5.49074568 1.00234781,6.71272099 L0.95108254,6.76287407 C0.852491801,6.85932346 0.852491801,7.01556543 0.95108254,7.11203457 C2.16373626,8.29838025 4.00347585,8.64946667 5.58191704,8.01094815 L7.76369428,10.2100099 L1.20460735,16.4107506 C0.816155348,16.7763062 0.601246062,17.2691704 0.595314919,17.7957877 L0.595251822,17.7960494 Z M13.5430631,5.70222222 C13.6653153,5.58262222 13.737284,5.42540741 13.7441869,5.26046914 C13.752074,5.08782222 13.6889768,4.92577778 13.5667245,4.80716049 L12.7553442,4.01338272 C12.633092,3.89378272 12.4684535,3.83494815 12.2919831,3.83977284 C12.1233948,3.84652346 11.9626911,3.91693333 11.8404338,4.03653333 C11.7793077,4.09633333 11.686633,4.10694321 11.6383257,4.05968148 L10.4936909,2.93987901 L12.8549167,0.629879012 L13.998542,1.74869383 C14.0241747,1.77377037 14.0291038,1.8056 14.0291038,1.82778272 C14.028117,1.87118519 14.0074135,1.91555309 13.9709357,1.94931111 C13.845728,2.06601728 13.7757279,2.2242 13.7737568,2.39587901 C13.7717856,2.56755802 13.839812,2.73345926 13.9610774,2.85210123 L14.7626146,3.63624938 C15.0081033,3.87641235 15.41923,3.86580247 15.6923149,3.59863457 C15.753441,3.53883457 15.8461132,3.52822469 15.894423,3.57548642 L17.3969204,5.04538765 C17.4215662,5.0704642 19.695049,7.33704198 19.1054681,10.2256346 C18.6785773,9.09136296 17.7626826,7.06020247 16.5490193,6.63674568 C16.09747,6.4785679 15.648899,6.54608148 15.2170865,6.83446914 C15.2042702,6.84314815 15.1924382,6.85279506 15.1806087,6.86340494 L13.5548698,8.45387407 L12.1410873,7.07076296 L13.5430631,5.70222222 Z M11.6176122,7.25797531 L13.3784297,8.98059259 L12.3609989,10.0116543 L10.5370841,8.27940741 L11.6176122,7.25797531 Z M1.03594836,2.81649383 L3.01167517,4.74935802 L1.35930923,6.36587654 C0.421734342,5.38883951 0.295539811,3.92182716 1.03594836,2.81649383 Z M5.64103918,7.47130864 C5.60456139,7.47130864 5.56906791,7.47902469 5.53456128,7.49445679 C4.1888228,8.10596296 2.59650022,7.87544444 1.49229807,6.93408642 L4.45004548,4.04050617 C4.5486337,3.94405679 4.5486337,3.78781481 4.45004548,3.69134568 L1.84816665,1.14319753 C3.32406216,0.154580247 5.32356402,0.322407407 6.60797196,1.57914815 C7.71414274,2.66132099 8.01385475,4.32309877 7.3533021,5.71396296 C7.30795031,5.80944938 7.32964062,5.9222963 7.40654104,5.99559259 L18.8804002,16.8926296 C19.1456106,17.1424321 19.2934853,17.4771235 19.2964383,17.8368765 C19.3003806,18.1966296 19.1584118,18.5351728 18.8991274,18.7898148 C18.6388638,19.0444321 18.2849134,19.1852716 17.9260414,19.1785062 C17.5583105,19.1746469 17.2152129,19.0299728 16.9598708,18.7705309 L5.82219395,7.54559259 C5.77388416,7.49640247 5.70783142,7.47132593 5.64078931,7.47132593 L5.64103918,7.47130864 Z M8.11563821,10.5663704 L9.969133,12.4336543 L3.65940646,18.8245185 C3.38039035,19.1071111 3.00475971,19.2653086 2.60252727,19.2691605 C2.20915368,19.2643358 1.82168599,19.1206272 1.53676398,18.8428395 C1.25184196,18.5640988 1.09803607,18.1937284 1.10098902,17.8001975 C1.10493134,17.4066667 1.2656325,17.0392099 1.55549124,16.7662469 L8.11563821,10.5663704 Z" id="Fill-2"></path>
                        </g>
                    </g>
                </g>
            </g>
        </g>
    </g>
</svg>