<?xml version="1.0" encoding="UTF-8"?>
<svg width="432px" height="392px" viewBox="0 0 432 392" version="1.1" xmlns="http://www.w3.org/2000/svg" xmlns:xlink="http://www.w3.org/1999/xlink">
    <!-- Generator: Sketch 50.2 (55047) - http://www.bohemiancoding.com/sketch -->
    <title>faq-bg</title>
    <desc>Created with Sketch.</desc>
    <defs></defs>
    <g id="Page-1" stroke="none" stroke-width="1" fill="none" fill-rule="evenodd" fill-opacity="0.2">
        <g id="Home" transform="translate(-43.000000, -999.000000)" fill="#001218" fill-rule="nonzero">
            <g id="faq-bg" transform="translate(43.000000, 999.000000)">
                <path d="M225.5,391 C326.844252,391 409,308.844252 409,207.5 C409,106.155748 326.844252,24 225.5,24 C124.155748,24 42,106.155748 42,207.5 C42,308.844252 124.155748,391 225.5,391 Z M225.5,392 C123.603464,392 41,309.396536 41,207.5 C41,105.603464 123.603464,23 225.5,23 C327.396536,23 410,105.603464 410,207.5 C410,309.396536 327.396536,392 225.5,392 Z" id="Oval-3-Copy-2"></path>
                <path d="M95,189 C146.914766,189 189,146.914766 189,95 C189,43.0852335 146.914766,1 95,1 C43.0852335,1 1,43.0852335 1,95 C1,146.914766 43.0852335,189 95,189 Z M95,190 C42.5329488,190 0,147.467051 0,95 C0,42.5329488 42.5329488,0 95,0 C147.467051,0 190,42.5329488 190,95 C190,147.467051 147.467051,190 95,190 Z" id="Oval-3"></path>
                <path d="M380,360 C408.166522,360 431,337.166522 431,309 C431,280.833478 408.166522,258 380,258 C351.833478,258 329,280.833478 329,309 C329,337.166522 351.833478,360 380,360 Z M380,361 C351.281193,361 328,337.718807 328,309 C328,280.281193 351.281193,257 380,257 C408.718807,257 432,280.281193 432,309 C432,337.718807 408.718807,361 380,361 Z" id="Oval-3-Copy"></path>
                <path d="M75,391 C85.4934102,391 94,382.49341 94,372 C94,361.50659 85.4934102,353 75,353 C64.5065898,353 56,361.50659 56,372 C56,382.49341 64.5065898,391 75,391 Z M75,392 C63.954305,392 55,383.045695 55,372 C55,360.954305 63.954305,352 75,352 C86.045695,352 95,360.954305 95,372 C95,383.045695 86.045695,392 75,392 Z" id="Oval-3-Copy-3"></path>
            </g>
        </g>
    </g>
</svg>