<?xml version="1.0" encoding="UTF-8"?>
<svg width="148px" height="157px" viewBox="0 0 148 157" version="1.1" xmlns="http://www.w3.org/2000/svg" xmlns:xlink="http://www.w3.org/1999/xlink">
    <!-- Generator: Sketch 50.2 (55047) - http://www.bohemiancoding.com/sketch -->
    <title>adventure</title>
    <desc>Created with Sketch.</desc>
    <defs></defs>
    <g id="Page-1" stroke="none" stroke-width="1" fill="none" fill-rule="evenodd">
        <g id="Artboard" transform="translate(-39.000000, -14.000000)">
            <g id="schedule-graphic" transform="translate(39.000000, 14.000000)">
                <g id="adventure">
                    <path d="M121.488754,70.7813404 C122.523599,71.4038619 122.733797,72.6408331 122.111276,73.6755954 C120.866233,75.3329621 119.629303,77.1924133 118.384177,78.6395408 C117.971854,79.0518645 117.349332,79.4641882 116.726811,79.4641882 C116.314487,79.4641882 115.902163,79.2539905 115.481768,79.0518645 C114.65712,78.429343 114.446922,76.9821741 115.27157,76.1576095 C116.516613,74.7104406 117.551541,73.053074 118.788388,71.3956659 C119.216876,70.3689133 120.664045,70.1586948 121.488713,70.7812163 L121.488754,70.7813404 Z" id="Fill-1" fill="#334146"></path>
                    <path d="M101.203719,93.3471744 C99.5463523,94.3820196 97.6869011,95.4168647 95.8192125,96.4517099 C95.4068888,96.6619077 95.1966911,96.6619077 94.7843674,96.6619077 C93.9597199,96.6619077 93.3371985,96.249584 92.9248748,95.6270625 C92.3023533,94.5922173 92.714677,93.3470916 93.7495222,92.7328075 C95.6090148,91.6979623 97.26634,90.8733149 98.9237481,89.8385525 C99.9585933,89.216031 101.203719,89.6283548 101.818003,90.461074 C102.448617,91.4797549 102.036293,92.7249013 101.203574,93.3472572 L101.203719,93.3471744 Z" id="Fill-2" fill="#334146"></path>
                    <path d="M131.214229,40.3589619 C129.969186,40.3589619 129.144539,39.3241167 129.354737,38.078991 C129.564934,36.2194984 129.564934,34.1498909 129.564934,32.0802005 C129.564934,31.0453553 130.599779,30.0105101 131.634625,30.0105101 C132.879668,30.0105101 133.704315,31.0453553 133.704315,32.0802005 C133.704315,34.1498909 133.494117,36.2195812 133.291991,38.2892716 C133.283919,39.5343145 132.459272,40.3589619 131.214229,40.3589619 C131.424427,40.3589619 131.214229,40.3589619 131.214229,40.3589619 Z" id="Fill-3" fill="#334146"></path>
                    <path d="M126.251112,66.4411998 C125.838788,67.2658472 125.216266,67.6862427 124.391619,67.6862427 C124.181421,67.6862427 123.769098,67.6862427 123.566972,67.476045 C122.532126,67.0637212 122.119803,65.8186783 122.532126,64.7837917 C123.356774,63.1264251 124.189493,61.2669739 124.812097,59.3992853 C125.224421,58.3644401 126.469464,57.7419187 127.504351,58.1542424 C128.539196,58.5665661 129.161717,59.811609 128.749393,60.8464956 C127.908582,62.5038622 127.075863,64.573594 126.251277,66.4410756 L126.251112,66.4411998 Z" id="Fill-4" fill="#334146"></path>
                    <path d="M110.316566,86.7158865 C109.491918,87.338408 108.659199,87.9609294 107.834593,88.5753791 C107.422269,88.7855768 107.009946,88.9877028 106.58955,88.9877028 C105.967029,88.9877028 105.344507,88.7775051 104.932183,88.1630554 C104.309662,87.338408 104.309662,85.8830845 105.344507,85.2688004 C106.169154,84.6462789 106.791676,84.0237575 107.624478,83.4093078 C108.449125,82.7867863 109.071647,82.1642649 109.694168,81.5498152 C110.518816,80.7251678 111.763859,80.7251678 112.588423,81.5498152 C113.413071,82.3744626 113.413071,83.6195055 112.588423,84.4440702 C111.973974,85.4789154 111.141254,86.1014368 110.316524,86.7159693 L110.316566,86.7158865 Z" id="Fill-5" fill="#334146"></path>
                    <path d="M88.5848169,100.168874 C86.7253243,100.993521 84.8577185,101.82624 82.9983087,102.650846 C82.7881109,102.861044 82.3757872,102.861044 82.1736612,102.861044 C81.3490138,102.861044 80.5162946,102.448721 80.3141686,101.616001 C79.9018449,100.581156 80.3141686,99.3360304 81.3490138,98.9237481 C83.2085064,98.0991007 85.0761122,97.2663814 86.7335203,96.4417754 C87.7683654,96.0294517 89.0134911,96.4417754 89.4257735,97.4766206 C90.0321306,98.5195583 89.6198069,99.7565915 88.5849618,100.168874 L88.5848169,100.168874 Z" id="Fill-6" fill="#334146"></path>
                    <path d="M25.2481526,126.040003 C25.8706741,126.864651 25.6604764,128.319974 24.8358289,128.934258 C23.1784623,130.179301 21.7312934,131.416231 20.2841659,132.661357 C19.8718422,133.07368 19.4595185,133.283878 18.836997,133.283878 C18.2144755,133.283878 17.8021518,133.07368 17.3898281,132.661357 C16.5651807,131.836709 16.7673067,130.591666 17.6000259,129.767102 C19.0471948,128.319933 20.7045614,127.074848 22.3619694,125.838001 C23.1785244,124.803156 24.6257967,125.005282 25.2481526,126.040127 L25.2481526,126.040003 Z" id="Fill-7" fill="#334146"></path>
                    <path d="M8.48986984,140.950053 C9.31451726,139.09056 10.5595602,137.433235 11.8046859,135.775827 C12.4272074,134.951179 13.8743763,134.740981 14.6989409,135.363503 C15.5235883,135.986024 15.7337861,137.433193 15.1112646,138.257758 C14.0764194,139.704927 13.0415743,141.362293 12.2170096,143.019702 C11.8046859,143.642223 11.1821644,144.054547 10.357517,144.054547 C9.94519331,144.054547 9.73499555,144.054547 9.32267184,143.844349 C8.48995262,143.221827 8.06953642,141.984856 8.48995262,140.950094 L8.48986984,140.950053 Z" id="Fill-8" fill="#334146"></path>
                    <path d="M34.7728677,118.183459 C35.8077128,117.771135 37.0528385,117.973261 37.4651209,119.008106 C37.8774446,120.042951 37.6753186,121.288077 36.6404734,121.700359 C34.7809808,122.735204 33.1236556,123.559852 31.4662476,124.594614 C31.0539238,124.804812 30.8437261,124.804812 30.4314024,124.804812 C29.8088809,124.804812 28.9842335,124.392488 28.5719098,123.769967 C27.9493883,122.735122 28.361712,121.489996 29.3965572,120.875712 C31.045852,120.042993 32.7033015,119.008147 34.7729918,118.183459 L34.7728677,118.183459 Z" id="Fill-9" fill="#334146"></path>
                    <path d="M47.6028782,112.175148 C48.6377233,111.762824 49.8828491,112.175148 50.2951314,113.209993 C50.7074137,114.244838 50.2951314,115.489964 49.2602862,115.902246 C47.4007936,116.726893 45.5331878,117.559613 43.673778,118.182217 C43.4635802,118.392415 43.0512565,118.392415 42.8491306,118.392415 C42.0244831,118.392415 41.4019617,117.980091 40.989638,117.147372 C40.5773143,116.112526 40.989638,114.867401 42.0244831,114.455118 C43.8758833,113.832597 45.7435097,113.00795 47.6029196,112.175148 L47.6028782,112.175148 Z" id="Fill-10" fill="#334146"></path>
                    <path d="M73.885876,101.826696 C74.9207212,101.414372 76.1658469,101.826696 76.5781292,103.071739 C76.9904529,104.106584 76.5781292,105.35171 75.3330863,105.763992 C73.4735937,106.588639 71.6059879,107.211161 69.7465781,108.043963 C69.5363803,108.043963 69.3342543,108.254161 68.9219306,108.254161 C68.0972832,108.254161 67.264564,107.841837 67.062438,107.009118 C66.6501143,105.974272 67.2726358,104.729147 68.307481,104.316864 C70.1588811,103.484145 72.0265076,102.659498 73.8859174,101.82682 L73.885876,101.826696 Z" id="Fill-11" fill="#334146"></path>
                    <path d="M60.8447571,107.000922 C61.8796022,106.588598 63.1247279,107.211119 63.5370103,108.245965 C63.9492926,109.28081 63.3268125,110.525935 62.2919673,110.938218 C60.4324747,111.560739 58.5648689,112.385387 56.7054591,113.218189 C56.4952614,113.218189 56.2931354,113.428386 55.8808117,113.428386 C55.0561643,113.428386 54.2234451,113.016063 54.0213191,112.183344 C53.6089954,111.148498 54.2315169,109.903373 55.266362,109.49109 C57.1258546,108.448153 58.9853886,107.833724 60.8447984,107.001046 L60.8447571,107.000922 Z" id="Fill-12" fill="#334146"></path>
                    <path d="M129.144539,54.2238176 L128.732215,54.2238176 C127.69737,54.0136199 126.872722,52.7766487 127.285046,51.7418449 C127.69737,49.8823523 128.109694,48.0147465 128.530089,45.9450562 C128.740287,44.910211 129.775132,44.0855636 131.012062,44.2876895 C132.046907,44.4978873 132.871554,45.5327325 132.669428,46.7696622 C132.257105,48.8393526 131.844781,50.9090429 131.424385,52.7684527 C130.801864,53.601172 129.977217,54.2236934 129.144415,54.2236934 L129.144539,54.2238176 Z" id="Fill-13" fill="#334146"></path>
                    <path d="M8.90173822,154.814908 C8.90173822,155.849753 7.86689304,156.674401 6.83204786,156.674401 L6.62185011,156.674401 C5.37680718,156.674401 4.55215975,155.639556 4.76235751,154.39443 C4.97255526,152.32474 5.17468122,150.255049 5.58700493,148.395639 C5.79720268,147.360794 7.03417382,146.536147 8.06897761,146.948471 C9.10382278,147.158668 9.92847021,148.395639 9.5161465,149.430443 C9.31402054,151.08781 9.10382278,152.947261 8.90169682,154.81495 L8.90173822,154.814908 Z" id="Fill-14" fill="#334146"></path>
                    <path d="M142.185658,23.1784623 C141.773334,23.590786 141.150813,23.8009837 140.738489,23.8009837 C140.326165,23.8009837 139.703644,23.590786 139.29132,23.1784623 L131.837123,15.7242655 L124.180925,23.1784623 C123.768601,23.590786 123.146079,23.8009837 122.733756,23.8009837 C122.321432,23.8009837 121.698911,23.590786 121.286587,23.1784623 C120.461939,22.3538149 120.461939,21.1087719 121.286587,20.2842073 L128.740784,12.8300105 L121.286587,5.37581373 C120.461939,4.5511663 120.461939,3.30612337 121.286587,2.48155874 C122.111234,1.65691131 123.356277,1.65691131 124.180842,2.48155874 L131.635039,9.93575552 L139.089235,2.48155874 C139.913883,1.65691131 141.158926,1.65691131 141.98349,2.48155874 C142.808138,3.30620616 142.808138,4.55124909 141.98349,5.37581373 L134.529294,12.8300105 L141.98349,20.2842073 C142.808138,21.1088547 142.808138,22.3538976 142.185596,23.1784623 L142.185658,23.1784623 Z" id="Fill-15" fill="#FB3780"></path>
                    <path d="M35.5966044,39.5352252 C36.4212518,40.3598726 36.4212518,41.6049155 35.5966044,42.4294802 C35.1842807,42.8418039 34.5617592,43.0520016 34.1494355,43.0520016 C33.5269141,43.0520016 33.1145903,42.8418039 32.7022666,42.4294802 L21.9415325,31.6687461 L21.9415325,52.777518 C21.9415325,54.0225609 21.1168851,54.8472083 19.8718422,54.8472083 C18.6267993,54.8472083 17.8021518,54.0225609 17.8021518,52.777518 L17.8021518,31.6687461 L7.04141774,42.4294802 C6.21677031,43.2541276 4.97172738,43.2541276 4.14716275,42.4294802 C3.32251532,41.6048327 3.32251532,40.3597898 4.14716275,39.5352252 L17.8104306,25.8719573 L17.8104306,19.6628862 L7.0496965,30.4236203 C6.62120851,31.0461418 5.99868704,31.0461418 5.58636333,31.0461418 C4.96384186,31.0461418 4.55151815,30.8359441 4.13919444,30.4236203 C3.31454701,29.5989729 3.31454701,28.35393 4.13919444,27.5293653 L17.8024623,13.8660975 L17.8024623,7.65702644 L7.0336564,18.6280411 C6.20900897,19.4526885 4.96396604,19.4526885 4.13940141,18.6280411 C3.31483677,17.8033936 3.31475398,16.5583507 4.13940141,15.7337861 L18.4169534,1.45623413 C18.8292771,1.04391042 19.2416008,0.833712669 19.8641222,0.833712669 C20.4866437,0.833712669 20.8989674,1.04391042 21.3112911,1.45623413 L35.5888431,15.7337861 C36.4134905,16.5584335 36.4134905,17.8034764 35.5888431,18.6280411 C35.1765194,19.0403648 34.5539979,19.2505625 34.1416742,19.2505625 C33.5191527,19.2505625 33.106829,19.0403648 32.6945053,18.6280411 L21.9337712,7.86730698 L21.9337712,14.076378 L35.597039,27.7396459 C36.4216865,28.5642933 36.4216865,29.8093362 35.597039,30.6339009 C34.7723916,31.4585483 33.5273487,31.4585483 32.7027841,30.6339009 L21.94205,19.8731668 L21.94205,26.0822379 L35.5966044,39.5352252 Z" id="Fill-16" fill="#444B94"></path>
                    <path d="M84.2343278,39.5352252 C85.0589752,40.3598726 85.0589752,41.6049155 84.2343278,42.4294802 C83.4096803,43.2541276 82.1646374,43.2541276 81.3400728,42.4294802 L70.3690581,31.6687461 L70.3690581,52.777518 C70.3690581,54.0225609 69.5444107,54.8472083 68.2993678,54.8472083 C67.0543248,54.8472083 66.2296774,54.0225609 66.2296774,52.777518 L66.2296774,31.6687461 L55.4689433,42.4294802 C55.0566196,42.8418039 54.4340981,43.0520016 54.0217744,43.0520016 C53.399253,43.0520016 52.9869293,42.8418039 52.5746055,42.4294802 C51.7499581,41.6048327 51.7499581,40.3597898 52.5746055,39.5352252 L66.2378734,25.8719573 L66.2378734,19.6628862 L55.4771393,30.4236203 C54.6524919,31.2482678 53.4074489,31.2482678 52.5828843,30.4236203 C51.7582369,29.5989729 51.7582369,28.35393 52.5828843,27.5293653 L66.2461522,13.8660975 L66.2461522,7.65702644 L55.6712763,18.6280411 C55.2589525,19.0403648 54.6364311,19.2505625 54.2241074,19.2505625 C53.6015859,19.2505625 53.1892622,19.0403648 52.7769385,18.6280411 C51.9522911,17.8033936 51.9522911,16.5583507 52.7769385,15.7337861 L67.0544904,1.45623413 C67.2646882,1.24603638 67.4668141,1.04391042 67.6770119,1.04391042 C67.8872096,0.833712669 68.2995333,0.833712669 68.5016593,0.833712669 C68.7118571,0.833712669 69.1241808,0.833712669 69.3263067,1.04391042 C69.5365045,1.25410817 69.7386304,1.25410817 69.9488282,1.45623413 L84.2263801,15.7337861 C85.0510276,16.5584335 85.0510276,17.8034764 84.2263801,18.6280411 C83.4017327,19.4526885 82.1566898,19.4526885 81.3321252,18.6280411 L70.3691823,7.65702644 L70.3691823,13.8660975 L84.0324502,27.5293653 C84.8570976,28.3540128 84.8570976,29.5990557 84.0324502,30.4236203 C83.8222524,31.0461418 83.1997309,31.0461418 82.5772095,31.0461418 C81.954688,31.0461418 81.5423643,30.8359441 81.1300406,30.4236203 L70.3693065,19.6628862 L70.3693065,25.8719573 L84.2343278,39.5352252 Z" id="Fill-17" fill="#444B94"></path>
                    <path d="M147.359884,139.081122 C148.184531,139.90577 148.184531,141.150813 147.359884,141.975377 C146.94756,142.387701 146.325038,142.597899 145.912715,142.597899 C145.290193,142.597899 144.87787,142.387701 144.465546,141.975377 L133.704812,131.214643 L133.704812,152.323415 C133.704812,153.568458 132.880164,154.393105 131.635121,154.393105 C130.390078,154.393105 129.565431,153.568458 129.565431,152.323415 L129.565431,131.214643 L118.804697,141.975377 C117.980049,142.800025 116.735007,142.800025 115.910442,141.975377 C115.085794,141.15073 115.085794,139.905687 115.910442,139.081122 L129.57371,125.417854 L129.57371,119.208783 L118.812976,129.969517 C117.988328,130.794165 116.743285,130.794165 115.918721,129.969517 C115.094073,129.14487 115.094073,127.899827 115.918721,127.075262 L129.581989,113.411995 L129.581989,107.202923 L118.797039,117.971729 C117.972392,118.796377 116.727349,118.796377 115.902784,117.971729 C115.078219,117.147082 115.078137,115.902039 115.902784,115.077474 L130.180336,100.799922 C130.59266,100.387599 131.004983,100.177401 131.627505,100.177401 C132.250026,100.177401 132.66235,100.387599 133.074674,100.799922 L147.352226,115.077474 C148.176873,115.902122 148.176873,117.147165 147.352226,117.971729 C146.939902,118.384053 146.317381,118.594251 145.905057,118.594251 C145.282535,118.594251 144.870212,118.384053 144.457888,117.971729 L133.697154,107.210995 L133.697154,113.420066 L147.360422,127.083334 C148.185069,127.907982 148.185069,129.153024 147.360422,129.977589 C146.948098,130.389913 146.325577,130.600111 145.913253,130.600111 C145.290731,130.600111 144.878408,130.389913 144.466084,129.977589 L133.70535,119.216855 L133.70535,125.425926 L147.359884,139.081122 Z" id="Fill-18" fill="#444B94"></path>
                    <path d="M56.293508,70.3694721 C56.293508,69.1244291 57.1181554,68.2997817 58.3631983,68.2997817 C59.6082412,68.2997817 60.4328887,69.1244291 60.4328887,70.3694721 C60.4328887,72.2289647 61.8800576,73.8862899 63.9497065,73.8862899 C66.0193555,73.8862899 67.4665244,72.439121 67.4665244,70.3694721 C67.4665244,69.1244291 68.2911718,68.2997817 69.5362147,68.2997817 C70.7812577,68.2997817 71.6059051,69.1244291 71.6059051,70.3694721 C71.6059051,72.2289647 73.053074,73.8862899 75.1227229,73.8862899 C77.1923719,73.8862899 78.6395408,72.439121 78.6395408,70.3694721 C78.6395408,69.1244291 79.4641882,68.2997817 80.7092311,68.2997817 C81.9542741,68.2997817 82.7789215,69.1244291 82.7789215,70.3694721 C82.7789215,74.5088528 79.4641054,78.0256706 75.1227229,78.0256706 C73.0530326,78.0256706 70.9833422,77.2010232 69.5362147,75.543698 C68.0890458,76.9908668 66.2213987,78.0256706 63.9497065,78.0256706 C61.6697356,78.0256706 59.8103258,77.2010232 58.3631983,75.543698 C56.9160294,76.9908668 55.0483822,78.0256706 52.7766901,78.0256706 C50.4967192,78.0256706 48.6373094,77.2010232 47.1901819,75.543698 C45.743013,76.9908668 43.8753658,78.0256706 41.6036737,78.0256706 C39.5339833,78.0256706 37.464293,77.2010232 36.0171655,75.543698 C34.5699966,76.9908668 32.7023494,78.0256706 30.4306573,78.0256706 C28.1506864,78.0256706 26.2912766,77.2010232 24.8441491,75.543698 C23.3969802,76.9908668 21.529333,78.0256706 19.2576409,78.0256706 C17.1879505,78.0256706 15.1182602,77.2010232 13.6711327,75.543698 C12.2239638,76.9908668 10.3563166,78.0256706 8.08462446,78.0256706 C3.94524375,78.0256706 0.428425903,74.7108546 0.428425903,70.3694721 C0.428425903,69.1244291 1.25307333,68.2997817 2.49811626,68.2997817 C3.74315919,68.2997817 4.56780661,69.1244291 4.56780661,70.3694721 C4.56780661,72.2289647 6.0149755,73.8862899 8.08462446,73.8862899 C10.1381505,73.8862899 12.4181421,72.2289233 12.4181421,70.3694721 C12.4181421,69.1244291 13.2427896,68.2997817 14.4878325,68.2997817 C15.7328754,68.2997817 16.5575228,69.1244291 16.5575228,70.3694721 C16.5575228,72.2289647 18.0046917,73.8862899 20.0743407,73.8862899 C22.1439897,73.8862899 23.5911585,72.439121 23.5911585,70.3694721 C23.5911585,69.1244291 24.415806,68.2997817 25.6608489,68.2997817 C26.9058918,68.2997817 27.7305393,69.1244291 27.7305393,70.3694721 C27.7305393,72.2289647 29.1777081,73.8862899 31.2473571,73.8862899 C33.3170061,73.8862899 34.764175,72.439121 34.764175,70.3694721 C34.764175,69.1244291 35.5888224,68.2997817 36.8338653,68.2997817 C38.0789082,68.2997817 38.9035557,69.1244291 38.9035557,70.3694721 C38.9035557,72.2289647 40.3507246,73.8862899 42.4203735,73.8862899 C44.4900225,73.8862899 45.9371914,72.439121 45.9371914,70.3694721 C45.9371914,69.1244291 46.7618388,68.2997817 48.0068817,68.2997817 C49.2519247,68.2997817 50.0765721,69.1244291 50.0765721,70.3694721 C50.0765721,72.2289647 51.523741,73.8862899 53.5933899,73.8862899 C55.6711521,73.8862899 56.2937149,72.2289233 56.2937149,70.3694721 L56.293508,70.3694721 Z" id="Fill-19" fill="#00BAEF"></path>
                </g>
            </g>
        </g>
    </g>
</svg>