<?xml version="1.0" encoding="UTF-8"?>
<svg width="33px" height="32px" viewBox="0 0 33 32" version="1.1" xmlns="http://www.w3.org/2000/svg" xmlns:xlink="http://www.w3.org/1999/xlink">
    <!-- Generator: Sketch 50.2 (55047) - http://www.bohemiancoding.com/sketch -->
    <title>adventure/adventure</title>
    <desc>Created with Sketch.</desc>
    <defs></defs>
    <g id="Page-1" stroke="none" stroke-width="1" fill="none" fill-rule="evenodd">
        <g id="Artboard" transform="translate(-234.000000, -80.000000)">
            <g id="adventure/adventure" transform="translate(234.000000, 80.000000)">
                <rect id="Rectangle" fill-opacity="0.01" fill="#FFFFFF" x="0" y="0" width="32" height="32"></rect>
                <g id="adventure" transform="translate(2.000000, 0.000000)" fill="#334146">
                    <path d="M24.7153684,14.3995789 C24.9258947,14.5262232 24.9686568,14.7778695 24.8420126,14.9883789 C24.5887242,15.3255495 24.3370863,15.7038316 24.0837811,15.9982316 C23.9998989,16.0821137 23.8732547,16.1659958 23.7466105,16.1659958 C23.6627284,16.1659958 23.5788463,16.1232337 23.4933221,16.0821137 C23.3255579,15.9554695 23.2827958,15.6610611 23.45056,15.4933137 C23.7038484,15.1989053 23.9143916,14.8617347 24.1660126,14.5245558 C24.2531832,14.3156758 24.5475916,14.2729095 24.71536,14.3995537 L24.7153684,14.3995789 Z" id="Fill-1"></path>
                    <path d="M20.5886316,18.9903158 C20.2514611,19.2008421 19.8731789,19.4113684 19.4932211,19.6218947 C19.4093389,19.6646568 19.3665768,19.6646568 19.2826947,19.6646568 C19.1149305,19.6646568 18.9882863,19.5807747 18.9044042,19.4541305 C18.77776,19.2436042 18.8616421,18.9902989 19.0721684,18.8653305 C19.4504589,18.6548042 19.7876211,18.48704 20.1248,18.2765305 C20.3353263,18.1498863 20.5886316,18.2337684 20.7136,18.4031747 C20.8418905,18.6104126 20.7580084,18.8637221 20.5886021,18.9903326 L20.5886316,18.9903158 Z" id="Fill-2"></path>
                    <path d="M26.6938947,8.21052632 C26.4406063,8.21052632 26.2728421,8 26.3156042,7.74669474 C26.3583663,7.36840421 26.3583663,6.94736842 26.3583663,6.52631579 C26.3583663,6.31578947 26.5688926,6.10526316 26.7794189,6.10526316 C27.0327074,6.10526316 27.2004716,6.31578947 27.2004716,6.52631579 C27.2004716,6.94736842 27.1577095,7.36842105 27.1165895,7.78947368 C27.1149474,8.04276211 26.9471832,8.21052632 26.6938947,8.21052632 C26.7366568,8.21052632 26.6938947,8.21052632 26.6938947,8.21052632 Z" id="Fill-3"></path>
                    <path d="M25.6842105,13.5166316 C25.6003284,13.6843958 25.4736842,13.76992 25.30592,13.76992 C25.2631579,13.76992 25.1792758,13.76992 25.1381558,13.7271579 C24.9276295,13.6432758 24.8437474,13.3899874 24.9276295,13.1794526 C25.0953937,12.8422821 25.2648,12.464 25.3914611,12.0840421 C25.4753432,11.8735158 25.7286316,11.7468716 25.9391663,11.8307537 C26.1496926,11.9146358 26.2763368,12.1679242 26.1924547,12.3784589 C26.0214021,12.7156295 25.8519958,13.1366905 25.6842442,13.5166063 L25.6842105,13.5166316 Z" id="Fill-4"></path>
                    <path d="M22.4425263,17.6412632 C22.2747621,17.7679074 22.1053558,17.8945516 21.9376,18.0195537 C21.8537179,18.0623158 21.7698358,18.1034358 21.6843116,18.1034358 C21.5576674,18.1034358 21.4310232,18.0606737 21.3471411,17.9356716 C21.2204968,17.7679074 21.2204968,17.47184 21.4310232,17.3468716 C21.5987874,17.2202274 21.7254316,17.0935832 21.8948547,16.9685811 C22.0626189,16.8419368 22.1892632,16.7152926 22.3159074,16.5902905 C22.4836716,16.4225263 22.73696,16.4225263 22.9047074,16.5902905 C23.0724716,16.7580547 23.0724716,17.0113432 22.9047074,17.1790905 C22.7797053,17.3896168 22.6102989,17.5162611 22.4425179,17.64128 L22.4425263,17.6412632 Z" id="Fill-5"></path>
                    <path d="M18.0214737,20.3781053 C17.6431832,20.5458695 17.2632421,20.7152758 16.8849684,20.8830316 C16.8422063,20.9257937 16.7583242,20.9257937 16.7172042,20.9257937 C16.54944,20.9257937 16.3800337,20.8419116 16.3389137,20.6725053 C16.2550316,20.4619789 16.3389137,20.2086737 16.54944,20.1248 C16.9277305,19.9570358 17.3076716,19.7876295 17.6448505,19.6198737 C17.8553768,19.5359916 18.1086821,19.6198737 18.1925558,19.8304 C18.3159116,20.0425726 18.2320295,20.2942316 18.0215032,20.3781053 L18.0214737,20.3781053 Z" id="Fill-6"></path>
                    <path d="M5.13642105,25.6412632 C5.26306526,25.8090274 5.22030316,26.1050947 5.05253895,26.2300632 C4.71536842,26.4833516 4.42096,26.7349895 4.12656,26.9882947 C4.04267789,27.0721768 3.95879579,27.1149389 3.83215158,27.1149389 C3.70550737,27.1149389 3.62162526,27.0721768 3.53774316,26.9882947 C3.36997895,26.8205305 3.41109895,26.5672421 3.58050526,26.3994947 C3.87491368,26.1050863 4.21208421,25.8517895 4.54926316,25.6001684 C4.71538105,25.3896421 5.00981053,25.4307621 5.13642105,25.6412884 L5.13642105,25.6412632 Z" id="Fill-7"></path>
                    <path d="M1.72715789,28.6745263 C1.89492211,28.2962358 2.14821053,27.9590737 2.40151579,27.6218947 C2.52816,27.4541305 2.82256842,27.4113684 2.99031579,27.5380126 C3.15808,27.6646568 3.20084211,27.9590653 3.07419789,28.1268126 C2.86367158,28.4212211 2.65314526,28.7583916 2.48539789,29.0955705 C2.40151579,29.2222147 2.27487158,29.3060968 2.10710737,29.3060968 C2.02322526,29.3060968 1.98046316,29.3060968 1.89658105,29.2633347 C1.72717474,29.1366905 1.64164632,28.8850442 1.72717474,28.6745347 L1.72715789,28.6745263 Z" id="Fill-8"></path>
                    <path d="M7.07410526,24.0429474 C7.28463158,23.9590653 7.53793684,24.0001853 7.62181053,24.2107116 C7.70569263,24.4212379 7.66457263,24.6745432 7.45404632,24.7584168 C7.07575579,24.9689432 6.73859368,25.1367074 6.40141474,25.3472168 C6.31753263,25.3899789 6.27477053,25.3899789 6.19088842,25.3899789 C6.06424421,25.3899789 5.89648,25.3060968 5.81259789,25.1794526 C5.68595368,24.9689263 5.76983579,24.7156211 5.98036211,24.5906526 C6.31589053,24.4212463 6.65307789,24.21072 7.07413053,24.0429474 L7.07410526,24.0429474 Z" id="Fill-9"></path>
                    <path d="M9.68421053,22.8206316 C9.89473684,22.7367495 10.1480421,22.8206316 10.2319158,23.0311579 C10.3157895,23.2416842 10.2319158,23.4949895 10.0213895,23.5788632 C9.64309895,23.7466274 9.26315789,23.9160337 8.88488421,24.0426947 C8.84212211,24.0854568 8.75824,24.0854568 8.71712,24.0854568 C8.54935579,24.0854568 8.42271158,24.0015747 8.33882947,23.8321684 C8.25494737,23.6216421 8.33882947,23.3683368 8.54935579,23.2844632 C8.926,23.1578189 9.30594526,22.9900547 9.68421895,22.8206316 L9.68421053,22.8206316 Z" id="Fill-10"></path>
                    <path d="M15.0311579,20.7153684 C15.2416842,20.6314863 15.4949895,20.7153684 15.5788632,20.9686568 C15.6627453,21.1791832 15.5788632,21.4324884 15.3255747,21.5163621 C14.9472842,21.6841263 14.5673432,21.8107705 14.1890695,21.9801937 C14.1463074,21.9801937 14.1051874,22.0229558 14.0213053,22.0229558 C13.8535411,22.0229558 13.6841347,21.9390737 13.6430147,21.7696674 C13.5591326,21.5591411 13.6857768,21.3058358 13.8963032,21.2219621 C14.2729474,21.0525558 14.6528926,20.8847916 15.0311663,20.7153937 L15.0311579,20.7153684 Z" id="Fill-11"></path>
                    <path d="M12.3781053,21.768 C12.5886316,21.6841179 12.8419368,21.8107621 12.9258105,22.0212884 C13.0096842,22.2318147 12.8830484,22.48512 12.6725221,22.5689937 C12.2942316,22.6956379 11.9142905,22.8634021 11.5360168,23.0328253 C11.4932547,23.0328253 11.4521347,23.0755874 11.3682526,23.0755874 C11.2004884,23.0755874 11.0310821,22.9917053 10.9899621,22.8222989 C10.90608,22.6117726 11.0327242,22.3584674 11.2432505,22.2745937 C11.6215411,22.0624211 11.99984,21.9374232 12.3781137,21.7680253 L12.3781053,21.768 Z" id="Fill-12"></path>
                    <path d="M26.2728421,11.0311579 L26.18896,11.0311579 C25.9784337,10.9883958 25.8106695,10.7367495 25.8945516,10.5262316 C25.9784337,10.1479411 26.0623158,9.768 26.14784,9.34694737 C26.1906021,9.13642105 26.4011284,8.96865684 26.6527663,9.00977684 C26.8632926,9.05253895 27.0310568,9.26306526 26.9899368,9.51470316 C26.9060547,9.93575579 26.8221726,10.3568084 26.7366484,10.7350821 C26.6100042,10.9044884 26.44224,11.0311326 26.2728168,11.0311326 L26.2728421,11.0311579 Z" id="Fill-13"></path>
                    <path d="M1.81094737,31.4951579 C1.81094737,31.7056842 1.60042105,31.8734484 1.38989474,31.8734484 L1.34713263,31.8734484 C1.09384421,31.8734484 0.92608,31.6629221 0.968842105,31.4096168 C1.01160421,30.9885642 1.05272421,30.5675116 1.13660632,30.1892379 C1.17936842,29.9787116 1.43101474,29.8109474 1.64153263,29.8948295 C1.85205895,29.9375916 2.01982316,30.1892379 1.93594105,30.3997558 C1.89482105,30.7369263 1.85205895,31.1152084 1.81093895,31.4951663 L1.81094737,31.4951579 Z" id="Fill-14"></path>
                    <path d="M28.9258947,4.71536842 C28.8420126,4.79925053 28.7153684,4.84201263 28.6314863,4.84201263 C28.5476042,4.84201263 28.42096,4.79925053 28.3370779,4.71536842 L26.8206147,3.19890526 L25.2630568,4.71536842 C25.1791747,4.79925053 25.0525305,4.84201263 24.9686484,4.84201263 C24.8847663,4.84201263 24.7581221,4.79925053 24.67424,4.71536842 C24.5064758,4.54760421 24.5064758,4.29431579 24.67424,4.12656842 L26.1907032,2.61010526 L24.67424,1.09364211 C24.5064758,0.925877895 24.5064758,0.672589474 24.67424,0.504842105 C24.8420042,0.337077895 25.0952926,0.337077895 25.26304,0.504842105 L26.7795032,2.02130526 L28.2959663,0.504842105 C28.4637305,0.337077895 28.7170189,0.337077895 28.8847663,0.504842105 C29.0525305,0.672606316 29.0525305,0.925894737 28.8847663,1.09364211 L27.3683032,2.61010526 L28.8847663,4.12656842 C29.0525305,4.29433263 29.0525305,4.54762105 28.9258821,4.71536842 L28.9258947,4.71536842 Z" id="Fill-15"></path>
                    <path d="M7.24168421,8.04294737 C7.40944842,8.21071158 7.40944842,8.464 7.24168421,8.63174737 C7.15780211,8.71562947 7.03115789,8.75839158 6.94727579,8.75839158 C6.82063158,8.75839158 6.73674947,8.71562947 6.65286737,8.63174737 L4.46373053,6.44261053 L4.46373053,10.7369263 C4.46373053,10.9902147 4.29596632,11.1579789 4.04267789,11.1579789 C3.78938947,11.1579789 3.62162526,10.9902147 3.62162526,10.7369263 L3.62162526,6.44261053 L1.43248842,8.63174737 C1.26472421,8.79951158 1.01143579,8.79951158 0.843688421,8.63174737 C0.675924211,8.46398316 0.675924211,8.21069474 0.843688421,8.04294737 L3.62330947,5.26332632 L3.62330947,4.00016842 L1.43417263,6.18930526 C1.34700211,6.31594947 1.22035789,6.31594947 1.13647579,6.31594947 C1.00983158,6.31594947 0.925949474,6.27318737 0.842067368,6.18930526 C0.674303158,6.02154105 0.674303158,5.76825263 0.842067368,5.60050526 L3.62168842,2.82088421 L3.62168842,1.55772632 L1.43090947,3.78964211 C1.26314526,3.95740632 1.00985684,3.95740632 0.842109474,3.78964211 C0.674362105,3.62187789 0.674345263,3.36858947 0.842109474,3.20084211 L3.74669895,0.296252632 C3.83058105,0.212370526 3.91446316,0.169608421 4.04110737,0.169608421 C4.16775158,0.169608421 4.25163368,0.212370526 4.33551579,0.296252632 L7.24010526,3.20084211 C7.40786947,3.36860632 7.40786947,3.62189474 7.24010526,3.78964211 C7.15622316,3.87352421 7.02957895,3.91628632 6.94569684,3.91628632 C6.81905263,3.91628632 6.73517053,3.87352421 6.65128842,3.78964211 L4.46215158,1.60050526 L4.46215158,2.86366316 L7.24177263,5.64328421 C7.40953684,5.81104842 7.40953684,6.06433684 7.24177263,6.23208421 C7.07400842,6.39984842 6.82072,6.39984842 6.65297263,6.23208421 L4.46383579,4.04294737 L4.46383579,5.30610526 L7.24168421,8.04294737 Z" id="Fill-16"></path>
                    <path d="M17.1364211,8.04294737 C17.3041853,8.21071158 17.3041853,8.464 17.1364211,8.63174737 C16.9686568,8.79951158 16.7153684,8.79951158 16.5476211,8.63174737 L14.3157053,6.44261053 L14.3157053,10.7369263 C14.3157053,10.9902147 14.1479411,11.1579789 13.8946526,11.1579789 C13.6413642,11.1579789 13.4736,10.9902147 13.4736,10.7369263 L13.4736,6.44261053 L11.2844632,8.63174737 C11.2005811,8.71562947 11.0739368,8.75839158 10.9900547,8.75839158 C10.8634105,8.75839158 10.7795284,8.71562947 10.6956463,8.63174737 C10.5278821,8.46398316 10.5278821,8.21069474 10.6956463,8.04294737 L13.4752674,5.26332632 L13.4752674,4.00016842 L11.2861305,6.18930526 C11.1183663,6.35706947 10.8650779,6.35706947 10.6973305,6.18930526 C10.5295663,6.02154105 10.5295663,5.76825263 10.6973305,5.60050526 L13.4769516,2.82088421 L13.4769516,1.55772632 L11.3256253,3.78964211 C11.2417432,3.87352421 11.1150989,3.91628632 11.0312168,3.91628632 C10.9045726,3.91628632 10.8206905,3.87352421 10.7368084,3.78964211 C10.5690442,3.62187789 10.5690442,3.36858947 10.7368084,3.20084211 L13.6413979,0.296252632 C13.68416,0.253490526 13.72528,0.212370526 13.7680421,0.212370526 C13.8108042,0.169608421 13.8946863,0.169608421 13.9358063,0.169608421 C13.9785684,0.169608421 14.0624505,0.169608421 14.1035705,0.212370526 C14.1463326,0.255132632 14.1874526,0.255132632 14.2302147,0.296252632 L17.1348042,3.20084211 C17.3025684,3.36860632 17.3025684,3.62189474 17.1348042,3.78964211 C16.96704,3.95740632 16.7137516,3.95740632 16.5460042,3.78964211 L14.3157305,1.55772632 L14.3157305,2.82088421 L17.0953516,5.60050526 C17.2631158,5.76826947 17.2631158,6.02155789 17.0953516,6.18930526 C17.0525895,6.31594947 16.9259453,6.31594947 16.7993011,6.31594947 C16.6726568,6.31594947 16.5887747,6.27318737 16.5048926,6.18930526 L14.3157558,4.00016842 L14.3157558,5.26332632 L17.1364211,8.04294737 Z" id="Fill-17"></path>
                    <path d="M29.9785263,28.2943158 C30.1462905,28.46208 30.1462905,28.7153684 29.9785263,28.8831158 C29.8946442,28.9669979 29.768,29.00976 29.6841179,29.00976 C29.5574737,29.00976 29.4735916,28.9669979 29.3897095,28.8831158 L27.2005726,26.6939789 L27.2005726,30.9882947 C27.2005726,31.2415832 27.0328084,31.4093474 26.77952,31.4093474 C26.5262316,31.4093474 26.3584674,31.2415832 26.3584674,30.9882947 L26.3584674,26.6939789 L24.1693305,28.8831158 C24.0015663,29.05088 23.7482779,29.05088 23.5805305,28.8831158 C23.4127663,28.7153516 23.4127663,28.4620632 23.5805305,28.2943158 L26.3601516,25.5146947 L26.3601516,24.2515368 L24.1710147,26.4406737 C24.0032505,26.6084379 23.7499621,26.6084379 23.5822147,26.4406737 C23.4144505,26.2729095 23.4144505,26.0196211 23.5822147,25.8518737 L26.3618358,23.0722526 L26.3618358,21.8090947 L24.1677726,23.9998737 C24.0000084,24.1676379 23.74672,24.1676379 23.5789726,23.9998737 C23.4112253,23.8321095 23.4112084,23.5788211 23.5789726,23.4110737 L26.4835621,20.5064842 C26.5674442,20.4226021 26.6513263,20.37984 26.7779705,20.37984 C26.9046147,20.37984 26.9884968,20.4226021 27.0723789,20.5064842 L29.9769684,23.4110737 C30.1447326,23.5788379 30.1447326,23.8321263 29.9769684,23.9998737 C29.8930863,24.0837558 29.7664421,24.1265179 29.68256,24.1265179 C29.5559158,24.1265179 29.4720337,24.0837558 29.3881516,23.9998737 L27.1990147,21.8107368 L27.1990147,23.0738947 L29.9786358,25.8535158 C30.1464,26.02128 30.1464,26.2745684 29.9786358,26.4423158 C29.8947537,26.5261979 29.7681095,26.56896 29.6842274,26.56896 C29.5575832,26.56896 29.4737011,26.5261979 29.3898189,26.4423158 L27.2006821,24.2531789 L27.2006821,25.5163368 L29.9785263,28.2943158 Z" id="Fill-18"></path>
                    <path d="M11.4522105,14.3157895 C11.4522105,14.0625011 11.6199747,13.8947368 11.8732632,13.8947368 C12.1265516,13.8947368 12.2943158,14.0625011 12.2943158,14.3157895 C12.2943158,14.69408 12.5887242,15.0312421 13.0097684,15.0312421 C13.4308126,15.0312421 13.7252211,14.7368337 13.7252211,14.3157895 C13.7252211,14.0625011 13.8929853,13.8947368 14.1462737,13.8947368 C14.3995621,13.8947368 14.5673263,14.0625011 14.5673263,14.3157895 C14.5673263,14.69408 14.8617347,15.0312421 15.2827789,15.0312421 C15.7038232,15.0312421 15.9982316,14.7368337 15.9982316,14.3157895 C15.9982316,14.0625011 16.1659958,13.8947368 16.4192842,13.8947368 C16.6725726,13.8947368 16.8403368,14.0625011 16.8403368,14.3157895 C16.8403368,15.1578947 16.1659789,15.8733474 15.2827789,15.8733474 C14.8617263,15.8733474 14.4406737,15.7055832 14.1462737,15.3684211 C13.8518653,15.6628295 13.4719158,15.8733474 13.0097684,15.8733474 C12.5459368,15.8733474 12.1676632,15.7055832 11.8732632,15.3684211 C11.5788547,15.6628295 11.1989053,15.8733474 10.7367579,15.8733474 C10.2729263,15.8733474 9.89465263,15.7055832 9.60025263,15.3684211 C9.30584421,15.6628295 8.92589474,15.8733474 8.46374737,15.8733474 C8.04269474,15.8733474 7.62164211,15.7055832 7.32724211,15.3684211 C7.03283368,15.6628295 6.65288421,15.8733474 6.19073684,15.8733474 C5.72690526,15.8733474 5.34863158,15.7055832 5.05423158,15.3684211 C4.75982316,15.6628295 4.37987368,15.8733474 3.91772632,15.8733474 C3.49667368,15.8733474 3.07562105,15.7055832 2.78122105,15.3684211 C2.48681263,15.6628295 2.10686316,15.8733474 1.64471579,15.8733474 C0.802610526,15.8733474 0.0871578947,15.1989895 0.0871578947,14.3157895 C0.0871578947,14.0625011 0.254922105,13.8947368 0.508210526,13.8947368 C0.761498947,13.8947368 0.929263158,14.0625011 0.929263158,14.3157895 C0.929263158,14.69408 1.22367158,15.0312421 1.64471579,15.0312421 C2.06248,15.0312421 2.52631579,14.6940716 2.52631579,14.3157895 C2.52631579,14.0625011 2.69408,13.8947368 2.94736842,13.8947368 C3.20065684,13.8947368 3.36842105,14.0625011 3.36842105,14.3157895 C3.36842105,14.69408 3.66282947,15.0312421 4.08387368,15.0312421 C4.50491789,15.0312421 4.79932632,14.7368337 4.79932632,14.3157895 C4.79932632,14.0625011 4.96709053,13.8947368 5.22037895,13.8947368 C5.47366737,13.8947368 5.64143158,14.0625011 5.64143158,14.3157895 C5.64143158,14.69408 5.93584,15.0312421 6.35688421,15.0312421 C6.77792842,15.0312421 7.07233684,14.7368337 7.07233684,14.3157895 C7.07233684,14.0625011 7.24010105,13.8947368 7.49338947,13.8947368 C7.74667789,13.8947368 7.91444211,14.0625011 7.91444211,14.3157895 C7.91444211,14.69408 8.20885053,15.0312421 8.62989474,15.0312421 C9.05093895,15.0312421 9.34534737,14.7368337 9.34534737,14.3157895 C9.34534737,14.0625011 9.51311158,13.8947368 9.7664,13.8947368 C10.0196884,13.8947368 10.1874526,14.0625011 10.1874526,14.3157895 C10.1874526,14.69408 10.4818611,15.0312421 10.9029053,15.0312421 C11.3256,15.0312421 11.4522526,14.6940716 11.4522526,14.3157895 L11.4522105,14.3157895 Z" id="Fill-19"></path>
                </g>
            </g>
        </g>
    </g>
</svg>