<?xml version="1.0" encoding="UTF-8"?>
<svg width="32px" height="32px" viewBox="0 0 32 32" version="1.1" xmlns="http://www.w3.org/2000/svg" xmlns:xlink="http://www.w3.org/1999/xlink">
    <!-- Generator: Sketch 50.2 (55047) - http://www.bohemiancoding.com/sketch -->
    <title>meal/meal</title>
    <desc>Created with Sketch.</desc>
    <defs></defs>
    <g id="Page-1" stroke="none" stroke-width="1" fill="none" fill-rule="evenodd">
        <g id="Artboard" transform="translate(-137.000000, -72.000000)">
            <g id="meal/meal" transform="translate(137.000000, 72.000000)">
                <rect id="Rectangle" fill-opacity="0.01" fill="#FFFFFF" x="0" y="0" width="32" height="32"></rect>
                <g id="Group" transform="translate(0.000000, 5.000000)" fill="#334146" fill-rule="nonzero">
                    <path d="M30.7073411,3.0673663 C30.7073411,2.71390406 30.9938788,2.4273663 31.3473411,2.4273663 C31.7008033,2.4273663 31.9873411,2.71390406 31.9873411,3.0673663 L31.9873411,6.00608564 C31.9873411,7.44205351 30.8233246,8.60606996 29.3873567,8.60606996 C27.9523982,8.60606996 26.7886132,7.44178929 26.7886132,6.00608564 L26.7886132,3.0673663 C26.7886132,2.71390406 27.075151,2.4273663 27.4286132,2.4273663 C27.7820755,2.4273663 28.0686132,2.71390406 28.0686132,3.0673663 L28.0686132,6.00608564 C28.0686132,6.73498681 28.6594447,7.32606996 29.3873567,7.32606996 C30.1164001,7.32606996 30.7073411,6.73512903 30.7073411,6.00608564 L30.7073411,3.0673663 Z" id="Stroke-1"></path>
                    <path d="M28.7533975,3.0673663 C28.7533975,2.71390406 29.0399353,2.4273663 29.3933975,2.4273663 C29.7468597,2.4273663 30.0333975,2.71390406 30.0333975,3.0673663 L30.0333975,18.6923842 C30.0333975,19.0458464 29.7468597,19.3323842 29.3933975,19.3323842 C29.0399353,19.3323842 28.7533975,19.0458464 28.7533975,18.6923842 L28.7533975,3.0673663 Z" id="Stroke-2"></path>
                    <path d="M3.32732032,2.15363788 C3.68080963,2.15363788 3.96735861,2.44021789 3.96732032,2.7937072 L3.96607951,14.248636 C3.96604123,14.6020711 3.67951468,14.8885666 3.32607951,14.8885666 L0.652337638,14.8885666 C0.298875399,14.8885666 0.0123376384,14.6020289 0.0123376384,14.2485666 C0.0123376384,14.224559 0.0125071544,14.1795527 0.0130100989,14.1149408 C0.0138409638,14.0082018 0.0153332668,13.8846539 0.0176512284,13.7456888 C0.0242582359,13.3495894 0.0361404742,12.9086065 0.0546184281,12.4338438 C0.107458114,11.0762092 0.202607418,9.71803407 0.351028985,8.44687932 C0.816418124,4.46105954 1.62467016,2.15363788 3.32732032,2.15363788 Z M1.62239196,8.5953252 C1.4782373,9.82993611 1.38530188,11.1565099 1.33365006,12.4836242 C1.31798874,12.8860176 1.30717139,13.2634343 1.30036034,13.6085666 L2.68614884,13.6085666 L2.68718307,4.06064735 C2.26318705,4.88309135 1.87001952,6.47452187 1.62239196,8.5953252 Z" id="Stroke-3"></path>
                    <path d="M3.96732032,18.8323994 C3.96732032,19.1858616 3.68078256,19.4723994 3.32732032,19.4723994 C2.97385808,19.4723994 2.68732032,19.1858616 2.68732032,18.8323994 L2.68732032,14.2485993 C2.68732032,13.8951371 2.97385808,13.6085993 3.32732032,13.6085993 C3.68078256,13.6085993 3.96732032,13.8951371 3.96732032,14.2485993 L3.96732032,18.8323994 Z" id="Stroke-4"></path>
                    <path d="M19.6798477,10.8785038 C19.6798477,13.0797124 17.8943281,14.8647628 15.6922826,14.8647628 C13.4913146,14.8647628 11.7060237,13.0794838 11.7060237,10.8785038 C11.7060237,8.67651503 13.4910827,6.89093875 15.6922826,6.89093875 C17.894512,6.89093875 19.6798477,8.67623831 19.6798477,10.8785038 Z M18.3998477,10.8785038 C18.3998477,9.38316859 17.1875933,8.17093875 15.6922826,8.17093875 C14.1980902,8.17093875 12.9860237,9.3833565 12.9860237,10.8785038 C12.9860237,12.3725574 14.1982372,13.5847628 15.6922826,13.5847628 C17.1874789,13.5847628 18.3998477,12.3727126 18.3998477,10.8785038 Z" id="Stroke-5"></path>
                    <path d="M26.3772635,10.8785038 C26.3772635,16.778259 21.5929142,21.5621786 15.6922826,21.5621786 C9.7927423,21.5621786 5.00860787,16.7780441 5.00860787,10.8785038 C5.00860787,4.97787229 9.79252741,0.193523271 15.6922826,0.193523271 C21.5931291,0.193523271 26.3772635,4.97765743 26.3772635,10.8785038 Z M25.0972635,10.8785038 C25.0972635,5.68458192 20.8862046,1.47352327 15.6922826,1.47352327 C10.4994776,1.47352327 6.28860787,5.68477105 6.28860787,10.8785038 C6.28860787,16.0711196 10.4996668,20.2821786 15.6922826,20.2821786 C20.8860155,20.2821786 25.0972635,16.0713088 25.0972635,10.8785038 Z" id="Stroke-6"></path>
                </g>
            </g>
        </g>
    </g>
</svg>