<?xml version="1.0" encoding="UTF-8"?>
<svg width="32px" height="32px" viewBox="0 0 32 32" version="1.1" xmlns="http://www.w3.org/2000/svg" xmlns:xlink="http://www.w3.org/1999/xlink">
    <!-- Generator: Sketch 50.2 (55047) - http://www.bohemiancoding.com/sketch -->
    <title>yoga/tree</title>
    <desc>Created with Sketch.</desc>
    <defs></defs>
    <g id="Page-1" stroke="none" stroke-width="1" fill="none" fill-rule="evenodd">
        <g id="Artboard" transform="translate(-174.000000, -33.000000)">
            <g id="yoga/tree" transform="translate(174.000000, 33.000000)">
                <rect id="Rectangle" fill-opacity="0.01" fill="#FFFFFF" x="0" y="0" width="32" height="32"></rect>
                <g id="tree" transform="translate(10.000000, 0.000000)" fill="#334146">
                    <path d="M3.4841629,7.26660633 C3.4841629,8.75417195 4.696,9.96314932 6.18635294,9.96314932 C7.67250679,9.96314932 8.8800724,8.75272398 8.8800724,7.26660633 C8.8800724,5.77904072 7.67109502,4.56865158 6.18635294,4.56865158 C4.6959638,4.56865158 3.4841629,5.77907692 3.4841629,7.26660633 Z M6.18635294,6.01661538 C6.87355656,6.01661538 7.4321086,6.57799095 7.4321086,7.26660633 C7.4321086,7.95522172 6.87355656,8.51518552 6.18635294,8.51518552 C5.49487783,8.51518552 4.9321267,7.95522172 4.9321267,7.26660633 C4.9321267,6.57657919 5.49491403,6.01661538 6.18635294,6.01661538 Z" id="Fill-1"></path>
                    <path d="M4.87565611,0.329484163 C4.56032941,0.0834425339 4.10077828,0.145661538 3.85332127,0.459576471 C1.70541176,3.19995656 -0.514461538,6.03242715 0.264506787,8.80672579 C0.639239819,10.1217665 1.66298643,11.2982371 2.65281448,12.436409 C2.6584724,12.442067 2.6641267,12.4463059 2.67119638,12.4533792 C2.69240905,12.4760036 2.71502986,12.4958009 2.73906968,12.5155982 C2.75462443,12.5283222 2.76876742,12.5424615 2.78431855,12.5537774 C2.80977376,12.5721593 2.83805249,12.587714 2.86774661,12.6018534 C2.88330136,12.6089231 2.89744072,12.6188199 2.91299548,12.6258896 C2.94975928,12.6414443 2.98935385,12.6541719 3.02753303,12.6640688 C3.0360181,12.6654842 3.04450317,12.6697267 3.05157285,12.6711385 C3.09964887,12.6810389 3.14914027,12.6866932 3.20004706,12.6866932 L9.17144977,12.6866932 C9.22235294,12.6866932 9.27184434,12.6810389 9.31992398,12.6711385 C9.32840905,12.6697267 9.33830588,12.6654842 9.34679095,12.662657 C9.38497014,12.6527566 9.42314932,12.6414443 9.45991312,12.6258932 C9.47546787,12.6188199 9.48960724,12.6089231 9.50374661,12.6018534 C9.53202534,12.5862986 9.56030769,12.5721593 9.58717466,12.5537774 C9.60272941,12.5424652 9.61545339,12.5297376 9.63100814,12.5184253 C9.65504434,12.4986317 9.67908416,12.477419 9.70029683,12.4533792 C9.70595113,12.4477249 9.71160905,12.4434824 9.71726335,12.4378244 C10.7085032,11.2967204 11.7336615,10.11739 12.0970643,8.80814118 C12.8875077,6.02674751 10.6547475,3.19004163 8.49695566,0.446874208 C8.24950226,0.132959276 7.79418643,0.0778244344 7.48026787,0.325266968 C7.16635294,0.572720362 7.1112181,1.0280362 7.35866063,1.34195475 C9.29306787,3.80095928 11.2924163,6.34177376 10.7028416,8.41634389 C10.4483186,9.33406335 9.65364706,10.2984072 8.83916742,11.2401629 L3.5280362,11.2401629 C2.71355656,10.299819 1.91887783,9.33547511 1.6558552,8.41493213 C1.07467873,6.35046154 3.06562896,3.81076923 5.00144796,1.34054299 C5.25173213,1.0238009 5.19092851,0.575547511 4.87559819,0.329502262 L4.87565611,0.329484163 Z" id="Fill-2"></path>
                    <path d="M8.06841629,31.7589144 C8.46859729,31.7589144 8.79239819,31.4351026 8.79239819,31.0349325 L8.79239819,20.0774661 C8.79239819,19.6772851 8.46858643,19.3534842 8.06841629,19.3534842 L4.30153846,19.3534842 C4.29446878,19.3534842 4.28598371,19.3563113 4.27891403,19.3563113 C4.25346244,19.3577267 4.22942262,19.3605538 4.20397104,19.363381 C4.18134661,19.3662118 4.15872217,19.3690389 4.13609774,19.3746932 C4.1134733,19.3803511 4.09367602,19.3874208 4.07105158,19.3944905 C4.04701538,19.4015602 4.02297557,19.4100452 4.0017629,19.4199421 C3.98196561,19.4284271 3.9649991,19.4397394 3.94661719,19.4496398 C3.92399276,19.4623638 3.89995294,19.4765032 3.87874389,19.4920615 C3.87308959,19.4963005 3.86601991,19.4991312 3.86036199,19.5033738 C2.40675113,20.6261249 1.03513122,21.6852018 0.852723982,22.9733828 C0.605270588,24.7889846 2.74043439,26.2185593 5.00295023,27.7317538 L5.80754751,26.5284235 C4.18423529,25.4410389 2.16374661,24.0892199 2.2880181,23.1729484 C2.38134299,22.5154281 3.53942081,21.583591 4.55046154,20.8002063 L7.34600905,20.8002063 L7.34600905,31.0336894 C7.34459367,31.4352822 7.66840543,31.7590831 8.06857919,31.7590831 L8.06841629,31.7589144 Z" id="Fill-3"></path>
                </g>
            </g>
        </g>
    </g>
</svg>