<?xml version="1.0" encoding="UTF-8"?>
<svg width="32px" height="32px" viewBox="0 0 32 32" version="1.1" xmlns="http://www.w3.org/2000/svg" xmlns:xlink="http://www.w3.org/1999/xlink">
    <!-- Generator: Sketch 50.2 (55047) - http://www.bohemiancoding.com/sketch -->
    <title>yoga/warrior</title>
    <desc>Created with Sketch.</desc>
    <defs></defs>
    <g id="Page-1" stroke="none" stroke-width="1" fill="none" fill-rule="evenodd">
        <g id="Artboard" transform="translate(-135.000000, -33.000000)">
            <g id="yoga/warrior" transform="translate(135.000000, 33.000000)">
                <rect id="Rectangle" fill-opacity="0.01" fill="#FFFFFF" x="0" y="0" width="32" height="32"></rect>
                <path d="M26.3906081,22.909013 L21.1715841,21.7337237 C21.7008373,20.0348384 22.1512501,18.296497 21.9893537,16.5496517 C21.8260809,14.7705209 21.0251819,13.0505203 20.3186102,11.5345747 C20.3101641,11.5162771 20.2974949,11.5022026 20.2890524,11.4853104 C20.2791973,11.4684181 20.273569,11.4501205 20.2637139,11.4332318 L20.229933,11.3797444 C19.9076067,10.8702013 19.5923285,10.369126 19.3051813,9.87507714 C20.2003859,9.38946001 20.8112538,8.4421877 20.8112538,7.35417038 C20.8112538,5.90016558 19.7218312,4.69813975 18.3184889,4.51516403 C18.570439,3.43698372 18.9997293,2.32082461 19.4220004,1.22433952 C19.6007566,0.759837741 19.3685129,0.239052368 18.9040256,0.0602925093 C18.4381185,-0.118463746 17.9187384,0.113779938 17.7399786,0.578267306 C17.1896461,2.01115675 16.62663,3.47640386 16.398577,4.94583079 C15.6061386,5.45677915 15.079696,6.34492126 15.079696,7.35413434 C15.079696,8.75041423 16.0846933,9.91446125 17.4106006,10.1664042 C17.8047299,10.9095854 18.2579534,11.6330566 18.7097715,12.3438802 L18.7111804,12.3466943 C19.3797733,13.7823944 20.0638243,15.2645409 20.1975429,16.7156991 C20.3453359,18.3146648 19.8400268,20.0009025 19.2643595,21.7970769 C16.5984918,23.3791431 14.1775767,24.8232749 11.7651654,26.3166998 C9.84669486,27.5032675 7.91972051,28.737687 6.05609224,29.9297317 L5.41567721,30.3393191 C4.99621671,30.6067537 4.87377648,31.1641523 5.14261531,31.5835767 C5.31433431,31.8524156 5.6057118,31.9987853 5.90129074,31.9987853 C6.06738138,31.9987853 6.23628621,31.9523351 6.38690788,31.8566242 L7.02732291,31.4470368 C8.88525797,30.2576575 10.8050257,29.0274898 12.7122539,27.8493539 C15.1078739,26.3672073 17.5176187,24.930102 20.1692894,23.3549542 L25.3616489,24.523217 L26.0147476,31.1864463 C26.0611977,31.650948 26.4524768,32 26.9099521,32 C26.93951,32 26.9690679,31.9985925 26.9986258,31.9957773 C27.49408,31.9465129 27.8558156,31.5059443 27.8065584,31.0118954 L27.0901137,23.7011559 C27.0521096,23.3126838 26.7691963,22.9945842 26.3905685,22.9087175 L26.3906081,22.909013 Z M19.0096024,7.35571619 C19.0096024,7.73716184 18.8055077,8.06935034 18.5043112,8.25794722 C18.3311833,7.81456079 18.1974683,7.37261569 18.1369545,6.92922926 C18.1088018,6.72513458 18.0975415,6.51823653 18.0947273,6.30708297 C18.6098916,6.37745908 19.009642,6.81803133 19.009642,7.35571619 L19.0096024,7.35571619 Z" id="yoga" fill="#334146"></path>
            </g>
        </g>
    </g>
</svg>