<?xml version="1.0" encoding="UTF-8"?>
<svg width="32px" height="46px" viewBox="0 0 32 46" version="1.1" xmlns="http://www.w3.org/2000/svg" xmlns:xlink="http://www.w3.org/1999/xlink">
    <!-- Generator: Sketch 50.2 (55047) - http://www.bohemiancoding.com/sketch -->
    <title>yoga/yoga</title>
    <desc>Created with Sketch.</desc>
    <defs></defs>
    <g id="Page-1" stroke="none" stroke-width="1" fill="none" fill-rule="evenodd">
        <g id="Artboard" transform="translate(-140.000000, -60.000000)" fill="#3E474F">
            <path d="M170.007366,92.3300191 L162.685968,90.6812891 C163.42842,88.2980435 164.060272,85.8594477 163.833159,83.4089224 C163.604115,80.9131061 162.480591,78.5002392 161.489391,76.3736267 C161.477543,76.3479584 161.45977,76.3282143 161.447927,76.3045173 C161.434102,76.2808203 161.426206,76.2551519 161.412381,76.23146 L161.364992,76.1564263 C160.912824,75.4416244 160.470542,74.7387015 160.067724,74.0456354 C161.323543,73.3643975 162.180486,72.0355364 162.180486,70.5092341 C162.180486,68.469514 160.652212,66.7832772 158.683563,66.5265936 C159.037006,65.0140909 159.639227,63.4483105 160.231601,61.9101294 C160.482365,61.2585128 160.156567,60.5279399 159.504971,60.2771704 C158.851383,60.0264059 158.122781,60.3522041 157.872012,61.0038005 C157.09999,63.0138994 156.310174,65.0693906 155.990255,67.1307454 C154.878599,67.8475186 154.14009,69.0934301 154.14009,70.5091836 C154.14009,72.4679256 155.54993,74.1008845 157.409951,74.4543174 C157.962847,75.4968736 158.598642,76.51178 159.232466,77.5089439 L159.234442,77.5128917 C160.172364,79.5269334 161.13197,81.6061317 161.319555,83.6418586 C161.526883,85.8849341 160.818021,88.2504372 160.010458,90.7701629 C156.270701,92.9895313 152.874571,95.0154013 149.490371,97.1104212 C146.799084,98.7749727 144.095869,100.506652 141.481517,102.178887 L140.583124,102.753468 C139.994693,103.128633 139.82293,103.910568 140.200065,104.498949 C140.440957,104.876084 140.84971,105.081416 141.264357,105.081416 C141.497354,105.081416 141.734298,105.016254 141.945595,104.881988 L142.843987,104.307407 C145.450353,102.638911 148.143459,100.913196 150.818974,99.2604728 C154.179619,97.1812745 157.560079,95.1652615 161.27992,92.9555983 L168.563912,94.5944714 L169.480098,103.941843 C169.54526,104.59346 170.094158,105.08312 170.735917,105.08312 C170.777382,105.08312 170.818847,105.081145 170.860311,105.077196 C171.555349,105.008087 172.062802,104.390044 171.993703,103.696978 L170.988653,93.4412602 C170.93534,92.8963003 170.538461,92.4500609 170.007311,92.3296046 L170.007366,92.3300191 Z M159.653077,70.5114026 C159.653077,71.0465057 159.366767,71.5125093 158.94424,71.7770785 C158.701371,71.1550832 158.513792,70.5351097 158.428901,69.9131144 C158.389408,69.6268044 158.373612,69.3365618 158.369664,69.0403495 C159.092351,69.1390752 159.653133,69.7571227 159.653133,70.5114026 L159.653077,70.5114026 Z" id="yoga/yoga"></path>
        </g>
    </g>
</svg>