<?xml version="1.0" encoding="UTF-8"?>
<svg width="32px" height="32px" viewBox="0 0 32 32" version="1.1" xmlns="http://www.w3.org/2000/svg" xmlns:xlink="http://www.w3.org/1999/xlink">
    <!-- Generator: Sketch 50.2 (55047) - http://www.bohemiancoding.com/sketch -->
    <title>car/car</title>
    <desc>Created with Sketch.</desc>
    <defs></defs>
    <g id="Page-1" stroke="none" stroke-width="1" fill="none" fill-rule="evenodd">
        <g id="Artboard" transform="translate(-73.000000, -272.000000)">
            <g id="car/car" transform="translate(73.000000, 272.000000)">
                <rect id="Rectangle" fill-opacity="0.01" fill="#FFFFFF" x="0" y="0" width="32" height="32"></rect>
                <path d="M2.20335144,14.3392892 L2.08417226,14.6607122 L1.8088851,14.6607122 C1.6737329,14.6968806 1.53845422,14.7369121 1.26140787,14.8209941 C1.13736184,14.8586362 1.04779471,14.88559 0.96969697,14.9086432 L0.96969697,23.6157844 L31.030303,23.6157844 L31.030303,14.9076648 C30.9542322,14.8850743 30.8652762,14.8582353 30.7549144,14.8247411 C30.4405312,14.7293412 30.2944065,14.6867546 30.1351957,14.6459541 L29.8896162,14.5830201 L29.7992479,14.3392714 C28.4269417,10.6377769 27.1673591,7.18366046 26.0007528,3.91461792 C19.7373633,2.69512431 12.2667176,2.6951267 6.00185974,3.91462906 C4.8349208,7.18495988 3.57509422,10.6397359 2.20335144,14.3392892 Z M5.18628242,3.30439486 L5.28047272,3.04009428 L5.54846442,2.98613733 C12.0790239,1.67128683 19.9251482,1.67128683 26.454163,2.98614166 L26.7221265,3.04010587 L26.8163173,3.30437741 C27.9827341,6.57699938 29.2427009,10.0353714 30.6162301,13.7426303 C30.7214882,13.7727484 30.8443709,13.8094921 31.0132079,13.8607256 C31.3448011,13.961362 31.4763452,13.9999506 31.6337307,14.0408884 L32,14.1361592 L32,24.6157844 L0,24.6157844 L0,14.134748 L0.367919169,14.0404624 C0.527129906,13.9996619 0.673254657,13.9570752 0.972198584,13.8663608 C1.1633654,13.808343 1.28482141,13.7718841 1.38640347,13.7425824 C2.7593594,10.0372733 4.01955868,6.57825392 5.18628242,3.30439486 Z M25.8874956,25.7618324 L25.8874956,28.0243285 C25.8874956,28.2992213 26.1036977,28.5143445 26.3626627,28.5143445 L29.4450889,28.5143445 C29.7329999,28.5143445 29.920256,28.3214079 29.920256,28.0243285 L29.920256,25.7618324 L25.8874956,25.7618324 Z M30.4051045,25.7618324 L30.4062836,25.2618324 L30.4051045,25.7618324 Z M30.8899529,25.2618324 L30.8899529,28.0243285 C30.8899529,28.8738913 30.2683563,29.5143445 29.4450889,29.5143445 L26.3626627,29.5143445 C25.5757573,29.5143445 24.9177987,28.859669 24.9177987,28.0243285 L24.9177987,24.7618324 L30.4062836,24.7618324 L30.4062836,25.2618324 L30.8899529,25.2618324 Z M2.08384035,25.7618324 L2.08384035,28.0243285 C2.08384035,28.3212367 2.27093041,28.5143445 2.5590074,28.5143445 L5.64143271,28.5143445 C5.90094933,28.5143445 6.11659976,28.2999557 6.11659976,28.0243285 L6.11659976,25.7618324 L2.08384035,25.7618324 Z M6.60144824,25.7618324 L6.60262739,25.2618324 L6.60144824,25.7618324 Z M7.08629673,25.2618324 L7.08629673,28.0243285 C7.08629673,28.8606046 6.42870975,29.5143445 5.64143271,29.5143445 L2.5590074,29.5143445 C1.73518891,29.5143445 1.11414338,28.8733229 1.11414338,28.0243285 L1.11414338,24.7618324 L6.60262739,24.7618324 L6.60262739,25.2618324 L7.08629673,25.2618324 Z M7.26201772,5.21815206 C12.6735582,4.11997324 19.3847201,4.1231534 24.7890413,5.22769149 L25.0500822,5.28104315 L28.402227,14.1621924 L27.5261223,13.9726158 C20.365027,12.4230563 11.6894988,12.4230563 4.47730594,13.9727597 L3.60241274,14.1607503 L6.97775117,5.21815206 L7.26201772,5.21815206 Z M5.15082101,12.8152756 C12.0168683,11.4759522 20.0289848,11.475508 26.8528143,12.8140568 L24.3399269,6.15643025 C19.207158,5.14968893 12.9004902,5.14390241 7.66751899,6.14755342 L5.15082101,12.8152756 Z M26.8680222,14.8082322 C28.3045497,14.8082322 29.4752814,15.9756725 29.4752814,17.4444883 C29.4752814,18.9193606 28.2982133,20.1332243 26.8680222,20.1332243 C25.4437068,20.1332243 24.3116527,18.9259292 24.3116527,17.4444883 C24.3116527,15.9695939 25.4378216,14.8082322 26.8680222,14.8082322 Z M26.8680222,15.8082322 C25.9733704,15.8082322 25.2813497,16.5218786 25.2813497,17.4444883 C25.2813497,18.3810184 25.9866767,19.1332243 26.8680222,19.1332243 C27.7626622,19.1332243 28.5055844,18.3670781 28.5055844,17.4444883 C28.5055844,16.5356125 27.7761534,15.8082322 26.8680222,15.8082322 Z M5.13719028,15.8082322 C4.22905935,15.8082322 3.49962898,16.5356123 3.49962898,17.4444883 C3.49962898,18.3670783 4.24255051,19.1332243 5.13719028,19.1332243 C6.01853582,19.1332243 6.7238628,18.3810184 6.7238628,17.4444883 C6.7238628,16.5218786 6.03184206,15.8082322 5.13719028,15.8082322 Z M5.13719028,14.8082322 C6.5673909,14.8082322 7.69355977,15.9695939 7.69355977,17.4444883 C7.69355977,18.9259292 6.56150573,20.1332243 5.13719028,20.1332243 C3.70699935,20.1332243 2.52993201,18.9193607 2.52993201,17.4444883 C2.52993201,15.9756724 3.70066291,14.8082322 5.13719028,14.8082322 Z" id="Fill-1" fill="#334146" fill-rule="nonzero"></path>
            </g>
        </g>
    </g>
</svg>