<?xml version="1.0" encoding="UTF-8"?>
<svg width="32px" height="24px" viewBox="0 0 32 24" version="1.1" xmlns="http://www.w3.org/2000/svg" xmlns:xlink="http://www.w3.org/1999/xlink">
    <!-- Generator: Sketch 50.2 (55047) - http://www.bohemiancoding.com/sketch -->
    <title>context/context</title>
    <desc>Created with Sketch.</desc>
    <defs></defs>
    <g id="Page-1" stroke="none" stroke-width="1" fill="none" fill-rule="evenodd">
        <g id="Program-Design-Copy" transform="translate(-18.000000, -369.000000)">
            <g id="program" transform="translate(18.000000, 364.000000)">
                <g id="Group-4">
                    <g id="context">
                        <g id="context/context">
                            <rect id="Rectangle-2" x="0" y="0" width="32" height="32"></rect>
                            <g transform="translate(0.000000, 4.800000)" fill="#334146">
                                <path d="M5.61771031,13.6829855 C7.69315623,13.6829855 9.41277672,15.4026059 9.41277672,17.4780519 C9.41277672,19.5534978 7.69315623,21.2731183 5.61771031,21.2731183 C3.54226439,21.2731183 1.8226439,19.5534978 1.8226439,17.4780519 C1.8226439,15.4026059 3.54226439,13.6829855 5.61771031,13.6829855 Z M5.61771031,12.1649589 C2.68245414,12.1649589 0.304617331,14.5427957 0.304617331,17.4780519 C0.304617331,20.413308 2.68245414,22.7911448 5.61771031,22.7911448 C8.55099304,22.7911448 10.9308033,20.3618975 10.9308033,17.426439 C10.9308033,14.4909804 8.55099304,12.1649589 5.61771031,12.1649589 Z" id="Fill-1"></path>
                                <path d="M31.5942457,17.5325604 C31.8744167,17.9529026 31.5730884,18.515876 31.0679317,18.515876 L23.6300063,18.515876 C23.1193806,18.515876 22.8192245,17.9420311 23.1104651,17.5226058 L26.9055315,12.0572042 C27.160053,11.6906592 27.7038883,11.6958355 27.9513867,12.0671588 L31.5942457,17.5325604 Z M27.4143707,13.5423434 L24.8392547,17.2508539 L29.8862075,17.2508539 L27.4143707,13.5423434 Z" id="Stroke-2" fill-rule="nonzero"></path>
                                <polygon id="Stroke-3" fill-rule="nonzero" points="15.1802657 4.67552182 16.1922834 4.67552182 16.1922834 6.69955724 15.1802657 6.69955724"></polygon>
                                <polygon id="Stroke-4" fill-rule="nonzero" points="15.1802657 11.7596458 16.1922834 11.7596458 16.1922834 18.8437698 15.1802657 18.8437698"></polygon>
                                <polygon id="Stroke-5" fill-rule="nonzero" points="15.1802657 21.373814 16.1922834 21.373814 16.1922834 23.3978495 15.1802657 23.3978495"></polygon>
                                <path d="M5.21239722,12.4670462 L3.69437065,12.4670462 C3.69437065,5.70626173 9.16232451,0.222137887 15.9392789,0.222137887 C22.7343445,0.222137887 28.1841872,5.67281151 28.1841872,12.4670462 L26.6661607,12.4670462 C26.6661607,6.51114263 21.8959097,1.74016445 15.9392789,1.74016445 C10.0017125,1.74016445 5.21239722,6.54364284 5.21239722,12.4670462 Z" id="Stroke-6" fill-rule="nonzero"></path>
                            </g>
                        </g>
                    </g>
                </g>
            </g>
        </g>
    </g>
</svg>