<?xml version="1.0" encoding="UTF-8"?>
<svg width="25px" height="20px" viewBox="0 0 25 20" version="1.1" xmlns="http://www.w3.org/2000/svg" xmlns:xlink="http://www.w3.org/1999/xlink">
    <!-- Generator: Sketch 49.3 (51167) - http://www.bohemiancoding.com/sketch -->
    <title>icon/friendship/friendship-outline-black</title>
    <desc>Created with Sketch.</desc>
    <defs></defs>
    <g id="Page-1" stroke="none" stroke-width="1" fill="none" fill-rule="evenodd">
        <g id="Home-Splash-Page-edits" transform="translate(-185.000000, -773.000000)" fill="#334146">
            <g id="program" transform="translate(0.000000, 473.000000)">
                <g id="3-things" transform="translate(185.000000, 262.000000)">
                    <g id="friendship" transform="translate(0.000000, 36.000000)">
                        <g id="icon/friendship/friendship-outline-black" transform="translate(0.000000, 2.000000)">
                            <path d="M15.1745205,12.9441096 C15.3222082,12.9451781 15.4484932,13.0500603 15.4773973,13.1966795 C15.6197342,13.8687616 16.2308219,14.1983781 16.867589,14.2090904 C17.1854521,14.2144411 17.4958082,14.1309644 17.7216164,13.9789973 C17.9474301,13.8270274 18.0951233,13.6215452 18.1357808,13.3197644 C18.1454137,13.2362877 18.1882219,13.1613726 18.2545726,13.1100027 C18.3198548,13.0586329 18.4033315,13.0372301 18.485737,13.0479315 C18.5681425,13.0586329 18.6419863,13.1025123 18.6922877,13.1699342 C18.7425863,13.2362877 18.7639918,13.3208329 18.7511479,13.4032384 C18.6869342,13.8826904 18.4172301,14.2636767 18.0662164,14.4991288 C17.7141068,14.7356438 17.2860247,14.840526 16.856874,14.8341151 C15.9985726,14.8202027 15.0792575,14.3182795 14.8695041,13.3261973 C14.8491699,13.2330904 14.8716438,13.1357014 14.9305068,13.0618575 C14.9893671,12.9869425 15.0792658,12.9441342 15.1745123,12.9441342 L15.1745205,12.9441096 Z" id="Fill-1"></path>
                            <path d="M20.1679452,9.73890411 C20.3274055,9.7431863 20.4579726,9.86732877 20.4697534,10.027863 C20.5157726,10.5244384 20.3563123,10.9471781 20.0812603,11.2243562 C19.8062082,11.5015342 19.4359178,11.6353151 19.0699178,11.6385205 C18.7039178,11.6417315 18.330411,11.5122356 18.0575068,11.2329041 C17.7835342,10.9546575 17.6315616,10.5265753 17.6829315,10.0246301 C17.6893534,9.94008493 17.7289507,9.8619589 17.7931616,9.80737808 C17.8573753,9.75279726 17.9419205,9.72711233 18.0253973,9.73567397 C18.108874,9.74530685 18.1848575,9.78704384 18.2372986,9.85339726 C18.2886685,9.92081918 18.3122137,10.0053671 18.3015123,10.0888438 C18.265126,10.4398575 18.3593041,10.6496384 18.4995014,10.7919671 C18.6396986,10.9353753 18.8494466,11.0134986 19.0667068,11.0113589 C19.2839589,11.0081479 19.4979945,10.9278822 19.6424877,10.7812658 C19.7880356,10.6346466 19.8832849,10.4259507 19.8511781,10.0845534 L19.8511781,10.0856247 C19.8426164,9.99572877 19.8715123,9.90690137 19.9314438,9.84054795 C19.9924466,9.77419452 20.078063,9.73780822 20.1679589,9.73887945 L20.1679452,9.73890411 Z" id="Fill-2"></path>
                            <path d="M15.6293151,9.73890411 C15.7887753,9.74211507 15.9214795,9.86625753 15.9343288,10.025726 C15.9835589,10.5223014 15.8262384,10.9461096 15.5512055,11.2243562 C15.2772329,11.5015342 14.9047945,11.6353151 14.5387945,11.6385205 C14.171726,11.6417315 13.7982192,11.5122356 13.5242466,11.2339726 C13.2492055,10.955726 13.0961644,10.5276438 13.1475342,10.0256986 L13.1475342,10.0246274 C13.1528849,9.94008219 13.1935534,9.86195616 13.2577644,9.80737534 C13.3219753,9.75279452 13.4054521,9.72710959 13.4889288,9.73567123 C13.5724055,9.74530411 13.6494603,9.7870411 13.7008301,9.85339452 C13.7532712,9.92081644 13.7768137,10.0053644 13.7650438,10.0888411 C13.7286575,10.4398548 13.8228356,10.6485671 13.9641014,10.7919644 C14.1053671,10.9353616 14.316211,11.0134959 14.5345123,11.0124274 C14.7528356,11.0092192 14.9668685,10.9289507 15.1102932,10.7823342 C15.2547699,10.6367863 15.3489479,10.4280877 15.3157726,10.0877589 C15.3061397,9.99786301 15.3339671,9.90903562 15.3949671,9.84161096 C15.4548986,9.77525753 15.5405151,9.7378 15.6293425,9.73887123 L15.6293151,9.73890411 Z" id="Fill-3"></path>
                            <path d="M5.74164384,8.00931507 C5.88826301,8.01145479 6.01454521,8.11740548 6.04238356,8.26295342 C6.31742466,9.60391233 8.53810959,9.5921589 8.69969863,8.38388767 L8.70076986,8.3849589 C8.7104,8.30148219 8.75321096,8.22656986 8.81956164,8.1752 C8.88484384,8.12490137 8.96832055,8.1024274 9.05072603,8.11312877 C9.13206301,8.12490137 9.20697534,8.16877808 9.25727671,8.23513151 C9.30650685,8.30148493 9.32790959,8.38603014 9.31613699,8.46843562 C9.05928767,10.3873123 5.84216438,10.3766 5.43449315,8.39030959 C5.4141589,8.29720274 5.43663288,8.1998137 5.49656438,8.12489863 C5.55649589,8.05105479 5.64639452,8.00824658 5.7416411,8.00931507 L5.74164384,8.00931507 Z" id="Fill-4"></path>
                            <path d="M10.7320548,4.80520548 C10.8915151,4.80841644 11.0231507,4.93363014 11.0349315,5.09309589 C11.0809507,5.58967123 10.9214904,6.01241096 10.6464384,6.28958904 C10.3713863,6.56676712 10.0010959,6.70054795 9.63509589,6.70375342 C9.26909589,6.70696438 8.89558904,6.57746849 8.62268493,6.29813699 C8.34871233,6.01989041 8.19673973,5.59180822 8.24810959,5.08986301 C8.25453151,5.00531781 8.29412877,4.92719178 8.35833973,4.87261096 C8.42255342,4.81803014 8.5060274,4.79234521 8.58950411,4.80090685 C8.67298082,4.81053973 8.75003562,4.85227671 8.80247397,4.91863014 C8.85384384,4.98605205 8.87738904,5.0706 8.86561644,5.15407671 C8.82923014,5.50509041 8.92340822,5.71487123 9.06360548,5.8572 C9.20380274,6.00060822 9.41355068,6.07873151 9.63081096,6.07659178 C9.84806301,6.07445205 10.0620986,5.99311507 10.2065918,5.84649863 C10.3521397,5.69987945 10.447389,5.49118356 10.4152822,5.1497863 L10.4163534,5.15085753 C10.4067205,5.06096164 10.4366877,4.97213425 10.4966192,4.90578082 C10.5576219,4.8394274 10.6432384,4.8030411 10.7320658,4.80518082 L10.7320548,4.80520548 Z" id="Fill-5"></path>
                            <path d="M6.19643836,4.80520548 C6.35589863,4.80841644 6.48646575,4.93363014 6.49931507,5.09309589 C6.54533425,5.58967123 6.38587397,6.01241096 6.11082192,6.28958904 C5.83578082,6.56676712 5.46547945,6.70054795 5.09947945,6.70375342 C4.73347945,6.70696438 4.3599726,6.57746849 4.08706849,6.29813699 C3.81309589,6.01989041 3.66112329,5.59180822 3.71249315,5.08986301 L3.71142192,5.08986301 C3.71784384,5.00531781 3.7574411,4.92719178 3.82272329,4.87261096 C3.88693699,4.81803014 3.97041096,4.79234521 4.05388767,4.80090685 C4.13736438,4.81053973 4.21441918,4.85227671 4.26578904,4.91863014 C4.31823014,4.98605205 4.34070411,5.0706 4.33000274,5.15407671 C4.29361644,5.50509041 4.38779452,5.71487123 4.52799178,5.8572 C4.66818904,6.00060822 4.87793699,6.07873151 5.09519726,6.07659178 C5.31244932,6.07445205 5.52648493,5.99311507 5.67097808,5.84649863 C5.81652603,5.69987945 5.91177534,5.49118356 5.87966849,5.1497863 L5.88073973,5.15085753 C5.87110685,5.06096164 5.90000274,4.97213425 5.96100548,4.90578082 C6.02093699,4.8394274 6.10655342,4.8030411 6.19645205,4.80518082 L6.19643836,4.80520548 Z" id="Fill-6"></path>
                            <path d="M7.35013699,0 C10.7265753,0 13.570137,2.302 14.4189041,5.43780822 C15.1680548,5.17239726 15.9696438,5.01720548 16.8076164,5.01720548 C20.8391233,5.01720548 24.1095342,8.31035616 24.1095342,12.371726 C24.1095342,16.4330959 20.8399452,19.7262466 16.8076164,19.7262466 C13.4665205,19.7262466 10.6410411,17.4584932 9.77747945,14.3569315 C9.01334247,14.6351781 8.2,14.7871507 7.35024658,14.7871507 C3.29627397,14.7871507 0.000109863014,11.4674247 0.000109863014,7.38358904 C0.000109863014,3.31043836 3.29627397,0.000301369863 7.35024658,0.000301369863 L7.35013699,0 Z M7.35013699,0.626082192 C3.63123288,0.626082192 0.621643562,3.65046575 0.621643562,7.38443836 C0.621643562,11.1301918 3.63205479,14.1619726 7.35013699,14.1619726 C8.15172603,14.1619726 8.918,14.0100027 9.63180822,13.7413699 C9.5526137,13.3025753 9.50552329,12.842411 9.50552329,12.3725753 C9.50552329,9.37805479 11.2788658,6.80654795 13.8356603,5.66353425 C13.0800986,2.76545205 10.4677151,0.626 7.35018082,0.626 L7.35013699,0.626082192 Z M16.8076712,5.64306849 C15.8487671,5.64306849 14.9369589,5.84961918 14.1182466,6.21991781 C11.7616438,7.2580274 10.1275616,9.61361644 10.1275616,12.3714247 C10.2773918,16.5215616 13.7694795,19.0451233 16.8078356,19.0999178 C20.504274,19.0999178 23.4881096,16.0947123 23.4881096,12.3714247 C23.4881096,8.64813699 20.504274,5.64293151 16.8078356,5.64293151 L16.8076712,5.64306849 Z" id="Fill-7"></path>
                        </g>
                    </g>
                </g>
            </g>
        </g>
    </g>
</svg>