<?xml version="1.0" encoding="UTF-8"?>
<svg width="32px" height="32px" viewBox="0 0 32 32" version="1.1" xmlns="http://www.w3.org/2000/svg" xmlns:xlink="http://www.w3.org/1999/xlink">
    <!-- Generator: Sketch 50.2 (55047) - http://www.bohemiancoding.com/sketch -->
    <title>home/home</title>
    <desc>Created with Sketch.</desc>
    <defs></defs>
    <g id="Page-1" stroke="none" stroke-width="1" fill="none" fill-rule="evenodd">
        <g id="Artboard" transform="translate(-136.000000, -192.000000)">
            <g id="home/home" transform="translate(136.000000, 192.000000)">
                <rect id="Rectangle" fill-opacity="0.01" fill="#FFFFFF" x="0" y="0" width="32" height="32"></rect>
                <path d="M31.7867883,13.8467537 L31.7866688,13.846775 C31.9166686,13.9684292 32,14.1417608 32,14.3334261 C32,14.7017552 31.7016691,15.0000861 31.33334,15.0000861 C31.1400193,15.0000861 30.9683559,14.9167547 30.8466889,14.7867549 L30.8166902,14.8167536 L15.9833452,2.5634361 L1.15000023,14.8167536 L1.13833528,14.8050886 C1.01665543,14.9250874 0.849992567,15.0000861 0.66666,15.0000861 C0.298330883,15.0000861 0,14.7017552 0,14.3334261 C0,14.1484168 0.0749987167,13.9817496 0.194997517,13.8617508 L0.179996067,13.8467494 L15.5133894,1.17999607 L15.5283908,1.19499752 C15.6500707,1.07499872 15.8167336,1 16.0000661,1 C16.175066,1 16.3350644,1.06833425 16.4533949,1.18000033 L31.7867883,13.8467537 Z M26.2129091,13.3732096 L26.2134979,13.3732096 C26.581827,13.3732096 26.8801579,13.6715405 26.8801579,14.0398696 L26.8801579,28.7063896 C26.8801579,29.0747187 26.581827,29.3730496 26.2134979,29.3730496 L18.8800245,29.3730496 C18.5116954,29.3730496 18.2133645,29.0747187 18.2133645,28.7063896 L18.2133645,23.3731096 L14.2134045,23.3731096 L14.2134045,28.7063896 C14.2134045,29.0747187 13.9150736,29.3730496 13.5467445,29.3730496 L6.2132712,29.3730496 C5.84494208,29.3730496 5.5466112,29.0747187 5.5466112,28.7063896 L5.5466112,14.0398696 C5.5466112,13.6715405 5.84494208,13.3732096 6.2132712,13.3732096 C6.58160032,13.3732096 6.8799312,13.6715405 6.8799312,14.0398696 L6.8799312,28.0395163 L12.8783779,28.0395163 L12.8783779,22.7062363 C12.8783779,22.3379072 13.1767088,22.0395763 13.5450379,22.0395763 L13.5483701,22.0395763 L18.8765302,22.0395763 L18.8798624,22.0395763 C19.2481915,22.0395763 19.5465224,22.3379072 19.5465224,22.7062363 L19.5465224,28.0395163 L25.5462491,28.0395163 L25.5462491,14.0398696 C25.5462491,13.6715405 25.84458,13.3732096 26.2129091,13.3732096 Z" id="Combined-Shape" fill="#334146"></path>
            </g>
        </g>
    </g>
</svg>