<?xml version="1.0" encoding="UTF-8"?>
<svg width="32px" height="32px" viewBox="0 0 32 32" version="1.1" xmlns="http://www.w3.org/2000/svg" xmlns:xlink="http://www.w3.org/1999/xlink">
    <!-- Generator: Sketch 50.2 (55047) - http://www.bohemiancoding.com/sketch -->
    <title>goal/goal</title>
    <desc>Created with Sketch.</desc>
    <defs></defs>
    <g id="Page-1" stroke="none" stroke-width="1" fill="none" fill-rule="evenodd">
        <g id="Program-Design-Copy" transform="translate(-16.000000, -410.000000)">
            <g id="program" transform="translate(16.000000, 364.000000)">
                <g id="Group-4">
                    <g id="goal" transform="translate(0.000000, 46.000000)">
                        <g id="goal/goal">
                            <rect id="Rectangle-2" x="0" y="0" width="32" height="32"></rect>
                            <g fill="#334146">
                                <path d="M0.2562496,15.93632 C0.2562496,24.60768 7.3276096,31.68 15.9999296,31.68 C24.6722496,31.68 31.7436096,24.60736 31.7436096,15.93632 C31.7436096,7.26368 24.6722496,0.22368 15.9999296,0.22368 C7.3276096,0.22368 0.2562496,7.26368 0.2562496,15.93632 Z M30.4325696,15.93632 C30.4325696,23.90368 23.9688896,30.36896 15.9999296,30.36896 C8.0325696,30.3677101 1.5672896,23.904 1.5672896,15.93632 C1.5672896,7.96768 8.0322496,1.53632 15.9999296,1.53632 C23.9676096,1.53632 30.4325696,8 30.4325696,15.93632 Z" id="Fill-1"></path>
                                <path d="M4.35264,15.93632 C4.35264,22.36896 9.56896,27.58368 16,27.58368 C22.43264,27.58368 27.64736,22.36736 27.64736,15.93632 C27.64736,9.50368 22.43232,4.32 16,4.32 C9.56768,4.32 4.35264,9.53632 4.35264,15.93632 Z M26.33632,15.93632 C26.33632,21.63264 21.69632,26.27264 16,26.27264 C10.30368,26.27264 5.66368,21.63264 5.66368,15.93632 C5.66368,10.24 10.30368,5.63264 16,5.63264 C21.69632,5.63264 26.33632,10.24 26.33632,15.93632 Z" id="Fill-2"></path>
                                <path d="M18.52736,15.93632 C18.52736,17.332576 17.396096,18.463808 15.999872,18.463808 C14.603648,18.463808 13.472384,17.332544 13.472384,15.93632 C13.472384,14.540096 14.603648,13.407584 15.999872,13.407584 C17.396096,13.407584 18.52736,14.540096 18.52736,15.93632" id="Fill-3"></path>
                                <path d="M15.29632,8.86368 C11.93632,9.18368 9.24896,11.90368 8.92896,15.26368 L7.425216,15.26368 L7.425216,16.576192 L8.92896,16.576192 C9.24896,19.999872 11.96896,22.688832 15.39264,23.008832 L15.39264,24.41632 L16.705152,24.41632 L16.705152,23.008832 C20.097792,22.688832 22.817792,19.93632 23.072512,16.512512 L24.576256,16.512512 L24.576256,15.2 L23.072512,15.2 C22.72,11.84 20,9.15264 16.607552,8.86368 L16.607552,7.26368 L15.29504,7.26368 L15.29632,8.86368 Z M21.79264,15.93632 C21.79264,19.13632 19.200128,21.72896 16,21.72896 C12.799872,21.72896 10.20736,19.136448 10.20736,15.93632 C10.20736,12.736192 12.799872,10.14368 16,10.14368 C19.200128,10.14368 21.79264,12.767424 21.79264,15.93632 Z" id="Fill-4"></path>
                            </g>
                        </g>
                    </g>
                </g>
            </g>
        </g>
    </g>
</svg>