<?xml version="1.0" encoding="UTF-8"?>
<svg width="32px" height="32px" viewBox="0 0 32 32" version="1.1" xmlns="http://www.w3.org/2000/svg" xmlns:xlink="http://www.w3.org/1999/xlink">
    <!-- Generator: Sketch 50.2 (55047) - http://www.bohemiancoding.com/sketch -->
    <title>plane/plane</title>
    <desc>Created with Sketch.</desc>
    <defs></defs>
    <g id="Page-1" stroke="none" stroke-width="1" fill="none" fill-rule="evenodd">
        <g id="Artboard" transform="translate(-77.000000, -228.000000)">
            <g id="plane/plane" transform="translate(77.000000, 228.000000)">
                <rect id="Rectangle" fill-opacity="0.01" fill="#FFFFFF" x="0" y="0" width="32" height="32"></rect>
                <path d="M29.6896092,19.5189895 L29.6896092,15.7877857 L18.9396277,9.85676145 L18.9396277,2.96551214 C18.9396277,1.73747944 17.9238072,0.741378034 16.7154936,0.741378034 C15.50718,0.741378034 14.4913595,1.73747944 14.4913595,2.96551214 L14.4913595,9.85676145 L3.74137803,15.7877857 L3.74137803,19.5189895 L14.8620485,16.1827884 L14.8620485,26.0891669 L11.8965364,29.4253681 L11.8965364,31.0171329 L16.7154936,29.640288 L21.5344509,31.0171329 L21.5344509,29.4253681 L18.5689387,26.0891669 L18.5689387,16.1827884 L29.6896092,19.5189895 Z M30.4309873,15.3500917 L30.4309873,20.5154243 L19.3103168,17.1792232 L19.3103168,25.8072955 L22.2758289,29.1434966 L22.2758289,32 L16.7154936,30.4113328 L11.1551584,32 L11.1551584,29.1434966 L14.1206705,25.8072955 L14.1206705,17.1792232 L3,20.5154243 L3,15.3500917 L13.7499815,9.41906744 L13.7499815,2.96551214 C13.7499815,1.3247395 15.1009459,0 16.7154936,0 C18.3300414,0 19.6810058,1.3247395 19.6810058,2.96551214 L19.6810058,9.41906744 L30.4309873,15.3500917 Z M14.2143031,25.7019588 L14.1206705,25.9482312 L14.1206705,25.8072955 L14.2143031,25.7019588 Z" id="Fill-1" fill="#334146" fill-rule="nonzero"></path>
            </g>
        </g>
    </g>
</svg>