<?xml version="1.0" encoding="UTF-8"?>
<svg width="38px" height="37px" viewBox="0 0 38 37" version="1.1" xmlns="http://www.w3.org/2000/svg" xmlns:xlink="http://www.w3.org/1999/xlink">
    <!-- Generator: Sketch 49.3 (51167) - http://www.bohemiancoding.com/sketch -->
    <title>icon/share/share-outline-white</title>
    <desc>Created with Sketch.</desc>
    <defs></defs>
    <g id="Page-1" stroke="none" stroke-width="1" fill="none" fill-rule="evenodd">
        <g id="Home-Splash-Page-edits" transform="translate(-799.000000, -1148.000000)" fill="#FFFFFF">
            <g id="to-do's" transform="translate(0.000000, 981.000000)">
                <g id="Group-2" transform="translate(118.000000, 167.000000)">
                    <g id="share" transform="translate(614.000000, 0.000000)">
                        <path d="M99.2098391,11.6375277 C102.401584,11.6375277 105,9.02798719 105,5.81796714 C105,2.60934133 102.402931,0 99.2098391,0 C96.0165485,0 93.4180923,2.60954051 93.4180923,5.81796714 C93.4180923,6.49951182 93.5419831,7.15309201 93.7572439,7.7614988 L79.3565725,15.9668043 C78.0959786,14.312717 76.1183641,13.240546 73.8899153,13.240546 C70.0911253,13.240546 67,16.3449224 67,20.161955 C67,23.9789876 70.0910856,27.083364 73.8899153,27.083364 C75.9728271,27.083364 77.8373738,26.1465937 79.1024477,24.6745544 L90.4742365,29.5528033 C90.3240175,30.0694292 90.238844,30.6140594 90.238844,31.1804398 C90.238844,34.3890656 92.8374587,37 96.0305907,37 C99.2223352,37 101.820752,34.3904599 101.820752,31.1804398 C101.820752,27.9733676 99.2236831,25.3624727 96.0305907,25.3624727 C93.6797577,25.3624727 91.6557584,26.7785034 90.7498688,28.8044944 L79.6044533,24.0226472 C80.346252,22.9194045 80.7783038,21.590494 80.7783038,20.1604811 C80.7783038,18.8689362 80.4174704,17.6629977 79.8026786,16.6266387 L94.0733142,8.49781722 C95.0412086,10.3604431 96.9785438,11.6379659 99.2101245,11.6379659 L99.2098391,11.6375277 Z M96.0007932,26 C98.7584279,26 101,28.241731 101,30.9992072 C101,33.7566834 98.7582692,36 96.0007932,36 C93.2433172,36 91,33.7567231 91,30.9992072 C91,28.2416913 93.2432775,26 96.0007932,26 Z M74.0007802,26 C70.6917471,26 68,23.3079415 68,20 C68,16.6920585 70.6917081,14 74.0007802,14 C77.3082915,14 80,16.6920585 80,20 C80,23.3079415 77.3098133,26 74.0007802,26 Z M99.0007932,1 C101.758428,1 104,3.24327754 104,5.99920679 C104,8.75684144 101.758269,11 99.0007932,11 C96.2431586,11 94,8.75672246 94,5.99920679 C94,3.2431189 96.2432775,1 99.0007932,1 Z" id="icon/share/share-outline-white"></path>
                    </g>
                </g>
            </g>
        </g>
    </g>
</svg>