<?xml version="1.0" encoding="UTF-8"?>
<svg width="75px" height="54px" viewBox="0 0 75 54" version="1.1" xmlns="http://www.w3.org/2000/svg" xmlns:xlink="http://www.w3.org/1999/xlink">
    <!-- Generator: Sketch 50.2 (55047) - http://www.bohemiancoding.com/sketch -->
    <title>megaphone/megaphone</title>
    <desc>Created with Sketch.</desc>
    <defs></defs>
    <g id="Page-1" stroke="none" stroke-width="1" fill="none" fill-rule="evenodd">
        <g id="Artboard-1" transform="translate(-125.000000, -25.000000)" fill="#50E3C2">
            <g id="megaphone/megaphone" transform="translate(125.000000, 25.000000)">
                <path d="M63.7517442,23.7200581 C63.7517442,20.231686 61.9189535,17.1793605 59.0438372,15.4351744 L59.0404273,3.22587209 C59.0404273,1.65540698 57.8208924,0.435872093 56.2504273,0.435872093 C54.7685669,0.435872093 53.6341483,1.5702907 53.4604273,2.96354651 L21.8025785,10.3763372 L9.76682267,10.3763372 C6.54077616,10.3763372 3.83589244,12.9926163 3.75077616,16.2186628 L3.05242151,16.2186628 C1.48195988,16.2186628 0.173819477,17.5268023 0.173819477,19.0972674 L0.173819477,28.5167442 C0.173819477,30.0872093 1.48195901,31.3953488 3.05242151,31.3953488 L3.75077616,31.3953488 C3.83934593,34.1853488 5.84240407,36.454186 8.45868314,37.0639535 L10.4651948,48.8372093 C10.9012413,51.3648837 11.6847297,53.6337209 14.7370552,53.6337209 L18.9237994,53.6337209 C19.9696134,53.6337209 20.7565901,53.2862442 21.3663576,52.6730233 C22.3270552,51.5386047 22.1498808,49.7944186 21.9761424,48.5748837 L19.9696308,37.1487209 L21.8875378,37.1487209 L53.5453866,44.5615116 C53.6339564,45.9582558 54.8535262,47.089186 56.3353866,47.089186 C57.9058517,47.089186 59.1253866,45.8696512 59.1253866,44.299186 L59.1287965,32.0044186 C61.9187965,30.3488372 63.7515872,27.207907 63.7515872,23.7195349 L63.7517442,23.7200581 Z M3.75086337,29.8247093 L3.05250872,29.8247093 C2.26898983,29.8247093 1.6557689,29.2149244 1.6557689,28.4279651 L1.6557689,19.0119767 C1.6557689,18.2284535 2.26555378,17.6152326 3.05250872,17.6152326 L3.75086337,17.6152326 L3.75086337,29.8247093 Z M20.147093,47.0930233 L17.2684884,47.0930233 C16.8324419,47.0930233 16.4849651,47.4405 16.4849651,47.8765465 C16.4849651,48.312593 16.8324419,48.6600698 17.2684884,48.6600698 L20.4094186,48.6600698 L20.4094186,48.8338081 C20.583157,50.3156686 20.4979884,51.2763663 20.1471105,51.7124128 C19.8848023,51.9747209 19.4487558,52.1484593 18.8389709,52.1484593 L14.6522267,52.1484593 C12.9966453,52.1484593 12.2982733,51.2763663 11.947343,48.5714826 L9.9408314,37.1453198 L18.3143198,37.1453198 L18.7503663,39.7615988 L15.4357151,39.7615988 C14.9996686,39.7615988 14.6521919,40.1090756 14.6521919,40.5451221 C14.6521919,40.9811686 14.9996686,41.3286453 15.4357151,41.3286453 L19.0126919,41.3286453 L19.3601686,43.5088779 L16.2192384,43.5088779 C15.7831919,43.5088779 15.4357151,43.8563547 15.4357151,44.2924012 C15.4357151,44.7284477 15.7831919,45.0759244 16.2192384,45.0759244 L19.6190058,45.0759244 L20.147093,47.0930233 Z M21.192907,35.6668605 L9.76674419,35.6668605 C7.23906977,35.6668605 5.23255814,33.6603488 5.23255814,31.1326744 L5.23255814,16.3960465 C5.23255814,13.8683721 7.23906977,11.8618605 9.76674419,11.8618605 L21.192907,11.8618605 L21.192907,35.6668605 Z M53.545814,42.9944477 L22.6754651,35.7553779 L22.6754651,11.6838663 L53.4612122,4.44479651 L53.4612122,42.9939244 L53.545814,42.9944477 Z M57.5588372,44.3025872 C57.5588372,45.0009419 56.9490523,45.6107267 56.2506977,45.6107267 C55.552343,45.6107267 54.9425581,45.0009419 54.9425581,44.3025872 L54.9425581,3.22526163 C54.9425581,2.52690698 55.552343,1.91712209 56.2506977,1.91712209 C56.9490523,1.91712209 57.5588372,2.52690698 57.5588372,3.22526163 L57.5588372,44.3025872 Z M59.0406977,30.1756395 L59.0406977,17.3531686 C60.9586047,18.8350291 62.1816279,21.1889826 62.1816279,23.8052616 C62.2667878,26.3363372 60.9586919,28.6903779 59.0406977,30.1756395 Z" id="Fill-1"></path>
                <path d="M73.6918605,22.3273256 L67.675814,22.3273256 C67.0660291,22.3273256 66.5413953,22.8519419 66.5413953,23.4617442 C66.5413953,24.0715291 67.0660116,24.5961628 67.675814,24.5961628 L73.6918605,24.5961628 C74.3016453,24.5961628 74.8262791,24.0715465 74.8262791,23.4617442 C74.8262791,22.8485581 74.3016628,22.3273256 73.6918605,22.3273256 Z" id="Fill-2"></path>
                <path d="M64.7973837,17.1793605 C64.9711221,17.5268372 65.4071686,17.7039767 65.7580814,17.7039767 C65.9318198,17.7039767 66.1055581,17.615407 66.2826977,17.5302384 L71.5152558,14.5665174 C72.0398721,14.2190407 72.2136105,13.6058198 71.9513023,13.084657 C71.6038256,12.5600407 70.9906047,12.3863023 70.4694419,12.6486105 L65.2368837,15.6123314 C64.623689,15.9598081 64.4465494,16.6581453 64.7974273,17.1793953 L64.7973837,17.1793605 Z" id="Fill-3"></path>
                <path d="M60.0008721,12.6453488 C60.1746105,12.7339186 60.3483488,12.8190872 60.5254884,12.8190872 C60.8729651,12.8190872 61.3090116,12.6453488 61.486186,12.2944709 L64.449907,7.06191279 C64.7973837,6.53729651 64.5384767,5.84237791 64.0138605,5.58005233 C63.4892442,5.23257558 62.7943256,5.49148256 62.532,6.01609884 L59.5682791,11.248657 C59.302561,11.6847035 59.4762994,12.3830756 60.0009157,12.6454012 L60.0008721,12.6453488 Z" id="Fill-4"></path>
                <path d="M71.9476744,32.5299419 L66.7151163,29.5662209 C66.1905,29.2187442 65.4955814,29.4776512 65.2332558,30.0022674 C64.8857791,30.5268837 65.144686,31.2218023 65.6693023,31.4841279 L70.9018605,34.4478488 C71.0755988,34.5364186 71.2493372,34.6215872 71.4264767,34.6215872 C71.7739535,34.6215872 72.21,34.4478488 72.3871744,34.0969709 C72.6460814,33.5757558 72.472343,32.877436 71.947718,32.529907 L71.9476744,32.5299419 Z" id="Fill-5"></path>
                <path d="M62.3546512,35.230814 C62.0071744,34.7061977 61.3939535,34.5324593 60.8727907,34.7947674 C60.3481744,35.1422442 60.174436,35.7554651 60.4367442,36.2766279 L63.4004651,41.509186 C63.5742035,41.8566628 64.01025,42.0338023 64.3611628,42.0338023 C64.5349012,42.0338023 64.7086395,41.9452326 64.8857791,41.860064 C65.4103953,41.5125872 65.5841337,40.8993663 65.3218256,40.3782035 L62.3546512,35.230814 Z" id="Fill-6"></path>
            </g>
        </g>
    </g>
</svg>