<?xml version="1.0" encoding="UTF-8"?>
<svg width="150px" height="108px" viewBox="0 0 150 108" version="1.1" xmlns="http://www.w3.org/2000/svg" xmlns:xlink="http://www.w3.org/1999/xlink">
    <!-- Generator: Sketch 49.3 (51167) - http://www.bohemiancoding.com/sketch -->
    <title>megaphone</title>
    <desc>Created with Sketch.</desc>
    <defs></defs>
    <g id="Page-1" stroke="none" stroke-width="1" fill="none" fill-rule="evenodd">
        <g id="Artboard-Copy" transform="translate(-25.000000, -46.000000)" fill="#3E474F">
            <g id="megaphone" transform="translate(25.000000, 46.000000)">
                <path d="M127.503488,47.4401163 C127.503488,40.4633721 123.837907,34.3587209 118.087674,30.8703488 L118.080855,6.45174419 C118.080855,3.31081395 115.641785,0.871744186 112.500855,0.871744186 C109.537134,0.871744186 107.268297,3.1405814 106.920855,5.92709302 L43.605157,20.7526744 L19.5336453,20.7526744 C13.0815523,20.7526744 7.67178488,25.9852326 7.50155233,32.4373256 L6.10484302,32.4373256 C2.96391977,32.4373256 0.347638953,35.0536047 0.347638953,38.1945349 L0.347638953,57.0334884 C0.347638953,60.1744186 2.96391802,62.7906977 6.10484302,62.7906977 L7.50155233,62.7906977 C7.67869186,68.3706977 11.6848081,72.9083721 16.9173663,74.127907 L20.9303895,97.6744186 C21.8024826,102.729767 23.3694593,107.267442 29.4741105,107.267442 L37.8475988,107.267442 C39.9392267,107.267442 41.5131802,106.572488 42.7327151,105.346047 C44.6541105,103.077209 44.2997616,99.5888372 43.9522849,97.1497674 L39.9392616,74.2974419 L43.7750756,74.2974419 L107.090773,89.1230233 C107.267913,91.9165116 109.707052,94.1783721 112.670773,94.1783721 C115.811703,94.1783721 118.250773,91.7393023 118.250773,88.5983721 L118.257593,64.0088372 C123.837593,60.6976744 127.503174,54.415814 127.503174,47.4390698 L127.503488,47.4401163 Z M7.50172674,59.6494186 L6.10501744,59.6494186 C4.53797965,59.6494186 3.31153779,58.4298488 3.31153779,56.8559302 L3.31153779,38.0239535 C3.31153779,36.456907 4.53110756,35.2304651 6.10501744,35.2304651 L7.50172674,35.2304651 L7.50172674,59.6494186 Z M40.294186,94.1860465 L34.5369767,94.1860465 C33.6648837,94.1860465 32.9699302,94.881 32.9699302,95.753093 C32.9699302,96.625186 33.6648837,97.3201395 34.5369767,97.3201395 L40.8188372,97.3201395 L40.8188372,97.6676163 C41.166314,100.631337 40.9959767,102.552733 40.2942209,103.424826 C39.7696047,103.949442 38.8975116,104.296919 37.6779419,104.296919 L29.3044535,104.296919 C25.9932907,104.296919 24.5965465,102.552733 23.894686,97.1429651 L19.8816628,74.2906395 L36.6286395,74.2906395 L37.5007326,79.5231977 L30.8714302,79.5231977 C29.9993372,79.5231977 29.3043837,80.2181512 29.3043837,81.0902442 C29.3043837,81.9623372 29.9993372,82.6572907 30.8714302,82.6572907 L38.0253837,82.6572907 L38.7203372,87.0177558 L32.4384767,87.0177558 C31.5663837,87.0177558 30.8714302,87.7127093 30.8714302,88.5848023 C30.8714302,89.4568953 31.5663837,90.1518488 32.4384767,90.1518488 L39.2380116,90.1518488 L40.294186,94.1860465 Z M42.385814,71.3337209 L19.5334884,71.3337209 C14.4781395,71.3337209 10.4651163,67.3206977 10.4651163,62.2653488 L10.4651163,32.792093 C10.4651163,27.7367442 14.4781395,23.7237209 19.5334884,23.7237209 L42.385814,23.7237209 L42.385814,71.3337209 Z M107.091628,85.9888953 L45.3509302,71.5107558 L45.3509302,23.3677326 L106.922424,8.88959302 L106.922424,85.9878488 L107.091628,85.9888953 Z M115.117674,88.6051744 C115.117674,90.0018837 113.898105,91.2214535 112.501395,91.2214535 C111.104686,91.2214535 109.885116,90.0018837 109.885116,88.6051744 L109.885116,6.45052326 C109.885116,5.05381395 111.104686,3.83424419 112.501395,3.83424419 C113.898105,3.83424419 115.117674,5.05381395 115.117674,6.45052326 L115.117674,88.6051744 Z M118.081395,60.3512791 L118.081395,34.7063372 C121.917209,37.6700581 124.363256,42.3779651 124.363256,47.6105233 C124.533576,52.6726744 121.917384,57.3807558 118.081395,60.3512791 Z" id="Fill-1"></path>
                <path d="M147.383721,44.6546512 L135.351628,44.6546512 C134.132058,44.6546512 133.082791,45.7038837 133.082791,46.9234884 C133.082791,48.1430581 134.132023,49.1923256 135.351628,49.1923256 L147.383721,49.1923256 C148.603291,49.1923256 149.652558,48.143093 149.652558,46.9234884 C149.652558,45.6971163 148.603326,44.6546512 147.383721,44.6546512 Z" id="Fill-2"></path>
                <path d="M129.594767,34.3587209 C129.942244,35.0536744 130.814337,35.4079535 131.516163,35.4079535 C131.86364,35.4079535 132.211116,35.230814 132.565395,35.0604767 L143.030512,29.1330349 C144.079744,28.4380814 144.427221,27.2116395 143.902605,26.169314 C143.207651,25.1200814 141.981209,24.7726047 140.938884,25.2972209 L130.473767,31.2246628 C129.247378,31.9196163 128.893099,33.3162907 129.594855,34.3587907 L129.594767,34.3587209 Z" id="Fill-3"></path>
                <path d="M120.001744,25.2906977 C120.349221,25.4678372 120.696698,25.6381744 121.050977,25.6381744 C121.74593,25.6381744 122.618023,25.2906977 122.972372,24.5889419 L128.899814,14.1238256 C129.594767,13.074593 129.076953,11.6847558 128.027721,11.1601047 C126.978488,10.4651512 125.588651,10.9829651 125.064,12.0321977 L119.136558,22.497314 C118.605122,23.369407 118.952599,24.7661512 120.001831,25.2908023 L120.001744,25.2906977 Z" id="Fill-4"></path>
                <path d="M143.895349,65.0598837 L133.430233,59.1324419 C132.381,58.4374884 130.991163,58.9553023 130.466512,60.0045349 C129.771558,61.0537674 130.289372,62.4436047 131.338605,62.9682558 L141.803721,68.8956977 C142.151198,69.0728372 142.498674,69.2431744 142.852953,69.2431744 C143.547907,69.2431744 144.42,68.8956977 144.774349,68.1939419 C145.292163,67.1515116 144.944686,65.7548721 143.895436,65.059814 L143.895349,65.0598837 Z" id="Fill-5"></path>
                <path d="M124.709302,70.4616279 C124.014349,69.4123953 122.787907,69.0649186 121.745581,69.5895349 C120.696349,70.2844884 120.348872,71.5109302 120.873488,72.5532558 L126.80093,83.0183721 C127.148407,83.7133256 128.0205,84.0676047 128.722326,84.0676047 C129.069802,84.0676047 129.417279,83.8904651 129.771558,83.7201279 C130.820791,83.0251744 131.168267,81.7987326 130.643651,80.756407 L124.709302,70.4616279 Z" id="Fill-6"></path>
                <path d="M49.7093023,29.3040698 L50.0567791,29.3040698 L104.304453,16.5701163 C105.176547,16.3929767 105.701163,15.5208837 105.524023,14.6487209 C105.346884,13.7765581 104.474791,13.2520116 103.602628,13.4291512 L49.3619302,26.1631047 C48.4898372,26.3402442 47.9652209,27.2123372 48.1423605,28.0845 C48.3126977,28.7794535 49.0144535,29.3040698 49.709407,29.3040698 L49.7093023,29.3040698 Z" id="Fill-7"></path>
                <path d="M13.7755814,35.0616279 C13.7755814,35.9337209 14.4705349,36.6286744 15.3426279,36.6286744 C16.2147209,36.6286744 16.9096744,35.9337209 16.9096744,35.0616279 C16.9096744,32.2681395 19.1785116,29.8290698 22.1422326,29.8290698 L37.6626977,29.8290698 C38.5347907,29.8290698 39.2297442,29.1341163 39.2297442,28.2620233 C39.2297442,27.3899302 38.5347907,26.6949767 37.6626977,26.6949767 L22.1422326,26.6949767 C17.4411279,26.8584942 13.7755465,30.5239884 13.7755465,35.0616628 L13.7755814,35.0616279 Z" id="Fill-8"></path>
            </g>
        </g>
    </g>
</svg>