<?xml version="1.0" encoding="UTF-8"?>
<svg width="50px" height="50px" viewBox="0 0 50 50" version="1.1" xmlns="http://www.w3.org/2000/svg" xmlns:xlink="http://www.w3.org/1999/xlink">
    <!-- Generator: Sketch 50.2 (55047) - http://www.bohemiancoding.com/sketch -->
    <title>nonprofit/nonprofit</title>
    <desc>Created with Sketch.</desc>
    <defs></defs>
    <g id="Page-1" stroke="none" stroke-width="1" fill="none" fill-rule="evenodd">
        <g id="Artboard-2" transform="translate(-242.000000, -409.000000)">
            <g id="nonprofit/nonprofit" transform="translate(242.000000, 409.000000)">
                <rect id="Rectangle-2" fill-opacity="0.01" fill="#FFFFFF" x="0" y="0" width="50" height="50"></rect>
                <g id="non" transform="translate(4.000000, 3.000000)" fill="#334146">
                    <path d="M16.3924735,43.7257326 L16.3924735,26.8693465 L25.6968276,26.8693465 L25.6968276,43.7257326 C25.6968276,44.088012 25.9902224,44.378853 26.3499481,44.378853 L36.6313704,44.378853 C36.9910961,44.378853 37.2844909,44.088012 37.2844909,43.7257326 L37.2844909,21.6959793 L41.435398,21.6959793 C41.6981745,21.6959793 41.9379938,21.5378001 42.0400439,21.2928799 C42.1420939,21.0479597 42.0859648,20.7673204 41.8971737,20.5811092 L21.5047935,0.191341437 C21.249665,-0.063780479 20.83639,-0.063780479 20.5812158,0.191341437 L0.191448059,20.5811092 C0.00520422756,20.767353 -0.050918414,21.0479858 0.0485779576,21.2928799 C0.15062803,21.5378001 0.387893632,21.6959793 0.653223821,21.6959793 L4.80413093,21.6959793 L4.80413093,43.7257326 C4.80413093,44.088012 5.09752571,44.378853 5.4572514,44.378853 L15.7386737,44.378853 C16.0983994,44.378853 16.3917942,44.0854583 16.3917942,43.7257326 L16.3924735,43.7257326 Z M15.739353,25.5631056 C15.3796273,25.5631056 15.0862325,25.8539467 15.0862325,26.2162261 L15.0862325,43.0726121 L6.11105111,43.0726121 L6.11105111,21.0428589 C6.11105111,20.6805795 5.81765633,20.3897384 5.45793064,20.3897384 L2.23060118,20.3897384 L21.0437362,1.57660341 L39.8568711,20.3897384 L36.6295417,20.3897384 C36.269816,20.3897384 35.9764212,20.6805795 35.9764212,21.0428589 L35.9764212,43.0726121 L27.0038523,43.0726121 L27.0038523,26.2162261 C27.0038523,25.8539467 26.7104575,25.5631056 26.3507318,25.5631056 L15.739353,25.5631056 Z" id="Fill-1"></path>
                    <path d="M17.108693,20.3966909 C17.0219521,20.5140501 16.9811321,20.6492656 16.9811321,20.7819274 C16.9811321,20.9834739 17.0729739,21.179926 17.2464623,21.3100341 C17.3638215,21.396775 17.499037,21.4375951 17.6316988,21.4375951 C17.8332453,21.4375951 18.0296974,21.3457533 18.1598055,21.1722649 L20.9942177,17.3198991 L23.8286299,21.1722649 C23.9561909,21.3457533 24.1551901,21.4375951 24.3567366,21.4375951 C24.4919521,21.4375951 24.6271676,21.396775 24.7419731,21.3100341 C24.915455,21.1824731 25.0073033,20.9834739 25.0073033,20.7819274 C25.0073033,20.6492656 24.9664833,20.5140435 24.8797424,20.3966909 L21.8131459,16.2254064 C22.4433026,15.386016 23.7469702,13.4751814 23.7469702,12.0898476 C23.7469702,10.5744122 22.5121807,9.33962264 20.9967453,9.33962264 C19.4813099,9.33962264 18.2465203,10.5744122 18.2465203,12.0898476 C18.2465203,13.3808055 19.5629499,15.3579971 20.1855044,16.2177649 L17.108693,20.3966909 Z M22.4408338,12.0896517 C22.4408338,12.8422424 21.6933374,14.143389 21.0070385,15.1179753 C20.313098,14.1076633 19.5528004,12.7784978 19.5528004,12.0896517 C19.5528004,11.2936284 20.20082,10.6456676 20.9967845,10.6456676 C21.7927489,10.6456676 22.4407685,11.2911335 22.4407685,12.0896517 L22.4408338,12.0896517 Z" id="Fill-2"></path>
                </g>
            </g>
        </g>
    </g>
</svg>