<?xml version="1.0" encoding="UTF-8"?>
<svg width="32px" height="24px" viewBox="0 0 32 24" version="1.1" xmlns="http://www.w3.org/2000/svg" xmlns:xlink="http://www.w3.org/1999/xlink">
    <!-- Generator: Sketch 50.2 (55047) - http://www.bohemiancoding.com/sketch -->
    <title>method/method</title>
    <desc>Created with Sketch.</desc>
    <defs></defs>
    <g id="Page-1" stroke="none" stroke-width="1" fill="none" fill-rule="evenodd">
        <g id="Program-Design-Copy" transform="translate(-16.000000, -453.000000)">
            <g id="program" transform="translate(16.000000, 364.000000)">
                <g id="Group-4">
                    <g id="methods" transform="translate(0.000000, 85.000000)">
                        <g id="method/method">
                            <rect id="Rectangle-2" x="0" y="0" width="32" height="32"></rect>
                            <path d="M7.37501218,23.5199929 C7.15755047,23.7374569 6.86294219,23.8596113 6.55527156,23.8596113 L1.15933994,23.8596113 C0.518741603,23.8596113 0,23.340859 0,22.7002644 C0,22.0596722 0.51874935,21.5409174 1.15933994,21.5409174 L6.55527156,21.5409174 C6.86293237,21.5409174 7.15755308,21.6630745 7.37501218,21.8805358 C7.59246973,22.0979957 7.71462141,22.3925989 7.71462498,22.7002644 C7.71462141,23.00792 7.59246712,23.3025357 7.37501218,23.5199929 Z M31.6515681,21.8785858 C31.8739928,22.0964748 32,22.3953002 32,22.7071038 C32,23.0189123 31.8739941,23.3177315 31.6546137,23.5326119 L28.1035956,27.0732129 C27.6507989,27.5260434 26.916972,27.5260344 26.4641481,27.0732348 C26.0113194,26.6204304 26.0113194,25.8865961 26.4641372,25.4337736 L28.03802,23.8598744 L15.2969149,23.8598743 C12.4734557,23.8584883 9.79620985,22.6061629 7.98665009,20.4399476 C6.17675076,18.2746192 5.42015891,15.4168712 5.92126417,12.6393362 C6.42228396,9.86060173 8.12820632,7.44817117 10.5806726,6.05050348 C13.0332994,4.65288601 15.9784313,4.41406897 18.6241742,5.39824176 C21.2700752,6.38367744 23.343457,8.49086906 24.2843768,11.1513295 C25.2253018,13.8115973 24.9383896,16.7540185 23.5016153,19.1833402 L23.3608367,19.4213709 C23.3224449,19.4698871 23.2926724,19.5156202 23.2641149,19.5583338 C23.0978641,19.8225372 22.8313995,20.008645 22.5287681,20.0718711 C22.2230854,20.1375404 21.9048887,20.0779897 21.6496598,19.9078013 C21.3890082,19.7378381 21.2090414,19.4702909 21.1479177,19.164675 C21.0868648,18.8594247 21.1517367,18.5422705 21.3267476,18.2854305 L21.3738008,18.2163767 C21.4162735,18.1501387 21.4599693,18.0793926 21.5062934,18.0022001 C22.5925438,16.1640082 22.8085825,13.9397552 22.0963229,11.9276222 C21.3842354,9.91470609 19.8169375,8.32224093 17.8156979,7.57777332 C15.8146338,6.833371 13.5866208,7.01371784 11.7330777,8.07008909 C9.87847584,9.12846363 8.58776118,10.9533048 8.20895063,13.0534634 C7.82999257,15.1546295 8.40156181,17.3145487 9.77044461,18.9537808 C11.1382296,20.5919795 13.1626234,21.5396718 15.2973688,21.5409039 L28.0382358,21.5409039 L26.464364,19.9670157 C26.011541,19.514217 26.01155,18.7803912 26.464342,18.3275654 C26.9171446,17.8747291 27.6509799,17.8747291 28.1042399,18.3279944 L31.516159,21.7487126 L31.6515681,21.8785858 Z" fill="#334146" fill-rule="nonzero"></path>
                        </g>
                    </g>
                </g>
            </g>
        </g>
    </g>
</svg>