<?xml version="1.0" encoding="UTF-8"?>
<svg width="32px" height="32px" viewBox="0 0 32 32" version="1.1" xmlns="http://www.w3.org/2000/svg" xmlns:xlink="http://www.w3.org/1999/xlink">
    <!-- Generator: Sketch 50.2 (55047) - http://www.bohemiancoding.com/sketch -->
    <title>skill/skill</title>
    <desc>Created with Sketch.</desc>
    <defs></defs>
    <g id="Page-1" stroke="none" stroke-width="1" fill="none" fill-rule="evenodd">
        <g id="Program-Design-Copy" transform="translate(-20.000000, -488.000000)">
            <g id="program" transform="translate(16.000000, 364.000000)">
                <g id="Group-4">
                    <g id="skills" transform="translate(4.000000, 124.000000)">
                        <g id="skill/skill">
                            <rect id="Rectangle-2" x="0" y="0" width="32" height="32"></rect>
                            <path d="M0.641041471,0 C0.455543491,0 0.278044608,0.0799602102 0.156510743,0.220691982 C0.0349768785,0.361423753 -0.0193915956,0.548532528 0.00619405028,0.732443877 L0.00619405028,23.5790955 C-0.00819941067,23.6910423 0.00619405028,23.8045857 0.0493703394,23.9085368 C0.0509709774,23.9149358 0.0525675217,23.9213306 0.0541681597,23.9261288 L0.0573653421,23.9261288 C0.0989409932,24.0268784 0.16610229,24.1148383 0.252454869,24.1820047 L7.87042742,31.8005572 C7.88322024,31.8117514 7.89601306,31.8229461 7.91040652,31.8341408 C7.91200307,31.8389386 7.91520434,31.8437363 7.91840153,31.8469346 C7.93119435,31.8581292 7.94558372,31.8693239 7.95997718,31.8789191 C8.09750105,31.978072 8.26860557,32.0180501 8.43492864,31.9924625 L31.3502518,31.9924625 C31.7036531,31.9924625 31.989893,31.7061987 31.989893,31.3527706 L31.989893,8.4455316 C32.0234736,8.26002359 31.9723023,8.06971329 31.8523691,7.92419971 C31.8475713,7.91780077 31.8427735,7.91300258 31.8395763,7.9082044 C31.8299807,7.89701136 31.8187885,7.88741499 31.8091928,7.87622195 L31.8011978,7.87622195 L31.7868044,7.85862997 C31.7788094,7.85223102 31.7708144,7.84423541 31.7612187,7.83784056 L24.2054705,0.281516765 C24.1463042,0.196758369 24.06635,0.127991196 23.973599,0.0816141923 L23.9640034,0.0816141923 L23.957609,0.0816141923 C23.8680592,0.0352371885 23.7689138,0.0112462597 23.6681719,0.0112462597 C23.6313941,0.0128470196 23.5962128,0.0176411113 23.5610315,0.0240400571 L0.733722915,0.0240400571 C0.703339448,0.0176411113 0.671359438,0.0128470196 0.640975972,0.0112462597 L0.641041471,0 Z M2.19059006,1.28736307 L23.4090732,1.28736307 L29.8054847,7.68426177 L8.58700153,7.68426177 L2.19059006,1.28736307 Z M1.28551319,2.19250888 L7.68192466,8.58940758 L7.68192466,29.809507 L1.28551319,23.4126083 L1.28551319,2.19250888 Z M23.0333122,2.56672643 L23.0333122,3.84610617 L24.3125945,3.84610617 L24.3125945,2.56672643 L23.0333122,2.56672643 Z M23.0333122,5.12548591 L23.0333122,6.40486565 L24.3125945,6.40486565 L24.3125945,5.12548591 L23.0333122,5.12548591 Z M8.96120695,8.96362513 L30.709006,8.96362513 L30.709006,30.7130807 L8.96120695,30.7130807 L8.96120695,8.96362513 Z M23.0333122,10.2430049 L23.0333122,11.5223846 L24.3125945,11.5223846 L24.3125945,10.2430049 L23.0333122,10.2430049 Z M23.0333122,12.8017643 L23.0333122,14.0811441 L24.3125945,14.0811441 L24.3125945,12.8017643 L23.0333122,12.8017643 Z M23.0333122,15.3605238 L23.0333122,16.6399036 L24.3125945,16.6399036 L24.3125945,15.3605238 L23.0333122,15.3605238 Z M23.0333122,17.9192833 L23.0333122,19.198663 L24.3125945,19.198663 L24.3125945,17.9192833 L23.0333122,17.9192833 Z M23.0333122,20.4780428 L23.0333122,21.7574225 L24.3125945,21.7574225 L24.3125945,20.4780428 L23.0333122,20.4780428 Z M2.56479548,23.0368023 L2.56479548,24.316182 L3.84407778,24.316182 L3.84407778,23.0368023 L2.56479548,23.0368023 Z M5.12336007,23.0368023 L5.12336007,24.316182 L6.40264237,24.316182 L6.40264237,23.0368023 L5.12336007,23.0368023 Z M10.2404892,23.0368023 L10.2404892,24.316182 L11.5197715,24.316182 L11.5197715,23.0368023 L10.2404892,23.0368023 Z M12.7990538,23.0368023 L12.7990538,24.316182 L14.0783361,24.316182 L14.0783361,23.0368023 L12.7990538,23.0368023 Z M15.3576184,23.0368023 L15.3576184,24.316182 L16.6369007,24.316182 L16.6369007,23.0368023 L15.3576184,23.0368023 Z M17.916183,23.0368023 L17.916183,24.316182 L19.1954653,24.316182 L19.1954653,23.0368023 L17.916183,23.0368023 Z M20.4747476,23.0368023 L20.4747476,24.316182 L21.7540299,24.316182 L21.7540299,23.0368023 L20.4747476,23.0368023 Z M23.0333122,23.0368023 L23.0333122,24.316182 L24.3125945,24.316182 L24.3125945,23.0368023 L23.0333122,23.0368023 Z M25.4463456,24.543277 L24.5396722,25.4484228 L25.4463456,26.3535686 L26.3514225,25.4484228 L25.4463456,24.543277 Z M27.2549438,26.3520129 L26.3498669,27.2571587 L27.2549438,28.1623045 L28.1600206,27.2571587 L27.2549438,26.3520129 Z M29.0635419,28.1607488 L28.158465,29.0658946 L29.0635419,29.9710404 L29.9686188,29.0658946 L29.0635419,28.1607488 Z" id="skills/skills" fill="#334146"></path>
                        </g>
                    </g>
                </g>
            </g>
        </g>
    </g>
</svg>