<?xml version="1.0" encoding="UTF-8"?>
<svg width="32px" height="32px" viewBox="0 0 32 32" version="1.1" xmlns="http://www.w3.org/2000/svg" xmlns:xlink="http://www.w3.org/1999/xlink">
    <!-- Generator: Sketch 50.2 (55047) - http://www.bohemiancoding.com/sketch -->
    <title>fire/fire</title>
    <desc>Created with Sketch.</desc>
    <defs></defs>
    <g id="Page-1" stroke="none" stroke-width="1" fill="none" fill-rule="evenodd">
        <g id="Artboard" transform="translate(-159.000000, -114.000000)">
            <g id="fire/fire" transform="translate(159.000000, 114.000000)">
                <rect id="Rectangle" fill-opacity="0.01" fill="#FFFFFF" x="0" y="0" width="32" height="32"></rect>
                <g id="Group-3" fill="#334146">
                    <path d="M29.7261176,31.6856471 C29.5294259,31.6856471 29.3345741,31.6856471 29.1378824,31.5882212 L1.68752941,23.7444565 C0.608470588,23.4503388 0.0202352941,22.37128 0.314352941,21.2941035 C0.608470588,20.2150447 1.68752941,19.6268094 2.76470588,19.9209271 L30.2150588,27.7646918 C31.2941176,28.0588094 31.8823529,29.1378682 31.5882353,30.2150447 C31.3915435,31.0973976 30.6084706,31.6856329 29.7261176,31.6856329 L29.7261176,31.6856471 Z" id="Fill-1"></path>
                    <path d="M2.27388235,31.6856471 C1.39152941,31.6856471 0.606588235,31.0974118 0.411764706,30.2150588 C0.117647059,29.136 0.705882353,28.0588235 1.78494118,27.7647059 L29.2352941,19.9209412 C30.3143529,19.6268235 31.3915294,20.2150588 31.6856471,21.2941176 C31.9797647,22.3731765 31.3915294,23.4503529 30.3124706,23.7444706 L2.86211765,31.5882353 C2.66726588,31.6856612 2.47057412,31.6856612 2.27388235,31.6856612 L2.27388235,31.6856471 Z" id="Fill-2"></path>
                    <path d="M22.8621176,14.0385882 C22.8621176,17.8621176 19.8235294,20.9007059 16,20.9007059 C12.1764706,20.9007059 9.13788235,17.8621176 9.13788235,14.0385882 C9.13788235,8.74447059 12.0790588,5.21505882 12.0790588,5.21505882 C17.2757647,10.4117647 18.3529412,5.11763294 16.9816471,0.312470588 C16.9798071,0.314310588 22.8621176,3.25548235 22.8621176,14.0385882 Z" id="Fill-3"></path>
                </g>
            </g>
        </g>
    </g>
</svg>