<?xml version="1.0" encoding="UTF-8"?>
<svg width="34px" height="34px" viewBox="0 0 34 34" version="1.1" xmlns="http://www.w3.org/2000/svg" xmlns:xlink="http://www.w3.org/1999/xlink">
    <!-- Generator: Sketch 50.2 (55047) - http://www.bohemiancoding.com/sketch -->
    <title>fire/fire</title>
    <desc>Created with Sketch.</desc>
    <defs></defs>
    <g id="Page-1" stroke="none" stroke-width="1" fill="none" fill-rule="evenodd">
        <g id="Artboard" transform="translate(-158.000000, -113.000000)">
            <g id="fire/fire" transform="translate(159.000000, 114.000000)">
                <rect id="Rectangle" fill-opacity="0.01" fill="#FFFFFF" x="0" y="0" width="32" height="32"></rect>
                <g id="Group-3" fill="#334146" fill-rule="nonzero">
                    <path d="M16.0000247,27.3141496 L16.1373983,27.3534032 L29.359811,31.1401724 C29.4334057,31.1766255 29.5059426,31.1856487 29.7261176,31.1856329 C30.3908217,31.1856329 30.9580107,30.7441744 31.1058923,30.0833434 C31.3298229,29.2632201 30.8867961,28.466027 30.0776852,28.24545 L21.4092468,25.7684986 L23.0917276,25.2877403 L30.1809831,23.2620693 C30.9847204,23.0429956 31.4271933,22.2472239 31.2032457,21.4256051 C30.9841721,20.6218678 30.1884004,20.179395 29.3726677,20.4016994 L16.0000247,24.2228476 L15.8626511,24.1835939 L2.63300454,20.40327 C1.8128813,20.1793395 1.01568818,20.6223663 0.796695928,21.4258049 C0.57276538,22.2459281 1.01579217,23.0431212 1.82490304,23.2636982 L10.5908026,25.7684986 L8.9083218,26.2492568 L1.91642867,28.2471072 C1.11269135,28.4661808 0.670218484,29.2619526 0.900004834,30.1072554 C1.04055906,30.7438234 1.60861855,31.1856505 2.27388235,31.1856612 C2.49409195,31.1856612 2.56743993,31.1765572 2.72474402,31.1074771 L16.0000247,27.3141496 Z M15.9998605,28.3541264 L3.08572444,32.0354489 C2.83204242,32.1622899 2.64374805,32.1856612 2.27387435,32.1856612 C1.14579584,32.1856431 0.166678331,31.4241021 -0.0706366192,30.3465463 C-0.438446453,28.9971256 0.31169295,27.6480265 1.64756755,27.2839476 L6.95110992,25.768494 L1.55604192,24.2268578 C0.214623762,23.8612292 -0.536061667,22.5104277 -0.168048384,21.162616 C0.197580201,19.8211979 1.54838172,19.0705125 2.90207951,19.4401688 L16.0000254,23.182824 L29.1038066,19.4385399 C30.4532273,19.07073 31.8023264,19.8208694 32.1680484,21.1626302 C32.5358582,22.5120509 31.7857188,23.86115 30.4498442,24.2252288 L25.0489393,25.7685033 L30.3465463,27.2822904 C31.6879645,27.647919 32.4386499,28.9987205 32.0762569,30.3238332 C31.8308082,31.424908 30.8534236,32.1856329 29.7261535,32.1856329 C29.3581698,32.1856594 29.170397,32.1623014 29.0005087,32.0689794 L15.9998605,28.3541264 Z" id="Combined-Shape"></path>
                    <path d="M12.0355251,6.1266001 C11.7036756,6.62437447 11.3708834,7.20343282 11.0599008,7.8564962 C10.170954,9.72328469 9.63788235,11.8022639 9.63788235,14.0385882 C9.63788235,17.5859753 12.452613,20.4007059 16,20.4007059 C19.547387,20.4007059 22.3621176,17.5859753 22.3621176,14.0385882 C22.3621176,9.42350999 21.2906328,5.94063833 19.5133434,3.42179619 C18.9575777,2.63414381 18.3681433,1.9950124 17.7774704,1.48996561 C18.1921394,3.62909722 18.0963833,5.62197114 17.4246581,6.76739987 C16.4296558,8.46408184 14.5334392,8.19369907 12.1415396,5.9701387 C12.1079496,6.0188775 12.0725603,6.07104731 12.0355251,6.1266001 Z M17.5860801,1.33099621 C17.360193,1.14883247 17.1519906,1.00044237 16.9665199,0.883085368 C16.903577,0.8432581 16.8485773,0.810409503 16.8015175,0.783830652 C16.7767942,0.770005348 16.7767942,0.770005348 16.7618001,0.761906182 C16.756045,0.758827186 16.756045,0.758827186 16.7518101,0.756584378 L16.7458655,0.753418755 C16.7430381,0.751902469 16.7430381,0.751902469 16.7326964,0.746101885 C16.7288728,0.743895195 16.7288728,0.743895195 16.6724333,0.705391498 L16.6280937,-0.0410828024 L17.2291757,-0.642164825 L17.4624515,0.175258915 C17.588119,0.615611066 17.6933079,1.05580081 17.7774704,1.48996561 C17.7136745,1.43541775 17.6498641,1.38243401 17.5860801,1.33099621 Z M23.3621176,14.0385882 C23.3621176,18.13826 20.0996718,21.4007059 16,21.4007059 C11.9003282,21.4007059 8.63788235,18.13826 8.63788235,14.0385882 C8.63788235,11.6425596 9.20775193,9.42006826 10.1570403,7.42656262 C10.4894401,6.72852306 10.8459862,6.10813288 11.2034749,5.5718999 C11.4205267,5.24632218 11.5920246,5.0184749 11.6949482,4.89496662 L12.0454596,4.47435287 L12.4326122,4.86150543 C14.6273397,7.05623294 15.9441213,7.31522158 16.5620478,6.26153072 C17.2008596,5.17222626 17.1779066,2.8221876 16.5008426,0.449682262 L16.9816471,0.312470588 L17.2909173,-0.0804058533 L17.2404216,-0.115345849 C17.2585514,-0.106321069 17.2585514,-0.106321069 17.2932914,-0.0868922595 C17.3546629,-0.0522303713 17.4239699,-0.0108366959 17.5012214,0.038044343 C17.7183593,0.175438839 17.9576305,0.345972297 18.2138258,0.55257778 C18.9385026,1.13698427 19.6596714,1.89465662 20.3304208,2.8452682 C22.2285513,5.53537084 23.3621176,9.22003924 23.3621176,14.0385882 Z" id="Fill-3"></path>
                </g>
            </g>
        </g>
    </g>
</svg>