<?xml version="1.0" encoding="UTF-8"?>
<svg width="150px" height="211px" viewBox="0 0 150 211" version="1.1" xmlns="http://www.w3.org/2000/svg" xmlns:xlink="http://www.w3.org/1999/xlink">
    <!-- Generator: Sketch 50.2 (55047) - http://www.bohemiancoding.com/sketch -->
    <title>gazelle/gazelle</title>
    <desc>Created with Sketch.</desc>
    <defs></defs>
    <g id="Page-1" stroke="none" stroke-width="1" fill="none" fill-rule="evenodd">
        <g id="Program-Design" transform="translate(-745.000000, -994.000000)" fill="#50E3C2">
            <g id="program" transform="translate(30.000000, 371.000000)">
                <g id="Group-6" transform="translate(190.000000, 0.000000)">
                    <g id="Group-3" transform="translate(0.000000, 574.000000)">
                        <path d="M674.743055,92.0188677 L667.134207,81.4668181 C666.78697,80.976019 666.163976,80.7919759 665.602241,81.0066972 C665.050729,81.2214185 664.703491,81.7940175 664.785196,82.3768512 L665.132434,85.2808113 L636.639127,68.1334689 C636.598288,68.1130255 636.567646,68.1130255 636.52678,68.1027907 C636.485941,68.0823473 636.445076,68.051669 636.394014,68.0312256 C636.312309,67.8062695 636.189765,67.5915482 635.985491,67.4381833 L612.301378,49.2684082 C611.83157,48.9105306 611.177934,48.9105306 610.71835,49.2684082 C610.248542,49.6262858 610.074936,50.2602412 610.299604,50.8021619 L614.44601,60.9045087 L599.075365,55.9250574 C598.503433,55.7410143 597.870216,55.9659442 597.563844,56.4874216 C597.247249,56.9986641 597.318731,57.6632976 597.747673,58.0927403 L631.880552,92.6423788 C631.900997,92.6628223 631.931614,92.6730571 631.941837,92.6832657 C632.013318,92.7446221 632.105246,92.8059785 632.18695,92.8468654 C632.248235,92.8775436 632.30952,92.9184566 632.370779,92.9389 C632.391224,92.9491348 632.411644,92.9593434 632.421841,92.9695782 L636.415035,94.1761325 L624.85378,142.816286 L593.296254,142.376608 C593.194103,142.376608 593.07156,142.386817 592.979659,142.407287 L569.509938,146.926826 C569.326083,146.967713 569.152478,147.039304 568.999291,147.151783 L546.857237,163.061788 C546.816371,163.092466 546.806148,163.133353 546.775532,163.164031 C546.724444,163.215153 546.652962,163.235596 546.612123,163.296952 L525.297572,189.155913 C524.909469,189.636478 524.899272,190.311346 525.277126,190.802145 C525.532462,191.129344 525.910342,191.303179 526.308642,191.303179 C526.502694,191.303179 526.686522,191.262266 526.870351,191.170257 L546.316026,181.845075 L546.316026,209.523526 C546.316026,209.993882 546.571362,210.433559 546.979885,210.668724 C547.173936,210.781202 547.39863,210.832323 547.623298,210.832323 C547.858215,210.832323 548.093106,210.770967 548.307577,210.638046 L548.491432,210.525568 L552.433642,258.029684 C552.484704,258.632962 552.934092,259.123763 553.536666,259.215772 C553.597925,259.225996 553.669432,259.23622 553.730691,259.23622 C554.251561,259.23622 554.741788,258.919256 554.946036,258.418214 L582.879856,190.177508 L613.558922,190.453586 L613.242326,191.793062 C613.150399,192.202061 613.252523,192.631504 613.528305,192.948495 C613.783616,193.234781 614.141076,193.398381 614.518982,193.398381 C614.559822,193.398381 614.600687,193.398381 614.641526,193.388172 L616.980315,193.173451 L629.05219,258.152633 C629.164537,258.75591 629.685406,259.205783 630.3084,259.216018 L630.339042,259.216018 C630.941616,259.216018 631.472683,258.796797 631.615672,258.203755 L647.333529,190.329512 L648.538678,190.217034 C649.171894,190.155678 649.682541,189.644435 649.723406,189.000271 L655.76954,100.022976 L668.127447,103.755144 C668.260213,103.79603 668.403203,103.826709 668.535969,103.816474 C668.627897,103.816474 668.709601,103.806265 668.801502,103.785796 C669.026196,103.734674 669.220248,103.642665 669.383657,103.499483 C669.475584,103.417683 669.567485,103.325675 669.638993,103.213197 C669.659413,103.17231 669.679832,103.141632 669.700252,103.100745 L674.888554,93.3871108 C675.072383,92.9678768 675.031544,92.4259561 674.745565,92.0169568 L674.743055,92.0188677 Z M614.537938,54.2993214 L629.551175,65.812552 L617.683496,61.9782986 L614.537938,54.2993214 Z M634.494233,70.1787007 L631.859295,88.9416228 L603.365989,60.0878713 L634.494233,70.1787007 Z M616.468256,178.083826 L605.479064,171.263682 L618.367984,170.118484 L616.468256,178.083826 Z M618.960231,167.603237 C618.766179,167.521437 618.561931,167.46008 618.357657,167.490759 L602.384358,168.9018 L595.020755,145.016244 L624.230447,145.425243 L618.960231,167.603237 Z M548.908739,164.791416 L570.274535,149.44367 L591.456529,145.363886 L580.365109,188.012364 L548.909523,207.184155 L548.908739,164.791416 Z M531.066564,186.233185 L546.294194,167.756628 L546.294194,178.93245 L531.066564,186.233185 Z M554.556678,252.387668 L550.961679,209.003645 L579.415768,191.662077 L554.556678,252.387668 Z M583.172868,187.560306 L593.345015,148.458669 L600.197998,170.677602 C600.208221,170.718515 600.238863,170.738959 600.24906,170.779846 C600.279702,170.851437 600.310345,170.912767 600.35121,170.974123 C600.392049,171.045715 600.443111,171.107045 600.494173,171.168401 C600.545235,171.219523 600.596324,171.270645 600.657582,171.321766 C600.688225,171.352444 600.708644,171.383123 600.74951,171.403566 L615.813731,180.749166 L615.823954,180.749166 L614.138801,187.824788 L583.172868,187.560306 Z M630.438604,251.518626 L619.551379,192.928993 L644.552961,190.587476 L630.438604,251.518626 Z M647.147112,187.725214 L616.169989,190.618966 L638.904238,94.943245 L653.151414,99.2478802 L647.147112,187.725214 Z M634.237799,90.8035182 L636.964769,71.4066146 L665.510366,88.5845828 L666.950405,100.69096 L634.237799,90.8035182 Z M669.288383,98.236965 L667.960691,87.1019769 L672.137949,92.8994267 L669.288383,98.236965 Z" id="gazelle/gazelle"></path>
                    </g>
                </g>
            </g>
        </g>
    </g>
</svg>