<?xml version="1.0" encoding="UTF-8"?>
<svg width="40px" height="40px" viewBox="0 0 40 40" version="1.1" xmlns="http://www.w3.org/2000/svg" xmlns:xlink="http://www.w3.org/1999/xlink">
    <!-- Generator: Sketch 49.3 (51167) - http://www.bohemiancoding.com/sketch -->
    <title>icon/error/error-outline-white</title>
    <desc>Created with Sketch.</desc>
    <defs></defs>
    <g id="Page-1" stroke="none" stroke-width="1" fill="none" fill-rule="evenodd">
        <g id="Home-Splash-Page-edits" transform="translate(-595.000000, -1148.000000)" fill="#FFFFFF">
            <g id="to-do's" transform="translate(0.000000, 981.000000)">
                <g id="Group-2" transform="translate(118.000000, 167.000000)">
                    <g id="cancel" transform="translate(410.000000, 0.000000)">
                        <g id="icon/error/error-outline-white" transform="translate(67.000000, 0.000000)">
                            <path d="M20,0.113636364 C9.01454545,0.113636364 0.113636364,9.01454545 0.113636364,20 C0.113636364,30.9854545 9.01454545,39.8863636 20,39.8863636 C30.9854545,39.8863636 39.8863636,30.9854545 39.8863636,20 C39.8863636,9.01454545 30.9854545,0.113636364 20,0.113636364 Z M20,37.9918182 C10.0568182,37.9918182 2.00818182,29.9431818 2.00818182,20 C2.00818182,10.0568182 10.0568182,2.00818182 20,2.00818182 C29.9431818,2.00818182 37.9918182,10.0568182 37.9918182,20 C37.9918182,29.9431818 29.9431818,37.9918182 20,37.9918182 Z" id="Fill-1"></path>
                            <path d="M20,23.7872727 C20.5202273,23.7872727 20.9463636,23.3611364 20.9463636,22.8409091 L20.9463636,11.9513636 C20.9463636,11.4311364 20.5202273,11.005 20,11.005 C19.4797727,11.005 19.0536364,11.4311364 19.0536364,11.9513636 L19.0536364,22.8409091 C19.0536364,23.3611364 19.4797727,23.7872727 20,23.7872727 Z" id="Fill-2"></path>
                            <path d="M21.4204545,27.5763636 C21.4204545,29.4691364 18.5795455,29.4691364 18.5795455,27.5763636 C18.5795455,25.6818182 21.4204545,25.6818182 21.4204545,27.5763636" id="Fill-3"></path>
                        </g>
                    </g>
                </g>
            </g>
        </g>
    </g>
</svg>