<?xml version="1.0" encoding="UTF-8"?>
<svg width="50px" height="51px" viewBox="0 0 50 51" version="1.1" xmlns="http://www.w3.org/2000/svg" xmlns:xlink="http://www.w3.org/1999/xlink">
    <!-- Generator: Sketch 50.2 (55047) - http://www.bohemiancoding.com/sketch -->
    <title>schedule/schedule</title>
    <desc>Created with Sketch.</desc>
    <defs></defs>
    <g id="Page-1" stroke="none" stroke-width="1" fill="none" fill-rule="evenodd">
        <g id="Schedule" transform="translate(-462.000000, -151.000000)" fill="#FFFFFF">
            <g id="banner" transform="translate(0.000000, 81.000000)">
                <g id="schedule/schedule" transform="translate(462.000000, 70.000000)">
                    <path d="M0,25.6985915 C0,39.5028169 11.1957746,50.7042254 24.9943662,50.7042254 C38.7929577,50.7042254 49.9887324,39.5028169 49.9887324,25.6985915 C49.9887324,25.4042465 49.7329014,25.1264085 49.4385563,25.1264085 C49.1442113,25.1264085 48.8691268,25.401493 48.8883803,25.6985915 C48.8883803,38.9112676 38.2010563,49.6007042 24.9940141,49.6007042 C11.7869718,49.6007042 1.09964789,38.9105634 1.09964789,25.6985915 C1.09964789,12.4866197 11.7869718,1.79647887 24.9940141,1.79647887 C32.8257042,1.79647887 39.7940141,5.57619718 44.1426056,11.4056338 L35.6616197,11.4028803 C35.3672746,11.4028803 35.1114437,11.6587113 35.1114437,11.9530563 C35.1114437,12.2474014 35.3672746,12.5252394 35.6616197,12.5252394 L45.2264085,12.527993 C45.5207535,12.527993 45.7985915,12.2529085 45.7985915,11.9558099 L45.795838,2.38538732 C45.795838,2.07178873 45.4822394,1.7939507 45.1658873,1.83521127 C44.8908028,1.87372535 44.6734789,2.12955634 44.6734789,2.38538732 L44.6734789,10.2994718 C40.1097465,4.45383803 32.9847465,0.693133803 24.9939014,0.693133803 C11.1957746,0.692957746 0,11.8943662 0,25.6985915 Z M24.4414366,6.99521127 L24.4414366,21.4261972 C22.3150282,21.7012817 20.6617183,23.5140845 20.6617183,25.6983099 C20.6617183,26.6830986 21.0165845,27.6073944 21.5667887,28.3364085 L11.3745352,38.5364085 C11.1572183,38.7317183 11.1572183,39.1085915 11.3745352,39.323169 C11.5918521,39.5212324 11.9659718,39.5212324 12.1612958,39.3039155 L22.3753803,29.1039155 C23.1043944,29.6540915 23.9874225,30.0089859 24.9722113,30.0089859 C27.3544648,30.0089859 29.3020704,28.0806056 29.3020704,25.6983521 C29.3020704,23.5113803 27.6487606,21.7013099 25.5416479,21.4262394 L25.5444014,6.99243662 C25.5636549,6.69809155 25.2693169,6.42025352 24.9722183,6.42025352 C24.9557113,6.423 24.9337042,6.423 24.9144507,6.423 C24.6587606,6.46154225 24.4221831,6.71737324 24.4414366,6.99521127 Z M24.9751127,22.5103521 C26.746662,22.5103521 28.1826479,23.9270423 28.1826479,25.6985915 C28.1826479,27.4701408 26.746662,28.886831 24.9751127,28.886831 C23.2035634,28.886831 21.7868732,27.4701408 21.7868732,25.6985915 C21.7868732,23.9270423 23.2035634,22.5103521 24.9751127,22.5103521 Z" id="clock"></path>
                </g>
            </g>
        </g>
    </g>
</svg>