<?xml version="1.0" encoding="UTF-8"?>
<svg width="32px" height="32px" viewBox="0 0 32 32" version="1.1" xmlns="http://www.w3.org/2000/svg" xmlns:xlink="http://www.w3.org/1999/xlink">
    <!-- Generator: Sketch 50.2 (55047) - http://www.bohemiancoding.com/sketch -->
    <title>network/network</title>
    <desc>Created with Sketch.</desc>
    <defs></defs>
    <g id="Page-1" stroke="none" stroke-width="1" fill="none" fill-rule="evenodd">
        <g id="Artboard" transform="translate(-223.000000, -126.000000)">
            <g id="network/network" transform="translate(223.000000, 126.000000)">
                <rect id="Rectangle" fill-opacity="0.01" fill="#FFFFFF" x="0" y="0" width="32" height="32"></rect>
                <path d="M15.9828177,5.89362601 C17.594475,5.89362601 18.9328585,4.55807729 18.9328585,2.946813 C18.9328585,1.33691907 17.5958469,0 15.9828177,0 C14.3711603,0 13.0327769,1.33554871 13.0327769,2.946813 C13.0327769,4.55804303 14.371126,5.89362601 15.9828177,5.89362601 Z M15.9828177,1.30361942 C16.9085466,1.30361942 17.6627935,2.05704102 17.6627935,2.98175707 C17.6627935,3.90647313 16.9085466,4.65989473 15.9828177,4.65989473 C15.0570887,4.65989473 14.3028419,3.90647313 14.3028419,2.98175707 C14.3028419,2.05704102 15.0570887,1.30361942 15.9828177,1.30361942 Z M15.9828177,26.1063733 C14.3711603,26.1063733 13.0327769,27.441922 13.0327769,29.0531863 C13.0327769,30.6630813 14.3697885,32 15.9828177,32 C17.594475,32 18.9328585,30.6644513 18.9328585,29.0531863 C18.9328585,27.4419563 17.5945093,26.1063733 15.9828177,26.1063733 Z M15.9828177,30.6963809 C15.0570887,30.6963809 14.3028419,29.9429593 14.3028419,29.0182422 C14.3028419,28.0935262 15.0570887,27.3401046 15.9828177,27.3401046 C16.9085466,27.3401046 17.6627935,28.0935262 17.6627935,29.0182422 C17.6627935,29.9429593 16.9085466,30.6963809 15.9828177,30.6963809 Z M0,16.2394693 C0,17.8493633 1.33701161,19.1862823 2.95004115,19.1862823 C4.56169848,19.1862823 5.90008195,17.8507336 5.90008195,16.2394693 C5.90008195,14.6295754 4.56307034,13.2926563 2.95004115,13.2926563 C1.33838312,13.2939958 0,14.5947684 0,16.2394693 Z M4.59640646,16.2394693 C4.59640646,17.1641854 3.8421596,17.917607 2.91643065,17.917607 C1.99070136,17.917607 1.23645485,17.1641854 1.23645485,16.2394693 C1.23645485,15.3147533 1.99070136,14.5613317 2.91643065,14.5613317 C3.8421596,14.5613317 4.59640646,15.3147533 4.59640646,16.2394693 Z M26.0999184,16.2394693 C26.0999184,17.8493633 27.43693,19.1862823 29.0499592,19.1862823 C30.6616165,19.1862823 32,17.8507336 32,16.2394693 C32,14.6295754 30.6629884,13.2926563 29.0499592,13.2926563 C27.4369643,13.2939958 26.0999184,14.5947684 26.0999184,16.2394693 Z M29.0499592,14.5613317 C29.9756881,14.5613317 30.729935,15.3147533 30.729935,16.2394693 C30.729935,17.1641854 29.9756881,17.917607 29.0499592,17.917607 C28.1242302,17.917607 27.3699834,17.1641854 27.3699834,16.2394693 C27.3686424,15.3147533 28.1228927,14.5613317 29.0499592,14.5613317 Z M8.8486823,8.87367014 C10.0142118,7.70941589 10.0142118,5.85861342 8.8486823,4.69442769 C7.68315279,3.53017345 5.83032303,3.53017345 4.66486211,4.69442769 C3.49940119,5.85868193 3.4993326,7.70948441 4.66486211,8.87367014 C5.24762687,9.45579726 6.00187372,9.73014248 6.75749243,9.73014248 C7.51173928,9.73014248 8.26598614,9.42234688 8.84878519,8.87367014 L8.8486823,8.87367014 Z M5.07607618,6.78466557 C5.07607618,6.33902588 5.24755827,5.92819323 5.55567731,5.62041133 C5.86381006,5.31261572 6.27645085,5.14133496 6.72120682,5.14133496 C7.16733464,5.14133496 7.5786173,5.31262943 7.88673633,5.62041133 C8.19486908,5.92820693 8.36633746,6.34039624 8.36633746,6.78466557 C8.36633746,7.23030526 8.19485536,7.64113792 7.88673633,7.94891982 C7.57860358,8.25671542 7.16596278,8.42799619 6.72120682,8.42799619 C6.275079,8.42799619 5.86379634,8.25670172 5.55567731,7.94891982 C5.24754456,7.64112421 5.07607618,7.22893491 5.07607618,6.78466557 Z M27.3004988,23.1258153 C26.1349693,21.9615611 24.2821396,21.9615611 23.1166787,23.1258153 C21.9511491,24.2900695 21.9511491,26.140872 23.1166787,27.3050577 C23.6994434,27.8871849 24.4536903,28.1615301 25.209309,28.1615301 C25.9635558,28.1615301 26.7178027,27.8871917 27.3019393,27.3050577 C28.4326579,26.1408035 28.4326579,24.290001 27.3006017,23.1258153 L27.3004988,23.1258153 Z M26.3747699,26.3804102 C25.7236867,27.030781 24.6599489,27.030781 24.0088657,26.3804102 C23.700733,26.0726146 23.5292646,25.6604253 23.5292646,25.216156 C23.5292646,24.7705163 23.7007467,24.3596836 24.0088657,24.0519017 C24.3169985,23.7441061 24.7296393,23.5728253 25.1743952,23.5728253 C25.620523,23.5728253 26.0318057,23.7441198 26.3399247,24.0519017 C27.0258531,24.7009365 27.0258531,25.7287033 26.3747562,26.3804445 L26.3747699,26.3804102 Z M6.92904312,28.3328931 C7.68328997,28.3328931 8.43753683,28.0585547 9.02167344,27.4764207 C9.57096489,26.9277303 9.87908392,26.1743087 9.87908392,25.3860801 C9.87908392,24.5978514 9.57095117,23.8444298 9.02167344,23.2957394 C7.85614393,22.1314852 6.00331417,22.1314852 4.83785325,23.2957394 C4.2885618,23.8444298 3.98044277,24.5978514 3.98044277,25.3860801 C3.98044277,26.1743087 4.28857552,26.9277303 4.83785325,27.4764207 C5.41928045,28.0251112 6.1735273,28.3328931 6.92914601,28.3328931 L6.92904312,28.3328931 Z M5.72866844,24.2218258 C6.03680119,23.9140302 6.44944199,23.7427495 6.89419796,23.7427495 C7.34032578,23.7427495 7.75160844,23.9140439 8.05972747,24.2218258 C8.36786022,24.5296214 8.5393286,24.9418107 8.5393286,25.3860801 C8.5393286,25.8317198 8.3678465,26.2425524 8.05972747,26.5503343 C7.40864425,27.2007052 6.34490651,27.2007052 5.69382328,26.5503343 C5.38569053,26.2425387 5.21422215,25.8303494 5.21422215,25.3860801 C5.24771604,24.9417765 5.41919813,24.5296077 5.72866844,24.2218258 Z M25.3794878,9.90126565 C26.1685798,9.90126565 26.9228267,9.59347005 27.4721181,9.04479331 C28.0214096,8.49610287 28.3295286,7.74268128 28.3295286,6.95445265 C28.3295286,6.16622402 28.0213959,5.41280243 27.4721181,4.86411199 C26.9228267,4.31542155 26.1685798,4.00763965 25.3794878,4.00763965 C24.5903958,4.00763965 23.8361489,4.31543525 23.2868575,4.86411199 C22.737566,5.41280243 22.429447,6.16622402 22.429447,6.95445265 C22.429447,7.74268128 22.7375798,8.49610287 23.2868575,9.04479331 C23.8361489,9.59348375 24.5917334,9.90126565 25.3794878,9.90126565 Z M24.2139583,5.75662812 C24.522091,5.44883251 24.9347318,5.27755175 25.3794878,5.27755175 C25.8256156,5.27755175 26.2368983,5.44884622 26.5450173,5.75662812 C26.8531501,6.06442372 27.0246185,6.47661303 27.0246185,6.92088236 C27.0246185,7.36652205 26.8531364,7.7773547 26.5450173,8.08513661 C26.2368846,8.39293221 25.8242438,8.56421298 25.3794878,8.56421298 C24.93336,8.56421298 24.5220773,8.39291851 24.2139583,8.08513661 C23.9058255,7.777341 23.7343572,7.36515169 23.7343572,6.92088236 C23.6995257,6.51004971 23.8710078,6.09921705 24.2139583,5.75662812 Z M17.9723529,16.6163514 C18.1090036,16.5133075 18.2121604,16.4102636 18.3153171,16.2737625 C19.550537,14.8685997 19.3790549,12.5402282 19.3442097,12.2658145 C19.2075591,9.49029596 17.1497876,8.80498105 15.949413,8.83992513 C14.7141931,8.80513179 12.6912531,9.49029596 12.5546162,12.2658145 C12.5197847,12.5401529 12.3483026,14.8700386 13.5835088,16.2737625 C13.7201594,16.4102636 13.8581476,16.5481008 13.9947914,16.6511585 C13.6866587,17.0285544 12.8627352,17.5758745 11.0447506,18.0215142 C9.94753958,18.2958526 9.32992966,19.3570629 9.43309329,20.8652799 C9.46792473,21.2078688 9.74122604,21.447407 10.0841765,21.447407 L10.119008,21.447407 C10.4619721,21.4126137 10.7366179,21.1048181 10.7017727,20.7622291 C10.6669413,20.2483457 10.7017727,19.3918734 11.3193826,19.2553859 C13.7549771,18.6384518 14.7490246,17.8167865 15.1602386,17.1650453 C15.400046,17.1998386 15.6398398,17.2332959 15.8810122,17.2332959 L15.9158436,17.2332959 L15.9506751,17.2332959 L15.9855065,17.2332959 C16.2601454,17.2332959 16.534798,17.1985025 16.8080718,17.1302519 C17.1858812,17.7471861 18.1799286,18.603655 20.6489278,19.2540293 C21.2665377,19.4253238 21.300011,20.2817961 21.2665377,20.7608725 C21.2317063,21.1034614 21.5063452,21.4112433 21.8493025,21.4460503 L21.8841339,21.4460503 C22.2270981,21.4460503 22.5017439,21.171712 22.5352172,20.8639232 C22.6383739,19.35708 22.055616,18.2945062 20.9235598,18.0201575 C19.0345816,17.575854 18.2468272,16.9923907 17.9721815,16.6163309 L17.9723529,16.6163514 Z M15.9480754,16.0342243 C15.9480754,16.0342243 15.9145849,16.0342243 15.9480754,16.0342243 C15.3304655,16.0342243 14.8508643,15.8281365 14.5079002,15.4520972 C13.7536533,14.5956248 13.7536533,12.9857309 13.7871266,12.4036038 L13.7871266,12.3688104 C13.8902834,10.3132768 15.3653106,10.1419823 15.8100666,10.1419823 L15.8783919,10.1419823 L15.9132234,10.1419823 C16.2561876,10.1419823 17.9026901,10.1767757 18.0058537,12.3688104 L18.0058537,12.4036038 C18.074179,12.9522942 18.0406851,14.5956248 17.2850801,15.4520972 C17.0117788,15.828157 16.5656442,15.9994515 15.9480685,16.0342243 L15.9480754,16.0342243 Z" id="network" fill="#334146"></path>
            </g>
        </g>
    </g>
</svg>