<?xml version="1.0" encoding="UTF-8"?>
<svg width="49px" height="93px" viewBox="0 0 49 93" version="1.1" xmlns="http://www.w3.org/2000/svg" xmlns:xlink="http://www.w3.org/1999/xlink">
    <!-- Generator: Sketch 50.2 (55047) - http://www.bohemiancoding.com/sketch -->
    <title>icon/question/question</title>
    <desc>Created with Sketch.</desc>
    <defs></defs>
    <g id="Page-1" stroke="none" stroke-width="1" fill="none" fill-rule="evenodd">
        <g id="Home" transform="translate(-742.000000, -1347.000000)" fill="#334146">
            <path d="M752.445196,1398.21922 L757.479026,1398.21922 C763.100163,1398.21922 767.609591,1397.69486 771.007442,1396.64614 C774.405294,1395.59742 777.048028,1393.87755 778.935724,1391.48647 C780.823419,1389.09539 782.102838,1385.76051 782.774019,1381.48173 L784.284168,1372.0433 C784.619758,1370.36535 784.787551,1368.1421 784.787551,1365.37348 C784.787551,1360.50742 783.508132,1357.00475 780.949256,1354.86536 C778.39038,1352.72597 774.300434,1351.65629 768.679296,1351.65629 C764.06493,1351.65629 759.702321,1352.0548 755.59134,1352.85183 C751.480358,1353.64885 746.949957,1354.97022 742,1356.81597 L742.503383,1353.41813 C751.648219,1349.13936 761.128503,1347 770.94452,1347 C777.740223,1347 782.648158,1348.44721 785.668471,1351.34168 C788.688784,1354.23614 790.198917,1358.45193 790.198917,1363.98917 C790.198917,1366.33831 789.947228,1368.89714 789.443843,1371.66576 L787.933694,1381.48173 C786.759128,1388.78082 783.675938,1394.15019 778.684032,1397.58999 C773.692127,1401.02979 766.162432,1402.74966 756.094723,1402.74966 L754.081191,1415.33424 L749.802436,1415.33424 L752.445196,1398.21922 Z M745.775372,1438.6157 L745.775372,1438.36401 L747.159675,1429.93234 C747.32747,1428.75777 747.956693,1428.1705 749.047361,1428.1705 L751.815968,1428.1705 C752.738841,1428.1705 753.200271,1428.58998 753.200271,1429.42896 L753.200271,1429.93234 L751.815968,1438.36401 C751.73207,1439.45467 751.060899,1440 749.802436,1440 L747.159675,1440 C746.236802,1440 745.775372,1439.53857 745.775372,1438.6157 Z" id="icon/question/question"></path>
        </g>
    </g>
</svg>