<?xml version="1.0" encoding="UTF-8"?>
<svg width="94px" height="94px" viewBox="0 0 94 94" version="1.1" xmlns="http://www.w3.org/2000/svg" xmlns:xlink="http://www.w3.org/1999/xlink">
    <!-- Generator: Sketch 50 (54983) - http://www.bohemiancoding.com/sketch -->
    <title>system/system</title>
    <desc>Created with Sketch.</desc>
    <defs></defs>
    <g id="Page-1" stroke="none" stroke-width="1" fill="none" fill-rule="evenodd">
        <g id="about" transform="translate(-465.000000, -121.000000)">
            <g id="system/system" transform="translate(465.000000, 121.000000)">
                <path d="M48.125,93.875 C47.4375,93.875 46.875,93.3125 46.875,92.625 C46.875,91.9375 47.375,91.375 48.125,91.375 C48.8125,91.375 49.375,91.875 49.375,92.625 C49.375,93.25 48.8125,93.875 48.125,93.875 Z M41.125,93.5 C40.4375,93.4375 39.9375,92.8125 40.0625,92.125 C40.125,91.4375 40.75,90.9375 41.4375,91.0625 C42.125,91.125 42.625,91.75 42.5,92.4375 C42.4375,93.0625 41.875,93.5625 41.25,93.5625 C41.25,93.5 41.1875,93.5 41.125,93.5 Z M53.625,92.125 C53.5,91.4375 53.9375,90.8125 54.625,90.6875 C55.3125,90.5625 55.9375,91 56.0625,91.6875 C56.1875,92.375 55.75,93 55.0625,93.125 L54.8125,93.125 C54.25,93.1875 53.75,92.75 53.625,92.125 Z M34.25,92.125 C33.5625,91.9375 33.1875,91.25 33.375,90.5625 C33.5625,89.875 34.25,89.5 34.9375,89.6875 C35.625,89.875 36,90.5625 35.8125,91.25 C35.625,91.8125 35.1875,92.1875 34.625,92.1875 C34.5,92.125 34.375,92.125 34.25,92.125 Z M60.312,90.6875 C60.1245,90.0625 60.437,89.3125 61.1245,89.125 C61.7495,88.875 62.4995,89.25 62.687,89.9375 C62.937,90.5625 62.562,91.3125 61.8745,91.5 C61.7495,91.5625 61.6245,91.5625 61.4995,91.5625 C60.937,91.5 60.437,91.1875 60.312,90.6875 Z M27.687,89.6875 C27.062,89.375 26.7495,88.6875 27.062,88.0625 C27.3745,87.4375 28.062,87.125 28.687,87.4375 C29.312,87.75 29.6245,88.4375 29.312,89.0625 C29.1245,89.5 28.6245,89.8125 28.187,89.8125 C27.9995,89.8125 27.812,89.8125 27.687,89.6875 Z M66.625,88.1875 C66.3125,87.5625 66.5625,86.8125 67.1875,86.5 C67.8125,86.1875 68.5625,86.4375 68.875,87.0625 C69.1875,87.6875 68.9375,88.4375 68.3125,88.75 C68.125,88.8125 67.9375,88.875 67.75,88.875 C67.3125,88.875 66.875,88.625 66.625,88.1875 Z M21.5,86.375 C20.9375,86 20.75,85.25 21.125,84.625 C21.5,84.0625 22.25,83.875 22.875,84.25 C23.4375,84.625 23.625,85.375 23.25,86 C23,86.375 22.625,86.5625 22.1875,86.5625 C22,86.5625 21.75,86.5 21.5,86.375 Z M72.562,84.8125 C72.187,84.25 72.312,83.4375 72.8745,83.0625 C73.437,82.6875 74.187,82.8125 74.6245,83.375 C74.9995,83.9375 74.8745,84.75 74.312,85.125 C74.062,85.3125 73.812,85.375 73.562,85.375 C73.187,85.3125 72.812,85.125 72.562,84.8125 Z M15.937,82.125 C15.437,81.6875 15.3745,80.875 15.812,80.375 C16.2495,79.875 17.062,79.8125 17.562,80.25 C18.062,80.6875 18.1245,81.5 17.687,82 C17.437,82.3125 17.1245,82.4375 16.7495,82.4375 C16.4995,82.4375 16.187,82.3125 15.937,82.125 Z M77.937,80.5625 C77.437,80.0625 77.437,79.25 77.937,78.8125 C78.437,78.3125 79.187,78.3125 79.687,78.8125 C80.187,79.3125 80.187,80.125 79.687,80.5625 C79.437,80.8125 79.1245,80.9375 78.812,80.9375 C78.4995,80.9375 78.1245,80.8125 77.937,80.5625 Z M11.062,77.0625 C10.6245,76.5625 10.687,75.75 11.2495,75.3125 C11.7495,74.875 12.562,74.9375 12.9995,75.5 C13.437,76 13.3745,76.8125 12.812,77.25 C12.562,77.4375 12.312,77.5625 11.9995,77.5625 C11.687,77.5625 11.312,77.375 11.062,77.0625 Z M82.562,75.5625 C81.9995,75.125 81.937,74.375 82.312,73.8125 C82.7495,73.25 83.4995,73.1875 84.062,73.5625 C84.6245,74 84.687,74.75 84.312,75.3125 C84.062,75.625 83.687,75.8125 83.312,75.8125 C83.062,75.875 82.812,75.75 82.562,75.5625 Z M7,71.375 C6.625004,70.75 6.812504,70 7.4375,69.625 C8,69.25 8.8125,69.4375 9.1875,70.0625 C9.5625,70.625 9.375,71.4375 8.75,71.75 C8.5625,71.875 8.3125,71.9375 8.125,71.9375 C7.625,72 7.25,71.8125 7,71.375 Z M86.43801,70 C85.81301,69.6875 85.62551,68.9375 85.93801,68.3125 C86.25051,67.6875 87.06301,67.5 87.62551,67.8125 C88.25051,68.125 88.43801,68.875 88.12551,69.5 C87.87551,69.9375 87.50051,70.125 87.00051,70.125 C86.81301,70.125 86.62551,70.0625 86.43801,70 Z M3.813007,65.1875 C3.563007,64.5625 3.813007,63.8125 4.500507,63.5625 C5.125507,63.3125 5.875507,63.5625 6.125507,64.25 C6.375507,64.875 6.125507,65.625 5.438007,65.875 C5.250507,65.9375 5.125507,66 4.938007,66 C4.438007,65.9375 4.000507,65.625 3.813007,65.1875 Z M89.43801,63.875 C88.81301,63.625 88.43801,62.9375 88.68801,62.25 C88.93801,61.625 89.62551,61.25 90.31301,61.5 C90.93801,61.75 91.31301,62.4375 91.06301,63.125 C90.87551,63.625 90.37551,63.9375 89.87551,63.9375 C89.68801,63.9375 89.56301,63.875 89.43801,63.875 Z M1.563007,58.5 C1.375507,57.875 1.813007,57.1875 2.438007,57 C3.125507,56.8125 3.813007,57.25 3.938007,57.9375 C4.125507,58.625 3.688007,59.3125 3.063007,59.4375 C2.938007,59.4375 2.875507,59.5 2.750507,59.5 C2.188007,59.4375 1.688007,59.0625 1.563007,58.5 Z M91.43801,57.3125 C90.75051,57.1875 90.31301,56.5 90.43801,55.8125 L90.43801,55.75 C90.56301,55.0625 91.25051,54.625 91.93801,54.75 C92.62551,54.875 93.06301,55.5625 92.93801,56.25 L92.93801,56.3125 C92.81301,56.875 92.31301,57.3125 91.68801,57.3125 C91.62551,57.375 91.56301,57.375 91.43801,57.3125 Z M0.376011,51.625 C0.313511,50.9375 0.813511,50.3125 1.501011,50.25 C2.188511,50.1875 2.813511,50.6875 2.876011,51.375 C2.938511,52.0625 2.438511,52.6875 1.751011,52.75 L1.626011,52.75 C0.938511,52.75 0.438511,52.25 0.376011,51.625 Z M92.50101,50.5 C91.81351,50.4375 91.31351,49.875 91.31351,49.1875 C91.31351,48.5 91.93851,48 92.62601,48 C93.31351,48.0625 93.87601,48.625 93.81351,49.3125 C93.75101,50 93.25101,50.5 92.56351,50.5 L92.50101,50.5 Z M1.376011,45.9375 C0.688511,45.875 0.188511,45.3125 0.188511,44.625 C0.251011,43.9375 0.813511,43.4375 1.501011,43.4375 C2.188511,43.4375 2.751011,44.0625 2.688511,44.75 C2.688511,45.4375 2.126011,45.9375 1.438511,45.9375 L1.376011,45.9375 Z M91.18801,42.5625 C91.12551,41.875 91.62551,41.25 92.31301,41.1875 C93.00051,41.125 93.62551,41.625 93.68801,42.3125 C93.75051,43 93.25051,43.625 92.56301,43.6875 L92.43801,43.6875 C91.75051,43.6875 91.25051,43.25 91.18801,42.5625 Z M2.063007,39.125 C1.375507,39 0.938007,38.3125 1.063007,37.625 C1.188007,36.9375 1.875507,36.5 2.563007,36.625 C3.250507,36.75 3.688007,37.4375 3.563007,38.125 C3.438007,38.75 2.938007,39.125 2.313007,39.125 C2.188007,39.1875 2.125507,39.1875 2.063007,39.125 Z M90.00101,36.0625 C89.81351,35.375 90.25101,34.6875 90.87601,34.5625 C91.56351,34.375 92.25101,34.8125 92.37601,35.4375 C92.56351,36.125 92.12601,36.8125 91.50101,36.9375 C91.37601,36.9375 91.31351,37 91.18851,37 C90.68851,37 90.12601,36.625 90.00101,36.0625 Z M3.689014,32.5625 C3.064014,32.3125 2.689014,31.625 2.939014,30.9375 C3.189014,30.3125 3.876514,29.9375 4.564014,30.1875 C5.189014,30.4375 5.564014,31.125 5.314014,31.8125 C5.126514,32.3125 4.626514,32.625 4.126514,32.625 C4.001514,32.625 3.876514,32.625 3.689014,32.5625 Z M87.87702,29.75 C87.62702,29.125 87.87702,28.375 88.56452,28.125 C89.18952,27.875 89.93952,28.125 90.18952,28.8125 C90.43952,29.4375 90.18952,30.1875 89.50202,30.4375 C89.31452,30.5 89.18952,30.5625 89.00202,30.5625 C88.56452,30.5625 88.06452,30.25 87.87702,29.75 Z M6.377018,26.25 C5.752018,25.9375 5.564518,25.125 5.877018,24.5625 C6.189518,23.9375 6.939518,23.75 7.56452,24.0625 C8.18952,24.375 8.37702,25.1875 8.06452,25.75 C7.81452,26.1875 7.43952,26.375 6.939518,26.375 C6.752018,26.375 6.564518,26.375 6.377018,26.25 Z M84.87702,23.875 C84.50202,23.3125 84.68952,22.5 85.31452,22.1875 C85.87702,21.8125 86.68952,22 87.06452,22.625 C87.43952,23.1875 87.25202,24 86.62702,24.375 C86.43952,24.5 86.18952,24.5625 86.00202,24.5625 C85.50202,24.5 85.12702,24.25 84.87702,23.875 Z M9.87702,20.4375 C9.31452,20 9.25202,19.25 9.62702,18.6875 C10.06452,18.125 10.81452,18.0625 11.37702,18.4375 C11.93952,18.875 12.00202,19.625 11.62702,20.1875 C11.37702,20.5 11.00202,20.6875 10.62702,20.6875 C10.37702,20.6875 10.12702,20.625 9.87702,20.4375 Z M81.00202,18.5 C80.56452,17.9375 80.62702,17.1875 81.18952,16.75 C81.68952,16.3125 82.50202,16.375 82.93952,16.9375 C83.37702,17.4375 83.31452,18.25 82.75202,18.6875 C82.50202,18.875 82.25202,19 81.93952,19 C81.62702,18.9375 81.25202,18.8125 81.00202,18.5 Z M14.25202,15.1875 C13.75202,14.6875 13.75202,13.875 14.25202,13.4375 C14.75202,12.9375 15.56452,12.9375 16.00202,13.4375 C16.50202,13.9375 16.50202,14.75 16.00202,15.1875 C15.75202,15.4375 15.43952,15.5625 15.12702,15.5625 C14.81452,15.5625 14.50202,15.4375 14.25202,15.1875 Z M76.37702,13.75 C75.87702,13.3125 75.81452,12.5 76.25202,12 C76.68952,11.5 77.50202,11.4375 78.00202,11.875 C78.50202,12.3125 78.56452,13.125 78.12702,13.625 C77.87702,13.875 77.50202,14.0625 77.18952,14.0625 C76.87702,14.0625 76.62702,13.9375 76.37702,13.75 Z M19.37702,10.6875 C19.00202,10.125 19.12702,9.375 19.68952,8.9375 C20.25202,8.5625 21.00202,8.6875 21.43952,9.25 C21.87702,9.8125 21.68952,10.5625 21.12702,11 C20.93952,11.1875 20.62702,11.25 20.37702,11.25 C20.00202,11.1875 19.62702,11 19.37702,10.6875 Z M71.06502,9.75 C70.50252,9.375 70.31502,8.625 70.69002,8 C71.06502,7.4375 71.81502,7.25 72.44002,7.625 C73.00252,8 73.19002,8.75 72.81502,9.375 C72.56502,9.75 72.19002,9.9375 71.75252,9.9375 C71.56502,9.9375 71.31502,9.875 71.06502,9.75 Z M25.12702,6.9375 C24.81452,6.3125 25.06452,5.5625 25.68952,5.25 C26.31452,4.9375 27.06452,5.1875 27.37702,5.8125 C27.68952,6.4375 27.43952,7.1875 26.81452,7.5 C26.62702,7.625 26.37702,7.625 26.18952,7.625 C25.75202,7.625 25.31452,7.375 25.12702,6.9375 Z M65.25202,6.5625 C64.62702,6.25 64.31452,5.5625 64.62702,4.875 C64.93952,4.25 65.62702,4 66.31452,4.25 C66.93952,4.5625 67.25202,5.25 66.93952,5.875 C66.75202,6.3125 66.25202,6.625 65.81452,6.625 C65.62702,6.6875 65.43952,6.625 65.25202,6.5625 Z M31.31402,4.125 C31.06402,3.5 31.43902,2.75 32.12652,2.5625 C32.75152,2.375 33.50152,2.6875 33.68902,3.375 C33.87652,4 33.56402,4.75 32.87652,4.9375 C32.75152,5 32.62652,5 32.50152,5 C32.00152,5 31.50152,4.6875 31.31402,4.125 Z M59.06402,4.3125 C58.37652,4.125 58.00152,3.4375 58.18902,2.75 C58.37652,2.0625 59.06402,1.6875 59.75152,1.875 C60.43902,2.0625 60.81402,2.75 60.62652,3.4375 C60.43902,4 60.00152,4.375 59.43902,4.375 C59.25152,4.3125 59.12652,4.3125 59.06402,4.3125 Z M37.87602,2.25 C37.75102,1.5625 38.18852,0.9375 38.87602,0.8125 C39.56352,0.6875 40.18852,1.125 40.31352,1.8125 C40.43852,2.5 40.00102,3.125 39.31352,3.25 L39.12602,3.25 C38.50102,3.3125 37.93852,2.875 37.87602,2.25 Z M52.50102,3 C51.81352,2.9375 51.31352,2.3125 51.43852,1.625 C51.50102,0.9375 52.12602,0.4375 52.81352,0.5625 C53.50102,0.625 54.00102,1.25 53.87602,1.9375 C53.81352,2.5625 53.25102,3.0625 52.62602,3.0625 C52.62602,3 52.56352,3 52.50102,3 Z M44.62602,1.4375 C44.62602,0.75 45.12602,0.1875 45.87602,0.1875 C46.56352,0.1875 47.12602,0.6875 47.12602,1.375 C47.12602,2.0625 46.62602,2.625 45.87602,2.6875 C45.18852,2.625 44.62602,2.125 44.62602,1.4375 Z" id="Fill-1" fill-opacity="0.5" fill="#3E474F"></path>
                <path d="M46.062,85.188 C46.062,84.5005 46.6245,83.938 47.312,83.938 C47.9995,83.938 48.562,84.5005 48.562,85.188 C48.562,85.8755 47.9995,86.438 47.312,86.438 C46.6245,86.3755 46.062,85.8755 46.062,85.188 Z M40.312,85.813 C39.6245,85.688 39.187,85.063 39.312,84.3755 C39.437,83.688 40.062,83.2505 40.7495,83.3755 C41.437,83.5005 41.8745,84.1255 41.7495,84.813 C41.6245,85.438 41.1245,85.8755 40.4995,85.8755 C40.437,85.8755 40.3745,85.8755 40.312,85.813 Z M52.937,84.7505 C52.812,84.063 53.2495,83.438 53.937,83.313 C54.6245,83.188 55.2495,83.6255 55.3745,84.313 C55.4995,85.0005 55.062,85.6255 54.3745,85.7505 L54.1245,85.7505 C53.562,85.7505 52.9995,85.313 52.937,84.7505 Z M33.499,84.0005 C32.874,83.7505 32.499,83.063 32.749,82.3755 C32.999,81.7505 33.6865,81.3755 34.374,81.6255 C34.999,81.8755 35.374,82.563 35.124,83.2505 C34.9365,83.7505 34.4365,84.063 33.9365,84.063 C33.749,84.1255 33.624,84.063 33.499,84.0005 Z M59.561,83.063 C59.311,82.438 59.6235,81.688 60.2485,81.438 C60.8735,81.188 61.6235,81.5005 61.8735,82.1255 C62.1235,82.7505 61.811,83.5005 61.1235,83.7505 C60.9985,83.813 60.811,83.813 60.686,83.813 C60.186,83.8755 59.7485,83.563 59.561,83.063 Z M27.123,81.0005 C26.498,80.688 26.3105,79.8755 26.6855,79.313 C27.0605,78.688 27.8105,78.5005 28.373,78.8755 C28.998,79.2505 29.1855,80.0005 28.8105,80.563 C28.5605,80.938 28.1855,81.188 27.748,81.188 C27.498,81.188 27.3105,81.1255 27.123,81.0005 Z M65.748,80.2505 C65.373,79.688 65.5605,78.8755 66.1855,78.5005 C66.748,78.1255 67.5605,78.313 67.9355,78.938 C68.3105,79.5005 68.123,80.313 67.498,80.688 C67.3105,80.813 67.0605,80.8755 66.873,80.8755 C66.4355,80.813 65.998,80.6255 65.748,80.2505 Z M21.373,76.938 C20.873,76.5005 20.8105,75.688 21.248,75.188 C21.6855,74.688 22.498,74.6255 22.998,75.063 C23.498,75.5005 23.5605,76.313 23.123,76.813 C22.873,77.1255 22.498,77.2505 22.1855,77.2505 C21.873,77.188 21.5605,77.1255 21.373,76.938 Z M71.373,76.313 C70.9355,75.813 70.9355,75.0005 71.498,74.563 C71.998,74.1255 72.8105,74.1255 73.248,74.688 C73.6855,75.188 73.6855,76.0005 73.123,76.438 C72.873,76.6255 72.5605,76.7505 72.3105,76.7505 C71.998,76.7505 71.6855,76.6255 71.373,76.313 Z M16.435,71.8755 C15.9975,71.313 16.06,70.563 16.6225,70.1255 C17.185,69.688 17.935,69.7505 18.3725,70.313 C18.81,70.8755 18.7475,71.6255 18.185,72.063 C17.935,72.2505 17.685,72.313 17.3725,72.313 C16.9975,72.313 16.685,72.1255 16.435,71.8755 Z M76.247,71.5005 C75.6845,71.063 75.622,70.313 76.0595,69.7505 C76.497,69.188 77.247,69.1255 77.8095,69.563 C78.372,70.0005 78.4345,70.7505 77.997,71.313 C77.747,71.6255 77.372,71.813 76.997,71.813 C76.747,71.813 76.497,71.688 76.247,71.5005 Z M12.497,66.0005 C12.1845,65.3755 12.372,64.6255 12.997,64.313 C13.622,64.0005 14.372,64.188 14.6845,64.813 C14.997,65.438 14.8095,66.188 14.1845,66.5005 C13.997,66.6255 13.8095,66.688 13.5595,66.688 C13.122,66.6255 12.6845,66.438 12.497,66.0005 Z M80.18501,65.8755 C79.56001,65.563 79.37251,64.813 79.68501,64.188 C79.99751,63.563 80.74751,63.3755 81.37251,63.688 C81.99751,64.0005 82.18501,64.7505 81.87251,65.3755 C81.62251,65.813 81.24751,66.063 80.74751,66.063 C80.56001,66.063 80.37251,66.0005 80.18501,65.8755 Z M9.62301,59.563 C9.37301,58.8755 9.74801,58.188 10.43551,58.0005 C11.12301,57.7505 11.81051,58.1255 11.99801,58.813 C12.24801,59.438 11.87301,60.188 11.18551,60.3755 C11.06051,60.438 10.93551,60.438 10.81051,60.438 C10.31051,60.3755 9.81051,60.063 9.62301,59.563 Z M82.99801,59.688 C82.37301,59.5005 81.99801,58.7505 82.18551,58.1255 C82.37301,57.438 83.12301,57.1255 83.74801,57.313 C84.43551,57.5005 84.74801,58.188 84.56051,58.8755 C84.37301,59.3755 83.93551,59.7505 83.37301,59.7505 C83.24801,59.7505 83.12301,59.7505 82.99801,59.688 Z M7.99801,52.688 C7.93551,52.0005 8.37301,51.3755 9.06051,51.2505 C9.74801,51.1255 10.37301,51.6255 10.49801,52.313 C10.62301,53.0005 10.12301,53.6255 9.43551,53.7505 L9.24801,53.7505 C8.62301,53.7505 8.06051,53.313 7.99801,52.688 Z M84.68601,53.063 C83.99851,53.0005 83.49851,52.3755 83.62351,51.688 L83.62351,51.6255 L83.62351,51.563 C83.68601,50.8755 84.31101,50.3755 84.99851,50.5005 C85.68601,50.563 86.18601,51.188 86.06101,51.8755 L86.06101,51.938 L86.06101,52.0005 C85.99851,52.6255 85.43601,53.063 84.81101,53.063 L84.68601,53.063 Z M8.81101,46.938 C8.12351,46.938 7.56101,46.313 7.62351,45.6255 C7.62351,44.938 8.24851,44.3755 8.93601,44.438 C9.62351,44.438 10.18601,45.063 10.12351,45.7505 C10.12351,46.3755 9.56101,46.938 8.81101,46.938 C8.87351,46.938 8.81101,46.938 8.81101,46.938 Z M83.87301,44.938 C83.81051,44.2505 84.37301,43.6255 85.06051,43.6255 C85.74801,43.563 86.37301,44.1255 86.37301,44.813 C86.43551,45.5005 85.87301,46.1255 85.18551,46.1255 L85.12301,46.1255 C84.43551,46.1255 83.87301,45.6255 83.87301,44.938 Z M9.43501,40.1255 C8.74751,40.0005 8.31001,39.313 8.49751,38.6255 C8.62251,37.938 9.31001,37.5005 9.99751,37.688 C10.68501,37.813 11.12251,38.5005 10.93501,39.188 C10.81001,39.7505 10.31001,40.188 9.74751,40.188 C9.62251,40.1255 9.56001,40.1255 9.43501,40.1255 Z M82.87301,38.3755 C82.68551,37.688 83.12301,37.063 83.81051,36.8755 C84.49801,36.688 85.18551,37.1255 85.31051,37.813 C85.49801,38.5005 85.06051,39.1255 84.37301,39.313 C84.24801,39.313 84.18551,39.3755 84.06051,39.3755 C83.56051,39.3755 83.06051,38.938 82.87301,38.3755 Z M11.31101,33.5005 C10.68601,33.2505 10.37351,32.5005 10.62351,31.8755 C10.87351,31.2505 11.62351,30.938 12.24851,31.188 C12.87351,31.438 13.18601,32.188 12.93601,32.813 C12.74851,33.313 12.24851,33.563 11.81101,33.563 C11.62351,33.6255 11.43601,33.563 11.31101,33.5005 Z M80.74902,32.1255 C80.49902,31.5005 80.74902,30.7505 81.37402,30.5005 C81.99902,30.188 82.74902,30.5005 82.99902,31.1255 C83.24902,31.7505 82.99902,32.5005 82.37402,32.7505 C82.18652,32.813 82.06152,32.8755 81.87402,32.8755 C81.43652,32.8755 80.99902,32.563 80.74902,32.1255 Z M14.24902,27.3755 C13.68652,27.0005 13.49902,26.2505 13.87402,25.6255 C14.24902,25.063 14.99902,24.8755 15.62402,25.2505 C16.18652,25.6255 16.37402,26.3755 15.99902,27.0005 C15.74902,27.3755 15.37402,27.563 14.93652,27.563 C14.68652,27.563 14.49902,27.5005 14.24902,27.3755 Z M77.56102,26.313 C77.18602,25.7505 77.31102,24.938 77.87352,24.563 C78.43602,24.188 79.24852,24.313 79.62352,24.8755 C79.99852,25.438 79.87352,26.2505 79.31102,26.6255 C79.12352,26.7505 78.87352,26.8755 78.62352,26.8755 C78.18602,26.8755 77.81102,26.688 77.56102,26.313 Z M18.31102,21.813 C17.81102,21.313 17.81102,20.563 18.24852,20.063 C18.74852,19.563 19.49852,19.563 19.99852,20.0005 C20.49852,20.5005 20.49852,21.2505 20.06102,21.7505 C19.81102,22.0005 19.49852,22.1255 19.12352,22.1255 C18.87352,22.188 18.56102,22.063 18.31102,21.813 Z M73.37302,21.188 C72.87302,20.688 72.87302,19.8755 73.37302,19.438 C73.87302,18.938 74.68552,18.938 75.12302,19.438 C75.62302,19.938 75.62302,20.7505 75.12302,21.188 C74.87302,21.438 74.56052,21.563 74.24802,21.563 C73.99802,21.563 73.62302,21.438 73.37302,21.188 Z M23.24802,17.1255 C22.81052,16.563 22.93552,15.813 23.49802,15.3755 C24.06052,14.938 24.81052,15.063 25.24802,15.6255 C25.68552,16.188 25.56052,16.938 24.99802,17.3755 C24.81052,17.563 24.49802,17.6255 24.24802,17.6255 C23.87302,17.6255 23.49802,17.438 23.24802,17.1255 Z M68.37302,16.938 C67.81052,16.563 67.68552,15.7505 68.06052,15.188 C68.43552,14.6255 69.24802,14.5005 69.81052,14.8755 C70.37302,15.2505 70.49802,16.063 70.12302,16.6255 C69.87302,16.938 69.49802,17.1255 69.12302,17.1255 C68.87302,17.1255 68.56052,17.063 68.37302,16.938 Z M28.99802,13.3755 C28.68552,12.7505 28.93552,12.0005 29.56052,11.688 C30.18552,11.3755 30.93552,11.6255 31.24802,12.2505 C31.56052,12.8755 31.31052,13.6255 30.68552,13.938 C30.49802,14.0005 30.31052,14.063 30.12302,14.063 C29.62302,14.063 29.18552,13.813 28.99802,13.3755 Z M62.68602,13.563 C62.06102,13.2505 61.81102,12.5005 62.06102,11.8755 C62.37352,11.2505 63.12352,11.0005 63.74852,11.2505 C64.37352,11.563 64.62352,12.313 64.37352,12.938 C64.18602,13.3755 63.68602,13.6255 63.24852,13.6255 C62.99852,13.688 62.81102,13.6255 62.68602,13.563 Z M35.24802,10.688 C35.06052,10.0005 35.43552,9.313 36.12302,9.1255 C36.81052,8.938 37.49802,9.313 37.68552,10.0005 C37.87302,10.688 37.49802,11.3755 36.81052,11.563 C36.68552,11.563 36.56052,11.6255 36.49802,11.6255 C35.93552,11.563 35.43552,11.188 35.24802,10.688 Z M56.43602,11.313 C55.74852,11.1255 55.37352,10.438 55.56102,9.813 C55.74852,9.1255 56.43602,8.7505 57.06102,8.938 C57.74852,9.1255 58.12352,9.813 57.93602,10.438 C57.81102,11.0005 57.31102,11.3755 56.74852,11.3755 C56.68602,11.3755 56.56102,11.3755 56.43602,11.313 Z M41.93602,9.1255 C41.87352,8.438 42.37352,7.813 43.06102,7.7505 C43.74852,7.688 44.37352,8.188 44.43602,8.8755 C44.49852,9.563 43.99852,10.188 43.31102,10.2505 L43.18602,10.2505 C42.56102,10.313 41.99852,9.813 41.93602,9.1255 Z M49.93602,10.188 C49.24852,10.1255 48.74852,9.5005 48.81102,8.813 C48.87352,8.1255 49.43602,7.6255 50.12352,7.688 C50.81102,7.7505 51.31102,8.313 51.24852,9.063 C51.18602,9.688 50.62352,10.188 49.99852,10.188 L49.93602,10.188 Z" id="Fill-2" fill-opacity="0.5" fill="#3E474F"></path>
                <path d="M47,55.062 C46.4375,55.062 45.9375,54.9995 45.375,54.8745 C43.25,54.4995 41.4375,53.2495 40.25,51.437 C39.0625,49.6245 38.625,47.4995 39.0625,45.3745 C39.5,43.2495 40.75,41.437 42.5,40.2495 C44.25,39.062 46.4375,38.6245 48.5625,39.062 C52.9375,39.937 55.75,44.2495 54.875,48.562 C54.5,50.7495 53.25,52.562 51.4375,53.7495 C50.125,54.6245 48.5625,55.062 47,55.062 Z" id="Fill-3" fill="#00BAEF"></path>
                <path d="M65.562,50.75 C67.6245,40.5 60.9995,30.5 50.812,28.438 C46.812,27.6255 42.7495,28.1255 39.062,29.813 C39.4995,30.2505 39.8745,30.813 40.062,31.438 C42.2495,30.438 44.562,29.938 46.937,29.938 C48.062,29.938 49.2495,30.063 50.3745,30.313 C59.562,32.188 65.5625,41.188 63.6865,50.438 C61.8115,59.6255 52.8115,65.626 43.5615,63.75 C34.374,61.875 28.3735,52.875 30.2495,43.625 C30.687,41.5 31.4995,39.5625 32.6245,37.75 C32.062,37.4375 31.6245,37 31.187,36.5 C29.812,38.5 28.8745,40.8125 28.3745,43.25 C26.3745,53.438 32.9995,63.438 43.2495,65.562 C44.4995,65.812 45.812,65.937 47.062,65.937 C55.812,65.937 63.687,59.7495 65.562,50.749 L65.562,50.75 Z" id="Fill-4" fill="#2D3237"></path>
                <path d="M71.938,30.75 C67.7505,24.125 61.25,19.562 53.626,17.875 C37.876,14.3125 22.188,24.25 18.626,40 C16.9385,47.625 18.251,55.438 22.4385,62.062 C26.626,68.686 33.1265,73.25 40.7505,74.937 C42.8755,75.437 45.063,75.6245 47.188,75.6245 C52.1255,75.6245 56.8755,74.3745 61.063,72.062 C60.6255,71.6245 60.2505,71.062 60.0005,70.4995 C54.438,73.4995 47.7505,74.562 41.1255,73.062 C34.0005,71.437 27.8755,67.187 24.0005,61 C20.1255,54.813 18.813,47.5 20.438,40.375 C23.813,25.687 38.5,16.375 53.25,19.687 C60.375,21.312 66.5,25.562 70.375,31.749 C74.25,37.936 75.5625,45.249 73.9375,52.374 C72.9375,56.6865 71,60.499 68.4375,63.686 C68.75,63.8735 69,64.1235 69.25,64.3735 C69.4375,64.561 69.625,64.811 69.75,64.9985 C72.625,61.561 74.75,57.436 75.75,52.8105 C77.5,45.1855 76.125,37.3725 71.9375,30.7485 L71.938,30.75 Z" id="Fill-5" fill="#2D3237"></path>
                <path d="M35.312,30.062 C33.4995,30.062 32.062,31.4995 32.062,33.312 C32.062,35.1245 33.4995,36.562 35.312,36.562 C37.1245,36.562 38.562,35.1245 38.562,33.312 C38.562,31.4995 37.1245,30.062 35.312,30.062 Z M35.312,34.7495 C34.562,34.7495 33.937,34.1245 33.937,33.3745 C33.937,32.6245 34.562,31.9995 35.312,31.9995 C36.062,31.9995 36.687,32.6245 36.687,33.3745 C36.687,34.1245 36.062,34.7495 35.312,34.7495 Z" id="Fill-6" fill="#FB3780"></path>
                <path d="M67.812,65.688 C67.1245,64.938 66.187,64.563 65.187,64.563 C63.1245,64.5005 61.437,66.188 61.3745,68.2505 C61.3745,69.2505 61.7495,70.188 62.437,70.938 C63.1245,71.688 64.062,72.063 65.062,72.063 L65.1245,72.063 C67.1245,72.063 68.812,70.438 68.8745,68.3755 C68.8745,67.3755 68.562,66.438 67.812,65.688 Z M65.1245,70.1255 C64.6245,70.1255 64.187,69.938 63.812,69.563 C63.4995,69.188 63.312,68.7505 63.312,68.2505 C63.312,67.2505 64.187,66.438 65.187,66.438 L65.2495,66.438 C65.7495,66.438 66.187,66.6255 66.562,67.0005 C66.8745,67.3755 67.062,67.813 67.062,68.313 C66.9995,69.3755 66.1245,70.188 65.1245,70.1255 Z" id="Fill-7" fill="#FB3780"></path>
            </g>
        </g>
    </g>
</svg>