<?xml version="1.0" encoding="UTF-8"?>
<svg width="58px" height="75px" viewBox="0 0 58 75" version="1.1" xmlns="http://www.w3.org/2000/svg" xmlns:xlink="http://www.w3.org/1999/xlink">
    <!-- Generator: Sketch 50.2 (55047) - http://www.bohemiancoding.com/sketch -->
    <title>globe/globe</title>
    <desc>Created with Sketch.</desc>
    <defs></defs>
    <g id="Page-1" stroke="none" stroke-width="1" fill="none" fill-rule="evenodd">
        <g id="Artboard-1" transform="translate(-25.000000, -31.000000)" fill="#50E3C2">
            <g id="globe/globe" transform="translate(25.000000, 31.000000)">
                <path d="M32.9022823,4.72637755 C19.1175224,4.76823214 7.80876967,16.0536735 7.89270212,29.8705102 C7.97616149,43.9567347 19.105314,54.8921939 32.7985113,54.9465306 C46.7389277,55.0033316 57.9812975,43.6643878 57.9606959,29.7036735 C57.9428106,16.0207653 46.5687737,4.68505102 32.9030453,4.72637755 L32.9022823,4.72637755 Z M22.5122084,47.5146429 C22.0442621,47.5953597 21.6239742,47.6073138 21.3498203,47.1379668 C21.2246388,46.9257168 21.1232942,46.7015051 20.9921536,46.4444082 C19.5972726,47.2485918 17.8208805,46.2889592 17.7522848,44.7852245 C17.7433422,44.5699821 17.850646,44.3487628 17.9132367,44.1305281 C17.9877535,43.8674541 18.1636072,43.592426 18.1278367,43.3502985 C18.1159107,43.278551 18.1099515,43.2068036 18.1039923,43.1380485 C17.6211442,42.7882806 17.2843538,42.2501403 17.2545196,41.6104209 C17.245577,41.3951786 17.3528808,41.1739592 17.4154715,40.9557245 C17.4899807,40.6926505 17.6658344,40.4176224 17.6300716,40.1754949 C17.5257512,39.4550281 17.6300716,38.8780714 18.2828142,38.435648 C18.3752086,38.3728699 18.2798308,37.8796071 18.1486901,37.6613878 C17.6300716,36.8153418 17.7492938,36.3400102 18.6553827,35.8527398 C19.0786235,35.6255357 19.4869243,35.3744235 19.8952938,35.1233112 C20.3304531,34.8542602 20.9206431,34.9798163 21.1650392,35.5298801 C21.4839596,36.256324 21.7939374,37.0216148 21.8952743,37.7988597 C21.9846929,38.4864413 22.059202,39.1800077 22.1277596,39.8705434 C22.2499652,40.2352577 22.3483188,40.6029643 22.3960077,40.9766403 C22.6463782,42.895875 22.7805022,44.8330944 22.9533726,46.7642679 C22.9831762,47.1050663 22.9891354,47.4309184 22.5122541,47.5146276 L22.5122084,47.5146429 Z M30.4850278,18.5677041 C30.0140981,19.1177679 29.406038,19.5482143 28.9231976,20.0923469 C28.5655309,20.4989158 28.3121846,21.001148 28.0171087,21.4615561 C27.9366327,21.5841276 27.894903,21.754523 27.7846234,21.8352398 C26.9143202,22.4899362 26.4970234,23.4226378 26.1632011,24.4151633 C26.0022492,24.8934796 25.8293789,25.3717959 25.6505494,25.8830204 C24.8040525,25.8351888 24.6669374,25.7215867 24.4553513,24.815801 C24.1334475,23.4376378 22.8309533,22.8427653 21.6059211,23.5124082 C21.4390099,23.6020944 21.2631562,23.6708495 21.0873025,23.7366199 C20.3183286,24.0176327 19.8116056,24.8845791 20.0709568,25.6558546 C20.5895754,27.1834821 21.2244176,28.6214158 22.6759911,29.5750638 C23.1916263,29.9128776 23.8383792,30.3732781 23.8175487,31.2940179 C22.2706737,30.6602526 20.7207466,30.2297832 19.6119989,28.9383291 C19.3824971,28.6692781 18.9831008,28.5257832 18.6373906,28.385273 C18.5241276,28.3374413 18.4168314,28.2896097 18.3154868,28.2328087 C18.7089163,28.6752474 19.0904122,29.1116862 19.4689475,29.5541862 C19.6954736,29.8172602 19.606055,30.0115791 19.2483883,30.0743571 C18.9860994,30.1221888 18.7297697,30.1999133 18.3393236,30.2985689 C18.5360384,30.7230765 18.7864089,31.0369668 18.8102533,31.3657883 C18.840057,31.796273 18.759581,32.2686199 18.5837273,32.6572423 C18.5211366,32.7947602 18.035305,32.761875 17.743182,32.7648597 C17.6448208,32.7648597 17.5106967,32.6572423 17.4510894,32.5615791 C17.0725617,31.9248214 16.7089282,31.2820638 16.3482934,30.636375 C16.2886784,30.5287577 16.1843657,30.3852628 16.2111859,30.2895995 C16.4079007,29.6080026 16.0800376,29.1595485 15.5822877,28.7739107 C15.519697,28.7260791 15.4600821,28.6423699 15.4451802,28.5646454 C15.3915321,28.2657015 15.3557617,27.96675 15.3110562,27.6647985 C15.5435414,27.6946913 15.7790025,27.7096378 16.0114877,27.7455153 C15.9578396,27.649852 15.9041915,27.5541888 15.8505358,27.4585255 C15.7909209,27.3509082 15.6895839,27.2074133 15.7164118,27.11175 C15.9131265,26.4301531 15.5852635,25.981699 15.0845378,25.5960612 C15.0219471,25.5482296 14.9623321,25.4645281 14.9474303,25.3867959 C14.8907988,25.087852 14.8550359,24.7889005 14.8133063,24.486949 C15.1053988,24.5228189 15.4004748,24.5407577 15.6865852,24.600551 C15.8207093,24.6304439 15.9369481,24.7350765 16.109826,24.8307398 C16.1932854,24.6782755 16.2707779,24.5317959 16.3572131,24.3733469 C16.1217521,23.8352449 15.7760038,23.365898 15.2902028,22.9592908 C14.3989928,22.2119235 14.1456694,21.2492908 14.6344844,20.1790867 C15.1560787,19.0311276 15.7164499,17.8951071 16.3035955,16.7770714 C16.8311567,15.7755918 16.8490344,14.7024031 16.8877806,13.617199 C16.899699,13.3421633 16.9891176,13.0013648 17.173914,12.8219694 C17.6537863,12.3556071 18.1783565,11.9191378 18.7357442,11.5484235 C19.2782072,11.1896862 19.8594471,10.8668265 20.4644474,10.6396224 C21.11719,10.3944872 21.8325463,10.0895587 22.4196919,10.8548648 C22.4912252,10.9475357 22.7833178,10.9535204 22.9293679,10.893727 C23.2602067,10.7651786 23.5701845,10.573852 23.8831457,10.4034566 C24.577618,10.0237959 24.8190688,10.1523444 24.8816366,11.1029923 C25.2273772,10.9774362 25.5820681,10.938574 25.8145839,10.7472474 C26.4494413,10.2270765 26.4226211,10.2091454 26.9412625,10.7920867 C27.0575014,10.9206352 27.2333551,10.995375 27.3197903,10.9056888 C27.6029402,10.6665306 27.9009996,10.4393265 28.1633113,10.1792449 C28.306378,10.03575 28.3957966,9.83545408 28.4852152,9.65309694 C28.7683651,9.06716327 29.1081542,8.58289286 29.7966978,8.38253571 C30.1603237,8.27790306 30.4822275,7.98194388 30.7803098,7.7188699 C31.1856654,7.36610969 31.6268067,7.22560714 32.1215503,7.41095663 C32.8189984,7.67403061 33.5015523,7.98194388 34.0886979,8.22707908 C33.579022,8.76219643 33.1677301,9.26146684 32.6878654,9.67993622 C32.2169357,10.0924821 31.6863987,10.4273036 31.1677725,10.7830485 C31.0336484,10.8757194 30.8190484,10.8727347 30.7087688,10.980352 C30.0232391,11.6440179 29.2691747,12.1283112 28.2200192,11.8861684 C28.1842487,12.2837679 28.1604042,12.5318954 28.133584,12.8487704 C27.6775561,12.8487704 27.2393982,12.8218699 26.8101982,12.8667092 C26.5538685,12.890625 26.2647594,12.9743265 26.0769796,13.1327755 C25.9905445,13.2075153 26.0650536,13.6828393 26.148513,13.7097474 C27.1231213,14.008699 28.0978059,14.4720612 29.1439857,14.0475612 C29.316856,13.9758138 29.510595,13.7246939 29.531456,13.5363597 C29.6476948,12.4362321 30.5239954,11.8323291 31.5910057,12.0835026 C31.9188687,12.161227 32.3212408,12.0894796 32.6461128,11.9669158 C33.4091351,11.673949 34.1214926,11.2255255 34.9023696,11.0102832 C35.3256104,10.8966811 35.9634283,10.9863673 36.2942748,11.2524337 C36.7652045,11.6320944 37.072176,12.2150357 36.729434,12.9414643 C36.5416619,13.3390638 36.5088748,13.8233265 36.4611859,14.2747806 C36.4075378,14.7770128 35.5729517,15.5124337 35.000685,15.509449 C34.0350041,15.5064566 34.0588104,15.5064566 34.017073,16.4690663 C33.9813026,17.3509286 33.6504637,18.0445255 32.5685516,17.960801 C32.2555904,17.9368852 31.9366776,17.9877092 31.6207254,17.9966786 C31.1468199,18.0086327 30.8040627,18.1909974 30.4851194,18.5676658 L30.4850278,18.5677041 Z M50.6723074,34.6659184 C50.4279037,35.4581633 50.231189,36.2802551 49.8496931,37.0066837 C49.4711654,37.7271505 48.8988911,38.3280612 48.8273959,39.2069388 C48.8095106,39.4281582 48.4816476,39.6493776 48.2581126,39.8257577 C47.6113292,40.3369592 46.8393491,40.7345587 46.3147713,41.3474158 C45.665012,42.1037526 45.1076701,42.9049668 44.1657954,43.3384362 C43.9780233,43.4251301 43.8021695,43.7061429 43.7634233,43.9243699 C43.6591029,44.5222653 43.3372067,44.7075842 42.7798113,44.6059668 C42.4281038,44.5431888 42.0763963,44.4654643 41.7217283,44.4564949 C40.8334941,44.4295867 40.3715605,44.9647041 40.31792,45.9571837 C40.2940756,46.3697296 40.2523459,46.8181531 40.0675571,47.167898 C39.9423757,47.4040638 39.5578812,47.5804439 39.2687492,47.6133291 C39.1197233,47.6312679 38.8782954,47.3084005 38.7620566,47.0931582 C38.4908251,46.5789643 38.3328566,45.9960153 38.0109528,45.517699 C37.5370473,44.8121862 37.6652121,44.0678265 37.6890489,43.3174439 C37.7367378,41.739 37.6324174,40.1575714 37.191299,38.6568827 C37.0392897,38.1397041 36.2524001,37.7899439 35.7218708,37.4132602 C35.1734485,37.0276148 34.5594827,36.734648 34.0259012,36.3310408 C33.7963994,36.1576531 33.6563085,35.8288087 33.5460289,35.5478265 C33.1227881,34.4716531 32.7353178,33.3804796 32.3120693,32.3072143 C32.1242972,31.834875 32.0289194,31.4402755 32.3716766,30.9530051 C32.7829914,30.3640791 33.08701,29.6884898 33.364216,29.0218316 C33.4685364,28.7707194 33.4238309,28.4299133 33.364216,28.1489235 C33.1794196,27.2610153 33.6056438,26.5883878 34.207737,26.0861939 C34.7651019,25.6198316 35.4535998,25.293949 36.1152927,24.9741276 C36.3775816,24.8485714 36.7233298,24.8964031 37.2568502,24.8425944 C37.0094632,25.4584286 36.8276502,25.8769821 36.6816001,26.3044821 C36.6368947,26.4390077 36.6339113,26.6721888 36.7143872,26.7469209 C37.3104983,27.3089464 37.9155368,27.8679413 38.5623508,28.367227 C38.702434,28.4748444 39.0869286,28.4210357 39.2657657,28.3014566 C40.1479721,27.7125306 41.4266447,27.9098342 41.9959356,28.791727 C42.2969708,29.2550969 42.7202116,29.4553929 43.2269194,29.3896224 C44.5503052,29.2162347 45.0689314,29.4344694 45.5517719,30.6541378 C45.7633885,31.1862628 46.0733663,31.497199 46.562166,31.6944949 C47.1105882,31.9127296 47.6500831,32.1578648 48.2134224,32.3222832 C49.2387717,32.621227 50.0136971,33.2161607 50.5412507,34.1339158 C50.6276858,34.2863801 50.7171044,34.5135765 50.6723989,34.6660408 L50.6723074,34.6659184 Z M51.8496507,18.2478061 C51.5873618,18.2956378 51.3310321,18.3733622 50.940586,18.4720179 C51.1373008,18.8965255 51.3876713,19.2104158 51.4115157,19.5392372 C51.4413194,19.9697219 51.3608434,20.4420689 51.1849897,20.8306913 C51.1223989,20.9682092 50.6365674,20.935324 50.3444444,20.9383087 C50.2460832,20.9383087 50.1119591,20.8306913 50.0523518,20.7350281 C49.6738241,20.0982704 49.3101906,19.4555128 48.9495558,18.809824 C48.8899408,18.7022066 48.7856281,18.5587117 48.8124483,18.4630485 C49.009163,17.7814515 48.6813,17.3329974 48.1835501,16.9473597 C48.1209594,16.8995281 48.0613444,16.8158189 48.0464426,16.7380944 C47.9927945,16.4391505 47.957024,16.140199 47.9123186,15.8382474 C48.1448038,15.8681403 48.3802649,15.8830867 48.6127501,15.9189643 C48.559102,15.823301 48.5054463,15.7276378 48.4517982,15.6319745 C48.3921833,15.5243571 48.2908463,15.3808622 48.3176741,15.285199 C48.5143889,14.603602 48.1865259,14.155148 47.6858002,13.7695102 C47.6232094,13.7216786 47.5635945,13.6379694 47.5486927,13.5602449 C47.4920612,13.261301 47.4562983,12.9623495 47.4145686,12.660398 C47.7066612,12.6962679 48.0017371,12.7142066 48.2878476,12.774 C48.4219716,12.8038929 48.5382105,12.9085255 48.7110884,13.0041888 C48.8839587,12.6813214 49.0508698,12.3734082 49.2803717,11.9429388 C50.0851312,12.8517398 50.8392261,13.694801 51.5724142,14.5527857 C51.7989402,14.8158597 51.7095217,15.0101786 51.351855,15.0729566 C51.0895661,15.1207883 50.8302606,15.1985128 50.4427903,15.2971684 C50.6395051,15.721676 50.8898755,16.0355663 50.91372,16.3643878 L50.91372,16.4002653 C51.3071571,16.8456964 51.6916212,17.2851122 52.0701565,17.7276122 C52.2966749,17.9906862 52.207264,18.1820128 51.8495973,18.2477832 L51.8496507,18.2478061 Z" id="Fill-1"></path>
                <path d="M51.3338477,55.5864796 C50.7973515,54.638801 49.8167305,54.4534439 48.6215325,55.063324 C47.8883139,55.44 47.1461527,55.8047143 46.4099888,56.1753903 C43.3817061,57.7119719 40.1746473,58.674574 36.8035387,58.9974566 C28.7231331,59.7717168 21.3523382,57.789727 15.0276468,52.665773 C6.95944961,46.1307474 3.13213002,37.5540383 3.94856382,27.1412832 C4.52083051,19.8260281 7.64143889,13.5364362 12.7294238,8.2956199 C14.4462239,6.52883418 16.467012,5.05500765 18.3626645,3.46760969 C19.1346141,2.82188265 19.3939653,2.01773724 19.0124237,1.2016148 C18.6368718,0.409369898 17.8291288,0.00880867347 16.9498983,0.241997449 C16.6041576,0.334668367 16.2852372,0.540941327 15.9752899,0.732267857 C3.8798613,8.13721684 -2.3463987,22.3582883 0.866686449,36.3695128 C3.93067858,49.7172168 12.3387259,58.2167066 25.5573233,61.7952781 C27.542402,62.3333801 29.6198064,62.5366684 31.697287,62.9043597 L31.7151723,67.4334413 C31.6674834,67.4424107 31.6197945,67.4483878 31.5721056,67.4573571 C29.7330694,67.7832092 27.9984146,68.4020533 26.4932769,69.5559819 C25.3756019,70.4139666 24.4962951,71.4483543 24.2459475,72.8922574 C24.1833568,73.2509946 24.168455,73.6485941 24.2519067,73.9983543 C24.383055,74.5543952 24.8778215,74.8234309 25.5990988,74.8204462 C28.5170485,74.8114776 31.4349981,74.7995196 34.353253,74.7875617 L34.353253,74.7935411 C35.9776511,74.7875617 37.6050249,74.7815832 39.229423,74.7756038 C40.5617361,74.7696253 41.8940493,74.7696253 43.2263624,74.7486987 C44.105593,74.7367408 44.5735545,74.2345048 44.5378451,73.3496426 C44.5080414,72.6022753 44.2725727,71.9087242 43.8702006,71.2809436 C42.8091419,69.6307906 41.2204532,68.683112 39.4291822,68.0462985 C38.8390303,67.8370332 38.2429115,67.6696224 37.6468385,67.5380893 L37.6289533,62.5905383 C38.7794382,62.3633342 39.8852101,62.1630459 40.9790788,61.9179031 C44.3113495,61.1735204 47.4349337,59.9000204 50.385617,58.184051 C51.5301504,57.5233776 51.8758758,56.542852 51.3334433,55.5862194 L51.3338477,55.5864796 Z" id="Fill-2"></path>
            </g>
        </g>
    </g>
</svg>