<?xml version="1.0" encoding="UTF-8"?>
<svg width="39px" height="40px" viewBox="0 0 39 40" version="1.1" xmlns="http://www.w3.org/2000/svg" xmlns:xlink="http://www.w3.org/1999/xlink">
    <!-- Generator: Sketch 49.3 (51167) - http://www.bohemiancoding.com/sketch -->
    <title>icon/calendar/calendar-outline-white</title>
    <desc>Created with Sketch.</desc>
    <defs></defs>
    <g id="Page-1" stroke="none" stroke-width="1" fill="none" fill-rule="evenodd">
        <g id="Home-Splash-Page-edits" transform="translate(-186.000000, -1148.000000)" fill="#FFFFFF">
            <g id="to-do's" transform="translate(0.000000, 981.000000)">
                <g id="Group-2" transform="translate(118.000000, 167.000000)">
                    <g id="plan">
                        <path d="M102.287282,3.80908842 L96.5727352,3.80908842 L96.5727352,0 L94.6672767,0 L94.6672767,3.80908842 L79.4290944,3.80908842 L79.4290944,0 L77.5254188,0 L77.5254188,3.80908842 L71.8108718,3.80908842 C69.7054041,3.80908842 68,5.51453781 68,7.61817683 L68,36.1909116 C68,38.2945963 69.7054498,40 71.8090889,40 L102.287282,40 C104.390967,40 106.096371,38.2945506 106.096371,36.1909116 L106.098158,7.61817683 C106.098158,5.51449209 104.392709,3.80908842 102.287282,3.80908842 Z M104.192741,36.1909116 C104.192741,37.240971 103.337342,38.0963701 102.287282,38.0963701 L71.8109175,38.0963701 C70.7608581,38.0963701 69.905459,37.240971 69.905459,36.1909116 L69.905459,17.1436409 L104.192741,17.1436409 L104.192741,36.1909116 Z M104.192786,15.2381823 L69.905459,15.2381823 L69.905459,7.61817683 C69.905459,6.5681174 70.7608581,5.7127183 71.8109175,5.7127183 L77.5254645,5.7127183 L77.5254645,9.52180671 L79.430923,9.52180671 L79.4291355,5.71450123 L94.6673224,5.71450123 L94.6673224,9.52358965 L96.5727809,9.52358965 L96.5727809,5.71450123 L102.287328,5.71450123 C103.337387,5.71450123 104.192786,6.56990034 104.192786,7.61995977 L104.192786,15.2381823 Z M95.6602364,20.1435494 L97.0067208,21.4900338 L84.2116216,34.2869617 L77.5256016,27.5991131 L78.872086,26.2526287 L84.2117587,31.5923014 L95.6602364,20.1435494 Z" id="icon/calendar/calendar-outline-white"></path>
                    </g>
                </g>
            </g>
        </g>
    </g>
</svg>