<?xml version="1.0" encoding="UTF-8"?>
<svg width="50px" height="50px" viewBox="0 0 50 50" version="1.1" xmlns="http://www.w3.org/2000/svg" xmlns:xlink="http://www.w3.org/1999/xlink">
    <!-- Generator: Sketch 50.2 (55047) - http://www.bohemiancoding.com/sketch -->
    <title>register/register</title>
    <desc>Created with Sketch.</desc>
    <defs></defs>
    <g id="Page-1" stroke="none" stroke-width="1" fill="none" fill-rule="evenodd">
        <g id="Artboard-2" transform="translate(-1207.000000, -399.000000)">
            <g id="register/register" transform="translate(1207.000000, 399.000000)">
                <rect id="Rectangle-3" fill-opacity="0.01" fill="#FFFFFF" x="0" y="0" width="50" height="50"></rect>
                <g id="Group-2" transform="translate(3.000000, 8.000000)" fill="#334146">
                    <path d="M33.795,21.7343571 C33.4384136,21.7343571 33.1521429,22.0231414 33.1521429,22.3772143 L33.1521429,32.2508571 L1.28571429,32.2508571 L1.28571429,3.21428571 L29.1799286,3.21428571 C29.536515,3.21428571 29.8227857,2.92550143 29.8227857,2.57142857 C29.8227857,2.21735571 29.536515,1.92857143 29.1799286,1.92857143 L0.642857143,1.92857143 C0.286270714,1.92857143 0,2.21735571 0,2.57142857 L0,32.8937143 C0,33.2503007 0.286270714,33.5365714 0.642857143,33.5365714 L33.795,33.5365714 C34.1515864,33.5365714 34.4378571,33.2503007 34.4378571,32.8937143 L34.4378571,22.3772143 C34.4378571,22.0231414 34.1515864,21.7343571 33.795,21.7343571 Z" id="Fill-4"></path>
                    <path d="M19.7505,7.07142857 C19.7505,6.71484214 19.4642293,6.42857143 19.1076429,6.42857143 L5.78571429,6.42857143 C5.42912786,6.42857143 5.14285714,6.71484214 5.14285714,7.07142857 C5.14285714,7.428015 5.42912786,7.71428571 5.78571429,7.71428571 L19.1076429,7.71428571 C19.4642293,7.71428571 19.7505,7.428015 19.7505,7.07142857 Z" id="Fill-5"></path>
                    <path d="M5.78571429,12.8571429 L12.1791214,12.8571429 C12.5357079,12.8571429 12.8219786,12.5708721 12.8219786,12.2142857 C12.8219786,11.8576993 12.5357079,11.5714286 12.1791214,11.5714286 L5.78571429,11.5714286 C5.42912786,11.5714286 5.14285714,11.8576993 5.14285714,12.2142857 C5.14285714,12.5683586 5.43164143,12.8571429 5.78571429,12.8571429 Z" id="Fill-6"></path>
                    <path d="M17.9723571,18 C17.9723571,17.6434136 17.6860864,17.3571429 17.3295,17.3571429 L5.78571429,17.3571429 C5.42912786,17.3571429 5.14285714,17.6434136 5.14285714,18 C5.14285714,18.3565864 5.42912786,18.6428571 5.78571429,18.6428571 L17.3295,18.6428571 C17.6835729,18.6428571 17.9723571,18.3565864 17.9723571,18 Z" id="Fill-7"></path>
                    <path d="M5.78571429,23.7857143 L10.5167571,23.7857143 C10.8733436,23.7857143 11.1596143,23.4994436 11.1596143,23.1428571 C11.1596143,22.7862707 10.8733436,22.5 10.5167571,22.5 L5.78571429,22.5 C5.42912786,22.5 5.14285714,22.7862707 5.14285714,23.1428571 C5.14285714,23.49693 5.43164143,23.7857143 5.78571429,23.7857143 Z" id="Fill-8"></path>
                    <path d="M5.78571429,28.9285714 L13.0101429,28.9285714 C13.3667293,28.9285714 13.653,28.6423007 13.653,28.2857143 C13.653,27.9291279 13.3667293,27.6428571 13.0101429,27.6428571 L5.78571429,27.6428571 C5.42912786,27.6428571 5.14285714,27.9291279 5.14285714,28.2857143 C5.14285714,28.6423007 5.43164143,28.9285714 5.78571429,28.9285714 Z" id="Fill-9"></path>
                    <path d="M43.6840203,1.04715 C43.0009846,0.364114286 42.1371774,0 41.1879346,0 C39.9800703,0 38.7545917,0.58761 37.6421917,1.70003571 L18.3738346,20.9709643 C18.3688139,20.975985 18.3688139,20.9810057 18.3637931,20.9860329 C18.3286353,21.0236979 18.3060324,21.0689036 18.2784153,21.1141029 C18.2608331,21.1467471 18.2382367,21.1743707 18.2281889,21.207015 C18.2256817,21.2170564 18.2181474,21.2220771 18.2156339,21.2296114 L16.1012124,27.9596829 C16.0283896,28.1907129 16.091171,28.4443393 16.2669474,28.6125686 C16.3874831,28.7331043 16.550711,28.7958857 16.716446,28.7958857 C16.7867617,28.7958857 16.857071,28.7833307 16.9248731,28.7607279 L23.5218731,26.5107279 C23.5294074,26.5082207 23.531921,26.5032 23.5394553,26.5006864 C23.569586,26.4881314 23.594696,26.4680421 23.622326,26.4529736 C23.6700324,26.42535 23.7177517,26.40024 23.7579303,26.362575 C23.7604374,26.3600614 23.7654581,26.3600614 23.7679717,26.3575543 L43.0389003,7.08662571 C45.3416146,4.77632571 45.0252003,2.38824 43.6842646,1.04730429 L43.6840203,1.04715 Z M38.0991989,3.0636 L39.884606,4.8465 L41.667506,6.6294 L23.3062203,24.9932571 L19.7378489,21.4248857 L38.0991989,3.0636 Z M19.122056,22.6308857 L22.120406,25.6292357 L17.7057774,27.1359643 L19.122056,22.6308857 Z M42.553556,5.7006 L39.0303774,2.17742143 C40.3612846,1.0926 41.8253274,1.00472143 42.7770131,1.95392571 C43.743806,2.92322571 43.6433917,4.34959714 42.5535174,5.70056143 L42.553556,5.7006 Z" id="Fill-10"></path>
                </g>
            </g>
        </g>
    </g>
</svg>