<?xml version="1.0" encoding="UTF-8"?>
<svg width="40px" height="30px" viewBox="0 0 40 30" version="1.1" xmlns="http://www.w3.org/2000/svg" xmlns:xlink="http://www.w3.org/1999/xlink">
    <!-- Generator: Sketch 50.2 (55047) - http://www.bohemiancoding.com/sketch -->
    <title>transition/transition</title>
    <desc>Created with Sketch.</desc>
    <defs></defs>
    <g id="Page-1" stroke="none" stroke-width="1" fill="none" fill-rule="evenodd">
        <g id="Artboard" transform="translate(-18.000000, -239.000000)" fill="#99A0A2">
            <g id="transition/transition" transform="translate(18.000000, 239.000000)">
                <path d="M7.02213789,17.1037318 C9.61644529,17.1037318 11.7659709,19.2532574 11.7659709,21.8475648 C11.7659709,24.4418722 9.61644529,26.5913978 7.02213789,26.5913978 C4.42783049,26.5913978 2.27830487,24.4418722 2.27830487,21.8475648 C2.27830487,19.2532574 4.42783049,17.1037318 7.02213789,17.1037318 Z M7.02213789,15.2061986 C3.35306768,15.2061986 0.380771664,18.1784946 0.380771664,21.8475648 C0.380771664,25.516635 3.35306768,28.4889311 7.02213789,28.4889311 C10.6887413,28.4889311 13.6635041,25.4523719 13.6635041,21.7830487 C13.6635041,18.1137255 10.6887413,15.2061986 7.02213789,15.2061986 Z" id="Fill-1"></path>
                <path d="M39.4928071,21.9157005 C39.8430209,22.4411282 39.4663605,23.144845 38.8349146,23.144845 L29.5375079,23.144845 C28.8992257,23.144845 28.5240306,22.4275389 28.8880814,21.9032573 L33.6319144,15.0715052 C33.9500663,14.613324 34.6298604,14.6197944 34.9392334,15.0839485 L39.4928071,21.9157005 Z M34.2679634,16.9279293 L31.0490683,21.5635674 L37.3577593,21.5635674 L34.2679634,16.9279293 Z" id="Stroke-2" fill-rule="nonzero"></path>
                <polygon id="Stroke-3" fill-rule="nonzero" points="18.9753321 5.84440228 20.2403542 5.84440228 20.2403542 8.37444655 18.9753321 8.37444655"></polygon>
                <polygon id="Stroke-4" fill-rule="nonzero" points="18.9753321 14.6995572 20.2403542 14.6995572 20.2403542 23.5547122 18.9753321 23.5547122"></polygon>
                <polygon id="Stroke-5" fill-rule="nonzero" points="18.9753321 26.7172676 20.2403542 26.7172676 20.2403542 29.2473118 18.9753321 29.2473118"></polygon>
                <path d="M6.51549652,15.5838077 L4.61796331,15.5838077 C4.61796331,7.13282716 11.4529056,0.277672359 19.9240987,0.277672359 C28.4179306,0.277672359 35.230234,7.09101438 35.230234,15.5838077 L33.3327008,15.5838077 C33.3327008,8.13892829 27.3698872,2.17520557 19.9240987,2.17520557 C12.5021406,2.17520557 6.51549652,8.17955355 6.51549652,15.5838077 Z" id="Stroke-6" fill-rule="nonzero"></path>
            </g>
        </g>
    </g>
</svg>