<?xml version="1.0" encoding="UTF-8"?>
<svg width="149px" height="36px" viewBox="0 0 149 36" version="1.1" xmlns="http://www.w3.org/2000/svg" xmlns:xlink="http://www.w3.org/1999/xlink">
    <!-- Generator: Sketch 50.2 (55047) - http://www.bohemiancoding.com/sketch -->
    <title>youthcollaborative-fullcolor</title>
    <desc>Created with Sketch.</desc>
    <defs></defs>
    <g id="Page-1" stroke="none" stroke-width="1" fill="none" fill-rule="evenodd">
        <g id="youthcollaborative-fullcolor" fill="#00BAEF" fill-rule="nonzero">
            <path d="M32.3299759,0.830108658 C37.4567456,2.4662517 41.8221115,6.44804978 44.0248849,12.5048436 L54.40674,12.5048436 C54.7243902,12.4840427 55,12.777538 55,13.0918282 C55,13.3853176 54.7243902,13.6788129 54.40674,13.658012 L43.6440036,13.658012 C43.389417,13.658012 43.1558477,13.4893099 43.0927841,13.2605244 C41.0374004,7.28649618 36.8426239,3.51264729 31.9491664,1.96205035 C27.0557089,0.411453398 21.398695,1.10238899 16.4615886,4.22446654 C16.2070021,4.45556524 15.7422193,4.39316865 15.5507024,4.09967336 C15.3591795,3.82697891 15.5086619,3.38791328 15.8263121,3.240012 C20.3388286,0.221879462 26.6309037,-0.931277185 32.3303705,0.829694534 L32.3299759,0.830108658 Z M27.5754791,10.2413793 C31.8754315,10.2413793 35.3509583,13.6361868 35.3509583,17.8304894 C35.3509583,22.022544 31.8754913,25.4403057 27.5754791,25.4403057 C23.2965739,25.4403057 19.8,22.0224256 19.8,17.8304894 C19.8,13.6384349 23.2965141,10.2413793 27.5754791,10.2413793 Z M11.4818977,21.8344559 C11.6734206,21.8760516 11.8626116,22.0447537 11.9256752,22.2319376 C13.9600118,28.2059658 18.1549079,32.0005209 23.0483654,33.5304116 C27.9626308,35.0810678 33.5988367,34.390073 38.5359431,31.2864535 C38.7905297,31.0345599 39.2553125,31.0969565 39.4468294,31.3904459 C39.6383523,31.6839352 39.4888698,32.102206 39.1712196,32.2501072 C33.960381,35.5409106 27.9415,36.3173922 22.6886867,34.6604247 C17.5408699,33.0242817 13.1965511,29.0424836 10.9937777,23.006396 L0.611921359,23.006396 C0.296609057,23.0087092 0,22.7360147 0,22.4217245 C0,22.1282351 0.296626995,21.8347398 0.614253285,21.8347398 L11.4818977,21.8344559 Z" id="Combined-Shape"></path>
            <g id="Group-5" transform="translate(65.000000, 3.000000)">
                <path d="M3.97316754,16.0505751 C2.69366651,15.3595052 1.71160808,14.3786466 1.0269628,13.1079697 C0.342317509,11.8372928 0,10.3437126 0,8.62718413 C0,6.91065571 0.364764559,5.40035628 1.09430462,4.09624053 C1.82384468,2.79212478 2.85079721,1.7834008 4.17519301,1.07003834 C5.49958881,0.356675881 7.0259882,0 8.75443696,0 C9.65233242,0 10.5558262,0.122607334 11.4649453,0.36782568 C12.3740645,0.613044026 13.18777,0.958573786 13.9060864,1.40442532 C14.6019554,1.82798429 14.9498846,2.45216708 14.9498846,3.27699242 C14.9498846,3.85659942 14.8152024,4.33030958 14.5458337,4.6981371 C14.2764651,5.06596462 13.9173123,5.24987562 13.4683645,5.24987562 C13.1765485,5.24987562 12.9015722,5.19971807 12.6434272,5.09940147 C12.3852823,4.99908488 12.0429648,4.84861224 11.6164644,4.64797905 C11.1450693,4.4027607 10.7241871,4.21327664 10.3538052,4.07952118 C9.98342337,3.94576572 9.56254119,3.87888899 9.09114607,3.87888899 C7.83409243,3.87888899 6.87448105,4.2745763 6.21228315,5.06596278 C5.55008525,5.85734926 5.21899126,7.01097281 5.21899126,8.52686804 C5.21899126,10.0427633 5.55008525,11.2019599 6.21228315,12.0044927 C6.87448105,12.8070254 7.83409243,13.2082858 9.09114607,13.2082858 C9.56254119,13.2082858 9.97781161,13.1469821 10.3369698,13.0243729 C10.696128,12.9017638 11.1338454,12.7067067 11.6501353,12.4391957 C12.0766357,12.2385625 12.4133414,12.0880899 12.6602627,11.9877733 C12.9071839,11.8874567 13.1765485,11.8372992 13.4683645,11.8372992 C13.8948649,11.8372992 14.2484059,12.0267832 14.5289983,12.405757 C14.8095906,12.7847308 14.9498846,13.2640141 14.9498846,13.8436211 C14.9498846,14.6684464 14.6019554,15.2814831 13.9060864,15.6827495 C13.18777,16.128601 12.3572292,16.4741307 11.414439,16.7193491 C10.4716487,16.9645674 9.48397853,17.0871748 8.45139875,17.0871748 C6.74539738,17.0871748 5.25266857,16.741645 3.97316754,16.0505751 Z M31.6218735,0.518299822 C32.0147028,0.863834764 32.2111144,1.3821294 32.2111144,2.07319929 C32.2111144,2.80885433 32.031538,3.35501427 31.6723799,3.7116955 C31.3132217,4.06837673 30.6734808,4.29129916 29.7531379,4.38046946 L28.7430106,4.48078556 C27.5084043,4.61454102 26.6161341,5.01580138 26.0661731,5.68457869 C25.5162121,6.353356 25.2412358,7.21160734 25.2412358,8.25935845 L25.2412358,14.6461498 C25.2412358,15.42639 24.99993,16.0171344 24.5173112,16.4184008 C24.0346924,16.8196672 23.4342338,17.0202974 22.7159174,17.0202974 C21.9751537,17.0202974 21.3634716,16.8196672 20.8808528,16.4184008 C20.398234,16.0171344 20.1569282,15.42639 20.1569282,14.6461498 L20.1569282,2.37414757 C20.1569282,1.63849253 20.4038457,1.07004035 20.8976882,0.668773964 C21.3915307,0.267507579 21.9863775,0.0668773964 22.6822465,0.0668773964 C23.3556681,0.0668773964 23.9168444,0.261934519 24.3657921,0.652054615 C24.8147398,1.04217471 25.0392103,1.58276159 25.0392103,2.27383148 L25.0392103,3.17667633 C25.4432633,2.21809552 26.0549454,1.48245152 26.874275,0.969722248 C27.6936046,0.456992978 28.5858748,0.167193825 29.5511124,0.100316095 L30.0225052,0.0668773964 C30.6959268,0.0222922425 31.2290442,0.17276488 31.6218735,0.518299822 Z M50.3982943,12.4726344 C50.6788866,12.8293157 50.8191807,13.2863066 50.8191807,13.8436211 C50.8191807,14.2225949 50.7069454,14.5736977 50.4824716,14.89694 C50.2579977,15.2201824 49.943739,15.4932624 49.5396861,15.7161882 C48.7764749,16.1174545 47.8898165,16.4462651 46.8796841,16.7026297 C45.8695517,16.9589944 44.9379991,17.0871748 44.0849984,17.0871748 C42.2892075,17.0871748 40.7235258,16.741645 39.3879063,16.0505751 C38.0522868,15.3595052 37.0253343,14.3730735 36.3070179,13.0912503 C35.5887015,11.8094272 35.2295487,10.2991277 35.2295487,8.56030674 C35.2295487,6.88836347 35.577478,5.40592934 36.273347,4.11295988 C36.969216,2.81999042 37.9344391,1.81126644 39.1690454,1.08675769 C40.4036516,0.362248941 41.8065922,0 43.3779093,0 C44.8818842,0 46.2006483,0.328810577 47.3342414,0.986441597 C48.4678344,1.64407262 49.3488811,2.5803468 49.9774079,3.79529224 C50.6059347,5.01023769 50.9201934,6.43136815 50.9201934,8.05872626 C50.9201934,8.54916296 50.8023464,8.92255802 50.5666489,9.17892265 C50.3309513,9.43528729 49.9998573,9.56346768 49.573357,9.56346768 L40.1455018,9.56346768 C40.3026335,10.8787297 40.7066804,11.8317231 41.3576546,12.4224764 C42.0086288,13.0132297 42.9401814,13.3086019 44.1523402,13.3086019 C44.8033144,13.3086019 45.3869377,13.230579 45.9032276,13.074531 C46.4195175,12.918483 46.9919173,12.7067067 47.6204441,12.4391957 C47.9347075,12.3054403 48.2377427,12.188406 48.5295587,12.0880894 C48.8213747,11.9877728 49.0795158,11.9376153 49.3039897,11.9376153 C49.7529374,11.9376153 50.117702,12.1159532 50.3982943,12.4726344 Z M41.1893,4.39718881 C40.605668,5.01023468 40.2577387,5.89635132 40.1455018,7.05556532 L46.6439877,7.05556532 C46.5766455,5.87405874 46.2792221,4.98236904 45.7517085,4.38046946 C45.2241949,3.77856989 44.4778305,3.47762461 43.5125929,3.47762461 C42.5473553,3.47762461 41.7729321,3.78414295 41.1893,4.39718881 Z M79.7642167,0.468141775 C80.1233749,0.222923429 80.5049748,0.100316095 80.9090277,0.100316095 C81.5375545,0.100316095 82.0987308,0.312092399 82.5925733,0.73565136 C83.0864158,1.15921032 83.3333333,1.68307802 83.3333333,2.30727018 C83.3333333,2.5747811 83.2659922,2.87572637 83.1313079,3.21011503 L77.6092784,15.515556 C77.4072519,16.0059927 77.0817697,16.3793877 76.632822,16.6357524 C76.1838742,16.892117 75.7124862,17.0202974 75.2186437,17.0202974 C74.7023538,17.0202974 74.225354,16.892117 73.78763,16.6357524 C73.3499059,16.3793877 73.0300355,16.0059927 72.828009,15.515556 L69.2252215,7.18932011 L65.7571176,15.515556 C65.5550911,16.0059927 65.2408324,16.3793877 64.8143321,16.6357524 C64.3878317,16.892117 63.9052202,17.0202974 63.3664829,17.0202974 C62.850193,17.0202974 62.3675814,16.892117 61.9186337,16.6357524 C61.469686,16.3793877 61.1442037,16.0059927 60.9421773,15.515556 L55.4538187,3.21011503 C55.3191344,2.89801895 55.2517932,2.59707368 55.2517932,2.30727018 C55.2517932,1.68307802 55.5155461,1.15921032 56.0430597,0.73565136 C56.5705732,0.312092399 57.1710318,0.100316095 57.8444534,0.100316095 C58.2934012,0.100316095 58.7030598,0.222923429 59.0734417,0.468141775 C59.4438236,0.713360121 59.7300235,1.070036 59.9320499,1.53818012 L63.5348374,10.5331899 L67.2049668,1.60505751 C67.4069933,1.1369134 67.7044167,0.774664457 68.0972459,0.518299822 C68.4900752,0.261935187 68.9221809,0.133754793 69.393576,0.133754793 C69.8649711,0.133754793 70.3026886,0.256362127 70.7067416,0.501580473 C71.1107945,0.746798819 71.4138297,1.11462082 71.6158562,1.60505751 L75.3533273,10.5331899 L78.9224439,1.53818012 C79.1244704,1.070036 79.4050585,0.713360121 79.7642167,0.468141775 Z" id="crew"></path>
                <path d="M5.9575,24.0987586 C6.03250037,24.0987586 6.0999997,24.123586 6.16,24.1732414 C6.2200003,24.2228968 6.25,24.2849651 6.25,24.3594483 C6.25,24.4041382 6.2400001,24.4438619 6.22,24.4786207 L4.1125,28.9922759 C4.08749987,29.0468968 4.05125024,29.0891033 4.00375,29.1188966 C3.95624976,29.1486898 3.90750025,29.1635862 3.8575,29.1635862 C3.78249962,29.1635862 3.71625029,29.1400002 3.65875,29.0928276 C3.60124971,29.0456549 3.5725,28.984828 3.5725,28.9103448 C3.5725,28.8706205 3.5824999,28.8308968 3.6025,28.7911724 L4.1275,27.6664828 L2.6425,24.4786207 C2.6224999,24.4438619 2.6125,24.4066209 2.6125,24.3668966 C2.6125,24.2924134 2.64624966,24.2278623 2.71375,24.1732414 C2.78125034,24.1186204 2.8549996,24.0913103 2.935,24.0913103 C2.98500025,24.0913103 3.03374976,24.1062067 3.08125,24.136 C3.12875024,24.1657933 3.16499987,24.2079997 3.19,24.2626207 L4.4425,27.0557241 L5.695,24.2775172 C5.75000027,24.1583442 5.8374994,24.0987586 5.9575,24.0987586 Z M8.30958333,27.6143448 C8.04708202,27.460413 7.84458405,27.2406911 7.70208333,26.9551724 C7.55958262,26.6696537 7.48833333,26.3382088 7.48833333,25.9608276 C7.48833333,25.5834464 7.55958262,25.2520014 7.70208333,24.9664828 C7.84458405,24.6809641 8.04708202,24.4612421 8.30958333,24.3073103 C8.57208465,24.1533785 8.87583161,24.0764138 9.22083333,24.0764138 C9.56583506,24.0764138 9.87083201,24.1533785 10.1358333,24.3073103 C10.4008347,24.4612421 10.6045826,24.6809641 10.7470833,24.9664828 C10.889584,25.2520014 10.9608333,25.5834464 10.9608333,25.9608276 C10.9608333,26.3382088 10.889584,26.6696537 10.7470833,26.9551724 C10.6045826,27.2406911 10.4008347,27.460413 10.1358333,27.6143448 C9.87083201,27.7682766 9.56583506,27.8452414 9.22083333,27.8452414 C8.87583161,27.8452414 8.57208465,27.7682766 8.30958333,27.6143448 Z M10.0495833,26.9924138 C10.2420843,26.7565505 10.3383333,26.4126919 10.3383333,25.9608276 C10.3383333,25.5188943 10.2408343,25.1775184 10.0458333,24.9366897 C9.85083236,24.6958609 9.57583511,24.5754483 9.22083333,24.5754483 C8.86583156,24.5754483 8.59083431,24.6958609 8.39583333,24.9366897 C8.20083236,25.1775184 8.10333333,25.5188943 8.10333333,25.9608276 C8.10333333,26.4077264 8.19958237,26.7503436 8.39208333,26.9886897 C8.5845843,27.2270357 8.86083153,27.3462069 9.22083333,27.3462069 C9.58083513,27.3462069 9.85708237,27.228277 10.0495833,26.9924138 Z M15.6979167,24.1732414 C15.7504169,24.2278623 15.7766667,24.2998616 15.7766667,24.3892414 L15.7766667,27.5398621 C15.7766667,27.6242763 15.7504169,27.6937928 15.6979167,27.7484138 C15.6454164,27.8030348 15.5716671,27.8303448 15.4766667,27.8303448 C15.3866662,27.8303448 15.3154169,27.8042761 15.2629167,27.7521379 C15.2104164,27.6999997 15.1841667,27.6317246 15.1841667,27.5473103 L15.1841667,27.1748966 C15.0691661,27.3933804 14.9079177,27.5597236 14.7004167,27.673931 C14.4929156,27.7881385 14.259168,27.8452414 13.9991667,27.8452414 C13.5641645,27.8452414 13.2366678,27.7248288 13.0166667,27.484 C12.7966656,27.2431712 12.6866667,26.8868989 12.6866667,26.4151724 L12.6866667,24.3892414 C12.6866667,24.2998616 12.7141664,24.2278623 12.7691667,24.1732414 C12.8241669,24.1186204 12.8991662,24.0913103 12.9941667,24.0913103 C13.0891671,24.0913103 13.1629164,24.1186204 13.2154167,24.1732414 C13.2679169,24.2278623 13.2941667,24.2998616 13.2941667,24.3892414 L13.2941667,26.4002759 C13.2941667,26.7230361 13.359166,26.9601372 13.4891667,27.1115862 C13.6191673,27.2630352 13.8241653,27.3387586 14.1041667,27.3387586 C14.4241683,27.3387586 14.6816657,27.2357252 14.8766667,27.0296552 C15.0716676,26.8235852 15.1691667,26.5517258 15.1691667,26.214069 L15.1691667,24.3892414 C15.1691667,24.2998616 15.1966664,24.2278623 15.2516667,24.1732414 C15.3066669,24.1186204 15.3816662,24.0913103 15.4766667,24.0913103 C15.5716671,24.0913103 15.6454164,24.1186204 15.6979167,24.1732414 Z M19.6925,27.592 C19.6925,27.6764142 19.6612503,27.7397239 19.59875,27.781931 C19.5362497,27.8241381 19.4425006,27.8402759 19.3175,27.8303448 L19.115,27.8154483 C18.714998,27.785655 18.420001,27.6664838 18.23,27.457931 C18.039999,27.2493783 17.945,26.9340711 17.945,26.512 L17.945,24.6424828 L17.4425,24.6424828 C17.3574996,24.6424828 17.2912502,24.6213795 17.24375,24.5791724 C17.1962498,24.5369653 17.1725,24.4811038 17.1725,24.4115862 C17.1725,24.3371031 17.1962498,24.2775175 17.24375,24.2328276 C17.2912502,24.1881377 17.3574996,24.1657931 17.4425,24.1657931 L17.945,24.1657931 L17.945,23.3241379 C17.945,23.2297926 17.9724997,23.156552 18.0275,23.1044138 C18.0825003,23.0522756 18.1574995,23.0262069 18.2525,23.0262069 C18.3425004,23.0262069 18.4149997,23.0522756 18.47,23.1044138 C18.5250003,23.156552 18.5525,23.2297926 18.5525,23.3241379 L18.5525,24.1657931 L19.385,24.1657931 C19.4650004,24.1657931 19.5287498,24.1881377 19.57625,24.2328276 C19.6237502,24.2775175 19.6475,24.3371031 19.6475,24.4115862 C19.6475,24.4811038 19.6237502,24.5369653 19.57625,24.5791724 C19.5287498,24.6213795 19.4650004,24.6424828 19.385,24.6424828 L18.5525,24.6424828 L18.5525,26.5417931 C18.5525,26.8148979 18.6087494,27.0122753 18.72125,27.133931 C18.8337506,27.2555868 19.0024989,27.323862 19.2275,27.3387586 L19.43,27.3536552 C19.6050009,27.3685518 19.6925,27.4479993 19.6925,27.592 Z M23.9458333,24.4376552 C24.1658344,24.678484 24.2758333,25.037239 24.2758333,25.513931 L24.2758333,27.5324138 C24.2758333,27.6267591 24.2483336,27.6999997 24.1933333,27.7521379 C24.1383331,27.8042761 24.0658338,27.8303448 23.9758333,27.8303448 C23.8808329,27.8303448 23.8058336,27.8042761 23.7508333,27.7521379 C23.6958331,27.6999997 23.6683333,27.6267591 23.6683333,27.5324138 L23.6683333,25.5288276 C23.6683333,25.2060674 23.602084,24.9677249 23.4695833,24.8137931 C23.3370827,24.6598613 23.1258348,24.5828966 22.8358333,24.5828966 C22.5008317,24.5828966 22.2333343,24.6846886 22.0333333,24.8882759 C21.8333323,25.0918631 21.7333333,25.3674465 21.7333333,25.7150345 L21.7333333,27.5324138 C21.7333333,27.6267591 21.7070836,27.6999997 21.6545833,27.7521379 C21.6020831,27.8042761 21.5283338,27.8303448 21.4333333,27.8303448 C21.3383329,27.8303448 21.2633336,27.8042761 21.2083333,27.7521379 C21.1533331,27.6999997 21.1258333,27.6267591 21.1258333,27.5324138 L21.1258333,22.7953103 C21.1258333,22.7108961 21.154583,22.6413796 21.2120833,22.5867586 C21.2695836,22.5321377 21.3433329,22.5048276 21.4333333,22.5048276 C21.5283338,22.5048276 21.6020831,22.5308963 21.6545833,22.5830345 C21.7070836,22.6351727 21.7333333,22.7059306 21.7333333,22.7953103 L21.7333333,24.7467586 C21.8533339,24.5282748 22.0208323,24.3619316 22.2358333,24.2477241 C22.4508344,24.1335167 22.695832,24.0764138 22.9708333,24.0764138 C23.4008355,24.0764138 23.7258322,24.1968264 23.9458333,24.4376552 Z M29.59125,27.6143448 C29.3287487,27.460413 29.1262507,27.2419324 28.98375,26.9588966 C28.8412493,26.6758607 28.77,26.3481398 28.77,25.9757241 C28.77,25.6033085 28.8437493,25.2731049 28.99125,24.9851034 C29.1387507,24.697102 29.3449987,24.473656 29.61,24.3147586 C29.8750013,24.1558613 30.1799983,24.0764138 30.525,24.0764138 C30.715001,24.0764138 30.9037491,24.1024825 31.09125,24.1546207 C31.2787509,24.2067589 31.4424993,24.2824823 31.5825,24.3817931 C31.6725005,24.4413796 31.7362498,24.4997239 31.77375,24.5568276 C31.8112502,24.6139313 31.83,24.677241 31.83,24.7467586 C31.83,24.8162762 31.8112502,24.8733791 31.77375,24.918069 C31.7362498,24.9627588 31.6875003,24.9851034 31.6275,24.9851034 C31.5924998,24.9851034 31.5550002,24.9751725 31.515,24.9553103 C31.4749998,24.9354482 31.4412501,24.9155863 31.41375,24.8957241 C31.3862499,24.875862 31.3675001,24.8634483 31.3575,24.8584828 C31.2274994,24.7740685 31.1037506,24.7070347 30.98625,24.6573793 C30.8687494,24.6077239 30.7250009,24.5828966 30.555,24.5828966 C30.1899982,24.5828966 29.906251,24.7057919 29.70375,24.9515862 C29.501249,25.1973805 29.4,25.5387564 29.4,25.9757241 C29.4,26.4126918 29.501249,26.7503436 29.70375,26.9886897 C29.906251,27.2270357 30.1899982,27.3462069 30.555,27.3462069 C30.7250009,27.3462069 30.8712494,27.3213796 30.99375,27.2717241 C31.1162506,27.2220687 31.2399994,27.1550349 31.365,27.0706207 C31.4200003,27.0358619 31.4724998,27.0060691 31.5225,26.9812414 C31.5725003,26.9564137 31.6149998,26.944 31.65,26.944 C31.7050003,26.944 31.7512498,26.9663446 31.78875,27.0110345 C31.8262502,27.0557244 31.845,27.1128272 31.845,27.1823448 C31.845,27.2468969 31.8275002,27.3052411 31.7925,27.3573793 C31.7574998,27.4095175 31.6925005,27.4678617 31.5975,27.5324138 C31.4574993,27.6267591 31.288751,27.7024825 31.09125,27.7595862 C30.893749,27.8166899 30.695001,27.8452414 30.495,27.8452414 C30.1549983,27.8452414 29.8537513,27.7682766 29.59125,27.6143448 Z M34.0170833,27.6143448 C33.754582,27.460413 33.552084,27.2406911 33.4095833,26.9551724 C33.2670826,26.6696537 33.1958333,26.3382088 33.1958333,25.9608276 C33.1958333,25.5834464 33.2670826,25.2520014 33.4095833,24.9664828 C33.552084,24.6809641 33.754582,24.4612421 34.0170833,24.3073103 C34.2795846,24.1533785 34.5833316,24.0764138 34.9283333,24.0764138 C35.2733351,24.0764138 35.578332,24.1533785 35.8433333,24.3073103 C36.1083347,24.4612421 36.3120826,24.6809641 36.4545833,24.9664828 C36.597084,25.2520014 36.6683333,25.5834464 36.6683333,25.9608276 C36.6683333,26.3382088 36.597084,26.6696537 36.4545833,26.9551724 C36.3120826,27.2406911 36.1083347,27.460413 35.8433333,27.6143448 C35.578332,27.7682766 35.2733351,27.8452414 34.9283333,27.8452414 C34.5833316,27.8452414 34.2795846,27.7682766 34.0170833,27.6143448 Z M35.7570833,26.9924138 C35.9495843,26.7565505 36.0458333,26.4126919 36.0458333,25.9608276 C36.0458333,25.5188943 35.9483343,25.1775184 35.7533333,24.9366897 C35.5583324,24.6958609 35.2833351,24.5754483 34.9283333,24.5754483 C34.5733316,24.5754483 34.2983343,24.6958609 34.1033333,24.9366897 C33.9083324,25.1775184 33.8108333,25.5188943 33.8108333,25.9608276 C33.8108333,26.4077264 33.9070824,26.7503436 34.0995833,26.9886897 C34.2920843,27.2270357 34.5683315,27.3462069 34.9283333,27.3462069 C35.2883351,27.3462069 35.5645824,27.228277 35.7570833,26.9924138 Z M38.4954167,27.7521379 C38.4379164,27.6999997 38.4091667,27.6267591 38.4091667,27.5324138 L38.4091667,22.8027586 C38.4091667,22.7084133 38.4379164,22.6351727 38.4954167,22.5830345 C38.552917,22.5308963 38.6266662,22.5048276 38.7166667,22.5048276 C38.8016671,22.5048276 38.8729164,22.5308963 38.9304167,22.5830345 C38.987917,22.6351727 39.0166667,22.7084133 39.0166667,22.8027586 L39.0166667,27.5324138 C39.0166667,27.6267591 38.987917,27.6999997 38.9304167,27.7521379 C38.8729164,27.8042761 38.8016671,27.8303448 38.7166667,27.8303448 C38.6266662,27.8303448 38.552917,27.8042761 38.4954167,27.7521379 Z M41.06875,27.7521379 C41.0112497,27.6999997 40.9825,27.6267591 40.9825,27.5324138 L40.9825,22.8027586 C40.9825,22.7084133 41.0112497,22.6351727 41.06875,22.5830345 C41.1262503,22.5308963 41.1999995,22.5048276 41.29,22.5048276 C41.3750004,22.5048276 41.4462497,22.5308963 41.50375,22.5830345 C41.5612503,22.6351727 41.59,22.7084133 41.59,22.8027586 L41.59,27.5324138 C41.59,27.6267591 41.5612503,27.6999997 41.50375,27.7521379 C41.4462497,27.8042761 41.3750004,27.8303448 41.29,27.8303448 C41.1999995,27.8303448 41.1262503,27.8042761 41.06875,27.7521379 Z M46.4208333,25.5064828 L46.4208333,27.5324138 C46.4208333,27.6217936 46.3945836,27.6937928 46.3420833,27.7484138 C46.2895831,27.8030348 46.2183338,27.8303448 46.1283333,27.8303448 C46.0383329,27.8303448 45.9658336,27.8030348 45.9108333,27.7484138 C45.8558331,27.6937928 45.8283333,27.6217936 45.8283333,27.5324138 L45.8283333,27.1748966 C45.7333329,27.3884149 45.5883343,27.5535167 45.3933333,27.6702069 C45.1983324,27.7868971 44.9733346,27.8452414 44.7183333,27.8452414 C44.4833322,27.8452414 44.2670843,27.7980694 44.0695833,27.7037241 C43.8720823,27.6093788 43.7158339,27.4777939 43.6008333,27.3089655 C43.4858328,27.1401371 43.4283333,26.9539321 43.4283333,26.7503448 C43.4283333,26.47724 43.4983326,26.2649663 43.6383333,26.1135172 C43.778334,25.9620682 44.0083317,25.8528279 44.3283333,25.7857931 C44.6483349,25.7187583 45.0933305,25.6852414 45.6633333,25.6852414 L45.8283333,25.6852414 L45.8283333,25.4394483 C45.8283333,25.1415158 45.7670839,24.9230352 45.6445833,24.784 C45.5220827,24.6449648 45.3233347,24.5754483 45.0483333,24.5754483 C44.7083316,24.5754483 44.3633351,24.6673094 44.0133333,24.8510345 C43.8783327,24.9354487 43.7833336,24.9776552 43.7283333,24.9776552 C43.668333,24.9776552 43.6183335,24.9553106 43.5783333,24.9106207 C43.5383331,24.8659308 43.5183333,24.8088279 43.5183333,24.7393103 C43.5183333,24.6697928 43.5395831,24.6089658 43.5820833,24.5568276 C43.6245835,24.5046894 43.6933329,24.4513106 43.7883333,24.3966897 C43.9633342,24.2973788 44.1620822,24.2191727 44.3845833,24.162069 C44.6070844,24.1049652 44.8283322,24.0764138 45.0483333,24.0764138 C45.9633379,24.0764138 46.4208333,24.5530987 46.4208333,25.5064828 Z M45.5395833,27.0668966 C45.7320843,26.8657921 45.8283333,26.6063464 45.8283333,26.2885517 L45.8283333,26.0725517 L45.6933333,26.0725517 C45.2533311,26.0725517 44.9183345,26.0911722 44.6883333,26.1284138 C44.4583322,26.1656554 44.2945838,26.2277237 44.1970833,26.3146207 C44.0995828,26.4015177 44.0508333,26.5293785 44.0508333,26.6982069 C44.0508333,26.891863 44.1220826,27.0519994 44.2645833,27.1786207 C44.407084,27.305242 44.5858323,27.3685517 44.8008333,27.3685517 C45.1008348,27.3685517 45.3470824,27.268001 45.5395833,27.0668966 Z M51.0491667,24.3073103 C51.2941679,24.4612421 51.484166,24.6797227 51.6191667,24.9627586 C51.7541673,25.2457945 51.8216667,25.5735154 51.8216667,25.945931 C51.8216667,26.3233122 51.7541673,26.6547572 51.6191667,26.9402759 C51.484166,27.2257945 51.2941679,27.4479992 51.0491667,27.6068966 C50.8041654,27.7657939 50.5216683,27.8452414 50.2016667,27.8452414 C49.9166652,27.8452414 49.6679177,27.783173 49.4554167,27.6590345 C49.2429156,27.5348959 49.0816672,27.3586218 48.9716667,27.1302069 L48.9716667,27.5324138 C48.9716667,27.6217936 48.9454169,27.6937928 48.8929167,27.7484138 C48.8404164,27.8030348 48.7666671,27.8303448 48.6716667,27.8303448 C48.5766662,27.8303448 48.5016669,27.8030348 48.4466667,27.7484138 C48.3916664,27.6937928 48.3641667,27.6217936 48.3641667,27.5324138 L48.3641667,22.7953103 C48.3641667,22.7108961 48.3916664,22.6413796 48.4466667,22.5867586 C48.5016669,22.5321377 48.5766662,22.5048276 48.6716667,22.5048276 C48.7666671,22.5048276 48.8404164,22.5308963 48.8929167,22.5830345 C48.9454169,22.6351727 48.9716667,22.7059306 48.9716667,22.7953103 L48.9716667,24.7914483 C49.0816672,24.5630333 49.2429156,24.3867592 49.4554167,24.2626207 C49.6679177,24.1384821 49.9166652,24.0764138 50.2016667,24.0764138 C50.5216683,24.0764138 50.8041654,24.1533785 51.0491667,24.3073103 Z M50.9066667,26.9775172 C51.1016676,26.7317229 51.1991667,26.3878643 51.1991667,25.945931 C51.1991667,25.5139289 51.1016676,25.1787598 50.9066667,24.9404138 C50.7116657,24.7020678 50.4366684,24.5828966 50.0816667,24.5828966 C49.7266649,24.5828966 49.4529176,24.7020678 49.2604167,24.9404138 C49.0679157,25.1787598 48.9716667,25.5188943 48.9716667,25.9608276 C48.9716667,26.4027608 49.0679157,26.7441367 49.2604167,26.9849655 C49.4529176,27.2257943 49.7266649,27.3462069 50.0816667,27.3462069 C50.4366684,27.3462069 50.7116657,27.2233116 50.9066667,26.9775172 Z M54.16625,27.6143448 C53.9037487,27.460413 53.7012507,27.2406911 53.55875,26.9551724 C53.4162493,26.6696537 53.345,26.3382088 53.345,25.9608276 C53.345,25.5834464 53.4162493,25.2520014 53.55875,24.9664828 C53.7012507,24.6809641 53.9037487,24.4612421 54.16625,24.3073103 C54.4287513,24.1533785 54.7324983,24.0764138 55.0775,24.0764138 C55.4225017,24.0764138 55.7274987,24.1533785 55.9925,24.3073103 C56.2575013,24.4612421 56.4612493,24.6809641 56.60375,24.9664828 C56.7462507,25.2520014 56.8175,25.5834464 56.8175,25.9608276 C56.8175,26.3382088 56.7462507,26.6696537 56.60375,26.9551724 C56.4612493,27.2406911 56.2575013,27.460413 55.9925,27.6143448 C55.7274987,27.7682766 55.4225017,27.8452414 55.0775,27.8452414 C54.7324983,27.8452414 54.4287513,27.7682766 54.16625,27.6143448 Z M55.90625,26.9924138 C56.098751,26.7565505 56.195,26.4126919 56.195,25.9608276 C56.195,25.5188943 56.097501,25.1775184 55.9025,24.9366897 C55.707499,24.6958609 55.4325018,24.5754483 55.0775,24.5754483 C54.7224982,24.5754483 54.447501,24.6958609 54.2525,24.9366897 C54.057499,25.1775184 53.96,25.5188943 53.96,25.9608276 C53.96,26.4077264 54.056249,26.7503436 54.24875,26.9886897 C54.441251,27.2270357 54.7174982,27.3462069 55.0775,27.3462069 C55.4375018,27.3462069 55.713749,27.228277 55.90625,26.9924138 Z M60.6808333,24.3445517 C60.6808333,24.4240004 60.6583336,24.4873101 60.6133333,24.5344828 C60.5683331,24.5816554 60.4908339,24.6102068 60.3808333,24.6201379 L60.1558333,24.6424828 C59.8208317,24.672276 59.5720841,24.7902059 59.4095833,24.9962759 C59.2470825,25.2023459 59.1658333,25.4444124 59.1658333,25.7224828 L59.1658333,27.5324138 C59.1658333,27.6317246 59.1383336,27.7062066 59.0833333,27.7558621 C59.0283331,27.8055175 58.9558338,27.8303448 58.8658333,27.8303448 C58.7758329,27.8303448 58.7020836,27.8042761 58.6445833,27.7521379 C58.587083,27.6999997 58.5583333,27.6267591 58.5583333,27.5324138 L58.5583333,24.3892414 C58.5583333,24.2948961 58.588333,24.2216554 58.6483333,24.1695172 C58.7083336,24.117379 58.7808329,24.0913103 58.8658333,24.0913103 C58.9458337,24.0913103 59.0133331,24.117379 59.0683333,24.1695172 C59.1233336,24.2216554 59.1508333,24.2924133 59.1508333,24.3817931 L59.1508333,24.7988966 C59.2558339,24.5804127 59.4045824,24.4140695 59.5970833,24.2998621 C59.7895843,24.1856546 60.0108321,24.1186208 60.2608333,24.0987586 L60.3658333,24.0913103 C60.5758344,24.0764137 60.6808333,24.1608267 60.6808333,24.3445517 Z M64.8741667,25.5064828 L64.8741667,27.5324138 C64.8741667,27.6217936 64.8479169,27.6937928 64.7954167,27.7484138 C64.7429164,27.8030348 64.6716671,27.8303448 64.5816667,27.8303448 C64.4916662,27.8303448 64.4191669,27.8030348 64.3641667,27.7484138 C64.3091664,27.6937928 64.2816667,27.6217936 64.2816667,27.5324138 L64.2816667,27.1748966 C64.1866662,27.3884149 64.0416676,27.5535167 63.8466667,27.6702069 C63.6516657,27.7868971 63.4266679,27.8452414 63.1716667,27.8452414 C62.9366655,27.8452414 62.7204177,27.7980694 62.5229167,27.7037241 C62.3254157,27.6093788 62.1691672,27.4777939 62.0541667,27.3089655 C61.9391661,27.1401371 61.8816667,26.9539321 61.8816667,26.7503448 C61.8816667,26.47724 61.951666,26.2649663 62.0916667,26.1135172 C62.2316674,25.9620682 62.4616651,25.8528279 62.7816667,25.7857931 C63.1016683,25.7187583 63.5466638,25.6852414 64.1166667,25.6852414 L64.2816667,25.6852414 L64.2816667,25.4394483 C64.2816667,25.1415158 64.2204173,24.9230352 64.0979167,24.784 C63.9754161,24.6449648 63.776668,24.5754483 63.5016667,24.5754483 C63.161665,24.5754483 62.8166684,24.6673094 62.4666667,24.8510345 C62.331666,24.9354487 62.2366669,24.9776552 62.1816667,24.9776552 C62.1216664,24.9776552 62.0716669,24.9553106 62.0316667,24.9106207 C61.9916665,24.8659308 61.9716667,24.8088279 61.9716667,24.7393103 C61.9716667,24.6697928 61.9929165,24.6089658 62.0354167,24.5568276 C62.0779169,24.5046894 62.1466662,24.4513106 62.2416667,24.3966897 C62.4166675,24.2973788 62.6154156,24.2191727 62.8379167,24.162069 C63.0604178,24.1049652 63.2816656,24.0764138 63.5016667,24.0764138 C64.4166712,24.0764138 64.8741667,24.5530987 64.8741667,25.5064828 Z M63.9929167,27.0668966 C64.1854176,26.8657921 64.2816667,26.6063464 64.2816667,26.2885517 L64.2816667,26.0725517 L64.1466667,26.0725517 C63.7066645,26.0725517 63.3716678,26.0911722 63.1416667,26.1284138 C62.9116655,26.1656554 62.7479172,26.2277237 62.6504167,26.3146207 C62.5529162,26.4015177 62.5041667,26.5293785 62.5041667,26.6982069 C62.5041667,26.891863 62.575416,27.0519994 62.7179167,27.1786207 C62.8604174,27.305242 63.0391656,27.3685517 63.2541667,27.3685517 C63.5541682,27.3685517 63.8004157,27.268001 63.9929167,27.0668966 Z M68.7675,27.592 C68.7675,27.6764142 68.7362503,27.7397239 68.67375,27.781931 C68.6112497,27.8241381 68.5175006,27.8402759 68.3925,27.8303448 L68.19,27.8154483 C67.789998,27.785655 67.495001,27.6664838 67.305,27.457931 C67.1149991,27.2493783 67.02,26.9340711 67.02,26.512 L67.02,24.6424828 L66.5175,24.6424828 C66.4324996,24.6424828 66.3662502,24.6213795 66.31875,24.5791724 C66.2712498,24.5369653 66.2475,24.4811038 66.2475,24.4115862 C66.2475,24.3371031 66.2712498,24.2775175 66.31875,24.2328276 C66.3662502,24.1881377 66.4324996,24.1657931 66.5175,24.1657931 L67.02,24.1657931 L67.02,23.3241379 C67.02,23.2297926 67.0474997,23.156552 67.1025,23.1044138 C67.1575003,23.0522756 67.2324995,23.0262069 67.3275,23.0262069 C67.4175005,23.0262069 67.4899997,23.0522756 67.545,23.1044138 C67.6000003,23.156552 67.6275,23.2297926 67.6275,23.3241379 L67.6275,24.1657931 L68.46,24.1657931 C68.5400004,24.1657931 68.6037498,24.1881377 68.65125,24.2328276 C68.6987502,24.2775175 68.7225,24.3371031 68.7225,24.4115862 C68.7225,24.4811038 68.6987502,24.5369653 68.65125,24.5791724 C68.6037498,24.6213795 68.5400004,24.6424828 68.46,24.6424828 L67.6275,24.6424828 L67.6275,26.5417931 C67.6275,26.8148979 67.6837494,27.0122753 67.79625,27.133931 C67.9087506,27.2555868 68.0774989,27.323862 68.3025,27.3387586 L68.505,27.3536552 C68.6800009,27.3685518 68.7675,27.4479993 68.7675,27.592 Z M70.2870833,27.7521379 C70.229583,27.6999997 70.2008333,27.6267591 70.2008333,27.5324138 L70.2008333,24.3892414 C70.2008333,24.2948961 70.229583,24.2216554 70.2870833,24.1695172 C70.3445836,24.117379 70.4183329,24.0913103 70.5083333,24.0913103 C70.5983338,24.0913103 70.6708331,24.117379 70.7258333,24.1695172 C70.7808336,24.2216554 70.8083333,24.2948961 70.8083333,24.3892414 L70.8083333,27.5324138 C70.8083333,27.6317246 70.7808336,27.7062066 70.7258333,27.7558621 C70.6708331,27.8055175 70.5983338,27.8303448 70.5083333,27.8303448 C70.4183329,27.8303448 70.3445836,27.8042761 70.2870833,27.7521379 Z M70.2158333,23.2049655 C70.140833,23.1354479 70.1033333,23.0435868 70.1033333,22.9293793 C70.1033333,22.8201374 70.140833,22.730759 70.2158333,22.6612414 C70.2908337,22.5917238 70.3883327,22.5569655 70.5083333,22.5569655 C70.6283339,22.5569655 70.725833,22.5917238 70.8008333,22.6612414 C70.8758337,22.730759 70.9133333,22.8201374 70.9133333,22.9293793 C70.9133333,23.0435868 70.8758337,23.1354479 70.8008333,23.2049655 C70.725833,23.2744831 70.6283339,23.3092414 70.5083333,23.3092414 C70.3883327,23.3092414 70.2908337,23.2744831 70.2158333,23.2049655 Z M75.6691667,24.0987586 C75.744167,24.0987586 75.8116664,24.123586 75.8716667,24.1732414 C75.931667,24.2228968 75.9616667,24.2849651 75.9616667,24.3594483 C75.9616667,24.4041382 75.9516668,24.4438619 75.9316667,24.4786207 L74.4691667,27.6068966 C74.4391665,27.6714486 74.394167,27.7223446 74.3341667,27.7595862 C74.2741664,27.7968278 74.209167,27.8154483 74.1391667,27.8154483 C74.0741663,27.8154483 74.011667,27.7968278 73.9516667,27.7595862 C73.8916664,27.7223446 73.8441668,27.6714486 73.8091667,27.6068966 L72.3541667,24.4786207 C72.3341666,24.4438619 72.3241667,24.4066209 72.3241667,24.3668966 C72.3241667,24.2924134 72.3579163,24.2278623 72.4254167,24.1732414 C72.492917,24.1186204 72.5666663,24.0913103 72.6466667,24.0913103 C72.6966669,24.0913103 72.7454164,24.1062067 72.7929167,24.136 C72.8404169,24.1657933 72.8766665,24.2079997 72.9016667,24.2626207 L74.1541667,27.0557241 L75.4066667,24.2775172 C75.4616669,24.1583442 75.5491661,24.0987586 75.6691667,24.0987586 Z M80.4325,27.0184828 C80.4725002,27.0631726 80.4925,27.1202755 80.4925,27.1897931 C80.4925,27.3139317 80.4050009,27.4281374 80.23,27.5324138 C80.0499991,27.6366902 79.860001,27.7148963 79.66,27.7670345 C79.459999,27.8191727 79.265001,27.8452414 79.075,27.8452414 C78.5099972,27.8452414 78.0637516,27.6788982 77.73625,27.3462069 C77.4087484,27.0135156 77.245,26.5542098 77.245,25.9682759 C77.245,25.5958602 77.3174993,25.266898 77.4625,24.9813793 C77.6075007,24.6958606 77.8112487,24.473656 78.07375,24.3147586 C78.3362513,24.1558613 78.6349983,24.0764138 78.97,24.0764138 C79.4450024,24.0764138 79.8224986,24.2303433 80.1025,24.5382069 C80.3825014,24.8460705 80.5225,25.2631698 80.5225,25.7895172 C80.5225,25.8888281 80.5025002,25.9608274 80.4625,26.0055172 C80.4224998,26.0502071 80.3575005,26.0725517 80.2675,26.0725517 L77.8525,26.0725517 C77.8975002,26.926625 78.3049962,27.3536552 79.075,27.3536552 C79.270001,27.3536552 79.4374993,27.3275865 79.5775,27.2754483 C79.7175007,27.2233101 79.8674992,27.1525522 80.0275,27.0631724 C80.1575007,26.9886893 80.2449998,26.9514483 80.29,26.9514483 C80.3450003,26.9514483 80.3924998,26.9737929 80.4325,27.0184828 Z M78.20875,24.8435862 C78.016249,25.0422079 77.9025002,25.3227568 77.8675,25.6852414 L79.99,25.6852414 C79.9799999,25.3177913 79.8875009,25.036001 79.7125,24.8398621 C79.5374991,24.6437232 79.2925016,24.5456552 78.9775,24.5456552 C78.6574984,24.5456552 78.401251,24.6449645 78.20875,24.8435862 Z" id="youth-collaborative"></path>
            </g>
        </g>
    </g>
</svg>