<?xml version="1.0" encoding="UTF-8"?>
<svg width="150px" height="36px" viewBox="0 0 150 36" version="1.1" xmlns="http://www.w3.org/2000/svg" xmlns:xlink="http://www.w3.org/1999/xlink">
    <!-- Generator: Sketch 49.3 (51167) - http://www.bohemiancoding.com/sketch -->
    <title>logo</title>
    <desc>Created with Sketch.</desc>
    <defs></defs>
    <g id="Page-1" stroke="none" stroke-width="1" fill="none" fill-rule="evenodd">
        <g id="Home" transform="translate(-43.000000, -30.000000)" fill="#FFFFFF">
            <g id="logo" transform="translate(43.000000, 30.000000)">
                <path d="M31.0545223,0.794074122 C35.9790352,2.35919314 40.1721826,6.16814367 42.2880541,11.9620155 L52.2603335,11.9620155 C52.565452,11.9421177 52.8301887,12.2228725 52.8301887,12.5235195 C52.8301887,12.8042687 52.565452,13.0850235 52.2603335,13.0651256 L41.922199,13.0651256 C41.6776562,13.0651256 41.4533014,12.9037468 41.3927257,12.6848927 C39.4184292,6.9701936 35.3891413,3.36016531 30.6887361,1.87687888 C25.988331,0.393592444 20.5544926,1.05453492 15.8121606,4.0410849 C15.5676178,4.26215173 15.1211712,4.20246374 14.9372098,3.92170892 C14.7532427,3.66085197 14.8968279,3.24084592 15.2019465,3.09936496 C19.5364391,0.212247803 25.5802848,-0.890850982 31.0549014,0.793677975 L31.0545223,0.794074122 Z M26.4875957,9.79680697 C30.6179102,9.79680697 33.9563236,13.0442478 33.9563236,17.0564782 C33.9563236,21.0665581 30.6179676,24.3359568 26.4875957,24.3359568 C22.3774981,24.3359568 19.0188679,21.0664449 19.0188679,17.0564782 C19.0188679,13.0463984 22.3774406,9.79680697 26.4875957,9.79680697 Z M11.028924,20.8866348 C11.2128911,20.9264249 11.3946183,21.0878037 11.455194,21.2668621 C13.4092738,26.9815612 17.4386765,30.6113968 22.1390817,32.0748759 C26.8594739,33.5582189 32.2733252,32.8972199 37.0156572,29.9283267 C37.2602,29.6873676 37.7066466,29.7470556 37.890608,30.0278048 C38.0745751,30.308554 37.9309899,30.7086678 37.6258713,30.8501488 C32.6206061,33.9981002 26.8391767,34.7408753 21.7935927,33.1558357 C16.848863,31.5907167 12.6759324,27.7817662 10.5600609,22.0077017 L0.587780379,22.0077017 C0.284907499,22.0099144 0,21.7490575 0,21.4484104 C0,21.1676613 0.28492473,20.8869064 0.590020308,20.8869064 L11.028924,20.8866348 Z" id="Combined-Shape" transform="translate(26.415094, 16.981132) rotate(-360.000000) translate(-26.415094, -16.981132) "></path>
                <g id="text" transform="translate(59.433962, 1.886792)">
                    <path d="M4.28318585,17.3336648 C2.90384792,16.5873505 1.84516144,15.5280816 1.10709465,14.1558263 C0.369027859,12.7835709 0,11.1705933 0,9.31684483 C0,7.46309641 0.393226407,5.83206301 1.17969102,4.4236957 C1.96615563,3.0153284 3.07323921,1.92596661 4.50097496,1.15557765 C5.92871072,0.385188699 7.57421199,0 9.43752814,0 C10.4054846,0 11.3794761,0.132408615 12.359532,0.397229818 C13.3395879,0.662051021 14.2167853,1.03520257 14.9911505,1.51669567 C15.7413167,1.97411411 16.1163942,2.64819434 16.1163942,3.53895656 C16.1163942,4.16489759 15.9712029,4.67647633 15.680816,5.07370813 C15.3904291,5.47093994 15.0032523,5.66955286 14.5192741,5.66955286 C14.2046882,5.66955286 13.908256,5.6153857 13.6299685,5.50704975 C13.3516811,5.39871381 12.9826532,5.23621233 12.5228739,5.01954043 C12.0146967,4.75471923 11.560974,4.55008773 11.1616919,4.4056398 C10.7624099,4.26119188 10.3086871,4.18896899 9.80050999,4.18896899 C8.44537097,4.18896899 7.41088304,4.61628771 6.69701516,5.47093795 C5.98314729,6.3255882 5.6262187,7.5714329 5.6262187,9.20850943 C5.6262187,10.845586 5.98314729,12.0974492 6.69701516,12.9641368 C7.41088304,13.8308244 8.44537097,14.2641617 9.80050999,14.2641617 C10.3086871,14.2641617 10.7563603,14.1979574 11.1435428,14.0655468 C11.5307254,13.9331361 12.0025971,13.7224861 12.5591721,13.4335902 C13.0189514,13.2169183 13.3819296,13.0544168 13.6481176,12.9460809 C13.9143056,12.837745 14.2046882,12.7835778 14.5192741,12.7835778 C14.9790534,12.7835778 15.3601805,12.9882093 15.6626669,13.3974784 C15.9651533,13.8067476 16.1163942,14.3243449 16.1163942,14.9502859 C16.1163942,15.8410481 15.7413167,16.5030912 14.9911505,16.936435 C14.2167853,17.4179281 13.321439,17.7910796 12.3050848,18.0559008 C11.2887305,18.320722 10.2239944,18.4531307 9.11084448,18.4531307 C7.27172723,18.4531307 5.66252378,18.0799791 4.28318585,17.3336648 Z M34.089265,0.559732926 C34.5127459,0.932890076 34.7244832,1.4926174 34.7244832,2.2389317 C34.7244832,3.03339531 34.5308948,3.62321551 34.1437122,4.00840999 C33.7565297,4.39360446 33.066871,4.6343474 32.0747157,4.73064602 L30.9857701,4.83898142 C29.65483,4.98342935 28.6929377,5.41676664 28.1000644,6.13900628 C27.5071911,6.86124593 27.2107589,7.78810624 27.2107589,8.91961501 L27.2107589,15.8169691 C27.2107589,16.6595821 26.9506245,17.2975508 26.4303479,17.7308946 C25.9100713,18.1642384 25.2627601,18.3809071 24.488395,18.3809071 C23.6898309,18.3809071 23.0304205,18.1642384 22.5101439,17.7308946 C21.9898673,17.2975508 21.7297329,16.6595821 21.7297329,15.8169691 L21.7297329,2.56393792 C21.7297329,1.76947431 21.9959169,1.15557982 22.528293,0.722236033 C23.060669,0.288892247 23.7019306,0.0722236033 24.4520968,0.0722236033 C25.1780641,0.0722236033 25.7830278,0.282873673 26.2670061,0.704180133 C26.7509843,1.12548659 26.9929698,1.70928821 26.9929698,2.45560251 L26.9929698,3.43062116 C27.4285502,2.395411 28.0879606,1.60095931 28.9712209,1.04724225 C29.8544811,0.493525188 30.8163734,0.180559369 31.8569266,0.108335405 L32.3651012,0.0722236033 C33.0910685,0.0240742937 33.665784,0.186575776 34.089265,0.559732926 Z M54.3307723,13.469702 C54.6332587,13.8548965 54.7844996,14.3484195 54.7844996,14.9502859 C54.7844996,15.359555 54.6635069,15.7387251 54.4215177,16.0878076 C54.1795286,16.4368901 53.840749,16.7318002 53.4051686,16.9725468 C52.5824056,17.4058906 51.6265629,17.7609864 50.5376119,18.0378449 C49.4486609,18.3147035 48.4444212,18.4531307 47.5248626,18.4531307 C45.5889497,18.4531307 43.9011009,18.0799791 42.4612657,17.3336648 C41.0214305,16.5873505 39.9143469,15.522063 39.1399818,14.1377704 C38.3656166,12.7534777 37.9784399,11.1224443 37.9784399,9.24462123 C37.9784399,7.43902212 38.3535174,5.83808159 39.1036836,4.44175161 C39.8538498,3.04542163 40.8943874,1.95605984 42.2253275,1.17363355 C43.5562676,0.391207273 45.0686769,0 46.7626007,0 C48.3839277,0 49.8055924,0.355095832 51.0276374,1.06529815 C52.2496824,1.77550047 53.1994755,2.7866208 53.877045,4.09868949 C54.5546145,5.41075818 54.8933942,6.9454944 54.8933942,8.7029442 C54.8933942,9.23258661 54.7663518,9.63583103 54.5122632,9.91268956 C54.2581746,10.1895481 53.9012461,10.3279753 53.4414667,10.3279753 L43.2779749,10.3279753 C43.4473673,11.7483799 43.8829411,12.777556 44.5847096,13.4155343 C45.286478,14.0535127 46.2907177,14.3724971 47.5974589,14.3724971 C48.2992274,14.3724971 48.9283896,14.288237 49.4849646,14.1197145 C50.0415395,13.9511919 50.6586025,13.7224861 51.336172,13.4335902 C51.6749568,13.2891423 52.0016372,13.1627523 52.316223,13.0544163 C52.6308088,12.9460804 52.9090922,12.8919132 53.1510813,12.8919132 C53.6350595,12.8919132 54.0282859,13.0845075 54.3307723,13.469702 Z M44.4032186,4.74870192 C43.774047,5.41075493 43.3989695,6.3677081 43.2779749,7.61959015 L50.2835246,7.61959015 C50.2109279,6.34363345 49.8902971,5.3806617 49.3216227,4.73064602 C48.7529483,4.08063034 47.9483466,3.75562737 46.9077934,3.75562737 C45.8672402,3.75562737 45.0323903,4.08664891 44.4032186,4.74870192 Z M85.9880588,0.505565223 C86.3752414,0.24074402 86.7866167,0.108335405 87.2221971,0.108335405 C87.8997666,0.108335405 88.5047303,0.337041195 89.0371064,0.794459637 C89.5694824,1.25187808 89.8356665,1.81762398 89.8356665,2.49171432 C89.8356665,2.78061017 89.7630708,3.10561314 89.6178774,3.46673296 L83.664975,16.755876 C83.4471848,17.2855184 83.0963058,17.6887628 82.6123276,17.9656213 C82.1283494,18.2424799 81.6201799,18.3809071 81.0878038,18.3809071 C80.5312289,18.3809071 80.0170097,18.2424799 79.545131,17.9656213 C79.0732522,17.6887628 78.7284229,17.2855184 78.5106327,16.755876 L74.6267269,7.76403736 L70.8880138,16.755876 C70.6702236,17.2855184 70.3314439,17.6887628 69.8716646,17.9656213 C69.4118853,18.2424799 68.8916165,18.3809071 68.3108427,18.3809071 C67.7542677,18.3809071 67.2339989,18.2424799 66.7500207,17.9656213 C66.2660425,17.6887628 65.9151635,17.2855184 65.6973733,16.755876 L59.7807691,3.46673296 C59.6355757,3.12968779 59.56298,2.80468483 59.56298,2.49171432 C59.56298,1.81762398 59.847313,1.25187808 60.4159874,0.794459637 C60.9846618,0.337041195 61.631973,0.108335405 62.3579403,0.108335405 C62.8419185,0.108335405 63.283542,0.24074402 63.6828241,0.505565223 C64.0821061,0.770386426 64.3906376,1.15557513 64.6084278,1.66114288 L68.4923336,11.3752175 L72.4488358,1.73336648 C72.666626,1.22779873 72.9872567,0.836591456 73.4107377,0.559732926 C73.8342186,0.282874395 74.3000407,0.144447207 74.8082178,0.144447207 C75.3163949,0.144447207 75.7882666,0.276855822 76.223847,0.541677025 C76.6594274,0.806498228 76.9861078,1.20372407 77.203898,1.73336648 L81.2329966,11.3752175 L85.0806042,1.66114288 C85.2983944,1.15557513 85.6008763,0.770386426 85.9880588,0.505565223 Z" id="crew"></path>
                    <path d="M6.4223518,28.1851043 C6.5032043,28.1851043 6.57597046,28.2119163 6.64065247,28.2655412 C6.70533447,28.3191661 6.73767498,28.3861962 6.73767498,28.4666336 C6.73767498,28.514896 6.72689481,28.5577952 6.70533414,28.5953327 L4.43339014,33.4698113 C4.40643931,33.5287987 4.36736118,33.5743792 4.3161546,33.6065541 C4.26494801,33.6387291 4.21239467,33.6548163 4.158493,33.6548163 C4.0776405,33.6548163 4.00622186,33.6293448 3.94423494,33.5784012 C3.88224802,33.5274575 3.85125502,33.461768 3.85125502,33.3813307 C3.85125502,33.3384308 3.86203519,33.2955315 3.88359586,33.2526316 L4.44956056,32.0380338 L2.84868898,28.5953327 C2.82712832,28.5577952 2.81634814,28.5175772 2.81634814,28.4746773 C2.81634814,28.3942399 2.85273122,28.3245286 2.92549848,28.2655412 C2.99826573,28.2065538 3.0777695,28.1770606 3.16401217,28.1770606 C3.21791384,28.1770606 3.27046718,28.1931478 3.32167377,28.2253227 C3.37288035,28.2574977 3.41195848,28.3030782 3.43890931,28.3620655 L4.78913938,31.3784508 L6.13936945,28.3781529 C6.19866128,28.2494532 6.29298779,28.1851043 6.4223518,28.1851043 Z M8.95796348,31.9817279 C8.67497972,31.8154907 8.45668123,31.5782041 8.30306147,31.269861 C8.14944172,30.9615178 8.07263299,30.603577 8.07263299,30.1960278 C8.07263299,29.7884786 8.14944172,29.4305378 8.30306147,29.1221946 C8.45668123,28.8138515 8.67497972,28.5765649 8.95796348,28.4103277 C9.24094725,28.2440905 9.56839498,28.1609732 9.94031649,28.1609732 C10.312238,28.1609732 10.6410333,28.2440905 10.9267121,28.4103277 C11.212391,28.5765649 11.432037,28.8138515 11.5856567,29.1221946 C11.7392765,29.4305378 11.8160852,29.7884786 11.8160852,30.1960278 C11.8160852,30.603577 11.7392765,30.9615178 11.5856567,31.269861 C11.432037,31.5782041 11.212391,31.8154907 10.9267121,31.9817279 C10.6410333,32.1479651 10.312238,32.2310824 9.94031649,32.2310824 C9.56839498,32.2310824 9.24094725,32.1479651 8.95796348,31.9817279 Z M10.8337322,31.3100794 C11.0412536,31.0553612 11.1450128,30.6840144 11.1450128,30.1960278 C11.1450128,29.7187662 11.0399061,29.3501006 10.8296896,29.0900199 C10.6194731,28.8299391 10.3230183,28.6999007 9.94031649,28.6999007 C9.55761464,28.6999007 9.26115991,28.8299391 9.0509434,29.0900199 C8.84072689,29.3501006 8.73562021,29.7187662 8.73562021,30.1960278 C8.73562021,30.6786519 8.83937936,31.0486581 9.04690079,31.3060576 C9.25442222,31.5634571 9.55222447,31.6921549 9.94031649,31.6921549 C10.3284085,31.6921549 10.6262108,31.5647977 10.8337322,31.3100794 Z M16.9227937,28.2655412 C16.9793904,28.3245286 17.0076884,28.4022835 17.0076884,28.4988083 L17.0076884,31.901291 C17.0076884,31.9924533 16.9793904,32.067527 16.9227937,32.1265144 C16.8661969,32.1855018 16.7866931,32.214995 16.68428,32.214995 C16.587257,32.214995 16.5104482,32.1868424 16.4538515,32.1305362 C16.3972547,32.0742301 16.3689568,32.000497 16.3689568,31.9093347 L16.3689568,31.50715 C16.2449829,31.7430995 16.0711527,31.9227402 15.8474607,32.0460775 C15.6237688,32.1694147 15.3717823,32.2310824 15.0914936,32.2310824 C14.6225491,32.2310824 14.2694984,32.101044 14.0323311,31.8409633 C13.7951638,31.5808825 13.6765819,31.1961297 13.6765819,30.6866931 L13.6765819,28.4988083 C13.6765819,28.4022835 13.7062273,28.3245286 13.7655192,28.2655412 C13.824811,28.2065538 13.9056623,28.1770606 14.0080755,28.1770606 C14.1104886,28.1770606 14.1899924,28.2065538 14.2465892,28.2655412 C14.3031859,28.3245286 14.3314839,28.4022835 14.3314839,28.4988083 L14.3314839,30.6706058 C14.3314839,31.0191676 14.401555,31.2752226 14.5416993,31.4387786 C14.6818437,31.6023345 14.9028372,31.6841112 15.2046865,31.6841112 C15.5496572,31.6841112 15.8272467,31.5728412 16.0374632,31.3502979 C16.2476797,31.1277546 16.3527864,30.8341627 16.3527864,30.4695134 L16.3527864,28.4988083 C16.3527864,28.4022835 16.3824318,28.3245286 16.4417237,28.2655412 C16.5010155,28.2065538 16.5818668,28.1770606 16.68428,28.1770606 C16.7866931,28.1770606 16.8661969,28.2065538 16.9227937,28.2655412 Z M21.2290663,31.9575968 C21.2290663,32.0487591 21.1953783,32.1171299 21.1280012,32.162711 C21.0606241,32.2082922 20.95956,32.22572 20.8248058,32.214995 L20.6065052,32.1989076 C20.1752918,32.1667327 19.8572767,32.0380349 19.6524504,31.8128103 C19.4476241,31.5875858 19.3452124,31.2470728 19.3452124,30.7912612 L19.3452124,28.7722939 L18.8035033,28.7722939 C18.7118705,28.7722939 18.6404519,28.7495037 18.5892453,28.7039225 C18.5380387,28.6583414 18.5124358,28.5980143 18.5124358,28.5229394 C18.5124358,28.4425021 18.5380387,28.3781532 18.5892453,28.3298908 C18.6404519,28.2816284 18.7118705,28.2574975 18.8035033,28.2574975 L19.3452124,28.2574975 L19.3452124,27.3485601 C19.3452124,27.2466728 19.3748579,27.1675772 19.4341497,27.1112711 C19.4934416,27.054965 19.5742929,27.0268123 19.676706,27.0268123 C19.773729,27.0268123 19.8518853,27.054965 19.9111771,27.1112711 C19.970469,27.1675772 20.0001144,27.2466728 20.0001144,27.3485601 L20.0001144,28.2574975 L20.8975727,28.2574975 C20.9838154,28.2574975 21.052539,28.2816284 21.1037456,28.3298908 C21.1549522,28.3781532 21.1805551,28.4425021 21.1805551,28.5229394 C21.1805551,28.5980143 21.1549522,28.6583414 21.1037456,28.7039225 C21.052539,28.7495037 20.9838154,28.7722939 20.8975727,28.7722939 L20.0001144,28.7722939 L20.0001144,30.8234359 C20.0001144,31.1183729 20.0607529,31.3315286 20.1820316,31.4629096 C20.3033104,31.5942906 20.4852258,31.6680238 20.7277833,31.6841112 L20.946084,31.7001986 C21.1347398,31.7162861 21.2290663,31.8020846 21.2290663,31.9575968 Z M25.8142788,28.5510924 C26.0514461,28.8111731 26.170028,29.1986072 26.170028,29.7134062 L26.170028,31.8932473 C26.170028,31.9951346 26.1403825,32.0742301 26.0810907,32.1305362 C26.0217989,32.1868424 25.9436426,32.214995 25.8466196,32.214995 C25.7442064,32.214995 25.6633551,32.1868424 25.6040633,32.1305362 C25.5447715,32.0742301 25.515126,31.9951346 25.515126,31.8932473 L25.515126,29.7294935 C25.515126,29.3809317 25.4437073,29.1235361 25.3008679,28.9572989 C25.1580285,28.7910617 24.9302974,28.7079444 24.6176677,28.7079444 C24.2565265,28.7079444 23.9681569,28.8178738 23.7525502,29.0377358 C23.5369435,29.2575979 23.4291418,29.5552116 23.4291418,29.9305859 L23.4291418,31.8932473 C23.4291418,31.9951346 23.4008439,32.0742301 23.3442471,32.1305362 C23.2876504,32.1868424 23.2081466,32.214995 23.1057334,32.214995 C23.0033202,32.214995 22.922469,32.1868424 22.8631771,32.1305362 C22.8038853,32.0742301 22.7742398,31.9951346 22.7742398,31.8932473 L22.7742398,26.7774578 C22.7742398,26.6862955 22.8052328,26.6112217 22.8672197,26.5522344 C22.9292066,26.493247 23.0087104,26.4637537 23.1057334,26.4637537 C23.2081466,26.4637537 23.2876504,26.4919064 23.3442471,26.5482125 C23.4008439,26.6045187 23.4291418,26.680933 23.4291418,26.7774578 L23.4291418,28.8849057 C23.5585058,28.6489561 23.7390737,28.4693154 23.9708509,28.3459782 C24.2026281,28.2226409 24.4667423,28.1609732 24.7632015,28.1609732 C25.2267558,28.1609732 25.5771114,28.2910116 25.8142788,28.5510924 Z M31.900196,31.9817279 C31.6172122,31.8154907 31.3989137,31.5795447 31.245294,31.2738828 C31.0916742,30.9682209 31.0148655,30.6143019 31.0148655,30.2121152 C31.0148655,29.8099285 31.0943693,29.4533283 31.2533792,29.1423039 C31.4123891,28.8312795 31.6347302,28.5899711 31.920409,28.4183714 C32.2060879,28.2467717 32.5348831,28.1609732 32.9068046,28.1609732 C33.111631,28.1609732 33.3151067,28.1891258 33.517238,28.245432 C33.7193692,28.3017381 33.8958946,28.3835149 34.0468192,28.4907646 C34.1438422,28.5551145 34.2125658,28.6181228 34.2529921,28.6797915 C34.2934183,28.7414601 34.3136312,28.8098308 34.3136312,28.8849057 C34.3136312,28.9599805 34.2934183,29.0216482 34.2529921,29.0699106 C34.2125658,29.118173 34.1600125,29.1423039 34.0953305,29.1423039 C34.0575993,29.1423039 34.0171737,29.1315791 33.9740523,29.1101291 C33.930931,29.0886791 33.8945479,29.0672295 33.864902,29.0457795 C33.8352561,29.0243296 33.8150433,29.0109236 33.8042629,29.0055611 C33.6641186,28.9143987 33.530714,28.8420062 33.404045,28.7883813 C33.2773761,28.7347564 33.1224111,28.7079444 32.9391455,28.7079444 C32.5456633,28.7079444 32.2397759,28.840664 32.0214741,29.1061072 C31.8031724,29.3715505 31.6940231,29.7402161 31.6940231,30.2121152 C31.6940231,30.6840143 31.8031724,31.0486581 32.0214741,31.3060576 C32.2397759,31.5634571 32.5456633,31.6921549 32.9391455,31.6921549 C33.1224111,31.6921549 33.2800712,31.6653429 33.4121302,31.611718 C33.5441893,31.5580931 33.677594,31.4857006 33.8123481,31.3945382 C33.87164,31.3570008 33.9282359,31.3248264 33.9821376,31.2980139 C34.0360392,31.2712015 34.081855,31.2577954 34.1195861,31.2577954 C34.178878,31.2577954 34.2287363,31.2819263 34.2691625,31.3301887 C34.3095888,31.3784511 34.3298016,31.4401188 34.3298016,31.5151936 C34.3298016,31.584906 34.3109363,31.6479143 34.2732051,31.7042205 C34.2354739,31.7605266 34.1654028,31.8235349 34.0629897,31.8932473 C33.912065,31.9951346 33.7301496,32.0769113 33.517238,32.1385799 C33.3043264,32.2002486 33.0900705,32.2310824 32.8744638,32.2310824 C32.5079324,32.2310824 32.1831797,32.1479651 31.900196,31.9817279 Z M36.6713682,31.9817279 C36.3883845,31.8154907 36.170086,31.5782041 36.0164662,31.269861 C35.8628465,30.9615178 35.7860377,30.603577 35.7860377,30.1960278 C35.7860377,29.7884786 35.8628465,29.4305378 36.0164662,29.1221946 C36.170086,28.8138515 36.3883845,28.5765649 36.6713682,28.4103277 C36.954352,28.2440905 37.2817997,28.1609732 37.6537212,28.1609732 C38.0256428,28.1609732 38.354438,28.2440905 38.6401169,28.4103277 C38.9257957,28.5765649 39.1454417,28.8138515 39.2990615,29.1221946 C39.4526812,29.4305378 39.52949,29.7884786 39.52949,30.1960278 C39.52949,30.603577 39.4526812,30.9615178 39.2990615,31.269861 C39.1454417,31.5782041 38.9257957,31.8154907 38.6401169,31.9817279 C38.354438,32.1479651 38.0256428,32.2310824 37.6537212,32.2310824 C37.2817997,32.2310824 36.954352,32.1479651 36.6713682,31.9817279 Z M38.5471369,31.3100794 C38.7546584,31.0553612 38.8584175,30.6840144 38.8584175,30.1960278 C38.8584175,29.7187662 38.7533109,29.3501006 38.5430943,29.0900199 C38.3328778,28.8299391 38.0364231,28.6999007 37.6537212,28.6999007 C37.2710194,28.6999007 36.9745647,28.8299391 36.7643481,29.0900199 C36.5541316,29.3501006 36.449025,29.7187662 36.449025,30.1960278 C36.449025,30.6786519 36.5527841,31.0486581 36.7603055,31.3060576 C36.967827,31.5634571 37.2656292,31.6921549 37.6537212,31.6921549 C38.0418133,31.6921549 38.3396155,31.5647977 38.5471369,31.3100794 Z M41.4991369,32.1305362 C41.43715,32.0742301 41.406157,31.9951346 41.406157,31.8932473 L41.406157,26.7855015 C41.406157,26.6836142 41.43715,26.6045187 41.4991369,26.5482125 C41.5611239,26.4919064 41.6406276,26.4637537 41.7376506,26.4637537 C41.8292835,26.4637537 41.9060922,26.4919064 41.9680791,26.5482125 C42.030066,26.6045187 42.061059,26.6836142 42.061059,26.7855015 L42.061059,31.8932473 C42.061059,31.9951346 42.030066,32.0742301 41.9680791,32.1305362 C41.9060922,32.1868424 41.8292835,32.214995 41.7376506,32.214995 C41.6406276,32.214995 41.5611239,32.1868424 41.4991369,32.1305362 Z M44.2732623,32.1305362 C44.2112754,32.0742301 44.1802824,31.9951346 44.1802824,31.8932473 L44.1802824,26.7855015 C44.1802824,26.6836142 44.2112754,26.6045187 44.2732623,26.5482125 C44.3352492,26.4919064 44.414753,26.4637537 44.511776,26.4637537 C44.6034089,26.4637537 44.6802176,26.4919064 44.7422045,26.5482125 C44.8041914,26.6045187 44.8351844,26.6836142 44.8351844,26.7855015 L44.8351844,31.8932473 C44.8351844,31.9951346 44.8041914,32.0742301 44.7422045,32.1305362 C44.6802176,32.1868424 44.6034089,32.214995 44.511776,32.214995 C44.414753,32.214995 44.3352492,32.1868424 44.2732623,32.1305362 Z M50.042958,29.7053625 L50.042958,31.8932473 C50.042958,31.9897721 50.0146601,32.067527 49.9580633,32.1265144 C49.9014665,32.1855018 49.8246578,32.214995 49.7276348,32.214995 C49.6306118,32.214995 49.5524556,32.1855018 49.4931637,32.1265144 C49.4338719,32.067527 49.4042264,31.9897721 49.4042264,31.8932473 L49.4042264,31.50715 C49.3018132,31.737737 49.1455007,31.9160371 48.9352842,32.0420556 C48.7250677,32.1680741 48.4825139,32.2310824 48.2076153,32.2310824 C47.9542775,32.2310824 47.7211563,32.1801395 47.5082447,32.0782522 C47.2953331,31.9763649 47.1268929,31.8342611 47.0029191,31.6519364 C46.8789452,31.4696118 46.8169592,31.2685215 46.8169592,31.0486594 C46.8169592,30.7537225 46.8924204,30.5244795 47.0433451,30.3609235 C47.1942698,30.1973676 47.4422137,30.0793946 47.7871844,30.007001 C48.1321551,29.9346074 48.6118728,29.8984111 49.2263518,29.8984111 L49.4042264,29.8984111 L49.4042264,29.6329692 C49.4042264,29.3112198 49.3381979,29.0752738 49.2061388,28.9251241 C49.0740797,28.7749744 48.8598238,28.6999007 48.5633646,28.6999007 C48.1968332,28.6999007 47.8249173,28.7991053 47.4476056,28.9975174 C47.3020711,29.0886797 47.1996595,29.1342602 47.1403676,29.1342602 C47.0756856,29.1342602 47.0217848,29.1101293 46.9786634,29.0618669 C46.9355421,29.0136045 46.9139817,28.9519368 46.9139817,28.876862 C46.9139817,28.8017871 46.9368896,28.7360976 46.982706,28.6797915 C47.0285224,28.6234853 47.1026361,28.5658394 47.2050493,28.506852 C47.3937051,28.3996022 47.6079611,28.3151443 47.8478235,28.2534757 C48.0876859,28.191807 48.3261972,28.1609732 48.5633646,28.1609732 C49.5497651,28.1609732 50.042958,28.6757645 50.042958,29.7053625 Z M49.0929458,31.3905164 C49.3004673,31.1733356 49.4042264,30.8931497 49.4042264,30.5499503 L49.4042264,30.3166832 L49.2586926,30.3166832 C48.7843579,30.3166832 48.4232222,30.3367923 48.1752745,30.3770109 C47.9273268,30.4172296 47.7508015,30.4842597 47.6456932,30.5781033 C47.540585,30.6719468 47.4880316,30.8100289 47.4880316,30.9923535 C47.4880316,31.2014906 47.5648404,31.3744283 47.7184601,31.5111718 C47.8720799,31.6479153 48.0647755,31.716286 48.2965526,31.716286 C48.6199627,31.716286 48.8854244,31.6076972 49.0929458,31.3905164 Z M55.0324309,28.4103277 C55.2965491,28.5765649 55.5013724,28.8125109 55.6469069,29.1181728 C55.7924414,29.4238347 55.8652075,29.7777537 55.8652075,30.1799404 C55.8652075,30.5874896 55.7924414,30.9454304 55.6469069,31.2537736 C55.5013724,31.5621167 55.2965491,31.8020845 55.0324309,31.9736842 C54.7683127,32.1452839 54.4637729,32.2310824 54.1188022,32.2310824 C53.8115627,32.2310824 53.5434059,32.1640523 53.3143238,32.0299901 C53.0852417,31.8959278 52.9114114,31.7055623 52.7928278,31.4588878 L52.7928278,31.8932473 C52.7928278,31.9897721 52.7645298,32.067527 52.707933,32.1265144 C52.6513363,32.1855018 52.5718325,32.214995 52.4694194,32.214995 C52.3670062,32.214995 52.2861549,32.1855018 52.2268631,32.1265144 C52.1675712,32.067527 52.1379257,31.9897721 52.1379257,31.8932473 L52.1379257,26.7774578 C52.1379257,26.6862955 52.1675712,26.6112217 52.2268631,26.5522344 C52.2861549,26.493247 52.3670062,26.4637537 52.4694194,26.4637537 C52.5718325,26.4637537 52.6513363,26.4919064 52.707933,26.5482125 C52.7645298,26.6045187 52.7928278,26.680933 52.7928278,26.7774578 L52.7928278,28.9331678 C52.9114114,28.6864933 53.0852417,28.4961278 53.3143238,28.3620655 C53.5434059,28.2280033 53.8115627,28.1609732 54.1188022,28.1609732 C54.4637729,28.1609732 54.7683127,28.2440905 55.0324309,28.4103277 Z M54.8788119,31.2939921 C55.0890284,31.0285488 55.1941351,30.657202 55.1941351,30.1799404 C55.1941351,29.7134038 55.0890284,29.3514412 54.8788119,29.0940417 C54.6685954,28.8366422 54.3721407,28.7079444 53.9894388,28.7079444 C53.606737,28.7079444 53.3116298,28.8366422 53.1041083,29.0940417 C52.8965869,29.3514412 52.7928278,29.7187662 52.7928278,30.1960278 C52.7928278,30.6732894 52.8965869,31.041955 53.1041083,31.3020357 C53.3116298,31.5621165 53.606737,31.6921549 53.9894388,31.6921549 C54.3721407,31.6921549 54.6685954,31.5594353 54.8788119,31.2939921 Z M58.392734,31.9817279 C58.1097503,31.8154907 57.8914518,31.5782041 57.737832,31.269861 C57.5842123,30.9615178 57.5074035,30.603577 57.5074035,30.1960278 C57.5074035,29.7884786 57.5842123,29.4305378 57.737832,29.1221946 C57.8914518,28.8138515 58.1097503,28.5765649 58.392734,28.4103277 C58.6757178,28.2440905 59.0031655,28.1609732 59.375087,28.1609732 C59.7470086,28.1609732 60.0758038,28.2440905 60.3614827,28.4103277 C60.6471615,28.5765649 60.8668075,28.8138515 61.0204273,29.1221946 C61.174047,29.4305378 61.2508558,29.7884786 61.2508558,30.1960278 C61.2508558,30.603577 61.174047,30.9615178 61.0204273,31.269861 C60.8668075,31.5782041 60.6471615,31.8154907 60.3614827,31.9817279 C60.0758038,32.1479651 59.7470086,32.2310824 59.375087,32.2310824 C59.0031655,32.2310824 58.6757178,32.1479651 58.392734,31.9817279 Z M60.2685027,31.3100794 C60.4760242,31.0553612 60.5797833,30.6840144 60.5797833,30.1960278 C60.5797833,29.7187662 60.4746766,29.3501006 60.2644601,29.0900199 C60.0542436,28.8299391 59.7577889,28.6999007 59.375087,28.6999007 C58.9923852,28.6999007 58.6959304,28.8299391 58.4857139,29.0900199 C58.2754974,29.3501006 58.1703907,29.7187662 58.1703907,30.1960278 C58.1703907,30.6786519 58.2741499,31.0486581 58.4816713,31.3060576 C58.6891928,31.5634571 58.986995,31.6921549 59.375087,31.6921549 C59.7631791,31.6921549 60.0609813,31.5647977 60.2685027,31.3100794 Z M65.4156372,28.4505462 C65.4156372,28.536346 65.3913819,28.6047167 65.3428704,28.6556604 C65.2943589,28.706604 65.2108125,28.7374379 65.0922288,28.7481629 L64.8496726,28.7722939 C64.4885314,28.8044689 64.2203746,28.9318261 64.0451942,29.1543694 C63.8700137,29.3769127 63.7824248,29.6383302 63.7824248,29.9386296 L63.7824248,31.8932473 C63.7824248,32.0004971 63.7527794,32.0809332 63.6934875,32.1345581 C63.6341957,32.188183 63.5560394,32.214995 63.4590164,32.214995 C63.3619934,32.214995 63.2824897,32.1868424 63.2205027,32.1305362 C63.1585158,32.0742301 63.1275228,31.9951346 63.1275228,31.8932473 L63.1275228,28.4988083 C63.1275228,28.396921 63.1598633,28.3178255 63.2245453,28.2615194 C63.2892273,28.2052132 63.3673836,28.1770606 63.4590164,28.1770606 C63.5452591,28.1770606 63.6180253,28.2052132 63.6773171,28.2615194 C63.7366089,28.3178255 63.7662544,28.3942398 63.7662544,28.4907646 L63.7662544,28.9412115 C63.8794479,28.705262 64.039803,28.5256213 64.2473244,28.402284 C64.4548458,28.2789468 64.6933571,28.2065542 64.9628655,28.1851043 L65.0760584,28.1770606 C65.3024454,28.1609731 65.4156372,28.2521341 65.4156372,28.4505462 Z M69.936168,29.7053625 L69.936168,31.8932473 C69.936168,31.9897721 69.90787,32.067527 69.8512733,32.1265144 C69.7946765,32.1855018 69.7178678,32.214995 69.6208448,32.214995 C69.5238218,32.214995 69.4456655,32.1855018 69.3863737,32.1265144 C69.3270819,32.067527 69.2974364,31.9897721 69.2974364,31.8932473 L69.2974364,31.50715 C69.1950232,31.737737 69.0387107,31.9160371 68.8284942,32.0420556 C68.6182777,32.1680741 68.3757238,32.2310824 68.1008253,32.2310824 C67.8474875,32.2310824 67.6143663,32.1801395 67.4014547,32.0782522 C67.1885431,31.9763649 67.0201029,31.8342611 66.896129,31.6519364 C66.7721552,31.4696118 66.7101692,31.2685215 66.7101692,31.0486594 C66.7101692,30.7537225 66.7856304,30.5244795 66.9365551,30.3609235 C67.0874798,30.1973676 67.3354237,30.0793946 67.6803944,30.007001 C68.0253651,29.9346074 68.5050827,29.8984111 69.1195618,29.8984111 L69.2974364,29.8984111 L69.2974364,29.6329692 C69.2974364,29.3112198 69.2314078,29.0752738 69.0993488,28.9251241 C68.9672897,28.7749744 68.7530337,28.6999007 68.4565746,28.6999007 C68.0900432,28.6999007 67.7181273,28.7991053 67.3408156,28.9975174 C67.1952811,29.0886797 67.0928694,29.1342602 67.0335776,29.1342602 C66.9688956,29.1342602 66.9149947,29.1101293 66.8718734,29.0618669 C66.8287521,29.0136045 66.8071917,28.9519368 66.8071917,28.876862 C66.8071917,28.8017871 66.8300996,28.7360976 66.875916,28.6797915 C66.9217324,28.6234853 66.9958461,28.5658394 67.0982593,28.506852 C67.2869151,28.3996022 67.501171,28.3151443 67.7410335,28.2534757 C67.9808959,28.191807 68.2194072,28.1609732 68.4565746,28.1609732 C69.4429751,28.1609732 69.936168,28.6757645 69.936168,29.7053625 Z M68.9861558,31.3905164 C69.1936772,31.1733356 69.2974364,30.8931497 69.2974364,30.5499503 L69.2974364,30.3166832 L69.1519026,30.3166832 C68.6775679,30.3166832 68.3164322,30.3367923 68.0684845,30.3770109 C67.8205368,30.4172296 67.6440115,30.4842597 67.5389032,30.5781033 C67.433795,30.6719468 67.3812416,30.8100289 67.3812416,30.9923535 C67.3812416,31.2014906 67.4580504,31.3744283 67.6116701,31.5111718 C67.7652899,31.6479153 67.9579855,31.716286 68.1897626,31.716286 C68.5131726,31.716286 68.7786344,31.6076972 68.9861558,31.3905164 Z M74.1332903,31.9575968 C74.1332903,32.0487591 74.0996023,32.1171299 74.0322252,32.162711 C73.9648481,32.2082922 73.863784,32.22572 73.7290298,32.214995 L73.5107292,32.1989076 C73.0795158,32.1667327 72.7615007,32.0380349 72.5566744,31.8128103 C72.351848,31.5875858 72.2494364,31.2470728 72.2494364,30.7912612 L72.2494364,28.7722939 L71.7077273,28.7722939 C71.6160945,28.7722939 71.5446758,28.7495037 71.4934693,28.7039225 C71.4422627,28.6583414 71.4166598,28.5980143 71.4166598,28.5229394 C71.4166598,28.4425021 71.4422627,28.3781532 71.4934693,28.3298908 C71.5446758,28.2816284 71.6160945,28.2574975 71.7077273,28.2574975 L72.2494364,28.2574975 L72.2494364,27.3485601 C72.2494364,27.2466728 72.2790819,27.1675772 72.3383737,27.1112711 C72.3976655,27.054965 72.4785168,27.0268123 72.58093,27.0268123 C72.677953,27.0268123 72.7561093,27.054965 72.8154011,27.1112711 C72.8746929,27.1675772 72.9043384,27.2466728 72.9043384,27.3485601 L72.9043384,28.2574975 L73.8017967,28.2574975 C73.8880394,28.2574975 73.956763,28.2816284 74.0079696,28.3298908 C74.0591762,28.3781532 74.0847791,28.4425021 74.0847791,28.5229394 C74.0847791,28.5980143 74.0591762,28.6583414 74.0079696,28.7039225 C73.956763,28.7495037 73.8880394,28.7722939 73.8017967,28.7722939 L72.9043384,28.7722939 L72.9043384,30.8234359 C72.9043384,31.1183729 72.9649769,31.3315286 73.0862556,31.4629096 C73.2075344,31.5942906 73.3894498,31.6680238 73.6320073,31.6841112 L73.850308,31.7001986 C74.0389638,31.7162861 74.1332903,31.8020846 74.1332903,31.9575968 Z M75.7714437,32.1305362 C75.7094568,32.0742301 75.6784638,31.9951346 75.6784638,31.8932473 L75.6784638,28.4988083 C75.6784638,28.396921 75.7094568,28.3178255 75.7714437,28.2615194 C75.8334306,28.2052132 75.9129344,28.1770606 76.0099574,28.1770606 C76.1069804,28.1770606 76.1851366,28.2052132 76.2444285,28.2615194 C76.3037203,28.3178255 76.3333658,28.396921 76.3333658,28.4988083 L76.3333658,31.8932473 C76.3333658,32.0004971 76.3037203,32.0809332 76.2444285,32.1345581 C76.1851366,32.188183 76.1069804,32.214995 76.0099574,32.214995 C75.9129344,32.214995 75.8334306,32.1868424 75.7714437,32.1305362 Z M75.6946342,27.219861 C75.6137817,27.1447861 75.5733561,27.0455816 75.5733561,26.9222443 C75.5733561,26.8042695 75.6137817,26.7077462 75.6946342,26.6326713 C75.7754867,26.5575964 75.8805934,26.5200596 76.0099574,26.5200596 C76.1393214,26.5200596 76.2444281,26.5575964 76.3252806,26.6326713 C76.4061331,26.7077462 76.4465587,26.8042695 76.4465587,26.9222443 C76.4465587,27.0455816 76.4061331,27.1447861 76.3252806,27.219861 C76.2444281,27.2949358 76.1393214,27.3324727 76.0099574,27.3324727 C75.8805934,27.3324727 75.7754867,27.2949358 75.6946342,27.219861 Z M81.5734802,28.1851043 C81.6543327,28.1851043 81.7270989,28.2119163 81.7917809,28.2655412 C81.8564629,28.3191661 81.8888034,28.3861962 81.8888034,28.4666336 C81.8888034,28.514896 81.8780232,28.5577952 81.8564626,28.5953327 L80.2798466,31.9736842 C80.2475056,32.0433966 80.1989948,32.0983613 80.1343128,32.1385799 C80.0696308,32.1787986 79.9995597,32.1989076 79.9240974,32.1989076 C79.8540252,32.1989076 79.7866491,32.1787986 79.7219671,32.1385799 C79.6572851,32.0983613 79.6060793,32.0433966 79.5683481,31.9736842 L77.9998174,28.5953327 C77.9782567,28.5577952 77.9674766,28.5175772 77.9674766,28.4746773 C77.9674766,28.3942399 78.0038596,28.3245286 78.0766269,28.2655412 C78.1493942,28.2065538 78.2288979,28.1770606 78.3151406,28.1770606 C78.3690423,28.1770606 78.4215956,28.1931478 78.4728022,28.2253227 C78.5240088,28.2574977 78.5630869,28.3030782 78.5900377,28.3620655 L79.9402678,31.3784508 L81.2904979,28.3781529 C81.3497897,28.2494532 81.4441162,28.1851043 81.5734802,28.1851043 Z M86.7084869,31.3382324 C86.7516082,31.3864948 86.7731686,31.4481625 86.7731686,31.5232373 C86.7731686,31.6572996 86.6788421,31.780635 86.4901862,31.8932473 C86.2961402,32.0058596 86.091317,32.0903175 85.8757103,32.1466236 C85.6601036,32.2029298 85.4498903,32.2310824 85.2450639,32.2310824 C84.635975,32.2310824 84.1549099,32.0514417 83.8018539,31.6921549 C83.448798,31.3328681 83.2722727,30.8368453 83.2722727,30.2040715 C83.2722727,29.8018848 83.3504289,29.4466252 83.5067438,29.138282 C83.6630586,28.8299389 83.8827046,28.5899711 84.1656884,28.4183714 C84.4486721,28.2467717 84.7707298,28.1609732 85.131871,28.1609732 C85.6439368,28.1609732 86.0508883,28.3272079 86.3527377,28.6596822 C86.654587,28.9921566 86.8055094,29.4425989 86.8055094,30.0110228 C86.8055094,30.1182726 86.7839491,30.1960276 86.7408278,30.24429 C86.6977064,30.2925524 86.6276353,30.3166832 86.5306123,30.3166832 L83.9271747,30.3166832 C83.9756862,31.2390314 84.4149782,31.7001986 85.2450639,31.7001986 C85.4552804,31.7001986 85.6358483,31.672046 85.786773,31.6157398 C85.9376977,31.5594337 86.0994002,31.4830194 86.2718856,31.3864945 C86.4120299,31.3060572 86.5063564,31.2658391 86.5548679,31.2658391 C86.6141598,31.2658391 86.6653656,31.28997 86.7084869,31.3382324 Z M84.3112222,28.9894737 C84.1037007,29.2039733 83.9810763,29.5069494 83.9433451,29.8984111 L86.2314595,29.8984111 C86.2206792,29.5015869 86.1209626,29.1972702 85.9323068,28.9854518 C85.7436509,28.7736335 85.4795367,28.6677259 85.1399562,28.6677259 C84.7949855,28.6677259 84.5187436,28.7749741 84.3112222,28.9894737 Z" id="youth-collaborative"></path>
                </g>
            </g>
        </g>
    </g>
</svg>