<?xml version="1.0" encoding="UTF-8"?>
<svg width="105px" height="25px" viewBox="0 0 105 25" version="1.1" xmlns="http://www.w3.org/2000/svg" xmlns:xlink="http://www.w3.org/1999/xlink">
    <!-- Generator: Sketch 50 (54983) - http://www.bohemiancoding.com/sketch -->
    <title>cyc-logo-full-color</title>
    <desc>Created with Sketch.</desc>
    <defs></defs>
    <g id="Page-1" stroke="none" stroke-width="1" fill="none" fill-rule="evenodd">
        <g id="Schedule" transform="translate(-48.000000, -34.000000)" fill="#00BAEF">
            <g id="header">
                <g id="cyc-logo-full-color" transform="translate(48.069444, 34.000000)">
                    <path d="M22.8595789,0.584526784 C26.4845676,1.73662829 29.5711899,4.54043909 31.1287065,8.80537255 L38.4694121,8.80537255 C38.6940133,8.7907255 38.8888889,8.99739225 38.8888889,9.21870188 C38.8888889,9.42536446 38.6940133,9.63203121 38.4694121,9.61738416 L30.8593965,9.61738416 C30.6793858,9.61738416 30.5142358,9.49859139 30.4696453,9.33749048 C29.0163437,5.13083696 26.0503401,2.47345502 22.5903196,1.3815914 C19.1302992,0.289727771 15.1303904,0.77625487 11.6395071,2.97468749 C11.4594964,3.13741725 11.1308621,3.09348026 10.9954461,2.88681351 C10.8600259,2.69479381 10.9657206,2.38562269 11.1903217,2.28147698 C14.3809899,0.156237966 18.8299319,-0.655765306 22.8598579,0.584235176 L22.8595789,0.584526784 Z M19.4978135,7.21153846 C22.5381839,7.21153846 24.9956271,9.60201577 24.9956271,12.5554631 C24.9956271,15.5073275 22.5382262,17.9139682 19.4978135,17.9139682 C16.472325,17.9139682 14,15.5072442 14,12.5554631 C14,9.60359879 16.4722827,7.21153846 19.4978135,7.21153846 Z M8.11851352,15.3748839 C8.25393375,15.4041739 8.38770514,15.5229666 8.43229561,15.6547735 C9.8707154,19.861427 12.8368036,22.5333893 16.296824,23.6106725 C19.7715572,24.7025778 23.7567533,24.2160091 27.2476365,22.0305738 C27.4276472,21.8532012 27.7562815,21.8971382 27.8916975,22.1038008 C28.0271178,22.3104633 27.9214231,22.6049916 27.6968219,22.7091373 C24.0123906,25.0263793 19.7566162,25.5731443 16.0425057,24.4063791 C12.4026353,23.2542776 9.33089471,20.4504668 7.77337817,16.2001137 L0.432671668,16.2001137 C0.209723576,16.2017426 0,16.0097229 0,15.7884132 C0,15.5817506 0.209736259,15.3750839 0.434320505,15.3750839 L8.11851352,15.3748839 Z" id="Combined-Shape"></path>
                    <g id="Group-5" transform="translate(46.527778, 1.388889)">
                        <path d="M2.75914413,11.1462327 C1.87060174,10.6663231 1.18861673,9.98517123 0.713168609,9.10275673 C0.237720492,8.22034223 0,7.18313372 0,5.99110009 C0,4.79906647 0.253308721,3.75024742 0.759933764,2.84461148 C1.26655881,1.93897554 1.97972028,1.23847278 2.89943959,0.743082182 C3.8191589,0.247691584 4.87915847,0 6.07947011,0 C6.70300862,0 7.33043484,0.0851439819 7.96176759,0.2554345 C8.59310033,0.425725018 9.15817363,0.66567624 9.65700444,0.975295364 C10.1402468,1.26943353 10.3818643,1.7028938 10.3818643,2.27568918 C10.3818643,2.67819404 10.288335,3.00715943 10.1012734,3.26259521 C9.91421186,3.51803098 9.66480019,3.64574696 9.35303094,3.64574696 C9.15038092,3.64574696 8.95942511,3.61091533 8.78015779,3.54125102 C8.60089047,3.47158672 8.36316998,3.36709183 8.06698918,3.22776323 C7.73963146,3.05747271 7.44735217,2.92588656 7.19014253,2.83300082 C6.9329329,2.74011508 6.6406536,2.69367291 6.31329588,2.69367291 C5.44034196,2.69367291 4.77394517,2.96845576 4.31408552,3.51802971 C3.85422587,4.06760365 3.62429949,4.86873112 3.62429949,5.92143614 C3.62429949,6.97414116 3.85422587,7.77913881 4.31408552,8.33645323 C4.77394517,8.89376765 5.44034196,9.17242068 6.31329588,9.17242068 C6.6406536,9.17242068 6.92903584,9.12984869 7.17845124,9.04470343 C7.42786665,8.95955818 7.73183712,8.82410184 8.09037176,8.63833037 C8.38655255,8.49900176 8.62037599,8.39450687 8.79184908,8.32484257 C8.96332217,8.25517827 9.15038092,8.22034664 9.35303094,8.22034664 C9.64921173,8.22034664 9.89472634,8.35193279 10.0895821,8.61510905 C10.2844379,8.8782853 10.3818643,9.21112087 10.3818643,9.61362573 C10.3818643,10.1864211 10.1402468,10.612141 9.65700444,10.8907982 C9.15817363,11.2004174 8.58140916,11.4403686 7.92669372,11.6106591 C7.27197828,11.7809496 6.5860962,11.8660936 5.86902691,11.8660936 C4.68430374,11.8660936 3.64768651,11.6261424 2.75914413,11.1462327 Z M21.9596344,0.359930432 C22.2324325,0.599885253 22.3688295,0.959812086 22.3688295,1.43972173 C22.3688295,1.95059328 22.2441236,2.32987102 21.9947082,2.57756632 C21.7452928,2.82526162 21.3010283,2.98006886 20.6619013,3.04199268 L19.960424,3.11165664 C19.1030586,3.20454237 18.4834264,3.48319541 18.1015091,3.94762409 C17.7195918,4.41205278 17.528636,5.00806065 17.528636,5.73566559 L17.528636,10.1709374 C17.528636,10.7127708 17.3610625,11.12301 17.0259106,11.4016672 C16.6907586,11.6803244 16.2737735,11.819651 15.7749427,11.819651 C15.2605234,11.819651 14.8357441,11.6803244 14.5005922,11.4016672 C14.1654402,11.12301 13.9978668,10.7127708 13.9978668,10.1709374 L13.9978668,1.64871359 C13.9978668,1.13784204 14.1693373,0.743083575 14.5122835,0.464426364 C14.8552297,0.185769152 15.2683177,0.0464426364 15.7515601,0.0464426364 C16.219214,0.0464426364 16.6089197,0.181898971 16.920689,0.452815705 C17.2324582,0.723732438 17.3883405,1.09913999 17.3883405,1.57904964 L17.3883405,2.20602523 C17.6689328,1.54034411 18.0937121,1.02948022 18.662691,0.673418227 C19.2316699,0.317356235 19.851302,0.116106823 20.5216059,0.0696639546 L20.8489619,0.0464426364 C21.3166158,0.015480724 21.6868363,0.119975611 21.9596344,0.359930432 Z M34.9988155,8.66155168 C35.1936713,8.90924698 35.2910977,9.22660183 35.2910977,9.61362573 C35.2910977,9.87680199 35.2131566,10.1206234 35.0572719,10.3450973 C34.9013873,10.5695711 34.6831521,10.75921 34.4025598,10.9140195 C33.872552,11.1926768 33.256817,11.4210174 32.5553362,11.5990484 C31.8538553,11.7770794 31.2069438,11.8660936 30.6145822,11.8660936 C29.3675052,11.8660936 28.2802262,11.6261424 27.3527127,11.1462327 C26.4251992,10.6663231 25.7120377,9.98130105 25.2132069,9.09114607 C24.7143761,8.20099109 24.4649644,7.15217204 24.4649644,5.94465746 C24.4649644,4.78358574 24.7065819,3.7541176 25.1898243,2.85622214 C25.6730666,1.95832668 26.3433605,1.25782392 27.2007259,0.754692841 C28.0580914,0.251561765 29.0323557,0 30.1235481,0 C31.1679751,0 32.0837836,0.228340679 32.8710009,0.685028887 C33.6582183,1.14171709 34.2700563,1.7919075 34.7065333,2.63561961 C35.1430102,3.47933173 35.3612454,4.46622788 35.3612454,5.59633768 C35.3612454,5.93691872 35.2794072,6.19622085 35.1157284,6.37425184 C34.9520495,6.55228284 34.7221231,6.641297 34.4259423,6.641297 L27.8788207,6.641297 C27.9879399,7.55467342 28.268528,8.21647437 28.7205935,8.62671971 C29.1726589,9.03696505 29.8195704,9.24208464 30.6613474,9.24208464 C31.1134128,9.24208464 31.5187068,9.18790211 31.8772414,9.07953541 C32.2357761,8.97116872 32.6332759,8.82410184 33.0697529,8.63833037 C33.2879913,8.54544463 33.4984324,8.46417083 33.7010824,8.39450653 C33.9037325,8.32484222 34.0829971,8.29001059 34.2388817,8.29001059 C34.550651,8.29001059 34.8039597,8.41385639 34.9988155,8.66155168 Z M28.6036806,3.05360334 C28.1983805,3.47932964 27.956763,4.09468842 27.8788207,4.89969814 L32.3916581,4.89969814 C32.3448927,4.07920746 32.1383487,3.4599785 31.7720198,3.04199268 C31.4056909,2.62400687 30.8873823,2.41501709 30.2170784,2.41501709 C29.5467745,2.41501709 29.0089806,2.62787705 28.6036806,3.05360334 Z M55.3918172,0.325098455 C55.6412326,0.154807936 55.9062325,0.0696639546 56.1868248,0.0696639546 C56.6233018,0.0696639546 57.0130075,0.216730832 57.3559537,0.510869 C57.6988999,0.805007168 57.8703704,1.16880418 57.8703704,1.60227096 C57.8703704,1.78804243 57.8236057,1.9970322 57.7300749,2.22924655 L53.8953322,10.7746916 C53.7550361,11.1152727 53.5290067,11.3745748 53.2172375,11.5526058 C52.9054682,11.7306368 52.5781154,11.819651 52.2351692,11.819651 C51.8766346,11.819651 51.5453847,11.7306368 51.2414097,11.5526058 C50.9374347,11.3745748 50.7153024,11.1152727 50.5750062,10.7746916 L48.0730705,4.99258341 L45.664665,10.7746916 C45.5243688,11.1152727 45.3061336,11.3745748 45.0099528,11.5526058 C44.713772,11.7306368 44.3786251,11.819651 44.004502,11.819651 C43.6459674,11.819651 43.3108204,11.7306368 42.9990512,11.5526058 C42.6872819,11.3745748 42.4612526,11.1152727 42.3209564,10.7746916 L38.5095963,2.22924655 C38.4160656,2.01251316 38.3693009,1.80352339 38.3693009,1.60227096 C38.3693009,1.16880418 38.5524626,0.805007168 38.9187914,0.510869 C39.2851203,0.216730832 39.7021054,0.0696639546 40.1697593,0.0696639546 C40.4815286,0.0696639546 40.7660138,0.154807936 41.0232234,0.325098455 C41.280433,0.495388973 41.479183,0.743080557 41.6194791,1.06818064 L44.1214149,7.31471523 L46.6701158,1.11462327 C46.810412,0.789523193 47.016956,0.537961428 47.2897541,0.359930432 C47.5625522,0.181899436 47.8626256,0.0928852728 48.1899834,0.0928852728 C48.5173411,0.0928852728 48.8213115,0.178029255 49.1019039,0.348319773 C49.3824962,0.518610291 49.5929373,0.774042237 49.7332335,1.11462327 L52.3286995,7.31471523 L54.8072527,1.06818064 C54.9475489,0.743080557 55.1424018,0.495388973 55.3918172,0.325098455 Z" id="crew"></path>
                        <path d="M4.13715278,18.1241379 C4.18923637,18.1241379 4.2361109,18.1413791 4.27777778,18.1758621 C4.31944465,18.210345 4.34027778,18.253448 4.34027778,18.3051724 C4.34027778,18.3362071 4.3333334,18.363793 4.31944444,18.387931 L2.85590278,21.5224138 C2.83854158,21.560345 2.81336822,21.5896551 2.78038194,21.6103448 C2.74739567,21.6310346 2.71354184,21.6413793 2.67881944,21.6413793 C2.62673585,21.6413793 2.58072937,21.6250002 2.54079861,21.5922414 C2.50086786,21.5594826 2.48090278,21.5172416 2.48090278,21.4655172 C2.48090278,21.4379309 2.48784715,21.410345 2.50173611,21.3827586 L2.86631944,20.6017241 L1.83506944,18.387931 C1.82118049,18.363793 1.81423611,18.3379312 1.81423611,18.3103448 C1.81423611,18.2586204 1.83767338,18.2137933 1.88454861,18.1758621 C1.93142385,18.1379308 1.98263861,18.1189655 2.03819444,18.1189655 C2.07291684,18.1189655 2.10677067,18.1293102 2.13975694,18.15 C2.17274322,18.1706898 2.19791658,18.1999998 2.21527778,18.237931 L3.08506944,20.1775862 L3.95486111,18.2482759 C3.99305575,18.1655168 4.05381903,18.1241379 4.13715278,18.1241379 Z M5.77054398,20.5655172 C5.5882514,20.4586202 5.44762781,20.3060355 5.34866898,20.1077586 C5.24971015,19.9094818 5.20023148,19.6793117 5.20023148,19.4172414 C5.20023148,19.1551711 5.24971015,18.925001 5.34866898,18.7267241 C5.44762781,18.5284473 5.5882514,18.3758626 5.77054398,18.2689655 C5.95283656,18.1620684 6.16377195,18.1086207 6.40335648,18.1086207 C6.64294101,18.1086207 6.85474445,18.1620684 7.03877315,18.2689655 C7.22280185,18.3758626 7.36429349,18.5284473 7.46325231,18.7267241 C7.56221114,18.925001 7.61168981,19.1551711 7.61168981,19.4172414 C7.61168981,19.6793117 7.56221114,19.9094818 7.46325231,20.1077586 C7.36429349,20.3060355 7.22280185,20.4586202 7.03877315,20.5655172 C6.85474445,20.6724143 6.64294101,20.7258621 6.40335648,20.7258621 C6.16377195,20.7258621 5.95283656,20.6724143 5.77054398,20.5655172 Z M6.97887731,20.1336207 C7.11255854,19.9698268 7.17939815,19.7310361 7.17939815,19.4172414 C7.17939815,19.1103433 7.11169049,18.8732767 6.97627315,18.7060345 C6.8408558,18.5387923 6.64988549,18.4551724 6.40335648,18.4551724 C6.15682747,18.4551724 5.96585716,18.5387923 5.83043981,18.7060345 C5.69502247,18.8732767 5.62731481,19.1103433 5.62731481,19.4172414 C5.62731481,19.7275878 5.69415442,19.9655164 5.82783565,20.1310345 C5.96151687,20.2965526 6.15335523,20.3793103 6.40335648,20.3793103 C6.65335773,20.3793103 6.84519609,20.2974146 6.97887731,20.1336207 Z M10.901331,18.1758621 C10.9377895,18.2137933 10.9560185,18.2637928 10.9560185,18.3258621 L10.9560185,20.5137931 C10.9560185,20.5724141 10.9377895,20.6206895 10.901331,20.6586207 C10.8648725,20.6965519 10.8136577,20.7155172 10.7476852,20.7155172 C10.6851849,20.7155172 10.6357062,20.697414 10.5992477,20.6612069 C10.5627892,20.6249998 10.5445602,20.5775865 10.5445602,20.5189655 L10.5445602,20.2603448 C10.4646987,20.4120697 10.3527206,20.5275858 10.2086227,20.6068966 C10.0645247,20.6862073 9.90219998,20.7258621 9.72164352,20.7258621 C9.41955867,20.7258621 9.19213039,20.6422422 9.03935185,20.475 C8.88657331,20.3077578 8.81018519,20.0603465 8.81018519,19.7327586 L8.81018519,18.3258621 C8.81018519,18.2637928 8.82928222,18.2137933 8.86747685,18.1758621 C8.90567149,18.1379308 8.9577543,18.1189655 9.02372685,18.1189655 C9.0896994,18.1189655 9.14091417,18.1379308 9.17737269,18.1758621 C9.2138312,18.2137933 9.23206019,18.2637928 9.23206019,18.3258621 L9.23206019,19.7224138 C9.23206019,19.9465528 9.27719862,20.1112064 9.36747685,20.2163793 C9.45775508,20.3215522 9.60011477,20.3741379 9.79456019,20.3741379 C10.0167835,20.3741379 10.1956012,20.3025869 10.3310185,20.1594828 C10.4664359,20.0163786 10.5341435,19.8275874 10.5341435,19.5931034 L10.5341435,18.3258621 C10.5341435,18.2637928 10.5532405,18.2137933 10.5914352,18.1758621 C10.6296298,18.1379308 10.6817126,18.1189655 10.7476852,18.1189655 C10.8136577,18.1189655 10.8648725,18.1379308 10.901331,18.1758621 Z M13.6753472,20.55 C13.6753472,20.608621 13.6536461,20.6525861 13.6102431,20.6818966 C13.5668401,20.711207 13.5017365,20.7224138 13.4149306,20.7155172 L13.2743056,20.7051724 C12.9965264,20.6844827 12.7916673,20.6017249 12.6597222,20.4568966 C12.5277771,20.3120682 12.4618056,20.0931049 12.4618056,19.8 L12.4618056,18.5017241 L12.1128472,18.5017241 C12.0538191,18.5017241 12.0078127,18.4870691 11.9748264,18.4577586 C11.9418401,18.4284481 11.9253472,18.3896554 11.9253472,18.3413793 C11.9253472,18.2896549 11.9418401,18.248276 11.9748264,18.2172414 C12.0078127,18.1862067 12.0538191,18.1706897 12.1128472,18.1706897 L12.4618056,18.1706897 L12.4618056,17.5862069 C12.4618056,17.5206893 12.4809026,17.4698278 12.5190972,17.4336207 C12.5572919,17.3974136 12.6093747,17.3793103 12.6753472,17.3793103 C12.7378475,17.3793103 12.7881943,17.3974136 12.8263889,17.4336207 C12.8645835,17.4698278 12.8836806,17.5206893 12.8836806,17.5862069 L12.8836806,18.1706897 L13.4618056,18.1706897 C13.5173614,18.1706897 13.5616318,18.1862067 13.5946181,18.2172414 C13.6276043,18.248276 13.6440972,18.2896549 13.6440972,18.3413793 C13.6440972,18.3896554 13.6276043,18.4284481 13.5946181,18.4577586 C13.5616318,18.4870691 13.5173614,18.5017241 13.4618056,18.5017241 L12.8836806,18.5017241 L12.8836806,19.8206897 C12.8836806,20.0103458 12.9227427,20.1474134 13.0008681,20.2318966 C13.0789934,20.3163797 13.1961798,20.3637931 13.3524306,20.3741379 L13.4930556,20.3844828 C13.6145839,20.3948276 13.6753472,20.4499995 13.6753472,20.55 Z M16.6290509,18.3594828 C16.7818295,18.526725 16.8582176,18.7758604 16.8582176,19.1068966 L16.8582176,20.5086207 C16.8582176,20.5741383 16.8391206,20.6249998 16.8009259,20.6612069 C16.7627313,20.697414 16.7123846,20.7155172 16.6498843,20.7155172 C16.5839117,20.7155172 16.5318289,20.697414 16.4936343,20.6612069 C16.4554396,20.6249998 16.4363426,20.5741383 16.4363426,20.5086207 L16.4363426,19.1172414 C16.4363426,18.8931023 16.3903361,18.7275867 16.2983218,18.6206897 C16.2063074,18.5137926 16.0596075,18.4603448 15.8582176,18.4603448 C15.6255775,18.4603448 15.4398155,18.5310338 15.3009259,18.6724138 C15.1620363,18.8137938 15.0925926,19.0051712 15.0925926,19.2465517 L15.0925926,20.5086207 C15.0925926,20.5741383 15.0743636,20.6249998 15.0379051,20.6612069 C15.0014466,20.697414 14.9502318,20.7155172 14.8842593,20.7155172 C14.8182867,20.7155172 14.7662039,20.697414 14.7280093,20.6612069 C14.6898146,20.6249998 14.6707176,20.5741383 14.6707176,20.5086207 L14.6707176,17.2189655 C14.6707176,17.1603445 14.6906827,17.1120692 14.7306134,17.0741379 C14.7705442,17.0362067 14.8217589,17.0172414 14.8842593,17.0172414 C14.9502318,17.0172414 15.0014466,17.0353446 15.0379051,17.0715517 C15.0743636,17.1077588 15.0925926,17.1568962 15.0925926,17.2189655 L15.0925926,18.5741379 C15.1759263,18.422413 15.2922446,18.3068969 15.4415509,18.2275862 C15.5908572,18.1482755 15.7609944,18.1086207 15.9519676,18.1086207 C16.2505802,18.1086207 16.4762724,18.1922405 16.6290509,18.3594828 Z M20.5494792,20.5655172 C20.3671866,20.4586202 20.226563,20.3068975 20.1276042,20.1103448 C20.0286453,19.9137921 19.9791667,19.6862082 19.9791667,19.4275862 C19.9791667,19.1689642 20.0303814,18.9396562 20.1328125,18.7396552 C20.2352436,18.5396542 20.3784713,18.3844833 20.5625,18.2741379 C20.7465287,18.1637926 20.9583321,18.1086207 21.1979167,18.1086207 C21.3298618,18.1086207 21.4609368,18.126724 21.5911458,18.162931 C21.7213548,18.1991381 21.835069,18.2517238 21.9322917,18.3206897 C21.994792,18.3620692 22.0390624,18.402586 22.0651042,18.4422414 C22.091146,18.4818967 22.1041667,18.5258618 22.1041667,18.5741379 C22.1041667,18.622414 22.091146,18.6620688 22.0651042,18.6931034 C22.0390624,18.7241381 22.0052085,18.7396552 21.9635417,18.7396552 C21.939236,18.7396552 21.9131946,18.7327587 21.8854167,18.7189655 C21.8576388,18.7051723 21.8342015,18.6913794 21.8151042,18.6775862 C21.7960068,18.663793 21.7829861,18.6551724 21.7760417,18.6517241 C21.6857634,18.5931032 21.5998268,18.5465519 21.5182292,18.512069 C21.4366315,18.477586 21.3368061,18.4603448 21.21875,18.4603448 C20.9652765,18.4603448 20.7682299,18.5456888 20.6276042,18.7163793 C20.4869785,18.8870698 20.4166667,19.1241364 20.4166667,19.4275862 C20.4166667,19.731036 20.4869785,19.9655164 20.6276042,20.1310345 C20.7682299,20.2965526 20.9652765,20.3793103 21.21875,20.3793103 C21.3368061,20.3793103 21.4383676,20.3620691 21.5234375,20.3275862 C21.6085074,20.2931033 21.694444,20.246552 21.78125,20.187931 C21.8194446,20.163793 21.8559026,20.1431035 21.890625,20.1258621 C21.9253474,20.1086206 21.954861,20.1 21.9791667,20.1 C22.0173613,20.1 22.049479,20.1155171 22.0755208,20.1465517 C22.1015626,20.1775864 22.1145833,20.2172411 22.1145833,20.2655172 C22.1145833,20.3103451 22.1024307,20.3508619 22.078125,20.387069 C22.0538193,20.423276 22.0086809,20.4637929 21.9427083,20.5086207 C21.8454856,20.5741383 21.7282993,20.6267239 21.5911458,20.6663793 C21.4539924,20.7060347 21.3159729,20.7258621 21.1770833,20.7258621 C20.940971,20.7258621 20.7317717,20.6724143 20.5494792,20.5655172 Z M23.6229745,20.5655172 C23.440682,20.4586202 23.3000584,20.3060355 23.2010995,20.1077586 C23.1021407,19.9094818 23.052662,19.6793117 23.052662,19.4172414 C23.052662,19.1551711 23.1021407,18.925001 23.2010995,18.7267241 C23.3000584,18.5284473 23.440682,18.3758626 23.6229745,18.2689655 C23.8052671,18.1620684 24.0162025,18.1086207 24.255787,18.1086207 C24.4953716,18.1086207 24.707175,18.1620684 24.8912037,18.2689655 C25.0752324,18.3758626 25.216724,18.5284473 25.3156829,18.7267241 C25.4146417,18.925001 25.4641204,19.1551711 25.4641204,19.4172414 C25.4641204,19.6793117 25.4146417,19.9094818 25.3156829,20.1077586 C25.216724,20.3060355 25.0752324,20.4586202 24.8912037,20.5655172 C24.707175,20.6724143 24.4953716,20.7258621 24.255787,20.7258621 C24.0162025,20.7258621 23.8052671,20.6724143 23.6229745,20.5655172 Z M24.8313079,20.1336207 C24.9649891,19.9698268 25.0318287,19.7310361 25.0318287,19.4172414 C25.0318287,19.1103433 24.964121,18.8732767 24.8287037,18.7060345 C24.6932864,18.5387923 24.502316,18.4551724 24.255787,18.4551724 C24.009258,18.4551724 23.8182877,18.5387923 23.6828704,18.7060345 C23.547453,18.8732767 23.4797454,19.1103433 23.4797454,19.4172414 C23.4797454,19.7275878 23.546585,19.9655164 23.6802662,20.1310345 C23.8139474,20.2965526 24.0057858,20.3793103 24.255787,20.3793103 C24.5057883,20.3793103 24.6976266,20.2974146 24.8313079,20.1336207 Z M26.7329282,20.6612069 C26.6929975,20.6249998 26.6730324,20.5741383 26.6730324,20.5086207 L26.6730324,17.2241379 C26.6730324,17.1586204 26.6929975,17.1077588 26.7329282,17.0715517 C26.772859,17.0353446 26.8240738,17.0172414 26.8865741,17.0172414 C26.9456021,17.0172414 26.9950808,17.0353446 27.0350116,17.0715517 C27.0749423,17.1077588 27.0949074,17.1586204 27.0949074,17.2241379 L27.0949074,20.5086207 C27.0949074,20.5741383 27.0749423,20.6249998 27.0350116,20.6612069 C26.9950808,20.697414 26.9456021,20.7155172 26.8865741,20.7155172 C26.8240738,20.7155172 26.772859,20.697414 26.7329282,20.6612069 Z M28.5199653,20.6612069 C28.4800345,20.6249998 28.4600694,20.5741383 28.4600694,20.5086207 L28.4600694,17.2241379 C28.4600694,17.1586204 28.4800345,17.1077588 28.5199653,17.0715517 C28.559896,17.0353446 28.6111108,17.0172414 28.6736111,17.0172414 C28.7326392,17.0172414 28.7821179,17.0353446 28.8220486,17.0715517 C28.8619794,17.1077588 28.8819444,17.1586204 28.8819444,17.2241379 L28.8819444,20.5086207 C28.8819444,20.5741383 28.8619794,20.6249998 28.8220486,20.6612069 C28.7821179,20.697414 28.7326392,20.7155172 28.6736111,20.7155172 C28.6111108,20.7155172 28.559896,20.697414 28.5199653,20.6612069 Z M32.2366898,19.1017241 L32.2366898,20.5086207 C32.2366898,20.57069 32.2184608,20.6206895 32.1820023,20.6586207 C32.1455438,20.6965519 32.0960651,20.7155172 32.0335648,20.7155172 C31.9710645,20.7155172 31.9207178,20.6965519 31.8825231,20.6586207 C31.8443285,20.6206895 31.8252315,20.57069 31.8252315,20.5086207 L31.8252315,20.2603448 C31.7592589,20.4086214 31.6585655,20.5232755 31.5231481,20.6043103 C31.3877308,20.6853452 31.2314824,20.7258621 31.0543981,20.7258621 C30.8912029,20.7258621 30.7410308,20.6931038 30.6038773,20.6275862 C30.4667239,20.5620686 30.358218,20.4706902 30.2783565,20.3534483 C30.198495,20.2362063 30.1585648,20.1068973 30.1585648,19.9655172 C30.1585648,19.7758611 30.2071754,19.6284488 30.3043981,19.5232759 C30.4016209,19.4181029 30.5613415,19.3422416 30.7835648,19.2956897 C31.0057881,19.2491377 31.3148128,19.2258621 31.7106481,19.2258621 L31.8252315,19.2258621 L31.8252315,19.0551724 C31.8252315,18.8482748 31.7826972,18.6965522 31.6976273,18.6 C31.6125574,18.5034478 31.474538,18.4551724 31.2835648,18.4551724 C31.0474525,18.4551724 30.8078716,18.5189649 30.5648148,18.6465517 C30.4710643,18.7051727 30.4050928,18.7344828 30.3668981,18.7344828 C30.3252313,18.7344828 30.2905094,18.7189657 30.2627315,18.687931 C30.2349536,18.6568964 30.2210648,18.6172416 30.2210648,18.5689655 C30.2210648,18.5206894 30.2358216,18.4784485 30.2653356,18.4422414 C30.2948497,18.4060343 30.3425923,18.3689657 30.4085648,18.3310345 C30.5300932,18.2620686 30.6681127,18.2077588 30.8226273,18.1681034 C30.977142,18.1284481 31.1307863,18.1086207 31.2835648,18.1086207 C31.9189847,18.1086207 32.2366898,18.4396519 32.2366898,19.1017241 Z M31.6247106,20.1853448 C31.7583919,20.045689 31.8252315,19.8655183 31.8252315,19.6448276 L31.8252315,19.4948276 L31.7314815,19.4948276 C31.4259244,19.4948276 31.1932878,19.5077585 31.0335648,19.5336207 C30.8738418,19.5594829 30.7601277,19.6025859 30.692419,19.662931 C30.6247103,19.7232762 30.5908565,19.8120684 30.5908565,19.9293103 C30.5908565,20.0637938 30.6403352,20.1749996 30.739294,20.262931 C30.8382528,20.3508625 30.9623835,20.3948276 31.1116898,20.3948276 C31.3200242,20.3948276 31.4910294,20.3250007 31.6247106,20.1853448 Z M35.4508102,18.2689655 C35.6209499,18.3758626 35.752893,18.5275852 35.8466435,18.7241379 C35.940394,18.9206906 35.9872685,19.1482746 35.9872685,19.4068966 C35.9872685,19.6689668 35.940394,19.8991369 35.8466435,20.0974138 C35.752893,20.2956906 35.6209499,20.4499994 35.4508102,20.5603448 C35.2806704,20.6706902 35.0844919,20.7258621 34.8622685,20.7258621 C34.6643509,20.7258621 34.4916095,20.6827591 34.3440394,20.5965517 C34.1964692,20.5103444 34.0844911,20.3879318 34.0081019,20.2293103 L34.0081019,20.5086207 C34.0081019,20.57069 33.9898729,20.6206895 33.9534144,20.6586207 C33.9169558,20.6965519 33.8657411,20.7155172 33.7997685,20.7155172 C33.733796,20.7155172 33.6817132,20.6965519 33.6435185,20.6586207 C33.6053239,20.6206895 33.5862269,20.57069 33.5862269,20.5086207 L33.5862269,17.2189655 C33.5862269,17.1603445 33.6053239,17.1120692 33.6435185,17.0741379 C33.6817132,17.0362067 33.733796,17.0172414 33.7997685,17.0172414 C33.8657411,17.0172414 33.9169558,17.0353446 33.9534144,17.0715517 C33.9898729,17.1077588 34.0081019,17.1568962 34.0081019,17.2189655 L34.0081019,18.6051724 C34.0844911,18.4465509 34.1964692,18.3241384 34.3440394,18.237931 C34.4916095,18.1517237 34.6643509,18.1086207 34.8622685,18.1086207 C35.0844919,18.1086207 35.2806704,18.1620684 35.4508102,18.2689655 Z M35.3518519,20.1232759 C35.4872692,19.9525854 35.5549769,19.7137946 35.5549769,19.4068966 C35.5549769,19.1068951 35.4872692,18.8741388 35.3518519,18.7086207 C35.2164345,18.5431026 35.0254642,18.4603448 34.7789352,18.4603448 C34.5324062,18.4603448 34.3423039,18.5431026 34.2086227,18.7086207 C34.0749415,18.8741388 34.0081019,19.1103433 34.0081019,19.4172414 C34.0081019,19.7241395 34.0749415,19.9612061 34.2086227,20.1284483 C34.3423039,20.2956905 34.5324062,20.3793103 34.7789352,20.3793103 C35.0254642,20.3793103 35.2164345,20.2939664 35.3518519,20.1232759 Z M37.6154514,20.5655172 C37.4331588,20.4586202 37.2925352,20.3060355 37.1935764,20.1077586 C37.0946176,19.9094818 37.0451389,19.6793117 37.0451389,19.4172414 C37.0451389,19.1551711 37.0946176,18.925001 37.1935764,18.7267241 C37.2925352,18.5284473 37.4331588,18.3758626 37.6154514,18.2689655 C37.797744,18.1620684 38.0086794,18.1086207 38.2482639,18.1086207 C38.4878484,18.1086207 38.6996519,18.1620684 38.8836806,18.2689655 C39.0677093,18.3758626 39.2092009,18.5284473 39.3081597,18.7267241 C39.4071186,18.925001 39.4565972,19.1551711 39.4565972,19.4172414 C39.4565972,19.6793117 39.4071186,19.9094818 39.3081597,20.1077586 C39.2092009,20.3060355 39.0677093,20.4586202 38.8836806,20.5655172 C38.6996519,20.6724143 38.4878484,20.7258621 38.2482639,20.7258621 C38.0086794,20.7258621 37.797744,20.6724143 37.6154514,20.5655172 Z M38.8237847,20.1336207 C38.9574659,19.9698268 39.0243056,19.7310361 39.0243056,19.4172414 C39.0243056,19.1103433 38.9565979,18.8732767 38.8211806,18.7060345 C38.6857632,18.5387923 38.4947929,18.4551724 38.2482639,18.4551724 C38.0017349,18.4551724 37.8107646,18.5387923 37.6753472,18.7060345 C37.5399299,18.8732767 37.4722222,19.1103433 37.4722222,19.4172414 C37.4722222,19.7275878 37.5390618,19.9655164 37.6727431,20.1310345 C37.8064243,20.2965526 37.9982626,20.3793103 38.2482639,20.3793103 C38.4982651,20.3793103 38.6901035,20.2974146 38.8237847,20.1336207 Z M42.1394676,18.2948276 C42.1394676,18.3500003 42.1238427,18.3939654 42.0925926,18.4267241 C42.0613424,18.4594829 42.0075235,18.4793103 41.9311343,18.4862069 L41.7748843,18.5017241 C41.5422442,18.5224139 41.3695029,18.6043096 41.2566551,18.7474138 C41.1438073,18.890518 41.0873843,19.0586197 41.0873843,19.2517241 L41.0873843,20.5086207 C41.0873843,20.5775866 41.0682872,20.6293102 41.0300926,20.6637931 C40.991898,20.698276 40.9415512,20.7155172 40.8790509,20.7155172 C40.8165506,20.7155172 40.7653358,20.697414 40.7254051,20.6612069 C40.6854743,20.6249998 40.6655093,20.5741383 40.6655093,20.5086207 L40.6655093,18.3258621 C40.6655093,18.2603445 40.6863424,18.2094829 40.7280093,18.1732759 C40.7696761,18.1370688 40.8200229,18.1189655 40.8790509,18.1189655 C40.9346068,18.1189655 40.9814813,18.1370688 41.0196759,18.1732759 C41.0578706,18.2094829 41.0769676,18.2586204 41.0769676,18.3206897 L41.0769676,18.6103448 C41.1498846,18.4586199 41.2531822,18.3431038 41.3868634,18.2637931 C41.5205446,18.1844824 41.6741889,18.1379311 41.8478009,18.1241379 L41.9207176,18.1189655 C42.0665517,18.1086206 42.1394676,18.1672407 42.1394676,18.2948276 Z M45.0515046,19.1017241 L45.0515046,20.5086207 C45.0515046,20.57069 45.0332756,20.6206895 44.9968171,20.6586207 C44.9603586,20.6965519 44.9108799,20.7155172 44.8483796,20.7155172 C44.7858793,20.7155172 44.7355326,20.6965519 44.697338,20.6586207 C44.6591433,20.6206895 44.6400463,20.57069 44.6400463,20.5086207 L44.6400463,20.2603448 C44.5740737,20.4086214 44.4733803,20.5232755 44.337963,20.6043103 C44.2025456,20.6853452 44.0462972,20.7258621 43.869213,20.7258621 C43.7060177,20.7258621 43.5558456,20.6931038 43.4186921,20.6275862 C43.2815387,20.5620686 43.1730328,20.4706902 43.0931713,20.3534483 C43.0133098,20.2362063 42.9733796,20.1068973 42.9733796,19.9655172 C42.9733796,19.7758611 43.0219903,19.6284488 43.119213,19.5232759 C43.2164357,19.4181029 43.3761563,19.3422416 43.5983796,19.2956897 C43.820603,19.2491377 44.1296277,19.2258621 44.525463,19.2258621 L44.6400463,19.2258621 L44.6400463,19.0551724 C44.6400463,18.8482748 44.597512,18.6965522 44.5124421,18.6 C44.4273723,18.5034478 44.2893528,18.4551724 44.0983796,18.4551724 C43.8622673,18.4551724 43.6226864,18.5189649 43.3796296,18.6465517 C43.2858792,18.7051727 43.2199076,18.7344828 43.181713,18.7344828 C43.1400461,18.7344828 43.1053242,18.7189657 43.0775463,18.687931 C43.0497684,18.6568964 43.0358796,18.6172416 43.0358796,18.5689655 C43.0358796,18.5206894 43.0506364,18.4784485 43.0801505,18.4422414 C43.1096645,18.4060343 43.1574071,18.3689657 43.2233796,18.3310345 C43.344908,18.2620686 43.4829275,18.2077588 43.6374421,18.1681034 C43.7919568,18.1284481 43.9456011,18.1086207 44.0983796,18.1086207 C44.7337995,18.1086207 45.0515046,18.4396519 45.0515046,19.1017241 Z M44.4395255,20.1853448 C44.5732067,20.045689 44.6400463,19.8655183 44.6400463,19.6448276 L44.6400463,19.4948276 L44.5462963,19.4948276 C44.2407392,19.4948276 44.0081027,19.5077585 43.8483796,19.5336207 C43.6886566,19.5594829 43.5749425,19.6025859 43.5072338,19.662931 C43.4395251,19.7232762 43.4056713,19.8120684 43.4056713,19.9293103 C43.4056713,20.0637938 43.45515,20.1749996 43.5541088,20.262931 C43.6530676,20.3508625 43.7771983,20.3948276 43.9265046,20.3948276 C44.134839,20.3948276 44.3058442,20.3250007 44.4395255,20.1853448 Z M47.7552083,20.55 C47.7552083,20.608621 47.7335072,20.6525861 47.6901042,20.6818966 C47.6467012,20.711207 47.5815977,20.7224138 47.4947917,20.7155172 L47.3541667,20.7051724 C47.0763875,20.6844827 46.8715284,20.6017249 46.7395833,20.4568966 C46.6076382,20.3120682 46.5416667,20.0931049 46.5416667,19.8 L46.5416667,18.5017241 L46.1927083,18.5017241 C46.1336803,18.5017241 46.0876738,18.4870691 46.0546875,18.4577586 C46.0217012,18.4284481 46.0052083,18.3896554 46.0052083,18.3413793 C46.0052083,18.2896549 46.0217012,18.248276 46.0546875,18.2172414 C46.0876738,18.1862067 46.1336803,18.1706897 46.1927083,18.1706897 L46.5416667,18.1706897 L46.5416667,17.5862069 C46.5416667,17.5206893 46.5607637,17.4698278 46.5989583,17.4336207 C46.637153,17.3974136 46.6892358,17.3793103 46.7552083,17.3793103 C46.8177086,17.3793103 46.8680554,17.3974136 46.90625,17.4336207 C46.9444446,17.4698278 46.9635417,17.5206893 46.9635417,17.5862069 L46.9635417,18.1706897 L47.5416667,18.1706897 C47.5972225,18.1706897 47.6414929,18.1862067 47.6744792,18.2172414 C47.7074654,18.248276 47.7239583,18.2896549 47.7239583,18.3413793 C47.7239583,18.3896554 47.7074654,18.4284481 47.6744792,18.4577586 C47.6414929,18.4870691 47.5972225,18.5017241 47.5416667,18.5017241 L46.9635417,18.5017241 L46.9635417,19.8206897 C46.9635417,20.0103458 47.0026038,20.1474134 47.0807292,20.2318966 C47.1588546,20.3163797 47.2760409,20.3637931 47.4322917,20.3741379 L47.5729167,20.3844828 C47.6944451,20.3948276 47.7552083,20.4499995 47.7552083,20.55 Z M48.8104745,20.6612069 C48.7705438,20.6249998 48.7505787,20.5741383 48.7505787,20.5086207 L48.7505787,18.3258621 C48.7505787,18.2603445 48.7705438,18.2094829 48.8104745,18.1732759 C48.8504053,18.1370688 48.9016201,18.1189655 48.9641204,18.1189655 C49.0266207,18.1189655 49.0769674,18.1370688 49.115162,18.1732759 C49.1533567,18.2094829 49.1724537,18.2603445 49.1724537,18.3258621 L49.1724537,20.5086207 C49.1724537,20.5775866 49.1533567,20.6293102 49.115162,20.6637931 C49.0769674,20.698276 49.0266207,20.7155172 48.9641204,20.7155172 C48.9016201,20.7155172 48.8504053,20.697414 48.8104745,20.6612069 Z M48.7609954,17.5034483 C48.7089118,17.4551722 48.6828704,17.3913797 48.6828704,17.312069 C48.6828704,17.2362065 48.7089118,17.1741382 48.7609954,17.1258621 C48.813079,17.077586 48.8807866,17.0534483 48.9641204,17.0534483 C49.0474541,17.0534483 49.1151618,17.077586 49.1672454,17.1258621 C49.219329,17.1741382 49.2453704,17.2362065 49.2453704,17.312069 C49.2453704,17.3913797 49.219329,17.4551722 49.1672454,17.5034483 C49.1151618,17.5517244 49.0474541,17.5758621 48.9641204,17.5758621 C48.8807866,17.5758621 48.813079,17.5517244 48.7609954,17.5034483 Z M52.5480324,18.1241379 C52.600116,18.1241379 52.6469905,18.1413791 52.6886574,18.1758621 C52.7303243,18.210345 52.7511574,18.253448 52.7511574,18.3051724 C52.7511574,18.3362071 52.744213,18.363793 52.7303241,18.387931 L51.7146991,20.5603448 C51.6938656,20.6051726 51.6626159,20.6405171 51.6209491,20.6663793 C51.5792822,20.6922415 51.5341438,20.7051724 51.4855324,20.7051724 C51.4403933,20.7051724 51.3969909,20.6922415 51.3553241,20.6663793 C51.3136572,20.6405171 51.2806714,20.6051726 51.2563657,20.5603448 L50.2459491,18.387931 C50.2320601,18.363793 50.2251157,18.3379312 50.2251157,18.3103448 C50.2251157,18.2586204 50.248553,18.2137933 50.2954282,18.1758621 C50.3423035,18.1379308 50.3935182,18.1189655 50.4490741,18.1189655 C50.4837965,18.1189655 50.5176503,18.1293102 50.5506366,18.15 C50.5836229,18.1706898 50.6087962,18.1999998 50.6261574,18.237931 L51.4959491,20.1775862 L52.3657407,18.2482759 C52.4039354,18.1655168 52.4646987,18.1241379 52.5480324,18.1241379 Z M55.8559028,20.1517241 C55.8836807,20.1827588 55.8975694,20.2224136 55.8975694,20.2706897 C55.8975694,20.356897 55.8368062,20.4362065 55.7152778,20.5086207 C55.5902772,20.5810348 55.458334,20.6353446 55.3194444,20.6715517 C55.1805549,20.7077588 55.0451395,20.7258621 54.9131944,20.7258621 C54.5208314,20.7258621 54.2109386,20.610346 53.9835069,20.3793103 C53.7560753,20.1482747 53.6423611,19.8293124 53.6423611,19.4224138 C53.6423611,19.1637918 53.6927078,18.9353458 53.7934028,18.737069 C53.8940977,18.5387921 54.0355894,18.3844833 54.2178819,18.2741379 C54.4001745,18.1637926 54.6076377,18.1086207 54.8402778,18.1086207 C55.1701405,18.1086207 55.4322907,18.2155162 55.6267361,18.4293103 C55.8211815,18.6431045 55.9184028,18.9327568 55.9184028,19.2982759 C55.9184028,19.3672417 55.904514,19.4172412 55.8767361,19.4482759 C55.8489582,19.4793105 55.8038198,19.4948276 55.7413194,19.4948276 L54.0642361,19.4948276 C54.0954863,20.087934 54.3784695,20.3844828 54.9131944,20.3844828 C55.0486118,20.3844828 55.1649301,20.3663795 55.2621528,20.3301724 C55.3593755,20.2939653 55.4635411,20.2448279 55.5746528,20.1827586 C55.664931,20.1310342 55.7256943,20.1051724 55.7569444,20.1051724 C55.7951391,20.1051724 55.8281249,20.1206895 55.8559028,20.1517241 Z M54.3116319,18.6413793 C54.1779507,18.779311 54.0989585,18.9741367 54.0746528,19.2258621 L55.5486111,19.2258621 C55.5416666,18.9706884 55.4774312,18.7750007 55.3559028,18.6387931 C55.2343744,18.5025855 55.0642372,18.4344828 54.8454861,18.4344828 C54.6232628,18.4344828 54.4453132,18.5034476 54.3116319,18.6413793 Z" id="youth-collaborative"></path>
                    </g>
                </g>
            </g>
        </g>
    </g>
</svg>