<?xml version="1.0" encoding="UTF-8"?>
<svg width="150px" height="141px" viewBox="0 0 150 141" version="1.1" xmlns="http://www.w3.org/2000/svg" xmlns:xlink="http://www.w3.org/1999/xlink">
    <!-- Generator: Sketch 50.2 (55047) - http://www.bohemiancoding.com/sketch -->
    <title>cyc-logo-large</title>
    <desc>Created with Sketch.</desc>
    <defs></defs>
    <g id="Page-1" stroke="none" stroke-width="1" fill="none" fill-rule="evenodd">
        <g id="Home" transform="translate(-706.000000, -1044.000000)" fill="#334146">
            <g id="Group-6" transform="translate(606.000000, 1044.000000)">
                <g id="cyc-logo-large" transform="translate(100.000000, 0.000000)">
                    <path d="M82.9839644,1.52117814 C92.4176699,4.51941819 100.450326,11.8160825 104.503622,22.9151864 L123.607145,22.9151864 C124.191649,22.8770688 124.698795,23.4149003 124.698795,23.9908386 C124.698795,24.5286593 124.191649,25.0664909 123.607145,25.0283732 L103.802767,25.0283732 C103.334305,25.0283732 102.904517,24.7192258 102.788475,24.2999752 C99.0063884,13.3525396 91.2876321,6.43694318 82.2832415,3.59546676 C73.2788509,0.753990345 62.8694497,2.02013316 53.7847414,7.7413554 C53.3162798,8.16484489 52.4610388,8.05050283 52.1086309,7.5126713 C51.756212,7.0129574 52.0312728,6.20836749 52.615777,5.93733769 C60.9192026,0.406595189 72.4971721,-1.70656995 82.9846906,1.52041925 L82.9839644,1.52117814 Z M74.2352738,18.7673772 C82.1475629,18.7673772 88.5428367,24.9883784 88.5428367,32.6744583 C88.5428367,40.3564185 82.147673,46.6194835 74.2352738,46.6194835 C66.3617132,46.6194835 59.9277108,40.3562017 59.9277108,32.6744583 C59.9277108,24.9924981 66.3616032,18.7673772 74.2352738,18.7673772 Z M44.6216737,40.0117462 C44.9740927,40.0879706 45.3222206,40.397118 45.4382633,40.7401333 C49.1816208,51.687569 56.9005972,58.6411095 65.9049878,61.4446418 C74.9476668,64.2862266 85.3187795,63.0199754 94.4034879,57.3325777 C94.8719494,56.8709814 95.7271905,56.9853234 96.0795984,57.5231441 C96.4320173,58.0609648 96.1569565,58.8274479 95.5724523,59.0984777 C85.9840526,65.1288908 74.9087842,66.5517972 65.2431475,63.5153962 C55.7707134,60.5171561 47.7767862,53.2204919 43.7234902,42.1593321 L24.6199648,42.1593321 C24.0397626,42.163571 23.4939759,41.6638571 23.4939759,41.0879188 C23.4939759,40.5500981 24.0397956,40.0122665 24.6242558,40.0122665 L44.6216737,40.0117462 Z" id="Combined-Shape" transform="translate(74.096386, 32.530120) rotate(-360.000000) translate(-74.096386, -32.530120) "></path>
                    <g id="Group-5" transform="translate(0.000000, 84.939759)">
                        <path d="M7.15170158,28.5935856 C4.84859972,27.3624667 3.08089455,25.6150984 1.84853303,23.3514283 C0.616171516,21.0877581 0,18.4269927 0,15.3690523 C0,12.3111118 0.656576206,9.62056178 1.96974832,7.29732133 C3.28292042,4.97408088 5.13143497,3.17707142 7.51534742,1.90623904 C9.89925986,0.635406659 12.6467788,0 15.7579865,0 C17.3741983,0 19.0004871,0.218421039 20.6369016,0.65526967 C22.2733161,1.0921183 23.7379861,1.7076685 25.0309555,2.50193874 C26.2835197,3.25649547 26.9097924,4.36845712 26.9097924,5.83785706 C26.9097924,6.87040837 26.6673642,7.71430784 26.1825007,8.36958079 C25.6976371,9.02485374 25.0511621,9.35248529 24.2430562,9.35248529 C23.7177873,9.35248529 23.2228299,9.26313123 22.758169,9.08442043 C22.2935081,8.90570963 21.6773366,8.63764744 20.909636,8.28022583 C20.0611248,7.8433772 19.3035368,7.50581741 18.6368494,7.26753634 C17.9701621,7.02925527 17.2125741,6.91011652 16.3640629,6.91011652 C14.1013664,6.91011652 12.3740659,7.61502079 11.1821097,9.02485046 C9.99015344,10.4346801 9.39418427,12.4898235 9.39418427,15.1903424 C9.39418427,17.8908612 9.99015344,19.9559328 11.1821097,21.3856192 C12.3740659,22.8153057 14.1013664,23.5301382 16.3640629,23.5301382 C17.2125741,23.5301382 17.9600609,23.4209276 18.6065456,23.2025033 C19.2530304,22.984079 20.0409218,22.636591 20.9702436,22.1600289 C21.7379442,21.8026072 22.3440146,21.5345451 22.7884728,21.3558343 C23.2329311,21.1771235 23.7177873,21.0877694 24.2430562,21.0877694 C25.0107568,21.0877694 25.6471307,21.4253292 26.1521969,22.1004589 C26.6572631,22.7755886 26.9097924,23.6294163 26.9097924,24.6619676 C26.9097924,26.1313675 26.2835197,27.2234727 25.0309555,27.9383159 C23.7379861,28.7325862 22.2430125,29.3481364 20.5459901,29.784985 C18.8489677,30.2218336 17.0711614,30.4402547 15.2125178,30.4402547 C12.1417153,30.4402547 9.45480343,29.8247045 7.15170158,28.5935856 Z M56.9193723,0.923334535 C57.626465,1.53889397 57.980006,2.46221927 57.980006,3.69333814 C57.980006,5.00388403 57.6567685,5.97685048 57.0102837,6.61226667 C56.363799,7.24768286 55.2122654,7.64481203 53.5556482,7.80366607 L51.737419,7.98237598 C49.5151278,8.22065706 47.9090414,8.93548955 46.9191116,10.1268949 C45.9291819,11.3183003 45.4342244,12.8472475 45.4342244,14.7137826 L45.4342244,26.0916469 C45.4342244,27.4816198 44.999874,28.5340121 44.1311601,29.2488553 C43.2624463,29.9636985 42.1816208,30.3211147 40.8886514,30.3211147 C39.5552766,30.3211147 38.4542488,29.9636985 37.585535,29.2488553 C36.7168211,28.5340121 36.2824707,27.4816198 36.2824707,26.0916469 L36.2824707,4.22946787 C36.2824707,2.91892198 36.7269223,1.90624262 37.6158388,1.1913994 C38.5047553,0.476556186 39.5754796,0.11913994 40.8280437,0.11913994 C42.0402026,0.11913994 43.0503199,0.466627957 43.8584258,1.16161442 C44.6665317,1.85660087 45.0705786,2.81963909 45.0705786,4.05075796 L45.0705786,5.65914715 C45.7978739,3.95146614 46.8989017,2.6409399 48.373695,1.72752913 C49.8484883,0.814118357 51.4545747,0.297850446 53.1920024,0.17870991 L54.0405094,0.11913994 C55.2526682,0.0397129162 56.2122796,0.307775101 56.9193723,0.923334535 Z M90.7169297,22.2195988 C91.2219959,22.855015 91.4745252,23.6691298 91.4745252,24.6619676 C91.4745252,25.3370973 91.2725018,25.9625757 90.8684488,26.5384216 C90.4643959,27.1142676 89.8987302,27.6007508 89.1714349,27.9978859 C87.7976548,28.7127291 86.2016696,29.2984946 84.3834313,29.7552 C82.565193,30.2119054 80.8883984,30.4402547 79.3529971,30.4402547 C76.1205735,30.4402547 73.3023464,29.8247045 70.8982313,28.5935856 C68.4941162,27.3624667 66.6456017,25.6051702 65.3526322,23.3216433 C64.0596627,21.0381163 63.4131877,18.3475663 63.4131877,15.2499123 C63.4131877,12.2713989 64.0394604,9.63049 65.2920246,7.32710631 C66.5445887,5.02372262 68.2819904,3.22671316 70.5042816,1.93602403 C72.7265729,0.645334889 75.251866,0 78.0802367,0 C80.7873915,0 83.161167,0.585765514 85.2016345,1.75731412 C87.2421019,2.92886272 88.8279859,4.5968052 89.9593342,6.7611916 C91.0906825,8.925578 91.6563482,11.4572764 91.6563482,14.3563628 C91.6563482,15.23006 91.4442235,15.8952514 91.0199679,16.3519568 C90.5957123,16.8086622 89.9997432,17.0370114 89.2320425,17.0370114 L72.2619032,17.0370114 C72.5447403,19.3801086 73.2720247,21.0778358 74.4437783,22.1302439 C75.6155318,23.1826519 77.2923265,23.7088481 79.4742124,23.7088481 C80.645966,23.7088481 81.6964879,23.5698529 82.6258097,23.2918583 C83.5551315,23.0138637 84.5854511,22.636591 85.7167994,22.1600289 C86.2824735,21.9217478 86.8279368,21.713255 87.3532057,21.5345442 C87.8784745,21.3558334 88.3431285,21.2664793 88.7471814,21.2664793 C89.5552873,21.2664793 90.2118635,21.5841826 90.7169297,22.2195988 Z M74.1407401,7.83345106 C73.0902024,8.92557264 72.4639297,10.5041611 72.2619032,12.5692637 L83.9591778,12.5692637 C83.8379619,10.4644475 83.3025998,8.8759309 82.3530753,7.80366607 C81.4035509,6.73140125 80.060095,6.19527688 78.3226673,6.19527688 C76.5852395,6.19527688 75.1912778,6.74132948 74.1407401,7.83345106 Z M143.57559,0.83397958 C144.222075,0.397130949 144.908955,0.17870991 145.63625,0.17870991 C146.767598,0.17870991 147.777715,0.555982614 148.666632,1.31053934 C149.555548,2.06509607 150,2.9983496 150,4.11032793 C150,4.58689007 149.878786,5.12301444 149.636354,5.71871712 L139.696701,27.6404661 C139.333053,28.5141634 138.747185,29.1793547 137.93908,29.6360601 C137.130974,30.0927655 136.282475,30.3211147 135.393559,30.3211147 C134.464237,30.3211147 133.605637,30.0927655 132.817734,29.6360601 C132.029831,29.1793547 131.454064,28.5141634 131.090416,27.6404661 L124.605399,12.8075436 L118.362812,27.6404661 C117.999164,28.5141634 117.433498,29.1793547 116.665798,29.6360601 C115.898097,30.0927655 115.029396,30.3211147 114.059669,30.3211147 C113.130347,30.3211147 112.261647,30.0927655 111.453541,29.6360601 C110.645435,29.1793547 110.059567,28.5141634 109.695919,27.6404661 L99.8168737,5.71871712 C99.5744419,5.16272796 99.4532278,4.62660359 99.4532278,4.11032793 C99.4532278,2.9983496 99.9279829,2.06509607 100.877507,1.31053934 C101.827032,0.555982614 102.907857,0.17870991 104.120016,0.17870991 C104.928122,0.17870991 105.665508,0.397130949 106.332195,0.83397958 C106.998882,1.27082821 107.514042,1.90623487 107.87769,2.74021862 L114.362707,18.7645406 L120.96894,2.85935856 C121.332588,2.02537481 121.86795,1.38003992 122.575043,0.923334535 C123.282135,0.466629148 124.059926,0.23827988 124.908437,0.23827988 C125.756948,0.23827988 126.54484,0.456700919 127.272135,0.89354955 C127.99943,1.33039818 128.544893,1.9856613 128.908541,2.85935856 L135.635989,18.7645406 L142.060399,2.74021862 C142.424047,1.90623487 142.929105,1.27082821 143.57559,0.83397958 Z" id="crew"></path>
                        <path d="M10.7235,46.4941027 C10.8585007,46.4941027 10.9799995,46.5383318 11.088,46.6267914 C11.1960005,46.7152509 11.25,46.8258237 11.25,46.958513 C11.25,47.0381266 11.2320002,47.1088932 11.196,47.1708148 L7.4025,55.211747 C7.35749978,55.3090525 7.29225043,55.384242 7.20675,55.4373177 C7.12124957,55.4903934 7.03350045,55.5169309 6.9435,55.5169309 C6.80849933,55.5169309 6.68925052,55.4749132 6.58575,55.3908767 C6.48224948,55.3068401 6.4305,55.1984788 6.4305,55.0657895 C6.4305,54.9950218 6.44849982,54.9242553 6.4845,54.8534876 L7.4295,52.849889 L4.7565,47.1708148 C4.72049982,47.1088932 4.7025,47.0425495 4.7025,46.9717819 C4.7025,46.8390926 4.76324939,46.7240969 4.88475,46.6267914 C5.00625061,46.5294859 5.13899928,46.4808339 5.283,46.4808339 C5.37300045,46.4808339 5.46074957,46.5073713 5.54625,46.5604471 C5.63175043,46.6135228 5.69699978,46.6887123 5.742,46.7860178 L7.9965,51.7618421 L10.251,46.8125555 C10.3500005,46.6002526 10.5074989,46.4941027 10.7235,46.4941027 Z M14.95725,52.757007 C14.4847476,52.4827824 14.1202513,52.0913548 13.86375,51.5827124 C13.6072487,51.0740701 13.479,50.4836115 13.479,49.811319 C13.479,49.1390264 13.6072487,48.5485679 13.86375,48.0399255 C14.1202513,47.5312831 14.4847476,47.1398555 14.95725,46.8656309 C15.4297524,46.5914064 15.9764969,46.4542961 16.5975,46.4542961 C17.2185031,46.4542961 17.7674976,46.5914064 18.2445,46.8656309 C18.7215024,47.1398555 19.0882487,47.5312831 19.34475,48.0399255 C19.6012513,48.5485679 19.7295,49.1390264 19.7295,49.811319 C19.7295,50.4836115 19.6012513,51.0740701 19.34475,51.5827124 C19.0882487,52.0913548 18.7215024,52.4827824 18.2445,52.757007 C17.7674976,53.0312316 17.2185031,53.1683418 16.5975,53.1683418 C15.9764969,53.1683418 15.4297524,53.0312316 14.95725,52.757007 Z M18.08925,51.6490568 C18.4357517,51.2288739 18.609,50.6163008 18.609,49.811319 C18.609,49.024029 18.4335018,48.4158788 18.0825,47.98685 C17.7314982,47.5578213 17.2365032,47.3433101 16.5975,47.3433101 C15.9584968,47.3433101 15.4635018,47.5578213 15.1125,47.98685 C14.7614982,48.4158788 14.586,49.024029 14.586,49.811319 C14.586,50.6074548 14.7592483,51.2178165 15.10575,51.6424223 C15.4522517,52.0670281 15.9494968,52.2793278 16.5975,52.2793278 C17.2455032,52.2793278 17.7427483,52.0692396 18.08925,51.6490568 Z M28.25625,46.6267914 C28.3507505,46.7240969 28.398,46.8523613 28.398,47.0115885 L28.398,52.6243183 C28.398,52.7746995 28.3507505,52.898541 28.25625,52.9958465 C28.1617495,53.093152 28.0290009,53.1418041 27.858,53.1418041 C27.6959992,53.1418041 27.5677505,53.0953635 27.47325,53.002481 C27.3787495,52.9095985 27.3315,52.7879684 27.3315,52.6375872 L27.3315,51.9741439 C27.124499,52.3633659 26.8342519,52.6597009 26.46075,52.8631579 C26.0872481,53.0666148 25.6665023,53.1683418 25.1985,53.1683418 C24.4154961,53.1683418 23.826002,52.9538306 23.43,52.5248018 C23.033998,52.0957731 22.836,51.4610854 22.836,50.6207197 L22.836,47.0115885 C22.836,46.8523613 22.8854995,46.7240969 22.9845,46.6267914 C23.0835005,46.5294859 23.2184991,46.4808339 23.3895,46.4808339 C23.5605009,46.4808339 23.6932495,46.5294859 23.78775,46.6267914 C23.8822505,46.7240969 23.9295,46.8523613 23.9295,47.0115885 L23.9295,50.594182 C23.9295,51.169169 24.0464988,51.591557 24.2805,51.8613586 C24.5145012,52.1311602 24.8834975,52.266059 25.3875,52.266059 C25.9635029,52.266059 26.4269982,52.0825082 26.778,51.7154011 C27.1290018,51.348294 27.3045,50.8639853 27.3045,50.2624604 L27.3045,47.0115885 C27.3045,46.8523613 27.3539995,46.7240969 27.453,46.6267914 C27.5520005,46.5294859 27.6869991,46.4808339 27.858,46.4808339 C28.0290009,46.4808339 28.1617495,46.5294859 28.25625,46.6267914 Z M35.4465,52.7172004 C35.4465,52.8675816 35.3902506,52.9803658 35.27775,53.0555564 C35.1652494,53.130747 34.9965011,53.159496 34.7715,53.1418041 L34.407,53.1152663 C33.6869964,53.0621906 33.1560017,52.8498909 32.814,52.4783608 C32.4719983,52.1068307 32.301,51.5451211 32.301,50.793215 L32.301,47.4627299 L31.3965,47.4627299 C31.2434992,47.4627299 31.1242504,47.4251351 31.03875,47.3499445 C30.9532496,47.2747539 30.9105,47.1752384 30.9105,47.0513951 C30.9105,46.9187057 30.9532496,46.8125559 31.03875,46.7329423 C31.1242504,46.6533287 31.2434992,46.6135225 31.3965,46.6135225 L32.301,46.6135225 L32.301,45.1141408 C32.301,44.9460676 32.3504995,44.8155918 32.4495,44.7227093 C32.5485005,44.6298267 32.6834991,44.5833862 32.8545,44.5833862 C33.0165008,44.5833862 33.1469995,44.6298267 33.246,44.7227093 C33.3450005,44.8155918 33.3945,44.9460676 33.3945,45.1141408 L33.3945,46.6135225 L34.893,46.6135225 C35.0370007,46.6135225 35.1517496,46.6533287 35.23725,46.7329423 C35.3227504,46.8125559 35.3655,46.9187057 35.3655,47.0513951 C35.3655,47.1752384 35.3227504,47.2747539 35.23725,47.3499445 C35.1517496,47.4251351 35.0370007,47.4627299 34.893,47.4627299 L33.3945,47.4627299 L33.3945,50.8462904 C33.3945,51.3328179 33.495749,51.6844393 33.69825,51.9011652 C33.900751,52.1178911 34.204498,52.2395211 34.6095,52.266059 L34.974,52.2925967 C35.2890016,52.3191346 35.4465,52.4606677 35.4465,52.7172004 Z M43.1025,47.0978361 C43.498502,47.5268649 43.6965,48.1659755 43.6965,49.0151871 L43.6965,52.6110495 C43.6965,52.7791226 43.6470005,52.9095985 43.548,53.002481 C43.4489995,53.0953635 43.3185008,53.1418041 43.1565,53.1418041 C42.9854991,53.1418041 42.8505005,53.0953635 42.7515,53.002481 C42.6524995,52.9095985 42.603,52.7791226 42.603,52.6110495 L42.603,49.0417248 C42.603,48.4667378 42.4837512,48.0421383 42.24525,47.7679138 C42.0067488,47.4936892 41.6265026,47.3565789 41.1045,47.3565789 C40.501497,47.3565789 40.0200018,47.5379183 39.66,47.9006024 C39.2999982,48.2632865 39.12,48.7542296 39.12,49.3734464 L39.12,52.6110495 C39.12,52.7791226 39.0727505,52.9095985 38.97825,53.002481 C38.8837495,53.0953635 38.7510009,53.1418041 38.58,53.1418041 C38.4089991,53.1418041 38.2740005,53.0953635 38.175,53.002481 C38.0759995,52.9095985 38.0265,52.7791226 38.0265,52.6110495 L38.0265,44.1720514 C38.0265,44.0216701 38.0782495,43.8978286 38.18175,43.8005231 C38.2852505,43.7032176 38.4179992,43.6545656 38.58,43.6545656 C38.7510009,43.6545656 38.8837495,43.7010062 38.97825,43.7938887 C39.0727505,43.8867712 39.12,44.0128242 39.12,44.1720514 L39.12,47.648494 C39.3360011,47.259272 39.6374981,46.962937 40.0245,46.75948 C40.4115019,46.5560231 40.8524975,46.4542961 41.3475,46.4542961 C42.1215039,46.4542961 42.706498,46.6688073 43.1025,47.0978361 Z M53.26425,52.757007 C52.7917476,52.4827824 52.4272513,52.0935662 52.17075,51.5893469 C51.9142487,51.0851275 51.786,50.5013033 51.786,49.8378567 C51.786,49.1744101 51.9187487,48.586163 52.18425,48.0730977 C52.4497513,47.5600323 52.8209976,47.1619703 53.298,46.8788998 C53.7750024,46.5958293 54.3239969,46.4542961 54.945,46.4542961 C55.2870017,46.4542961 55.6267483,46.5007367 55.96425,46.5936192 C56.3017517,46.6865017 56.5964987,46.8214005 56.8485,46.9983196 C57.0105008,47.104471 57.1252497,47.2084094 57.19275,47.3101379 C57.2602503,47.4118664 57.294,47.5246506 57.294,47.648494 C57.294,47.7723373 57.2602503,47.8740643 57.19275,47.9536779 C57.1252497,48.0332915 57.0375005,48.0730977 56.9295,48.0730977 C56.8664997,48.0730977 56.7990004,48.055406 56.727,48.0200222 C56.6549996,47.9846384 56.5942502,47.9492551 56.54475,47.9138713 C56.4952498,47.8784875 56.4615001,47.8563729 56.4435,47.8475269 C56.2094988,47.6971457 55.9867511,47.5777271 55.77525,47.4892676 C55.5637489,47.4008081 55.3050015,47.3565789 54.999,47.3565789 C54.3419967,47.3565789 53.8312518,47.575513 53.46675,48.0133878 C53.1022482,48.4512625 52.92,49.0594127 52.92,49.8378567 C52.92,50.6163007 53.1022482,51.2178165 53.46675,51.6424223 C53.8312518,52.0670281 54.3419967,52.2793278 54.999,52.2793278 C55.3050015,52.2793278 55.5682489,52.2350987 55.78875,52.1466392 C56.0092511,52.0581796 56.2319989,51.9387611 56.457,51.7883798 C56.5560005,51.7264582 56.6504996,51.6733832 56.7405,51.6291535 C56.8305005,51.5849237 56.9069997,51.5628091 56.97,51.5628091 C57.0690005,51.5628091 57.1522497,51.6026153 57.21975,51.6822289 C57.2872503,51.7618425 57.321,51.8635695 57.321,51.9874128 C57.321,52.1024102 57.2895003,52.2063486 57.2265,52.2992311 C57.1634997,52.3921137 57.0465009,52.4960521 56.8755,52.6110495 C56.6234987,52.7791226 56.3197518,52.9140214 55.96425,53.0157498 C55.6087482,53.1174783 55.2510018,53.1683418 54.891,53.1683418 C54.2789969,53.1683418 53.7367524,53.0312316 53.26425,52.757007 Z M61.23075,52.757007 C60.7582476,52.4827824 60.3937513,52.0913548 60.13725,51.5827124 C59.8807487,51.0740701 59.7525,50.4836115 59.7525,49.811319 C59.7525,49.1390264 59.8807487,48.5485679 60.13725,48.0399255 C60.3937513,47.5312831 60.7582476,47.1398555 61.23075,46.8656309 C61.7032524,46.5914064 62.2499969,46.4542961 62.871,46.4542961 C63.4920031,46.4542961 64.0409976,46.5914064 64.518,46.8656309 C64.9950024,47.1398555 65.3617487,47.5312831 65.61825,48.0399255 C65.8747513,48.5485679 66.003,49.1390264 66.003,49.811319 C66.003,50.4836115 65.8747513,51.0740701 65.61825,51.5827124 C65.3617487,52.0913548 64.9950024,52.4827824 64.518,52.757007 C64.0409976,53.0312316 63.4920031,53.1683418 62.871,53.1683418 C62.2499969,53.1683418 61.7032524,53.0312316 61.23075,52.757007 Z M64.36275,51.6490568 C64.7092517,51.2288739 64.8825,50.6163008 64.8825,49.811319 C64.8825,49.024029 64.7070018,48.4158788 64.356,47.98685 C64.0049982,47.5578213 63.5100032,47.3433101 62.871,47.3433101 C62.2319968,47.3433101 61.7370018,47.5578213 61.386,47.98685 C61.0349982,48.4158788 60.8595,49.024029 60.8595,49.811319 C60.8595,50.6074548 61.0327483,51.2178165 61.37925,51.6424223 C61.7257517,52.0670281 62.2229968,52.2793278 62.871,52.2793278 C63.5190032,52.2793278 64.0162483,52.0692396 64.36275,51.6490568 Z M69.29175,53.002481 C69.1882495,52.9095985 69.1365,52.7791226 69.1365,52.6110495 L69.1365,44.1853202 C69.1365,44.0172471 69.1882495,43.8867712 69.29175,43.7938887 C69.3952505,43.7010062 69.5279992,43.6545656 69.69,43.6545656 C69.8430008,43.6545656 69.9712495,43.7010062 70.07475,43.7938887 C70.1782505,43.8867712 70.23,44.0172471 70.23,44.1853202 L70.23,52.6110495 C70.23,52.7791226 70.1782505,52.9095985 70.07475,53.002481 C69.9712495,53.0953635 69.8430008,53.1418041 69.69,53.1418041 C69.5279992,53.1418041 69.3952505,53.0953635 69.29175,53.002481 Z M73.92375,53.002481 C73.8202495,52.9095985 73.7685,52.7791226 73.7685,52.6110495 L73.7685,44.1853202 C73.7685,44.0172471 73.8202495,43.8867712 73.92375,43.7938887 C74.0272505,43.7010062 74.1599992,43.6545656 74.322,43.6545656 C74.4750008,43.6545656 74.6032495,43.7010062 74.70675,43.7938887 C74.8102505,43.8867712 74.862,44.0172471 74.862,44.1853202 L74.862,52.6110495 C74.862,52.7791226 74.8102505,52.9095985 74.70675,53.002481 C74.6032495,53.0953635 74.4750008,53.1418041 74.322,53.1418041 C74.1599992,53.1418041 74.0272505,53.0953635 73.92375,53.002481 Z M83.5575,49.0019182 L83.5575,52.6110495 C83.5575,52.7702766 83.5102505,52.898541 83.41575,52.9958465 C83.3212495,53.093152 83.1930008,53.1418041 83.031,53.1418041 C82.8689992,53.1418041 82.7385005,53.093152 82.6395,52.9958465 C82.5404995,52.898541 82.491,52.7702766 82.491,52.6110495 L82.491,51.9741439 C82.3199991,52.35452 82.0590018,52.6486435 81.708,52.8565235 C81.3569982,53.0644034 80.9520023,53.1683418 80.493,53.1683418 C80.0699979,53.1683418 79.6807518,53.0843065 79.32525,52.9162334 C78.9697482,52.7481602 78.688501,52.513746 78.4815,52.2129835 C78.274499,51.9122211 78.171,51.5805028 78.171,51.2178186 C78.171,50.7312912 78.2969987,50.3531323 78.549,50.0833307 C78.8010013,49.8135291 79.2149971,49.618921 79.791,49.4995006 C80.3670029,49.3800803 81.1679949,49.320371 82.194,49.320371 L82.491,49.320371 L82.491,48.8824984 C82.491,48.3517412 82.3807511,47.962525 82.16025,47.7148383 C81.9397489,47.4671516 81.5820025,47.3433101 81.087,47.3433101 C80.4749969,47.3433101 79.8540031,47.5069578 79.224,47.8342581 C78.9809988,47.9846393 78.8100005,48.0598288 78.711,48.0598288 C78.6029995,48.0598288 78.5130004,48.0200226 78.441,47.940409 C78.3689996,47.8607954 78.333,47.7590685 78.333,47.6352251 C78.333,47.5113818 78.3712496,47.4030204 78.44775,47.3101379 C78.5242504,47.2172554 78.6479991,47.1221628 78.819,47.0248573 C79.1340016,46.8479382 79.491748,46.7086166 79.89225,46.6068881 C80.292752,46.5051596 80.690998,46.4542961 81.087,46.4542961 C82.7340082,46.4542961 83.5575,47.303495 83.5575,49.0019182 Z M81.97125,51.7817454 C82.3177517,51.4234843 82.491,50.9612901 82.491,50.395149 L82.491,50.0103519 L82.248,50.0103519 C81.455996,50.0103519 80.8530021,50.0435238 80.439,50.1098684 C80.0249979,50.1762131 79.7302509,50.2867858 79.55475,50.44159 C79.3792491,50.5963942 79.2915,50.8241741 79.2915,51.1249366 C79.2915,51.4699288 79.4197487,51.7552065 79.67625,51.9807784 C79.9327513,52.2063502 80.2544981,52.3191344 80.6415,52.3191344 C81.1815027,52.3191344 81.6247483,52.1400065 81.97125,51.7817454 Z M91.8885,46.8656309 C92.3295022,47.1398555 92.6714988,47.5290717 92.9145,48.0332911 C93.1575012,48.5375104 93.279,49.1213347 93.279,49.7847812 C93.279,50.4570737 93.1575012,51.0475323 92.9145,51.5561747 C92.6714988,52.0648171 92.3295022,52.4606676 91.8885,52.7437381 C91.4474978,53.0268086 90.9390029,53.1683418 90.363,53.1683418 C89.8499974,53.1683418 89.4022519,53.057769 89.01975,52.8366202 C88.6372481,52.6154713 88.347001,52.3014446 88.149,51.8945308 L88.149,52.6110495 C88.149,52.7702766 88.1017505,52.898541 88.00725,52.9958465 C87.9127495,53.093152 87.7800009,53.1418041 87.609,53.1418041 C87.4379991,53.1418041 87.3030005,53.093152 87.204,52.9958465 C87.1049995,52.898541 87.0555,52.7702766 87.0555,52.6110495 L87.0555,44.1720514 C87.0555,44.0216701 87.1049995,43.8978286 87.204,43.8005231 C87.3030005,43.7032176 87.4379991,43.6545656 87.609,43.6545656 C87.7800009,43.6545656 87.9127495,43.7010062 88.00725,43.7938887 C88.1017505,43.8867712 88.149,44.0128242 88.149,44.1720514 L88.149,47.7281072 C88.347001,47.3211933 88.6372481,47.0071666 89.01975,46.7860178 C89.4022519,46.5648689 89.8499974,46.4542961 90.363,46.4542961 C90.9390029,46.4542961 91.4474978,46.5914064 91.8885,46.8656309 Z M91.632,51.622519 C91.9830018,51.1846443 92.1585,50.5720712 92.1585,49.7847812 C92.1585,49.0151832 91.9830018,48.4180903 91.632,47.9934845 C91.2809982,47.5688787 90.7860032,47.3565789 90.147,47.3565789 C89.5079968,47.3565789 89.0152517,47.5688787 88.66875,47.9934845 C88.3222483,48.4180903 88.149,49.024029 88.149,49.811319 C88.149,50.5986089 88.3222483,51.2067591 88.66875,51.6357879 C89.0152517,52.0648167 89.5079968,52.2793278 90.147,52.2793278 C90.7860032,52.2793278 91.2809982,52.0603938 91.632,51.622519 Z M97.49925,52.757007 C97.0267476,52.4827824 96.6622513,52.0913548 96.40575,51.5827124 C96.1492487,51.0740701 96.021,50.4836115 96.021,49.811319 C96.021,49.1390264 96.1492487,48.5485679 96.40575,48.0399255 C96.6622513,47.5312831 97.0267476,47.1398555 97.49925,46.8656309 C97.9717524,46.5914064 98.5184969,46.4542961 99.1395,46.4542961 C99.7605031,46.4542961 100.309498,46.5914064 100.7865,46.8656309 C101.263502,47.1398555 101.630249,47.5312831 101.88675,48.0399255 C102.143251,48.5485679 102.2715,49.1390264 102.2715,49.811319 C102.2715,50.4836115 102.143251,51.0740701 101.88675,51.5827124 C101.630249,52.0913548 101.263502,52.4827824 100.7865,52.757007 C100.309498,53.0312316 99.7605031,53.1683418 99.1395,53.1683418 C98.5184969,53.1683418 97.9717524,53.0312316 97.49925,52.757007 Z M100.63125,51.6490568 C100.977752,51.2288739 101.151,50.6163008 101.151,49.811319 C101.151,49.024029 100.975502,48.4158788 100.6245,47.98685 C100.273498,47.5578213 99.7785032,47.3433101 99.1395,47.3433101 C98.5004968,47.3433101 98.0055018,47.5578213 97.6545,47.98685 C97.3034982,48.4158788 97.128,49.024029 97.128,49.811319 C97.128,50.6074548 97.3012483,51.2178165 97.64775,51.6424223 C97.9942517,52.0670281 98.4914968,52.2793278 99.1395,52.2793278 C99.7875032,52.2793278 100.284748,52.0692396 100.63125,51.6490568 Z M109.2255,46.9319753 C109.2255,47.0735105 109.185,47.1862948 109.104,47.2703313 C109.023,47.3543679 108.883501,47.4052314 108.6855,47.4229233 L108.2805,47.4627299 C107.677497,47.5158056 107.229751,47.7258939 106.93725,48.093001 C106.644749,48.460108 106.4985,48.8913418 106.4985,49.3867153 L106.4985,52.6110495 C106.4985,52.7879685 106.449,52.9206559 106.35,53.0091154 C106.251,53.097575 106.120501,53.1418041 105.9585,53.1418041 C105.796499,53.1418041 105.663751,53.0953635 105.56025,53.002481 C105.456749,52.9095985 105.405,52.7791226 105.405,52.6110495 L105.405,47.0115885 C105.405,46.8435153 105.458999,46.7130395 105.567,46.6201569 C105.675001,46.5272744 105.805499,46.4808339 105.9585,46.4808339 C106.102501,46.4808339 106.224,46.5272744 106.323,46.6201569 C106.422,46.7130395 106.4715,46.8390924 106.4715,46.9983196 L106.4715,47.741376 C106.660501,47.352154 106.928248,47.055819 107.27475,46.8523621 C107.621252,46.6489051 108.019498,46.5294865 108.4695,46.4941027 L108.6585,46.4808339 C109.036502,46.454296 109.2255,46.604675 109.2255,46.9319753 Z M116.7735,49.0019182 L116.7735,52.6110495 C116.7735,52.7702766 116.72625,52.898541 116.63175,52.9958465 C116.53725,53.093152 116.409001,53.1418041 116.247,53.1418041 C116.084999,53.1418041 115.9545,53.093152 115.8555,52.9958465 C115.7565,52.898541 115.707,52.7702766 115.707,52.6110495 L115.707,51.9741439 C115.535999,52.35452 115.275002,52.6486435 114.924,52.8565235 C114.572998,53.0644034 114.168002,53.1683418 113.709,53.1683418 C113.285998,53.1683418 112.896752,53.0843065 112.54125,52.9162334 C112.185748,52.7481602 111.904501,52.513746 111.6975,52.2129835 C111.490499,51.9122211 111.387,51.5805028 111.387,51.2178186 C111.387,50.7312912 111.512999,50.3531323 111.765,50.0833307 C112.017001,49.8135291 112.430997,49.618921 113.007,49.4995006 C113.583003,49.3800803 114.383995,49.320371 115.41,49.320371 L115.707,49.320371 L115.707,48.8824984 C115.707,48.3517412 115.596751,47.962525 115.37625,47.7148383 C115.155749,47.4671516 114.798002,47.3433101 114.303,47.3433101 C113.690997,47.3433101 113.070003,47.5069578 112.44,47.8342581 C112.196999,47.9846393 112.026,48.0598288 111.927,48.0598288 C111.818999,48.0598288 111.729,48.0200226 111.657,47.940409 C111.585,47.8607954 111.549,47.7590685 111.549,47.6352251 C111.549,47.5113818 111.58725,47.4030204 111.66375,47.3101379 C111.74025,47.2172554 111.863999,47.1221628 112.035,47.0248573 C112.350002,46.8479382 112.707748,46.7086166 113.10825,46.6068881 C113.508752,46.5051596 113.906998,46.4542961 114.303,46.4542961 C115.950008,46.4542961 116.7735,47.303495 116.7735,49.0019182 Z M115.18725,51.7817454 C115.533752,51.4234843 115.707,50.9612901 115.707,50.395149 L115.707,50.0103519 L115.464,50.0103519 C114.671996,50.0103519 114.069002,50.0435238 113.655,50.1098684 C113.240998,50.1762131 112.946251,50.2867858 112.77075,50.44159 C112.595249,50.5963942 112.5075,50.8241741 112.5075,51.1249366 C112.5075,51.4699288 112.635749,51.7552065 112.89225,51.9807784 C113.148751,52.2063502 113.470498,52.3191344 113.8575,52.3191344 C114.397503,52.3191344 114.840748,52.1400065 115.18725,51.7817454 Z M123.7815,52.7172004 C123.7815,52.8675816 123.725251,52.9803658 123.61275,53.0555564 C123.500249,53.130747 123.331501,53.159496 123.1065,53.1418041 L122.742,53.1152663 C122.021996,53.0621906 121.491002,52.8498909 121.149,52.4783608 C120.806998,52.1068307 120.636,51.5451211 120.636,50.793215 L120.636,47.4627299 L119.7315,47.4627299 C119.578499,47.4627299 119.45925,47.4251351 119.37375,47.3499445 C119.28825,47.2747539 119.2455,47.1752384 119.2455,47.0513951 C119.2455,46.9187057 119.28825,46.8125559 119.37375,46.7329423 C119.45925,46.6533287 119.578499,46.6135225 119.7315,46.6135225 L120.636,46.6135225 L120.636,45.1141408 C120.636,44.9460676 120.6855,44.8155918 120.7845,44.7227093 C120.8835,44.6298267 121.018499,44.5833862 121.1895,44.5833862 C121.351501,44.5833862 121.482,44.6298267 121.581,44.7227093 C121.68,44.8155918 121.7295,44.9460676 121.7295,45.1141408 L121.7295,46.6135225 L123.228,46.6135225 C123.372001,46.6135225 123.48675,46.6533287 123.57225,46.7329423 C123.65775,46.8125559 123.7005,46.9187057 123.7005,47.0513951 C123.7005,47.1752384 123.65775,47.2747539 123.57225,47.3499445 C123.48675,47.4251351 123.372001,47.4627299 123.228,47.4627299 L121.7295,47.4627299 L121.7295,50.8462904 C121.7295,51.3328179 121.830749,51.6844393 122.03325,51.9011652 C122.235751,52.1178911 122.539498,52.2395211 122.9445,52.266059 L123.309,52.2925967 C123.624002,52.3191346 123.7815,52.4606677 123.7815,52.7172004 Z M126.51675,53.002481 C126.413249,52.9095985 126.3615,52.7791226 126.3615,52.6110495 L126.3615,47.0115885 C126.3615,46.8435153 126.413249,46.7130395 126.51675,46.6201569 C126.620251,46.5272744 126.752999,46.4808339 126.915,46.4808339 C127.077001,46.4808339 127.2075,46.5272744 127.3065,46.6201569 C127.4055,46.7130395 127.455,46.8435153 127.455,47.0115885 L127.455,52.6110495 C127.455,52.7879685 127.4055,52.9206559 127.3065,53.0091154 C127.2075,53.097575 127.077001,53.1418041 126.915,53.1418041 C126.752999,53.1418041 126.620251,53.0953635 126.51675,53.002481 Z M126.3885,44.9018389 C126.253499,44.7779956 126.186,44.6143479 126.186,44.4108909 C126.186,44.2162799 126.253499,44.0570552 126.3885,43.9332118 C126.523501,43.8093684 126.698999,43.7474477 126.915,43.7474477 C127.131001,43.7474477 127.306499,43.8093684 127.4415,43.9332118 C127.576501,44.0570552 127.644,44.2162799 127.644,44.4108909 C127.644,44.6143479 127.576501,44.7779956 127.4415,44.9018389 C127.306499,45.0256823 127.131001,45.087603 126.915,45.087603 C126.698999,45.087603 126.523501,45.0256823 126.3885,44.9018389 Z M136.2045,46.4941027 C136.339501,46.4941027 136.460999,46.5383318 136.569,46.6267914 C136.677001,46.7152509 136.731,46.8258237 136.731,46.958513 C136.731,47.0381266 136.713,47.1088932 136.677,47.1708148 L134.0445,52.7437381 C133.9905,52.8587355 133.909501,52.9494052 133.8015,53.0157498 C133.693499,53.0820945 133.576501,53.1152663 133.4505,53.1152663 C133.333499,53.1152663 133.221001,53.0820945 133.113,53.0157498 C133.004999,52.9494052 132.9195,52.8587355 132.8565,52.7437381 L130.2375,47.1708148 C130.2015,47.1088932 130.1835,47.0425495 130.1835,46.9717819 C130.1835,46.8390926 130.244249,46.7240969 130.36575,46.6267914 C130.487251,46.5294859 130.619999,46.4808339 130.764,46.4808339 C130.854,46.4808339 130.94175,46.5073713 131.02725,46.5604471 C131.11275,46.6135228 131.178,46.6887123 131.223,46.7860178 L133.4775,51.7618421 L135.732,46.8125555 C135.831,46.6002526 135.988499,46.4941027 136.2045,46.4941027 Z M144.7785,51.6954978 C144.8505,51.7751114 144.8865,51.8768383 144.8865,52.0006817 C144.8865,52.2218305 144.729002,52.4252844 144.414,52.6110495 C144.089998,52.7968145 143.748002,52.9361362 143.388,53.0290187 C143.027998,53.1219012 142.677002,53.1683418 142.335,53.1683418 C141.317995,53.1683418 140.514753,52.8720068 139.92525,52.2793278 C139.335747,51.6866489 139.041,50.8684104 139.041,49.8245878 C139.041,49.1611413 139.171499,48.5751056 139.4325,48.0664632 C139.693501,47.5578209 140.060248,47.1619703 140.53275,46.8788998 C141.005252,46.5958293 141.542997,46.4542961 142.146,46.4542961 C143.001004,46.4542961 143.680497,46.7285166 144.1845,47.2769658 C144.688503,47.8254149 144.9405,48.5684639 144.9405,49.5061351 C144.9405,49.6830542 144.9045,49.8113186 144.8325,49.8909321 C144.7605,49.9705457 144.643501,50.0103519 144.4815,50.0103519 L140.1345,50.0103519 C140.2155,51.5318561 140.948993,52.2925967 142.335,52.2925967 C142.686002,52.2925967 142.987499,52.2461561 143.2395,52.1532736 C143.491501,52.0603911 143.761499,51.9343381 144.0495,51.775111 C144.283501,51.6424217 144.441,51.576078 144.522,51.576078 C144.621,51.576078 144.7065,51.6158842 144.7785,51.6954978 Z M140.77575,47.8209892 C140.429248,48.1748274 140.2245,48.6746163 140.1615,49.320371 L143.982,49.320371 C143.964,48.6657703 143.797502,48.16377 143.4825,47.8143548 C143.167498,47.4649396 142.726503,47.2902346 142.1595,47.2902346 C141.583497,47.2902346 141.122252,47.4671511 140.77575,47.8209892 Z" id="youth-collaborative"></path>
                    </g>
                </g>
            </g>
        </g>
    </g>
</svg>