<?xml version="1.0" encoding="UTF-8"?>
<svg width="75px" height="75px" viewBox="0 0 75 75" version="1.1" xmlns="http://www.w3.org/2000/svg" xmlns:xlink="http://www.w3.org/1999/xlink">
    <!-- Generator: Sketch 50.2 (55047) - http://www.bohemiancoding.com/sketch -->
    <title>yinyang/yinyang</title>
    <desc>Created with Sketch.</desc>
    <defs></defs>
    <g id="Page-1" stroke="none" stroke-width="1" fill="none" fill-rule="evenodd">
        <g id="Artboard-1" transform="translate(-237.000000, -29.000000)" fill="#50E3C2">
            <g id="yinyang/yinyang" transform="translate(237.000000, 29.000000)">
                <path d="M61.3006466,12.111 C67.9451966,18.4479 72.0878966,27.38625 72.0878966,37.2945 C72.0878966,56.50725 56.5103966,72.0847508 37.2976466,72.0847508 C46.9043966,72.0847508 54.6938966,64.2975 54.6938966,54.6885 C54.6938966,45.08175 46.9066466,37.29525 37.3028966,37.29225 L37.2999641,37.29225 C27.6932141,37.29225 19.9037141,29.505 19.9037141,19.896 C19.9007891,10.29525 27.6879641,2.505 37.2969641,2.505 C18.0812141,2.505 2.50371863,18.0825 2.50371863,37.29825 C2.50371863,56.511 18.0812216,72.0885015 37.2969641,72.0885015 C56.5127216,72.0885015 72.0902141,56.511 72.0902141,37.29825 C72.0872891,27.39 67.9476641,18.4485 61.2999641,12.11175 L61.3006466,12.111 Z M32.9468966,54.69075 C32.9468966,52.288425 34.8951716,50.34015 37.2945716,50.34015 C39.6968966,50.34015 41.6422466,52.288425 41.6422466,54.69075 C41.6422466,57.093075 39.6939716,59.04135 37.2945716,59.04135 C34.8951716,59.04135 32.9468966,57.093075 32.9468966,54.69075 Z" id="Fill-1"></path>
                <path d="M41.6453966,19.90125 C41.6453966,22.303575 39.6971216,24.248925 37.2977216,24.248925 C34.8953966,24.248925 32.9471216,22.303575 32.9471216,19.90125 C32.9471216,17.498925 34.8953966,15.553575 37.2977216,15.553575 C39.6971216,15.553575 41.6453966,17.498925 41.6453966,19.90125" id="Fill-2"></path>
                <path d="M37.2976466,2.50485 C46.6051466,2.50485 55.0576466,6.1611 61.3006466,12.1116 C67.9451966,18.4485 72.0878966,27.38685 72.0878966,37.2951 C72.0878966,56.50785 56.5103966,72.08535 37.2946466,72.08535 C18.0788966,72.08535 2.50139963,56.50785 2.50139963,37.2951 C2.50432913,18.08235 18.0811466,2.50485 37.2976466,2.50485 L37.3064366,2.50485 L37.3152266,2.50485 L37.3415966,2.50485 C37.4001866,2.507775 37.4587841,2.507775 37.5173816,2.5107075 L37.5378866,2.5107075 L37.5173816,2.5107075 C37.4587841,2.507775 37.4001941,2.50485 37.3415966,2.50485 L37.3064366,2.50485 L37.2976466,2.50485 Z M37.2976466,0 C32.2644716,0 27.3773966,0.984375 22.7784041,2.93265 C18.3369791,4.810575 14.3499041,7.5 10.9246466,10.92465 C7.49939963,14.3493 4.81042538,18.33675 2.93265038,22.7814 C0.987300378,27.378075 0,32.26515 0,37.29765 C0,42.33375 0.987300378,47.2149 2.93265038,51.8139 C4.81057538,56.25825 7.49999963,60.2454 10.9246466,63.67065 C14.3494466,67.09545 18.3367466,69.7848728 22.7784041,71.6626485 C27.3780041,73.6079985 32.2621541,74.5952983 37.2976466,74.5952983 C42.3308216,74.5952983 47.2148966,73.6079985 51.8138966,71.6626485 C56.2553216,69.7847235 60.2423966,67.0953 63.6676466,63.67065 C67.0924466,60.24585 69.7818716,56.25855 71.6596466,51.8139 C73.6049966,47.2143 74.5922966,42.33015 74.5922966,37.29765 C74.5922966,32.106225 73.5464216,27.0819 71.4809966,22.36215 C69.4888466,17.803575 66.6440966,13.74615 63.0284966,10.30065 C56.0616716,3.6561 46.9237466,0.00015 37.2967541,0.00015 L37.2976466,0 Z" id="Fill-3"></path>
            </g>
        </g>
    </g>
</svg>