<?xml version="1.0" encoding="UTF-8"?>
<svg width="50px" height="50px" viewBox="0 0 50 50" version="1.1" xmlns="http://www.w3.org/2000/svg" xmlns:xlink="http://www.w3.org/1999/xlink">
    <!-- Generator: Sketch 50.2 (55047) - http://www.bohemiancoding.com/sketch -->
    <title>ticket/ticket-outline-black</title>
    <desc>Created with Sketch.</desc>
    <defs></defs>
    <g id="Page-1" stroke="none" stroke-width="1" fill="none" fill-rule="evenodd">
        <g id="Artboard-2" transform="translate(-667.000000, -396.000000)">
            <g id="ticket/ticket-outline-black" transform="translate(667.000000, 396.000000)">
                <rect id="Rectangle-3" fill-opacity="0.01" fill="#FFFFFF" x="0" y="0" width="50" height="50"></rect>
                <path d="M47.3293962,20.9071832 C47.6740053,20.8715768 47.9347725,20.5811078 47.9366322,20.234442 L47.9999643,9.7046008 C48.001824,9.52282204 47.9310434,9.33917228 47.8025148,9.2117626 C47.6777105,9.08058214 47.5044761,9 47.3237931,9 L3.93507811,9 C3.56066518,9 3,9.32419956 3,9.70085402 L3,20.5007895 C3,20.839981 3.37813722,21.128579 3.71343268,21.1754017 C5.71587183,21.4546255 8.0405738,22.8376093 7.82078813,25.8266373 C7.56931975,29.2354389 3.87737829,29.5465031 3.72649869,29.5577291 C3.37257653,29.5783436 3.00004769,29.8763061 3.00004769,30.2342602 L3.00004769,40.4532291 C3.00004769,40.8280269 3.56074196,41.1428571 3.93512579,41.1428571 L47.2623256,41.1428571 C47.634874,41.1428571 47.8248796,40.8280269 47.8248796,40.4513581 L47.8248796,29.9325509 C47.8248796,29.5933595 47.6311545,29.3066325 47.2977087,29.2579388 C47.1431006,29.2354533 43.5237756,28.6732301 43.5237756,25.1351382 C43.5237756,21.3646597 47.1784933,20.9243051 47.3293724,20.9074182 L47.3293962,20.9071832 Z M42.1025125,25.1349031 C42.1025125,28.5268179 44.4868222,30.0426564 46.39427,30.4926537 L46.39427,39.7032064 L36.3801691,39.7032064 L36.3801691,38.6350144 C36.3801691,38.2583408 36.0392891,37.9547413 35.6648762,37.9547413 C35.2904633,37.9547413 34.9495833,38.2602022 34.9495833,38.6350144 L34.9495833,39.7032064 L4.43041797,39.7032064 L4.43041797,30.8299118 C6.33786575,30.4944671 8.8134478,29.1845431 9.05373853,25.9235978 C9.30520691,22.5054412 7.29159059,20.5039606 4.43041797,19.9287509 L4.43041797,10.4389887 L34.9495833,10.4389887 L34.9495833,11.6345999 C34.9495833,12.0112736 35.2904633,12.3148731 35.6648762,12.3148731 C36.0392891,12.3148731 36.3801691,12.0094122 36.3801691,11.6345999 L36.3801691,10.4389887 L46.6436687,10.4389887 L46.5412197,19.6836031 C44.7529874,20.0902605 42.1023026,21.5556974 42.1023026,25.1349031 L42.1025125,25.1349031 Z M35.6648762,14.8111108 C35.2904633,14.8111108 34.9495833,15.1165717 34.9495833,15.491384 L34.9495833,19.348072 C34.9495833,19.7247457 35.2904633,20.0283451 35.6648762,20.0283451 C36.0392891,20.0283451 36.3801691,19.7228843 36.3801691,19.348072 L36.3801691,15.491384 C36.3801691,15.1147103 36.0392891,14.8111108 35.6648762,14.8111108 Z M35.6648762,30.2395901 C35.2904633,30.2395901 34.9495833,30.545051 34.9495833,30.9198633 L34.9495833,34.7765513 C34.9495833,35.153225 35.2904633,35.4568245 35.6648762,35.4568245 C36.0392891,35.4568245 36.3801691,35.1513636 36.3801691,34.7765513 L36.3801691,30.9198633 C36.3801691,30.5450654 36.0392891,30.2395901 35.6648762,30.2395901 Z M35.6648762,22.52631 C35.2904633,22.52631 34.9495833,22.8317708 34.9495833,23.2065831 L34.9495833,27.0632712 C34.9495833,27.438069 35.2904633,27.7435443 35.6648762,27.7435443 C36.0392891,27.7435443 36.3801691,27.4380834 36.3801691,27.0632712 L36.3801691,23.2065831 C36.3801691,22.8299094 36.0392891,22.52631 35.6648762,22.52631 Z" id="ticket" fill="#334146"></path>
            </g>
        </g>
    </g>
</svg>