<?xml version="1.0" encoding="UTF-8"?>
<svg width="57px" height="40px" viewBox="0 0 57 40" version="1.1" xmlns="http://www.w3.org/2000/svg" xmlns:xlink="http://www.w3.org/1999/xlink">
    <!-- Generator: Sketch 49.3 (51167) - http://www.bohemiancoding.com/sketch -->
    <title>icon/ticket/ticket-outline-white</title>
    <desc>Created with Sketch.</desc>
    <defs></defs>
    <g id="Page-1" stroke="none" stroke-width="1" fill="none" fill-rule="evenodd">
        <g id="Home-Splash-Page-edits" transform="translate(-381.000000, -1148.000000)" fill="#FFFFFF">
            <g id="to-do's" transform="translate(0.000000, 981.000000)">
                <g id="Group-2" transform="translate(118.000000, 167.000000)">
                    <g id="reserve" transform="translate(204.000000, 0.000000)">
                        <path d="M114.498564,14.817828 C114.93,14.7735178 115.25647,14.4120453 115.258798,13.9806389 L115.338088,0.876836556 C115.340416,0.650622981 115.251801,0.422081062 115.090889,0.263526785 C114.934639,0.100279998 114.717757,0 114.491549,0 L60.170679,0 C59.7019295,0 59,0.403448338 59,0.872173897 L59,14.3120937 C59,14.7341986 59.4734121,15.0933427 59.8931881,15.151611 C62.4001588,15.4990896 65.3105892,17.220136 65.0354267,20.9398153 C64.7205987,25.1818795 60.0984412,25.5689817 59.9095462,25.5829517 C59.4664503,25.6086053 59.0000597,25.9794031 59.0000597,26.4248572 L59.0000597,39.1417962 C59.0000597,39.6082113 59.7020257,40 60.1707387,40 L114.414595,40 C114.88101,40 115.118889,39.6082113 115.118889,39.1394678 L115.118889,26.0493967 C115.118889,25.6272918 114.876353,25.270476 114.458893,25.2098793 C114.26533,25.1818974 109.734085,24.4822419 109.734085,20.0792831 C109.734085,15.387132 114.30964,14.8391353 114.498534,14.8181205 L114.498564,14.817828 Z M107.954723,20.0789906 C107.954723,24.30004 110.939779,26.1864168 113.327825,26.7464135 L113.327825,38.2084346 L100.790586,38.2084346 L100.790586,36.8791291 C100.790586,36.4103796 100.363819,36.032567 99.8950693,36.032567 C99.4263198,36.032567 98.9995522,36.412696 98.9995522,36.8791291 L98.9995522,38.2084346 L60.7908239,38.2084346 L60.7908239,27.1661124 C63.1788694,26.7486702 66.2781954,25.1185426 66.5790294,21.0604773 C66.8938574,16.8067713 64.3728933,14.3160399 60.7908239,13.6002233 L60.7908239,1.79074155 L98.9995522,1.79074155 L98.9995522,3.27861326 C98.9995522,3.7473627 99.4263198,4.12517537 99.8950693,4.12517537 C100.363819,4.12517537 100.790586,3.7450463 100.790586,3.27861326 L100.790586,1.79074155 L113.640062,1.79074155 L113.5118,13.2951505 C111.273007,13.8012131 107.95446,15.6248679 107.95446,20.0789906 L107.954723,20.0789906 Z M99.8950693,7.23160459 C99.4263198,7.23160459 98.9995522,7.61173366 98.9995522,8.0781667 L98.9995522,12.8776007 C98.9995522,13.3463502 99.4263198,13.7241628 99.8950693,13.7241628 C100.363819,13.7241628 100.790586,13.3440338 100.790586,12.8776007 L100.790586,8.0781667 C100.790586,7.60941726 100.363819,7.23160459 99.8950693,7.23160459 Z M99.8950693,26.43149 C99.4263198,26.43149 98.9995522,26.811619 98.9995522,27.2780521 L98.9995522,32.0774861 C98.9995522,32.5462355 99.4263198,32.9240482 99.8950693,32.9240482 C100.363819,32.9240482 100.790586,32.5439191 100.790586,32.0774861 L100.790586,27.2780521 C100.790586,26.8116369 100.363819,26.43149 99.8950693,26.43149 Z M99.8950693,16.8327413 C99.4263198,16.8327413 98.9995522,17.2128704 98.9995522,17.6793034 L98.9995522,22.4787374 C98.9995522,22.9451526 99.4263198,23.3252996 99.8950693,23.3252996 C100.363819,23.3252996 100.790586,22.9451705 100.790586,22.4787374 L100.790586,17.6793034 C100.790586,17.210554 100.363819,16.8327413 99.8950693,16.8327413 Z" id="icon/ticket/ticket-outline-white"></path>
                    </g>
                </g>
            </g>
        </g>
    </g>
</svg>