<?xml version="1.0" encoding="UTF-8"?>
<svg width="32px" height="32px" viewBox="0 0 32 32" version="1.1" xmlns="http://www.w3.org/2000/svg" xmlns:xlink="http://www.w3.org/1999/xlink">
    <!-- Generator: Sketch 50.2 (55047) - http://www.bohemiancoding.com/sketch -->
    <title>happy/happy</title>
    <desc>Created with Sketch.</desc>
    <defs></defs>
    <g id="Page-1" stroke="none" stroke-width="1" fill="none" fill-rule="evenodd">
        <g id="Artboard" transform="translate(-159.000000, -246.000000)">
            <g id="happy/happy" transform="translate(159.000000, 246.000000)">
                <rect id="Rectangle" fill-opacity="0.01" fill="#FFFFFF" x="0" y="0" width="32" height="32"></rect>
                <g id="Group" fill="#334146">
                    <path d="M16,0 C7.17023256,0 0,7.17023256 0,16 C0,24.8327442 7.17023256,32 16,32 C24.8327442,32 32,24.8327442 32,16 C32,7.17023256 24.8327442,0 16,0 Z M16,0.744186047 C24.4301395,0.744186047 31.255814,7.57283721 31.255814,16 C31.255814,24.4316279 24.4316279,31.255814 16,31.255814 C7.57283721,31.255814 0.744186047,24.4301395 0.744186047,16 C0.744186047,7.57283721 7.57283721,0.744186047 16,0.744186047 Z" id="Fill-1"></path>
                    <path d="M5.20632558,18.5216744 C5.08859163,18.5187684 4.97522233,18.572547 4.90254512,18.6655702 C4.83132279,18.7600484 4.80661581,18.8821395 4.83858977,18.9955126 C6.15546419,23.9227684 10.6570084,27.5536521 15.9998921,27.5536521 C20.27152,27.5536521 24.0058456,25.2324242 26.0043572,21.7817451 C26.498534,20.9329265 26.8822735,20.0128521 27.1482456,19.0477172 L27.1482456,19.0462623 C27.1758623,18.9517842 27.1642344,18.8485879 27.1162679,18.7613805 C27.0668502,18.6741693 26.9854549,18.6116726 26.8895219,18.5840558 C26.7935926,18.557894 26.6918474,18.5709767 26.60464,18.6218456 C26.5188837,18.6712633 26.4563833,18.7526586 26.4316763,18.8500428 C26.1831293,19.7555684 25.8226716,20.6160335 25.3619088,21.4081823 L25.3619088,21.4067312 L25.3604577,21.4067312 C23.4898344,24.6349358 20.001574,26.8080335 16.0000856,26.8080335 C10.9958065,26.8080335 6.79078326,23.4097823 5.55841116,18.80208 L5.55841116,18.8035312 C5.51771163,18.6407405 5.37381953,18.5259163 5.20666791,18.5215553 L5.20632558,18.5216744 Z" id="Fill-2"></path>
                    <path d="M11.6684651,9.29488372 C10.1306791,9.29488372 8.68736744,10.7614512 8.68736744,13.3458605 C8.68591628,13.4446958 8.72515721,13.54208 8.79492465,13.6118474 C8.86469209,13.6830698 8.9606214,13.7237656 9.05946047,13.7237656 C9.1597507,13.7237656 9.25568,13.6830698 9.32544744,13.6118474 C9.39521488,13.54208 9.43300465,13.4446958 9.43155349,13.3458605 C9.43155349,11.0246326 10.5972465,10.0391814 11.6684651,10.0391814 C12.7396837,10.0391814 13.9053767,11.0246326 13.9053767,13.3458605 C13.9039256,13.4446958 13.9431665,13.54208 14.012934,13.6118474 C14.0827014,13.6830698 14.1786307,13.7237656 14.2774698,13.7237656 C14.37776,13.7237656 14.4722381,13.6830698 14.5434567,13.6118474 C14.6132242,13.54208 14.651014,13.4446958 14.6495628,13.3458605 C14.6495628,10.7615628 13.2062512,9.29488372 11.6684651,9.29488372 Z" id="Fill-3"></path>
                    <path d="M20.3315349,9.29488372 C18.7937488,9.29488372 17.3504372,10.7614512 17.3504372,13.3458605 C17.3489823,13.4446958 17.3867758,13.54208 17.4565433,13.6118474 C17.5263107,13.6830698 17.62224,13.7237656 17.7225302,13.7237656 C17.8213656,13.7237656 17.9172986,13.6830698 17.987066,13.6118474 C18.0568335,13.54208 18.0960781,13.4446958 18.0946233,13.3458605 C18.0946233,11.0246326 19.2603163,10.0391814 20.3315349,10.0391814 C21.4027535,10.0391814 22.5684465,11.0246326 22.5684465,13.3458605 C22.5669916,13.4446958 22.6047851,13.54208 22.6745526,13.6118474 C22.74432,13.6830698 22.8402493,13.7237656 22.9405395,13.7237656 C23.0393749,13.7237656 23.1353079,13.6830698 23.2050753,13.6118474 C23.2748428,13.54208 23.3140874,13.4446958 23.3126326,13.3458605 C23.3126326,10.7615628 21.8693209,9.29488372 20.3315349,9.29488372 Z" id="Fill-4"></path>
                </g>
            </g>
        </g>
    </g>
</svg>