<?xml version="1.0" encoding="UTF-8"?>
<svg width="100px" height="102px" viewBox="0 0 100 102" version="1.1" xmlns="http://www.w3.org/2000/svg" xmlns:xlink="http://www.w3.org/1999/xlink">
    <!-- Generator: Sketch 50.2 (55047) - http://www.bohemiancoding.com/sketch -->
    <title>rocket-graphic</title>
    <desc>Created with Sketch.</desc>
    <defs></defs>
    <g id="Page-1" stroke="none" stroke-width="1" fill="none" fill-rule="evenodd">
        <g id="Artboard-1" transform="translate(-19.000000, -18.000000)">
            <g id="rocket-graphic" transform="translate(19.000000, 18.000000)">
                <path d="M62.7609195,22.3483146 C62.7609195,7.98694382 53.2063218,1.55292135 52.8021839,1.28474157 L51.9625632,0.734090562 L51.1543793,1.32950697 C41.1193218,8.75212719 41.2495517,21.8200463 41.263,22.3701587 L41.263,56.4026306 L30.7475977,70.7823384 L30.7475977,88.1521362 L41.263,88.1521362 L41.263,91.3977991 C41.263,92.1902016 41.9050575,92.8303834 42.6997816,92.8303834 L50.5751839,92.8303834 L50.5751839,101.237818 L53.4487471,101.237818 L53.4487471,92.8303834 L61.3241494,92.8303834 C62.1188736,92.8303834 62.760931,92.1902016 62.760931,91.3977991 L62.760931,88.1521362 L73.2763333,88.1521362 L73.2763333,70.7823384 L62.760931,56.4072148 L62.7609195,22.3483146 Z M59.8873563,45.5561798 L44.1367816,45.5561798 L44.1367816,23.7808989 L59.8873563,23.7808989 L59.8873563,45.5561798 Z M44.1367816,48.4213483 L59.8873563,48.4213483 L59.8873563,63.0337079 L44.1367816,63.0337079 L44.1367816,48.4213483 Z M52.0301149,4.29316854 C54.0955172,5.99886067 59.3532184,11.2770742 59.8426437,20.9157303 L44.1955172,20.9157303 C44.4424598,17.6790067 45.6996552,9.55797303 52.0304598,4.29316854 L52.0301149,4.29316854 Z M33.6209195,85.2880449 L33.6209195,71.7140225 L41.2627586,61.2695663 L41.2627586,85.2877011 L33.6209195,85.2880449 Z M44.1363218,89.9662921 L44.1363218,65.8988764 L59.8868966,65.8988764 L59.8868966,89.9662921 L44.1363218,89.9662921 Z M70.4029885,71.7140225 L70.4029885,85.2880449 L62.7611494,85.2880449 L62.7611494,61.2698987 L70.4029885,71.7140225 Z" id="Fill-1" fill="#FB3780"></path>
                <path d="M52.0114943,40.5914157 C55.3385057,40.5914157 58.045977,37.8918539 58.045977,34.5745618 C58.045977,31.2572697 55.3385057,28.5577079 52.0114943,28.5577079 C48.6844828,28.5577079 45.9770115,31.2572697 45.9770115,34.5745618 C45.9770115,37.8918539 48.6844828,40.5914157 52.0114943,40.5914157 Z M52.0114943,31.4228764 C53.7535632,31.4228764 55.1724138,32.837582 55.1724138,34.5745618 C55.1724138,36.3115416 53.7535632,37.7262472 52.0114943,37.7262472 C50.2694253,37.7262472 48.8505747,36.3115416 48.8505747,34.5745618 C48.8505747,32.8331124 50.2694253,31.4228764 52.0114943,31.4228764 Z" id="Fill-2" fill="#FEAB14"></path>
                <polygon id="Fill-3" fill="#FEAB14" points="47.0505747 81.5724944 49.9241379 81.5724944 49.9241379 68.9565843 47.0505747 68.9565843"></polygon>
                <polygon id="Fill-4" fill="#FEAB14" points="47.0505747 86.7206292 49.9241379 86.7206292 49.9241379 83.282427 47.0505747 83.282427"></polygon>
                <polygon id="Fill-5" fill="#FEAB14" points="44.8770115 101.23901 47.7505747 101.23901 47.7505747 96.3189427 44.8770115 96.3189427"></polygon>
                <polygon id="Fill-6" fill="#FEAB14" points="56.1781609 101.23901 59.0517241 101.23901 59.0517241 96.3189427 56.1781609 96.3189427"></polygon>
                <polygon id="Fill-7" fill="#FEAB14" points="47.0505747 60.1685393 49.9241379 60.1685393 49.9241379 52.1460674 47.0505747 52.1460674"></polygon>
                <path d="M9.42873563,84.2623146 C9.42873563,84.857731 9.47363218,85.4621326 9.55894253,86.0619843 C4.66491954,86.7021661 0.870896552,90.8879596 0.870896552,95.9423461 L3.74445977,95.9423461 C3.74445977,92.0295573 6.93675862,88.8421146 10.8654943,88.8421146 C10.9283563,88.8421146 10.9912184,88.8465957 11.054069,88.8510769 L13.2361379,88.9540396 L12.6973448,87.0468688 C12.436931,86.1201701 12.3022299,85.1889789 12.3022299,84.2667384 C12.3022299,78.6169699 16.9133793,74.0237609 22.5752184,74.0237609 C24.2230345,74.0237609 25.7990115,74.3998085 27.2537241,75.1429645 L28.5647586,72.5911308 C26.7238391,71.6510002 24.654069,71.1540769 22.5752184,71.1540769 C15.3284368,71.1495957 9.42809195,77.032142 9.42809195,84.262796 L9.42873563,84.2623146 Z" id="Fill-8" fill="#CCD0D1"></path>
                <path d="M90.045977,79.2264944 C89.3410575,71.9158449 83.1449425,66.1853933 75.637931,66.1853933 L75.637931,69.0505618 C82.036092,69.0505618 87.2402299,74.2391528 87.2448276,80.511236 L87.2403333,82.1452989 L88.9240115,82.0647189 C88.9823793,82.0602378 89.0407471,82.0557566 89.0991149,82.0557566 C93.4768161,82.0557566 97.0372759,85.6059297 97.0372759,89.9707274 L99.9108391,89.9707274 C99.9063448,84.3433072 95.5646322,79.7098712 90.0464713,79.2263454 L90.045977,79.2264944 Z" id="Fill-9" fill="#CCD0D1"></path>
                <polygon id="Fill-10" fill="#00BCF5" points="30.7471264 47.7543371 33.6206897 47.7543371 33.6206897 29.9902921 30.7471264 29.9902921"></polygon>
                <polygon id="Fill-11" fill="#00BCF5" points="22.7011494 60.1685393 25.5747126 60.1685393 25.5747126 43.7431011 22.7011494 43.7431011"></polygon>
                <polygon id="Fill-12" fill="#00BCF5" points="69.6390805 47.7543371 72.5126437 47.7543371 72.5126437 29.9902921 69.6390805 29.9902921"></polygon>
                <polygon id="Fill-13" fill="#00BCF5" points="77.6850575 60.1685393 80.5586207 60.1685393 80.5586207 43.7431011 77.6850575 43.7431011"></polygon>
            </g>
        </g>
    </g>
</svg>