<?xml version="1.0" encoding="UTF-8"?>
<svg width="252px" height="66px" viewBox="0 0 252 66" version="1.1" xmlns="http://www.w3.org/2000/svg" xmlns:xlink="http://www.w3.org/1999/xlink">
    <!-- Generator: Sketch 50.2 (55047) - http://www.bohemiancoding.com/sketch -->
    <title>schedule-graphic</title>
    <desc>Created with Sketch.</desc>
    <defs></defs>
    <g id="Page-1" stroke="none" stroke-width="1" fill="none" fill-rule="evenodd">
        <g id="Artboard" transform="translate(-39.000000, -14.000000)">
            <g id="schedule-graphic" transform="translate(39.000000, 14.000000)">
                <g id="adventure">
                    <path d="M51.0252767,29.728163 C51.4599117,29.989622 51.5481948,30.5091499 51.2867358,30.9437501 C50.7638177,31.6398441 50.2443072,32.4208136 49.7213544,33.0286071 C49.5481785,33.2017831 49.2867195,33.374959 49.0252604,33.374959 C48.8520845,33.374959 48.6789085,33.286676 48.5023424,33.2017831 C48.1559905,32.9403241 48.0677074,32.3325131 48.4140594,31.986196 C48.9369774,31.3783851 49.3716471,30.6822911 49.8911229,29.9861797 C50.0710878,29.5549436 50.6788987,29.4666518 51.0252594,29.7281108 L51.0252767,29.728163 Z" id="Fill-1" fill="#334146"></path>
                    <path d="M42.505562,39.2058132 C41.809468,39.6404482 41.0284985,40.0750832 40.2440693,40.5097182 C40.0708933,40.5980012 39.9826103,40.5980012 39.8094343,40.5980012 C39.4630824,40.5980012 39.2016234,40.4248253 39.0284474,40.1633662 C38.7669884,39.7287313 38.9401643,39.2057785 39.3747993,38.9477792 C40.1557862,38.5131442 40.8518628,38.1667923 41.5479742,37.7321921 C41.9826092,37.470733 42.505562,37.643909 42.7635613,37.9936511 C43.0284192,38.421497 42.8552432,38.9444585 42.5055011,39.205848 L42.505562,39.2058132 Z" id="Fill-2" fill="#334146"></path>
                    <path d="M55.1099762,16.950764 C54.5870582,16.950764 54.2407063,16.516129 54.3289893,15.9931762 C54.4172724,15.2121893 54.4172724,14.3429542 54.4172724,13.4736842 C54.4172724,13.0390492 54.8519074,12.6044143 55.2865423,12.6044143 C55.8094604,12.6044143 56.1558123,13.0390492 56.1558123,13.4736842 C56.1558123,14.3429542 56.0675292,15.2122241 55.9826363,16.0814941 C55.9792462,16.6044121 55.6328943,16.950764 55.1099762,16.950764 C55.1982593,16.950764 55.1099762,16.950764 55.1099762,16.950764 Z" id="Fill-3" fill="#334146"></path>
                    <path d="M53.0254669,27.9053039 C52.8522909,28.2516558 52.5908319,28.4282219 52.24448,28.4282219 C52.1561969,28.4282219 51.983021,28.4282219 51.8981281,28.3399389 C51.4634931,28.1667629 51.2903171,27.6438449 51.4634931,27.2091925 C51.809845,26.5130985 52.1595871,25.732129 52.4210809,24.9476998 C52.5942568,24.5130649 53.1171749,24.2516058 53.5518272,24.4247818 C53.9864622,24.5979578 54.2479212,25.1208758 54.0747453,25.5555281 C53.7216043,26.2516221 53.3718623,27.1209095 53.0255364,27.9052517 L53.0254669,27.9053039 Z" id="Fill-4" fill="#334146"></path>
                    <path d="M46.3329576,36.4206723 C45.9866056,36.6821313 45.6368636,36.9435904 45.290529,37.2016592 C45.1173531,37.2899423 44.9441771,37.3748352 44.767611,37.3748352 C44.506152,37.3748352 44.244693,37.2865521 44.071517,37.0284833 C43.810058,36.6821313 43.810058,36.0708955 44.244693,35.8128962 C44.5910449,35.5514371 44.8525039,35.2899781 45.2022807,35.0319093 C45.5486327,34.7704503 45.8100917,34.5089912 46.0715507,34.2509224 C46.4179026,33.9045705 46.9408206,33.9045705 47.2871378,34.2509224 C47.6334897,34.5972743 47.6334897,35.1201923 47.2871378,35.4665095 C47.0290689,35.9011444 46.6793269,36.1626035 46.3329402,36.4207071 L46.3329576,36.4206723 Z" id="Fill-5" fill="#334146"></path>
                    <path d="M37.2056231,42.070927 C36.4246362,42.4172789 35.6402418,42.767021 34.8592896,43.1133555 C34.7710066,43.2016386 34.5978306,43.2016386 34.5129377,43.2016386 C34.1665858,43.2016386 33.8168437,43.0284626 33.7319508,42.6787205 C33.5587749,42.2440856 33.7319508,41.7211328 34.1665858,41.5479742 C34.9475727,41.2016223 35.7319671,40.8518802 36.4280785,40.5055457 C36.8627135,40.3323697 37.3856663,40.5055457 37.5588249,40.9401806 C37.8134949,41.3782145 37.6403189,41.8977684 37.2056839,42.070927 L37.2056231,42.070927 Z" id="Fill-6" fill="#334146"></path>
                    <path d="M10.6042241,52.9368014 C10.8656831,53.2831533 10.7774001,53.8943891 10.4310481,54.1523885 C9.73495416,54.6753065 9.12714323,55.194817 8.51934968,55.7177698 C8.34617372,55.8909457 8.17299776,55.9792288 7.91153874,55.9792288 C7.65007973,55.9792288 7.47690377,55.8909457 7.30372781,55.7177698 C6.95737589,55.3714179 7.04226879,54.8484998 7.39201087,54.5021827 C7.9998218,53.8943717 8.69591579,53.3714363 9.39202716,52.8519606 C9.73498024,52.4173256 10.3428346,52.5022185 10.6042241,52.9368535 L10.6042241,52.9368014 Z" id="Fill-7" fill="#334146"></path>
                    <path d="M3.56574533,59.1990221 C3.91209725,58.4180352 4.43501528,57.7219586 4.95796808,57.0258472 C5.2194271,56.6794953 5.82723803,56.5912122 6.17355518,56.8526712 C6.5199071,57.1141303 6.60819015,57.7219412 6.34673114,58.0682583 C5.91209616,58.6760693 5.47746119,59.3721633 5.13114404,60.0682746 C4.95796808,60.3297337 4.69650907,60.5029096 4.35015715,60.5029096 C4.17698119,60.5029096 4.08869813,60.5029096 3.91552217,60.4146266 C3.5657801,60.1531675 3.3892053,59.6336397 3.5657801,59.1990395 L3.56574533,59.1990221 Z" id="Fill-8" fill="#334146"></path>
                    <path d="M14.6046044,49.6370526 C15.0392394,49.4638767 15.5621922,49.5487696 15.7353508,49.9834046 C15.9085267,50.4180395 15.8236338,50.9409923 15.3889988,51.1141509 C14.608012,51.5487859 13.9119353,51.8951378 13.215824,52.329738 C13.042648,52.4180211 12.954365,52.4180211 12.781189,52.4180211 C12.51973,52.4180211 12.1733781,52.2448451 12.0002021,51.9833861 C11.7387431,51.5487511 11.911919,51.0257983 12.346554,50.767799 C13.0392579,50.4180569 13.7353866,49.9834219 14.6046566,49.6370526 L14.6046044,49.6370526 Z" id="Fill-9" fill="#334146"></path>
                    <path d="M19.9932088,47.113562 C20.4278438,46.940386 20.9507966,47.113562 21.1239552,47.5481969 C21.2971138,47.9828319 21.1239552,48.5057847 20.6893202,48.6789433 C19.9083333,49.0252952 19.1239389,49.3750373 18.3429868,49.6365311 C18.2547037,49.7248141 18.0815277,49.7248141 17.9966348,49.7248141 C17.6502829,49.7248141 17.3888239,49.5516382 17.2156479,49.2018961 C17.042472,48.7672611 17.2156479,48.2443083 17.6502829,48.0711497 C18.427871,47.8096907 19.2122741,47.4633388 19.9932262,47.113562 L19.9932088,47.113562 Z" id="Fill-10" fill="#334146"></path>
                    <path d="M31.0320679,42.7672122 C31.4667029,42.5940363 31.9896557,42.7672122 32.1628143,43.2901303 C32.3359902,43.7247652 32.1628143,44.247718 31.6398962,44.4208766 C30.8589093,44.7672285 30.0745149,45.0286875 29.2935628,45.3784644 C29.2052797,45.3784644 29.1203868,45.4667474 28.9472109,45.4667474 C28.6008589,45.4667474 28.2511169,45.2935715 28.166224,44.9438294 C27.993048,44.5091944 28.254507,43.9862416 28.689142,43.8130831 C29.4667301,43.463341 30.2511332,43.1169891 31.0320853,42.7672644 L31.0320679,42.7672122 Z" id="Fill-11" fill="#334146"></path>
                    <path d="M25.554798,44.9403871 C25.9894329,44.7672111 26.5123857,45.0286702 26.6855443,45.4633051 C26.8587029,45.8979401 26.5972613,46.4208929 26.1626263,46.5940515 C25.3816394,46.8555105 24.597245,47.2018624 23.8162928,47.5516393 C23.7280098,47.5516393 23.6431169,47.6399223 23.4699409,47.6399223 C23.123589,47.6399223 22.7738469,47.4667463 22.688954,47.1170043 C22.5157781,46.6823693 22.7772371,46.1594165 23.2118721,45.9862579 C23.9928589,45.5482241 24.7738632,45.2901639 25.5548153,44.9404393 L25.554798,44.9403871 Z" id="Fill-12" fill="#334146"></path>
                    <path d="M54.2407063,22.7740034 L54.0675303,22.7740034 C53.6328953,22.6857203 53.2865434,22.1661925 53.4597194,21.7315749 C53.6328953,20.950588 53.8060713,20.1661935 53.9826374,19.2969236 C54.0709205,18.8622886 54.5055554,18.5159367 55.0250659,18.6008296 C55.4597009,18.6891127 55.8060528,19.1237476 55.7211599,19.6432581 C55.547984,20.5125281 55.374808,21.381798 55.1982419,22.1627502 C54.9367829,22.5124922 54.590431,22.7739512 54.2406541,22.7739512 L54.2407063,22.7740034 Z" id="Fill-13" fill="#334146"></path>
                    <path d="M3.73873005,65.0222615 C3.73873005,65.4568964 3.30409508,65.8032484 2.8694601,65.8032484 L2.78117705,65.8032484 C2.25825902,65.8032484 1.9119071,65.3686134 2.00019015,64.8456606 C2.08847321,63.9763906 2.17336611,63.1071207 2.34654207,62.3261686 C2.43482513,61.8915336 2.95435301,61.5451817 3.38897059,61.7183576 C3.82360557,61.8066407 4.16995749,62.3261686 3.99678153,62.7607861 C3.91188862,63.4568801 3.82360557,64.2378496 3.73871267,65.0222788 L3.73873005,65.0222615 Z" id="Fill-14" fill="#334146"></path>
                    <path d="M59.7179762,9.73495416 C59.5448003,9.90813012 59.2833413,9.99641317 59.1101653,9.99641317 C58.9369893,9.99641317 58.6755303,9.90813012 58.5023544,9.73495416 L55.3715917,6.60419151 L52.1559883,9.73495416 C51.9828124,9.90813012 51.7213533,9.99641317 51.5481774,9.99641317 C51.3750014,9.99641317 51.1135424,9.90813012 50.9403665,9.73495416 C50.5940145,9.38860224 50.5940145,8.86568421 50.9403665,8.51936706 L54.0711291,5.38860441 L50.9403665,2.25784177 C50.5940145,1.91148985 50.5940145,1.38857182 50.9403665,1.04225467 C51.2867184,0.69590275 51.8096364,0.69590275 52.1559535,1.04225467 L55.2867162,4.17301732 L58.4174788,1.04225467 C58.7638308,0.69590275 59.2867488,0.69590275 59.6330659,1.04225467 C59.9794179,1.38860659 59.9794179,1.91152462 59.6330659,2.25784177 L56.5023033,5.38860441 L59.6330659,8.51936706 C59.9794179,8.86571898 59.9794179,9.38863701 59.7179502,9.73495416 L59.7179762,9.73495416 Z" id="Fill-15" fill="#FB3780"></path>
                    <path d="M14.9505739,16.6047946 C15.2969258,16.9511465 15.2969258,17.4740645 14.9505739,17.8203817 C14.7773979,17.9935576 14.5159389,18.0818407 14.3427629,18.0818407 C14.0813039,18.0818407 13.9081279,17.9935576 13.734952,17.8203817 L9.21544367,13.3008733 L9.21544367,22.1665576 C9.21544367,22.6894756 8.86909175,23.0358275 8.34617372,23.0358275 C7.82325569,23.0358275 7.47690377,22.6894756 7.47690377,22.1665576 L7.47690377,13.3008733 L2.95739545,17.8203817 C2.61104353,18.1667336 2.0881255,18.1667336 1.74180835,17.8203817 C1.39545643,17.4740297 1.39545643,16.9511117 1.74180835,16.6047946 L7.48038085,10.8662221 L7.48038085,8.25841222 L2.96087253,12.7779205 C2.78090757,13.0393796 2.51944856,13.0393796 2.3462726,13.0393796 C2.08481358,13.0393796 1.91163762,12.9510965 1.73846166,12.7779205 C1.39210975,12.4315686 1.39210975,11.9086506 1.73846166,11.5623334 L7.47703416,5.82376095 L7.47703416,3.2159511 L2.95413569,7.82377725 C2.60778377,8.17012917 2.08486574,8.17012917 1.73854859,7.82377725 C1.39223144,7.47742533 1.39219667,6.9545073 1.73854859,6.60819015 L7.73512041,0.611618336 C7.90829637,0.438442377 8.08147233,0.350159321 8.34293134,0.350159321 C8.60439036,0.350159321 8.77756632,0.438442377 8.95074228,0.611618336 L14.9473141,6.60819015 C15.293666,6.95454207 15.293666,7.4774601 14.9473141,7.82377725 C14.7741381,7.99695321 14.5126791,8.08523626 14.3395032,8.08523626 C14.0780441,8.08523626 13.9048682,7.99695321 13.7316922,7.82377725 L9.2121839,3.30426893 L9.2121839,5.91207878 L14.9507564,11.6506513 C15.2971083,11.9970032 15.2971083,12.5199212 14.9507564,12.8662384 C14.6044045,13.2125903 14.0814865,13.2125903 13.7351693,12.8662384 L9.21566098,8.34673005 L9.21566098,10.9545399 L14.9505739,16.6047946 Z" id="Fill-16" fill="#444B94"></path>
                    <path d="M35.3784177,16.6047946 C35.7247696,16.9511465 35.7247696,17.4740645 35.3784177,17.8203817 C35.0320657,18.1667336 34.5091477,18.1667336 34.1628306,17.8203817 L29.5550044,13.3008733 L29.5550044,22.1665576 C29.5550044,22.6894756 29.2086525,23.0358275 28.6857345,23.0358275 C28.1628164,23.0358275 27.8164645,22.6894756 27.8164645,22.1665576 L27.8164645,13.3008733 L23.2969562,17.8203817 C23.1237802,17.9935576 22.8623212,18.0818407 22.6891453,18.0818407 C22.4276862,18.0818407 22.2545103,17.9935576 22.0813343,17.8203817 C21.7349824,17.4740297 21.7349824,16.9511117 22.0813343,16.6047946 L27.8199068,10.8662221 L27.8199068,8.25841222 L23.3003985,12.7779205 C22.9540466,13.1242725 22.4311286,13.1242725 22.0848114,12.7779205 C21.7384595,12.4315686 21.7384595,11.9086506 22.0848114,11.5623334 L27.8233839,5.82376095 L27.8233839,3.2159511 L23.381936,7.82377725 C23.2087601,7.99695321 22.9473011,8.08523626 22.7741251,8.08523626 C22.5126661,8.08523626 22.3394901,7.99695321 22.1663142,7.82377725 C21.8199622,7.47742533 21.8199622,6.9545073 22.1663142,6.60819015 L28.162886,0.611618336 C28.251169,0.52333528 28.3360619,0.438442377 28.424345,0.438442377 C28.512628,0.350159321 28.685804,0.350159321 28.7706969,0.350159321 C28.85898,0.350159321 29.0321559,0.350159321 29.1170488,0.438442377 C29.2053319,0.526725433 29.2902248,0.526725433 29.3785078,0.611618336 L35.3750797,6.60819015 C35.7214316,6.95454207 35.7214316,7.4774601 35.3750797,7.82377725 C35.0287277,8.17012917 34.5058097,8.17012917 34.1594926,7.82377725 L29.5550566,3.2159511 L29.5550566,5.82376095 L35.2936291,11.5623334 C35.639981,11.9086854 35.639981,12.4316034 35.2936291,12.7779205 C35.205346,13.0393796 34.943887,13.0393796 34.682428,13.0393796 C34.420969,13.0393796 34.247793,12.9510965 34.074617,12.7779205 L29.5551087,8.25841222 L29.5551087,10.8662221 L35.3784177,16.6047946 Z" id="Fill-17" fill="#444B94"></path>
                    <path d="M61.8911511,58.4140713 C62.237503,58.7604232 62.237503,59.2833413 61.8911511,59.6296584 C61.7179751,59.8028344 61.4565161,59.8911174 61.2833402,59.8911174 C61.0218812,59.8911174 60.8487052,59.8028344 60.6755292,59.6296584 L56.1560209,55.1101501 L56.1560209,63.9758343 C56.1560209,64.4987523 55.809669,64.8451042 55.286751,64.8451042 C54.7638329,64.8451042 54.417481,64.4987523 54.417481,63.9758343 L54.417481,55.1101501 L49.8979727,59.6296584 C49.5516208,59.9760103 49.0287028,59.9760103 48.6823856,59.6296584 C48.3360337,59.2833065 48.3360337,58.7603885 48.6823856,58.4140713 L54.4209581,52.6754988 L54.4209581,50.067689 L49.9014498,54.5871973 C49.5550979,54.9335492 49.0321798,54.9335492 48.6858627,54.5871973 C48.3395108,54.2408454 48.3395108,53.7179273 48.6858627,53.3716102 L54.4244352,47.6330377 L54.4244352,45.0252278 L49.8947564,49.5481263 C49.5484045,49.8944782 49.0254865,49.8944782 48.6791693,49.5481263 C48.3328522,49.2017744 48.3328174,48.6788564 48.6791693,48.3325392 L54.6757411,42.3359674 C54.8489171,42.1627914 55.022093,42.0745084 55.2835521,42.0745084 C55.5450111,42.0745084 55.718187,42.1627914 55.891363,42.3359674 L61.8879348,48.3325392 C62.2342867,48.6788911 62.2342867,49.2018092 61.8879348,49.5481263 C61.7147588,49.7213023 61.4532998,49.8095853 61.2801239,49.8095853 C61.0186649,49.8095853 60.8454889,49.7213023 60.6723129,49.5481263 L56.1528046,45.028618 L56.1528046,47.6364278 L61.8913771,53.3750003 C62.237729,53.7213523 62.237729,54.2442703 61.8913771,54.5905874 C61.7182012,54.7637634 61.4567421,54.8520465 61.2835662,54.8520465 C61.0221072,54.8520465 60.8489312,54.7637634 60.6757552,54.5905874 L56.1562469,50.0710791 L56.1562469,52.678889 L61.8911511,58.4140713 Z" id="Fill-18" fill="#444B94"></path>
                    <path d="M23.6432733,29.5551783 C23.6432733,29.0322602 23.9896253,28.6859083 24.5125433,28.6859083 C25.0354613,28.6859083 25.3818132,29.0322602 25.3818132,29.5551783 C25.3818132,30.3361652 25.9896242,31.0322418 26.8588767,31.0322418 C27.7281293,31.0322418 28.3359402,30.4244308 28.3359402,29.5551783 C28.3359402,29.0322602 28.6822922,28.6859083 29.2052102,28.6859083 C29.7281282,28.6859083 30.0744801,29.0322602 30.0744801,29.5551783 C30.0744801,30.3361652 30.6822911,31.0322418 31.5515436,31.0322418 C32.4207962,31.0322418 33.0286071,30.4244308 33.0286071,29.5551783 C33.0286071,29.0322602 33.374959,28.6859083 33.8978771,28.6859083 C34.4207951,28.6859083 34.767147,29.0322602 34.767147,29.5551783 C34.767147,31.2937182 33.3749243,32.7707817 31.5515436,32.7707817 C30.6822737,32.7707817 29.8130037,32.4244297 29.2052102,31.7283531 C28.5973993,32.3361641 27.8129874,32.7707817 26.8588767,32.7707817 C25.901289,32.7707817 25.1203368,32.4244297 24.5125433,31.7283531 C23.9047324,32.3361641 23.1203205,32.7707817 22.1662098,32.7707817 C21.2086221,32.7707817 20.4276699,32.4244297 19.8198764,31.7283531 C19.2120655,32.3361641 18.4276537,32.7707817 17.473543,32.7707817 C16.604273,32.7707817 15.7350031,32.4244297 15.1272095,31.7283531 C14.5193986,32.3361641 13.7349868,32.7707817 12.7808761,32.7707817 C11.8232883,32.7707817 11.0423362,32.4244297 10.4345426,31.7283531 C9.82673168,32.3361641 9.04231986,32.7707817 8.08820917,32.7707817 C7.21893922,32.7707817 6.34966927,32.4244297 5.74187572,31.7283531 C5.13406479,32.3361641 4.34965297,32.7707817 3.39554228,32.7707817 C1.65700238,32.7707817 0.179938879,31.3785589 0.179938879,29.5551783 C0.179938879,29.0322602 0.526290798,28.6859083 1.04920883,28.6859083 C1.57212686,28.6859083 1.91847878,29.0322602 1.91847878,29.5551783 C1.91847878,30.3361652 2.52628971,31.0322418 3.39554228,31.0322418 C4.25802323,31.0322418 5.21561969,30.3361478 5.21561969,29.5551783 C5.21561969,29.0322602 5.56197161,28.6859083 6.08488964,28.6859083 C6.60780767,28.6859083 6.95415959,29.0322602 6.95415959,29.5551783 C6.95415959,30.3361652 7.56197053,31.0322418 8.43122309,31.0322418 C9.30047565,31.0322418 9.90828659,30.4244308 9.90828659,29.5551783 C9.90828659,29.0322602 10.2546385,28.6859083 10.7775565,28.6859083 C11.3004746,28.6859083 11.6468265,29.0322602 11.6468265,29.5551783 C11.6468265,30.3361652 12.2546374,31.0322418 13.12389,31.0322418 C13.9931425,31.0322418 14.6009535,30.4244308 14.6009535,29.5551783 C14.6009535,29.0322602 14.9473054,28.6859083 15.4702234,28.6859083 C15.9931415,28.6859083 16.3394934,29.0322602 16.3394934,29.5551783 C16.3394934,30.3361652 16.9473043,31.0322418 17.8165569,31.0322418 C18.6858094,31.0322418 19.2936204,30.4244308 19.2936204,29.5551783 C19.2936204,29.0322602 19.6399723,28.6859083 20.1628903,28.6859083 C20.6858084,28.6859083 21.0321603,29.0322602 21.0321603,29.5551783 C21.0321603,30.3361652 21.6399712,31.0322418 22.5092238,31.0322418 C23.3818839,31.0322418 23.6433603,30.3361478 23.6433603,29.5551783 L23.6432733,29.5551783 Z" id="Fill-19" fill="#00BAEF"></path>
                </g>
                <g id="yoga/tree" transform="translate(94.000000, 0.000000)">
                    <rect id="Rectangle" fill-opacity="0.01" fill="#FFFFFF" x="0" y="0" width="64" height="64"></rect>
                    <g id="tree" transform="translate(20.000000, 0.000000)" fill="#334146">
                        <path d="M6.96832579,14.5332127 C6.96832579,17.5083439 9.392,19.9262986 12.3727059,19.9262986 C15.3450136,19.9262986 17.7601448,17.505448 17.7601448,14.5332127 C17.7601448,11.5580814 15.34219,9.13730317 12.3727059,9.13730317 C9.3919276,9.13730317 6.96832579,11.5581538 6.96832579,14.5332127 Z M12.3727059,12.0332308 C13.7471131,12.0332308 14.8642172,13.1559819 14.8642172,14.5332127 C14.8642172,15.9104434 13.7471131,17.030371 12.3727059,17.030371 C10.9897557,17.030371 9.86425339,15.9104434 9.86425339,14.5332127 C9.86425339,13.1531584 10.9898281,12.0332308 12.3727059,12.0332308 Z" id="Fill-1"></path>
                        <path d="M9.75131222,0.658968326 C9.12065882,0.166885068 8.20155656,0.291323077 7.70664253,0.919152941 C3.41082353,6.39991312 -1.02892308,12.0648543 0.529013575,17.6134516 C1.27847964,20.243533 3.32597285,22.5964742 5.30562896,24.8728181 C5.3169448,24.8841339 5.32825339,24.8926118 5.34239276,24.9067584 C5.3848181,24.9520072 5.43005973,24.9916018 5.47813937,25.0311964 C5.50924887,25.0566443 5.53753484,25.0849231 5.5686371,25.1075548 C5.61954751,25.1443186 5.67610498,25.1754281 5.73549321,25.2037068 C5.76660271,25.2178462 5.79488145,25.2376398 5.82599095,25.2517792 C5.89951855,25.2828887 5.97870769,25.3083439 6.05506606,25.3281376 C6.0720362,25.3309683 6.08900633,25.3394534 6.1031457,25.3422769 C6.19929774,25.3620778 6.29828054,25.3733864 6.40009412,25.3733864 L18.3428995,25.3733864 C18.4447059,25.3733864 18.5436887,25.3620778 18.639848,25.3422769 C18.6568181,25.3394534 18.6766118,25.3309683 18.6935819,25.325314 C18.7699403,25.3055131 18.8462986,25.2828887 18.9198262,25.2517864 C18.9509357,25.2376398 18.9792145,25.2178462 19.0074932,25.2037068 C19.0640507,25.1725973 19.1206154,25.1443186 19.1743493,25.1075548 C19.2054588,25.0849303 19.2309068,25.0594751 19.2620163,25.0368507 C19.3100887,24.9972633 19.3581683,24.954838 19.4005937,24.9067584 C19.4119023,24.8954498 19.4232181,24.8869647 19.4345267,24.8756489 C21.4170063,22.5934407 23.4673231,20.2347801 24.1941285,17.6162824 C25.7750154,12.053495 21.309495,6.38008326 16.9939113,0.893748416 C16.4990045,0.265918552 15.5883729,0.155648869 14.9605357,0.650533937 C14.3327059,1.14544072 14.2224362,2.0560724 14.7173213,2.6839095 C18.5861357,7.60191855 22.5848326,12.6835475 21.4056833,16.8326878 C20.8966371,18.6681267 19.3072941,20.5968145 17.6783348,22.4803258 L7.0560724,22.4803258 C5.42711312,20.599638 3.83775566,18.6709502 3.31171041,16.8298643 C2.14935747,12.7009231 6.13125792,7.62153846 10.0028959,2.68108597 C10.5034643,2.04760181 10.381857,1.15109502 9.75119638,0.659004525 L9.75131222,0.658968326 Z" id="Fill-2"></path>
                        <path d="M16.1368326,63.5178288 C16.9371946,63.5178288 17.5847964,62.8702052 17.5847964,62.069865 L17.5847964,40.1549321 C17.5847964,39.3545701 16.9371729,38.7069683 16.1368326,38.7069683 L8.60307692,38.7069683 C8.58893756,38.7069683 8.57196742,38.7126226 8.55782805,38.7126226 C8.50692489,38.7154534 8.45884525,38.7211077 8.40794208,38.726762 C8.36269321,38.7324235 8.31744434,38.7380778 8.27219548,38.7493864 C8.22694661,38.7607023 8.18735204,38.7748416 8.14210317,38.788981 C8.09403077,38.8031204 8.04595113,38.8200905 8.00352579,38.8398842 C7.96393122,38.8568543 7.92999819,38.8794787 7.89323439,38.8992796 C7.84798552,38.9247276 7.79990588,38.9530063 7.75748778,38.9841231 C7.74617919,38.9926009 7.73203982,38.9982624 7.72072398,39.0067475 C4.81350226,41.2522498 2.07026244,43.3704036 1.70544796,45.9467656 C1.21054118,49.5779692 5.48086878,52.4371186 10.0059005,55.4635077 L11.615095,53.0568471 C8.36847059,50.8820778 4.32749321,48.1784398 4.5760362,46.3458968 C4.76268597,45.0308561 7.07884163,43.1671819 9.10092308,41.6004127 L14.6920181,41.6004127 L14.6920181,62.0673788 C14.6891873,62.8705643 15.3368109,63.5181662 16.1371584,63.5181662 L16.1368326,63.5178288 Z" id="Fill-3"></path>
                    </g>
                </g>
                <g id="network/network-color" transform="translate(188.000000, 0.000000)">
                    <rect id="Rectangle" fill-opacity="0.01" fill="#FFFFFF" x="0" y="0" width="64" height="64"></rect>
                    <path d="M31.9656353,11.787252 C35.18895,11.787252 37.8657169,9.11615459 37.8657169,5.89362601 C37.8657169,2.67383814 35.1916937,0 31.9656353,0 C28.7423207,0 26.0655537,2.67109743 26.0655537,5.89362601 C26.0655537,9.11608607 28.7422521,11.787252 31.9656353,11.787252 Z M31.9656353,2.60723885 C33.8170932,2.60723885 35.3255869,4.11408203 35.3255869,5.96351415 C35.3255869,7.81294627 33.8170932,9.31978945 31.9656353,9.31978945 C30.1141774,9.31978945 28.6056837,7.81294627 28.6056837,5.96351415 C28.6056837,4.11408203 30.1141774,2.60723885 31.9656353,2.60723885 Z M31.9656353,52.2127466 C28.7423207,52.2127466 26.0655537,54.883844 26.0655537,58.1063726 C26.0655537,61.3261625 28.7395769,64 31.9656353,64 C35.18895,64 37.8657169,61.3289026 37.8657169,58.1063726 C37.8657169,54.8839126 35.1890186,52.2127466 31.9656353,52.2127466 Z M31.9656353,61.3927618 C30.1141774,61.3927618 28.6056837,59.8859187 28.6056837,58.0364845 C28.6056837,56.1870524 30.1141774,54.6802092 31.9656353,54.6802092 C33.8170932,54.6802092 35.3255869,56.1870524 35.3255869,58.0364845 C35.3255869,59.8859187 33.8170932,61.3927618 31.9656353,61.3927618 Z M0,32.4789386 C0,35.6987265 2.67402322,38.3725647 5.90008229,38.3725647 C9.12339696,38.3725647 11.8001639,35.7014672 11.8001639,32.4789386 C11.8001639,29.2591508 9.12614068,26.5853126 5.90008229,26.5853126 C2.67676625,26.5879917 0,29.1895367 0,32.4789386 Z M9.19281292,32.4789386 C9.19281292,34.3283708 7.68431921,35.835214 5.83286131,35.835214 C3.98140272,35.835214 2.4729097,34.3283708 2.4729097,32.4789386 C2.4729097,30.6295065 3.98140272,29.1226633 5.83286131,29.1226633 C7.68431921,29.1226633 9.19281292,30.6295065 9.19281292,32.4789386 Z M52.1998368,32.4789386 C52.1998368,35.6987265 54.87386,38.3725647 58.0999184,38.3725647 C61.3232331,38.3725647 64,35.7014672 64,32.4789386 C64,29.2591508 61.3259768,26.5853126 58.0999184,26.5853126 C54.8739286,26.5879917 52.1998368,29.1895367 52.1998368,32.4789386 Z M58.0999184,29.1226633 C59.9513763,29.1226633 61.45987,30.6295065 61.45987,32.4789386 C61.45987,34.3283708 59.9513763,35.835214 58.0999184,35.835214 C56.2484605,35.835214 54.7399668,34.3283708 54.7399668,32.4789386 C54.7372848,30.6295065 56.2457854,29.1226633 58.0999184,29.1226633 Z M17.6973646,17.7473403 C20.0284236,15.4188318 20.0284236,11.7172268 17.6973646,9.38885538 C15.3663056,7.06034689 11.6606461,7.06034689 9.32972422,9.38885538 C6.99880238,11.7173639 6.99866519,15.4189688 9.32972422,17.7473403 C10.4952537,18.9115945 12.0037474,19.460285 13.5149849,19.460285 C15.0234786,19.460285 16.5319723,18.8446938 17.6975704,17.7473403 L17.6973646,17.7473403 Z M10.1521524,13.5693311 C10.1521524,12.6780518 10.4951165,11.8563865 11.1113546,11.2408227 C11.7276201,10.6252314 12.5529017,10.2826699 13.4424136,10.2826699 C14.3346693,10.2826699 15.1572346,10.6252589 15.7734727,11.2408227 C16.3897382,11.8564139 16.7326749,12.6807925 16.7326749,13.5693311 C16.7326749,14.4606105 16.3897107,15.2822758 15.7734727,15.8978396 C15.1572072,16.5134308 14.3319256,16.8559924 13.4424136,16.8559924 C12.550158,16.8559924 11.7275927,16.5134034 11.1113546,15.8978396 C10.4950891,15.2822484 10.1521524,14.4578698 10.1521524,13.5693311 Z M54.6009977,46.2516306 C52.2699387,43.9231221 48.5642792,43.9231221 46.2333573,46.2516306 C43.9022983,48.5801391 43.9022983,52.281744 46.2333573,54.6101155 C47.3988868,55.7743697 48.9073805,56.3230602 50.418618,56.3230602 C51.9271117,56.3230602 53.4356054,55.7743834 54.6038786,54.6101155 C56.8653159,52.281607 56.8653159,48.580002 54.6012035,46.2516306 L54.6009977,46.2516306 Z M52.7495398,52.7608204 C51.4473734,54.0615621 49.3198979,54.0615621 48.0177314,52.7608204 C47.4014659,52.1452292 47.0585292,51.3208506 47.0585292,50.4323119 C47.0585292,49.5410325 47.4014934,48.7193672 48.0177314,48.1038034 C48.6339969,47.4882122 49.4592785,47.1456507 50.3487904,47.1456507 C51.2410461,47.1456507 52.0636114,47.4882396 52.6798495,48.1038034 C54.0517062,49.4018729 54.0517062,51.4574065 52.7495124,52.7608889 L52.7495398,52.7608204 Z M13.8580862,56.6657861 C15.3665799,56.6657861 16.8750737,56.1171094 18.0433469,54.9528415 C19.1419298,53.8554606 19.7581678,52.3486174 19.7581678,50.7721601 C19.7581678,49.1957029 19.1419023,47.6888597 18.0433469,46.5914788 C15.7122879,44.2629703 12.0066283,44.2629703 9.6757065,46.5914788 C8.5771236,47.6888597 7.96088553,49.1957029 7.96088553,50.7721601 C7.96088553,52.3486174 8.57715103,53.8554606 9.6757065,54.9528415 C10.8385609,56.0502223 12.3470546,56.6657861 13.858292,56.6657861 L13.8580862,56.6657861 Z M11.4573369,48.4436516 C12.0736024,47.8280604 12.898884,47.4854989 13.7883959,47.4854989 C14.6806516,47.4854989 15.5032169,47.8280878 16.1194549,48.4436516 C16.7357204,49.0592429 17.0786572,49.8836215 17.0786572,50.7721601 C17.0786572,51.6634395 16.735693,52.4851048 16.1194549,53.1006686 C14.8172885,54.4014103 12.689813,54.4014103 11.3876466,53.1006686 C10.7713811,52.4850774 10.4284443,51.6606988 10.4284443,50.7721601 C10.4954321,49.8835529 10.8383963,49.0592154 11.4573369,48.4436516 Z M50.7589756,19.8025313 C52.3371597,19.8025313 53.8456534,19.1869401 54.9442363,18.0895866 C56.0428192,16.9922057 56.6590572,15.4853626 56.6590572,13.9089053 C56.6590572,12.332448 56.0427917,10.8256049 54.9442363,9.72822398 C53.8456534,8.6308431 52.3371597,8.0152793 50.7589756,8.0152793 C49.1807916,8.0152793 47.6722979,8.63087051 46.573715,9.72822398 C45.4751321,10.8256049 44.858894,12.332448 44.858894,13.9089053 C44.858894,15.4853626 45.4751595,16.9922057 46.573715,18.0895866 C47.6722979,19.1869675 49.1834667,19.8025313 50.7589756,19.8025313 Z M48.4279166,11.5132562 C49.0441821,10.897665 49.8694637,10.5551035 50.7589756,10.5551035 C51.6512313,10.5551035 52.4737966,10.8976924 53.0900346,11.5132562 C53.7063001,12.1288474 54.0492369,12.9532261 54.0492369,13.8417647 C54.0492369,14.7330441 53.7062727,15.5547094 53.0900346,16.1702732 C52.4737692,16.7858644 51.6484876,17.128426 50.7589756,17.128426 C49.86672,17.128426 49.0441547,16.785837 48.4279166,16.1702732 C47.8116511,15.554682 47.4687143,14.7303034 47.4687143,13.8417647 C47.3990515,13.0200994 47.7420156,12.1984341 48.4279166,11.5132562 Z" id="network" fill="#FB3780"></path>
                    <path d="M35.9447059,33.2327028 L35.9443629,33.2326617 C36.4936544,33.9847815 38.0691633,35.1517079 41.8471197,36.0403151 C44.1112321,36.5890124 45.2767479,38.7141601 45.0704343,41.7278464 C45.0034877,42.343424 44.4541963,42.8921007 43.7682679,42.8921007 L43.698605,42.8921007 C43.0126903,42.8224866 42.4634126,42.2069228 42.5330755,41.5217449 C42.6000221,40.5635922 42.5330755,38.8506475 41.2978556,38.5080586 C36.3598572,37.2073101 34.3717624,35.4943722 33.6161437,34.2605039 C33.0695959,34.397005 32.5202907,34.4665917 31.971013,34.4665917 L31.9013501,34.4665917 L31.8316872,34.4665917 L31.7620243,34.4665917 C31.2796795,34.4665917 30.8000921,34.3996772 30.3204773,34.3300906 C29.4980491,35.633573 27.5099543,37.2769036 22.6387653,38.5107719 C21.4035454,38.7837468 21.3338825,40.4966914 21.4035454,41.5244582 C21.4732357,42.2096361 20.9239443,42.8252273 20.2380159,42.894814 L20.168353,42.894814 C19.4824521,42.894814 18.9358495,42.4157376 18.8661866,41.7305598 C18.6598593,38.7141258 19.8950792,36.5917051 22.0895012,36.0430284 C25.7254704,35.151749 27.3733173,34.0571088 27.9895828,33.3023169 C27.7162953,33.0962017 27.4403188,32.8205272 27.1670175,32.547525 C24.6966053,29.7400771 25.0395695,25.0803057 25.1092324,24.531629 C25.3825062,18.9805919 29.4283862,17.6102636 31.8988259,17.6798503 C34.2995753,17.6099621 38.4151181,18.9805919 38.6884194,24.531629 C38.7581098,25.0804565 39.101074,29.7371994 36.6306343,32.547525 C36.4243207,32.8205272 36.2180072,33.026615 35.9447059,33.2327028 Z M31.8961508,32.0684486 L31.8961371,32.0684486 C33.1312883,31.998903 34.0235577,31.6563141 34.5701603,30.9041943 C36.0813703,29.1912497 36.148358,25.9045884 36.0117074,24.8072075 L36.0117074,24.7376209 C35.8053801,20.3535514 32.5123751,20.2839647 31.8264467,20.2839647 L31.7567839,20.2839647 L31.6201332,20.2839647 C30.7306213,20.2839647 27.7805668,20.6265536 27.5742532,24.7376209 L27.5742532,24.8072075 C27.5073066,25.9714618 27.5073066,29.1912497 29.0158003,30.9041943 C29.7017287,31.656273 30.6609309,32.0684486 31.8961508,32.0684486 C31.8291699,32.0684486 31.8961508,32.0684486 31.8961508,32.0684486 Z" id="Combined-Shape" fill="#334146"></path>
                </g>
            </g>
        </g>
    </g>
</svg>