<?xml version="1.0" encoding="UTF-8"?>
<svg width="32px" height="32px" viewBox="0 0 32 32" version="1.1" xmlns="http://www.w3.org/2000/svg" xmlns:xlink="http://www.w3.org/1999/xlink">
    <!-- Generator: Sketch 50.2 (55047) - http://www.bohemiancoding.com/sketch -->
    <title>hammock/hammock</title>
    <desc>Created with Sketch.</desc>
    <defs></defs>
    <g id="Page-1" stroke="none" stroke-width="1" fill="none" fill-rule="evenodd">
        <g id="Artboard" transform="translate(-190.000000, -72.000000)">
            <g id="hammock/hammock" transform="translate(190.000000, 72.000000)">
                <rect id="Rectangle" fill-opacity="0.01" fill="#FFFFFF" x="0" y="0" width="32" height="32"></rect>
                <g id="Group-2" transform="translate(0.000000, 5.000000)" fill="#334146">
                    <path d="M30.8903111,7.82222222 C31.1819769,7.83194311 31.44448,8.00416711 31.57088,8.26805333 C31.6972693,8.53194311 31.6653227,8.84305778 31.4903253,9.07776 C28.8681031,12.7694933 26.2917476,15.5680711 23.7015253,17.5111822 L24.0126364,18.4556089 C24.4070898,18.6306098 24.9376498,18.8459022 25.4015076,19.0778311 C25.6973404,19.2264427 25.9515164,19.36672 26.2015076,19.5778133 C26.3265067,19.6833707 26.4501191,19.8000356 26.5570631,20.0111644 C26.6640071,20.2222756 26.7306738,20.5931022 26.6015076,20.8778311 C26.4695644,21.1625529 26.1820587,21.3403378 25.8681742,21.3333689 C24.3390009,21.3055893 23.2751076,21.3000356 22.4348587,21.3000356 L22.4237476,21.3000356 C21.8931876,21.2917013 21.6487431,20.9611484 21.4793209,20.7333511 C21.3098773,20.5055751 21.1890418,20.2652978 21.0570987,19.9888889 C20.9612658,19.7874987 20.8668196,19.5499911 20.7682098,19.3222222 C17.3223787,20.9888889 13.8266987,21.04304 10.5239431,19.4444444 C6.99199644,17.73472 3.67807644,14.2430222 0.4794976,9.03342222 C0.323942044,8.79453156 0.311440711,8.49038222 0.444775467,8.23896889 C0.5781088,7.98619022 0.837842133,7.82787556 1.12395769,7.82229333 C1.41006969,7.81395911 1.67951324,7.96396089 1.82397511,8.2112 C2.42536178,9.19036444 3.03090844,10.08896 3.635104,10.9334044 C3.96288356,11.1250702 4.27538844,11.3250844 4.60178844,11.5000889 C4.764288,10.8695467 5.07400178,10.3445333 5.50177067,9.97788444 C5.96427733,9.58204444 6.54205511,9.40704 7.12399289,9.4112 C7.38926933,9.41536711 7.65871289,9.44592356 7.91289956,9.52231111 C9.43652622,9.98065778 10.7198329,11.60704 10.879584,13.9447111 C12.1823751,14.2530453 13.4920996,14.42944 14.7906951,14.4891378 C14.7976391,14.4849707 14.8045831,14.4808036 14.8129173,14.4780267 C15.5906951,14.0821867 17.0948729,13.34608 18.5572729,12.9113778 C19.1975573,12.7210987 19.8211662,12.5780444 20.4350329,12.5780444 C20.5225316,12.5780444 20.6030898,12.5835982 20.6905884,12.5891556 C21.2961351,12.6308231 21.976704,12.919712 22.3350329,13.4891378 C24.3489351,12.8794311 26.2628551,11.9988622 28.223744,10.78912 C28.8793173,9.97660444 29.5473707,9.10300444 30.2126507,8.16689778 C30.3640391,7.94328533 30.619584,7.81273244 30.8904107,7.82245333 L30.8903111,7.82222222 Z M6.03484444,13.9445333 C7.76263111,15.8445511 9.49735111,17.20288 11.2124444,18.0334222 C14.1416178,19.4514844 17.0222222,19.4181333 20.1233778,17.8889778 C19.8539342,17.3125867 19.5636622,16.7625778 19.2789333,16.4000889 C18.959488,15.9931556 18.7345067,15.8945244 18.5789156,15.9001067 C14.3858489,16.4306667 10.2162489,15.7862187 6.03456,13.9445333 L6.03484444,13.9445333 Z M25.2348444,14.1112 C24.45984,14.4389796 23.6792889,14.7209067 22.8792889,14.9667378 L23.1904,15.9111644 C23.8653867,15.3764444 24.5473422,14.7833778 25.2348444,14.1111644 L25.2348444,14.1112 Z" id="Fill-1"></path>
                    <path d="M11.6416,0 C13.0582756,0 14.2207644,1.16807111 14.2207644,2.57500444 C14.2263218,2.98890667 13.84992,3.37084444 13.4346667,3.37084444 C13.0193778,3.37084444 12.6429867,2.98890667 12.6485689,2.57500444 C12.6485689,2.00832 12.2027378,1.56945778 11.6416356,1.56945778 C11.0805333,1.56945778 10.6471822,2.00835556 10.6471822,2.57500444 C10.6471822,3.14165333 11.0735644,3.56807111 11.6416356,3.56807111 L19.8083911,3.56807111 C20.22368,3.56251378 20.6056178,3.93752889 20.6056178,4.35278222 C20.6056178,4.76807111 20.22368,5.14307556 19.8083911,5.13749333 L11.5680356,5.13749333 C10.1611022,5.14027022 9.10830222,3.66666667 9.07498667,2.57500444 C9.07498667,1.16807111 10.2249956,0 11.6416711,0 L11.6416,0 Z" id="Fill-2"></path>
                    <path d="M22.8138667,5.89013333 C23.0249778,5.88457956 23.2291556,5.96652089 23.3805511,6.11374578 C23.5319396,6.26096711 23.6166613,6.46374756 23.6166613,6.67346133 C23.6166613,6.88457244 23.5319396,7.08736356 23.3805511,7.23456356 C23.2291627,7.38178489 23.0249956,7.46372978 22.8138667,7.458176 L13.2067556,7.458176 C12.9956444,7.46373333 12.7914667,7.38178844 12.6400711,7.23456356 C12.4900693,7.08734222 12.4039609,6.88456178 12.4039609,6.67346133 C12.4039609,6.46374044 12.4900729,6.26094578 12.6400711,6.11374578 C12.7914596,5.96652444 12.9956267,5.88457956 13.2067556,5.89013333 L22.8138667,5.89013333 Z" id="Fill-3"></path>
                    <path d="M10.9237333,5.89013333 C11.1348444,5.88457956 11.3390222,5.96652089 11.4904178,6.11374578 C11.6404196,6.26096711 11.7251413,6.46374756 11.7251413,6.67346133 C11.7251413,6.88457244 11.6404196,7.08736356 11.4904178,7.23456356 C11.3390293,7.38178489 11.1348622,7.46372978 10.9237333,7.458176 L10.2695822,7.458176 C10.0584711,7.46373333 9.85429333,7.38178844 9.70289778,7.23456356 C9.55150933,7.08734222 9.46678756,6.88456178 9.46678756,6.67346133 C9.46678756,6.46374044 9.55150933,6.26094578 9.70289778,6.11374578 C9.85428622,5.96652444 10.0584533,5.88457956 10.2695822,5.89013333 L10.9237333,5.89013333 Z" id="Fill-4"></path>
                    <path d="M8.24995556,5.89013333 C8.46106667,5.88457956 8.66524444,5.96652089 8.81664,6.11374578 C8.96664178,6.26096711 9.05275022,6.46374756 9.05275022,6.67346133 C9.05275022,6.88457244 8.96663822,7.08736356 8.81664,7.23456356 C8.66525156,7.38178489 8.46108444,7.46372978 8.24995556,7.458176 L7.41383111,7.458176 L7.41522133,7.458176 C7.20272,7.46373333 6.99854578,7.38178844 6.84853689,7.23456356 C6.69714844,7.08734222 6.61242667,6.88456178 6.61242667,6.67346133 C6.61242667,6.46374044 6.69714844,6.26094578 6.84853689,6.11374578 C6.99853867,5.96652444 7.20270222,5.88457956 7.41522133,5.89013333 L8.25134578,5.89013333 L8.24995556,5.89013333 Z" id="Fill-5"></path>
                </g>
            </g>
        </g>
    </g>
</svg>